<svg width="720" height="184" viewBox="0 0 720 184" fill="none" xmlns="http://www.w3.org/2000/svg">
<path d="M5.00927 29.3407H18.8297C20.9977 29.3407 22.1165 28.2219 22.1165 26.0786V13.8539C22.1165 11.7088 20.9977 10.5918 18.8297 10.5918H5.00927C2.84124 10.5918 1.71423 11.7005 1.71423 13.8539V26.0786C1.71423 28.2302 2.84124 29.3407 5.00927 29.3407ZM4.98154 27.3728C4.13819 27.3728 3.68216 26.9405 3.68216 26.0569V16.7765C3.68216 15.9012 4.13819 15.4624 4.98154 15.4624H18.841C19.6843 15.4624 20.1485 15.9012 20.1485 16.7765V26.0569C20.1485 26.9405 19.6843 27.3728 18.841 27.3728H4.98154ZM9.98699 18.9437H10.5797C10.9366 18.9437 11.0525 18.8378 11.0525 18.4809V17.8882C11.0525 17.5312 10.9366 17.4171 10.5797 17.4171H9.98699C9.63001 17.4171 9.50585 17.5312 9.50585 17.8882V18.4809C9.50585 18.8378 9.63001 18.9437 9.98699 18.9437ZM13.2694 18.9437H13.862C14.219 18.9437 14.345 18.8378 14.345 18.4809V17.8882C14.345 17.5312 14.219 17.4171 13.862 17.4171H13.2694C12.9124 17.4171 12.7883 17.5312 12.7883 17.8882V18.4809C12.7883 18.8378 12.9124 18.9437 13.2694 18.9437ZM16.5536 18.9437H17.1462C17.5032 18.9437 17.6273 18.8378 17.6273 18.4809V17.8882C17.6273 17.5312 17.5032 17.4171 17.1462 17.4171H16.5536C16.1966 17.4171 16.0807 17.5312 16.0807 17.8882V18.4809C16.0807 18.8378 16.1966 18.9437 16.5536 18.9437ZM6.70461 22.1759H7.28719C7.65422 22.1759 7.77014 22.07 7.77014 21.713V21.1204C7.77014 20.7634 7.65422 20.6575 7.28719 20.6575H6.70461C6.33757 20.6575 6.22166 20.7634 6.22166 21.1204V21.713C6.22166 22.07 6.33757 22.1759 6.70461 22.1759ZM9.98699 22.1759H10.5797C10.9366 22.1759 11.0525 22.07 11.0525 21.713V21.1204C11.0525 20.7634 10.9366 20.6575 10.5797 20.6575H9.98699C9.63001 20.6575 9.50585 20.7634 9.50585 21.1204V21.713C9.50585 22.07 9.63001 22.1759 9.98699 22.1759ZM13.2694 22.1759H13.862C14.219 22.1759 14.345 22.07 14.345 21.713V21.1204C14.345 20.7634 14.219 20.6575 13.862 20.6575H13.2694C12.9124 20.6575 12.7883 20.7634 12.7883 21.1204V21.713C12.7883 22.07 12.9124 22.1759 13.2694 22.1759ZM16.5536 22.1759H17.1462C17.5032 22.1759 17.6273 22.07 17.6273 21.713V21.1204C17.6273 20.7634 17.5032 20.6575 17.1462 20.6575H16.5536C16.1966 20.6575 16.0807 20.7634 16.0807 21.1204V21.713C16.0807 22.07 16.1966 22.1759 16.5536 22.1759ZM6.70461 25.4163H7.28719C7.65422 25.4163 7.77014 25.304 7.77014 24.9452V24.3544C7.77014 23.9956 7.65422 23.8915 7.28719 23.8915H6.70461C6.33757 23.8915 6.22166 23.9956 6.22166 24.3544V24.9452C6.22166 25.304 6.33757 25.4163 6.70461 25.4163ZM9.98699 25.4163H10.5797C10.9366 25.4163 11.0525 25.304 11.0525 24.9452V24.3544C11.0525 23.9956 10.9366 23.8915 10.5797 23.8915H9.98699C9.63001 23.8915 9.50585 23.9956 9.50585 24.3544V24.9452C9.50585 25.304 9.63001 25.4163 9.98699 25.4163ZM13.2694 25.4163H13.862C14.219 25.4163 14.345 25.304 14.345 24.9452V24.3544C14.345 23.9956 14.219 23.8915 13.862 23.8915H13.2694C12.9124 23.8915 12.7883 23.9956 12.7883 24.3544V24.9452C12.7883 25.304 12.9124 25.4163 13.2694 25.4163Z" fill="black"/>
<path d="M28.875 25.5V24.2969L32.8438 20.3047C34.3438 18.8047 34.6797 18.2109 34.6797 17.3359V17.3203C34.6719 16.25 33.8594 15.4844 32.7188 15.4844C31.3984 15.4844 30.4531 16.375 30.4375 17.5156V17.5625H28.7812V17.5156C28.7812 15.5 30.4922 14.0391 32.6953 14.0391C34.8594 14.0391 36.4062 15.3984 36.4062 17.2188V17.2344C36.4062 18.5234 35.8047 19.4375 33.7812 21.4375L31.2188 23.9531V24.0234H36.5859V25.5H28.875ZM42.2031 25.6875C39.7109 25.6875 37.9453 24.3516 37.9453 22.4453V22.4297C37.9453 21.0078 38.9688 19.8828 40.4375 19.5625V19.5234C39.1797 19.1641 38.3594 18.2266 38.3594 17.0312V17.0156C38.3594 15.2969 39.9609 14.0391 42.2031 14.0391C44.4453 14.0391 46.0547 15.2969 46.0547 17.0156V17.0312C46.0547 18.2266 45.2344 19.1641 43.9766 19.5234V19.5625C45.4453 19.8828 46.4609 21.0078 46.4609 22.4297V22.4453C46.4609 24.3516 44.7031 25.6875 42.2031 25.6875ZM42.2031 18.9375C43.4609 18.9375 44.3203 18.2109 44.3203 17.1875V17.1719C44.3203 16.1406 43.4531 15.4219 42.2031 15.4219C40.9531 15.4219 40.0938 16.1406 40.0938 17.1719V17.1875C40.0938 18.2109 40.9531 18.9375 42.2031 18.9375ZM42.2031 24.2891C43.6406 24.2891 44.6641 23.4688 44.6641 22.3281V22.3125C44.6641 21.1641 43.6484 20.3359 42.2031 20.3359C40.7578 20.3359 39.7422 21.1641 39.7422 22.3125V22.3281C39.7422 23.4688 40.7656 24.2891 42.2031 24.2891ZM52.125 16.0156C51.5781 16.0156 51.1406 15.5781 51.1406 15.0469C51.1406 14.5078 51.5781 14.0703 52.125 14.0703C52.6797 14.0703 53.1094 14.5078 53.1094 15.0469C53.1094 15.5781 52.6797 16.0156 52.125 16.0156ZM50.2812 28.25C50.1484 28.25 50 28.2422 49.8906 28.2344V26.8516C49.9688 26.8516 50.0469 26.8594 50.1328 26.8594C50.9688 26.8594 51.2812 26.5938 51.2812 25.7656V17.2812H52.9688V25.7812C52.9688 27.4531 52.1016 28.25 50.2812 28.25ZM57.5078 25.6641C55.7031 25.6641 54.6719 24.5 54.6719 22.6094V17.2812H56.3594V22.2812C56.3594 23.5234 56.9375 24.2109 58.1094 24.2109C59.2969 24.2109 60.0625 23.3594 60.0625 22.0781V17.2812H61.7578V25.5H60.0625V24.2656H60.0234C59.5938 25.0938 58.7578 25.6641 57.5078 25.6641ZM64.3438 16.0156C63.7969 16.0156 63.3594 15.5781 63.3594 15.0469C63.3594 14.5078 63.7969 14.0703 64.3438 14.0703C64.8984 14.0703 65.3281 14.5078 65.3281 15.0469C65.3281 15.5781 64.8984 16.0156 64.3438 16.0156ZM63.5 25.5V17.2812H65.1875V25.5H63.5ZM66.9297 25.5V17.2812H68.6172V18.5234H68.6562C69.0859 17.6875 69.9297 17.125 71.1719 17.125C72.9766 17.125 74.0156 18.2891 74.0156 20.1797V25.5H72.3203V20.5C72.3203 19.2656 71.7422 18.5703 70.5703 18.5703C69.3828 18.5703 68.6172 19.4297 68.6172 20.7109V25.5H66.9297ZM78.9375 25.5V24.2969L82.9062 20.3047C84.4062 18.8047 84.7422 18.2109 84.7422 17.3359V17.3203C84.7344 16.25 83.9219 15.4844 82.7812 15.4844C81.4609 15.4844 80.5156 16.375 80.5 17.5156V17.5625H78.8438V17.5156C78.8438 15.5 80.5547 14.0391 82.7578 14.0391C84.9219 14.0391 86.4688 15.3984 86.4688 17.2188V17.2344C86.4688 18.5234 85.8672 19.4375 83.8438 21.4375L81.2812 23.9531V24.0234H86.6484V25.5H78.9375ZM92.3047 25.6875C89.6094 25.6875 88 23.4453 88 19.8672V19.8516C88 16.2734 89.6094 14.0391 92.3047 14.0391C94.9922 14.0391 96.6094 16.2734 96.6094 19.8516V19.8672C96.6094 23.4453 94.9922 25.6875 92.3047 25.6875ZM92.3047 24.2266C93.9062 24.2266 94.8438 22.5703 94.8438 19.8672V19.8516C94.8438 17.1484 93.9062 15.5078 92.3047 15.5078C90.6953 15.5078 89.7656 17.1484 89.7656 19.8516V19.8672C89.7656 22.5703 90.6953 24.2266 92.3047 24.2266ZM98.0469 25.5V24.2969L102.016 20.3047C103.516 18.8047 103.852 18.2109 103.852 17.3359V17.3203C103.844 16.25 103.031 15.4844 101.891 15.4844C100.57 15.4844 99.625 16.375 99.6094 17.5156V17.5625H97.9531V17.5156C97.9531 15.5 99.6641 14.0391 101.867 14.0391C104.031 14.0391 105.578 15.3984 105.578 17.2188V17.2344C105.578 18.5234 104.977 19.4375 102.953 21.4375L100.391 23.9531V24.0234H105.758V25.5H98.0469ZM111.25 25.6875C108.844 25.6875 107.273 24.375 107.117 22.5391L107.109 22.4375H108.789L108.797 22.5234C108.906 23.5234 109.852 24.2266 111.25 24.2266C112.625 24.2266 113.555 23.4609 113.555 22.3672V22.3516C113.555 21.0781 112.633 20.3672 111.125 20.3672H109.758V19.0078H111.078C112.367 19.0078 113.242 18.25 113.242 17.2031V17.1875C113.242 16.1016 112.508 15.4688 111.234 15.4688C109.984 15.4688 109.109 16.125 109 17.1719L108.992 17.2422H107.352L107.359 17.1641C107.531 15.2812 109.031 14.0391 111.234 14.0391C113.477 14.0391 114.945 15.2266 114.945 16.9609V16.9766C114.945 18.375 113.945 19.3125 112.57 19.6016V19.6406C114.227 19.7891 115.336 20.7891 115.336 22.3672V22.3828C115.336 24.3125 113.641 25.6875 111.25 25.6875ZM120.328 21.6875V20.1641H125.352V21.6875H120.328ZM133.289 25.5V15.9609H133.25L130.305 17.9922V16.3359L133.273 14.2266H135V25.5H133.289ZM140.602 25.5V15.9609H140.562L137.617 17.9922V16.3359L140.586 14.2266H142.312V25.5H140.602ZM145.086 25.5V14.2266H146.773V18.6328H146.812C147.25 17.6797 148.133 17.125 149.359 17.125C151.117 17.125 152.273 18.4375 152.273 20.4219V25.5H150.586V20.7422C150.586 19.3828 149.898 18.5703 148.711 18.5703C147.547 18.5703 146.773 19.4609 146.773 20.7422V25.5H145.086ZM157.891 25.6875C155.484 25.6875 153.914 24.375 153.758 22.5391L153.75 22.4375H155.43L155.438 22.5234C155.547 23.5234 156.492 24.2266 157.891 24.2266C159.266 24.2266 160.195 23.4609 160.195 22.3672V22.3516C160.195 21.0781 159.273 20.3672 157.766 20.3672H156.398V19.0078H157.719C159.008 19.0078 159.883 18.25 159.883 17.2031V17.1875C159.883 16.1016 159.148 15.4688 157.875 15.4688C156.625 15.4688 155.75 16.125 155.641 17.1719L155.633 17.2422H153.992L154 17.1641C154.172 15.2812 155.672 14.0391 157.875 14.0391C160.117 14.0391 161.586 15.2266 161.586 16.9609V16.9766C161.586 18.375 160.586 19.3125 159.211 19.6016V19.6406C160.867 19.7891 161.977 20.7891 161.977 22.3672V22.3828C161.977 24.3125 160.281 25.6875 157.891 25.6875ZM167.742 25.6875C165.047 25.6875 163.438 23.4453 163.438 19.8672V19.8516C163.438 16.2734 165.047 14.0391 167.742 14.0391C170.43 14.0391 172.047 16.2734 172.047 19.8516V19.8672C172.047 23.4453 170.43 25.6875 167.742 25.6875ZM167.742 24.2266C169.344 24.2266 170.281 22.5703 170.281 19.8672V19.8516C170.281 17.1484 169.344 15.5078 167.742 15.5078C166.133 15.5078 165.203 17.1484 165.203 19.8516V19.8672C165.203 22.5703 166.133 24.2266 167.742 24.2266ZM176.938 21.6875V20.1641H181.961V21.6875H176.938ZM187.211 25.5V14.2266H194.25V15.7344H188.961V19.3047H193.805V20.7812H188.961V25.5H187.211ZM198.82 25.6641C196.461 25.6641 194.922 24.0312 194.922 21.3906V21.375C194.922 18.75 196.477 17.125 198.812 17.125C201.156 17.125 202.719 18.7422 202.719 21.375V21.3906C202.719 24.0391 201.172 25.6641 198.82 25.6641ZM198.828 24.25C200.148 24.25 200.992 23.2031 200.992 21.3906V21.375C200.992 19.5781 200.133 18.5391 198.812 18.5391C197.516 18.5391 196.648 19.5781 196.648 21.375V21.3906C196.648 23.2109 197.508 24.25 198.828 24.25ZM204.023 25.5V17.2812H205.711V18.6875H205.75C206.016 17.7266 206.703 17.125 207.641 17.125C207.883 17.125 208.094 17.1641 208.227 17.1875V18.7578C208.094 18.7031 207.797 18.6641 207.469 18.6641C206.383 18.6641 205.711 19.375 205.711 20.6016V25.5H204.023ZM212.07 25.6641C210.266 25.6641 209.234 24.5 209.234 22.6094V17.2812H210.922V22.2812C210.922 23.5234 211.5 24.2109 212.672 24.2109C213.859 24.2109 214.625 23.3594 214.625 22.0781V17.2812H216.32V25.5H214.625V24.2656H214.586C214.156 25.0938 213.32 25.6641 212.07 25.6641ZM217.992 25.5V17.2812H219.68V18.5547H219.719C220.07 17.6953 220.906 17.125 221.984 17.125C223.117 17.125 223.945 17.7109 224.273 18.7422H224.312C224.734 17.7422 225.703 17.125 226.875 17.125C228.5 17.125 229.562 18.2031 229.562 19.8516V25.5H227.867V20.2578C227.867 19.1875 227.297 18.5703 226.297 18.5703C225.297 18.5703 224.602 19.3203 224.602 20.3594V25.5H222.945V20.1328C222.945 19.1797 222.344 18.5703 221.391 18.5703C220.391 18.5703 219.68 19.3594 219.68 20.4219V25.5H217.992ZM237.523 25.6641C235.469 25.6641 234.266 24.6484 234.094 23.1484L234.086 23.0781H235.758L235.773 23.1562C235.93 23.9141 236.492 24.3594 237.531 24.3594C238.547 24.3594 239.156 23.9375 239.156 23.2734V23.2656C239.156 22.7344 238.859 22.4297 237.977 22.2188L236.633 21.9141C235.07 21.5547 234.297 20.8047 234.297 19.6094V19.6016C234.297 18.1328 235.578 17.125 237.469 17.125C239.414 17.125 240.586 18.2109 240.672 19.6094L240.68 19.7031H239.094L239.086 19.6484C238.984 18.9297 238.422 18.4297 237.469 18.4297C236.562 18.4297 235.992 18.8594 235.992 19.5156V19.5234C235.992 20.0312 236.328 20.375 237.211 20.5859L238.547 20.8906C240.227 21.2812 240.867 21.9453 240.867 23.125V23.1328C240.867 24.6328 239.461 25.6641 237.523 25.6641ZM244.977 25.6641C243.172 25.6641 242.141 24.5 242.141 22.6094V17.2812H243.828V22.2812C243.828 23.5234 244.406 24.2109 245.578 24.2109C246.766 24.2109 247.531 23.3594 247.531 22.0781V17.2812H249.227V25.5H247.531V24.2656H247.492C247.062 25.0938 246.227 25.6641 244.977 25.6641ZM250.898 25.5V17.2812H252.586V18.6875H252.625C252.891 17.7266 253.578 17.125 254.516 17.125C254.758 17.125 254.969 17.1641 255.102 17.1875V18.7578C254.969 18.7031 254.672 18.6641 254.344 18.6641C253.258 18.6641 252.586 19.375 252.586 20.6016V25.5H250.898ZM259.461 25.5V14.2266H261.148V25.5H259.461ZM265.297 25.6484C263.656 25.6484 262.555 24.6406 262.555 23.1641V23.1484C262.555 21.7188 263.664 20.8438 265.609 20.7266L267.844 20.5938V19.9766C267.844 19.0703 267.258 18.5234 266.211 18.5234C265.234 18.5234 264.633 18.9844 264.492 19.6406L264.477 19.7109H262.883L262.891 19.625C263.008 18.2109 264.234 17.125 266.258 17.125C268.266 17.125 269.539 18.1875 269.539 19.8359V25.5H267.844V24.2031H267.812C267.336 25.0859 266.383 25.6484 265.297 25.6484ZM264.258 23.125C264.258 23.8438 264.852 24.2969 265.758 24.2969C266.945 24.2969 267.844 23.4922 267.844 22.4219V21.7812L265.836 21.9062C264.82 21.9688 264.258 22.4141 264.258 23.1094V23.125ZM279.453 25.6875C276.258 25.6875 274.227 23.4375 274.227 19.8594V19.8516C274.227 16.2734 276.258 14.0391 279.453 14.0391C281.938 14.0391 283.805 15.5703 284.156 17.7969L284.172 17.8672H282.438L282.391 17.7109C282.016 16.3906 280.969 15.5859 279.453 15.5859C277.359 15.5859 276.016 17.2422 276.016 19.8516V19.8594C276.016 22.4688 277.367 24.1406 279.453 24.1406C280.953 24.1406 281.992 23.3594 282.414 21.9297L282.438 21.8594H284.172L284.164 21.9375C283.812 24.1797 281.945 25.6875 279.453 25.6875ZM286.57 28.2422C286.242 28.2422 285.891 28.2031 285.688 28.1641V26.8438C285.82 26.875 286.016 26.9062 286.242 26.9062C287.039 26.9062 287.477 26.6953 287.758 25.8984L287.898 25.5078L284.906 17.2812H286.734L288.805 23.9688H288.859L290.93 17.2812H292.711L289.648 25.8828C289.039 27.5859 288.18 28.2422 286.57 28.2422ZM298.062 25.6641C296.883 25.6641 295.969 25.0703 295.484 24.1094H295.445V25.5H293.758V14.2266H295.445V18.6797H295.484C295.977 17.7109 296.914 17.125 298.078 17.125C300.141 17.125 301.5 18.7656 301.5 21.3828V21.3906C301.5 24.0078 300.148 25.6641 298.062 25.6641ZM297.617 24.2109C298.945 24.2109 299.773 23.1406 299.773 21.3906V21.3828C299.773 19.6484 298.945 18.5703 297.617 18.5703C296.344 18.5703 295.438 19.6797 295.438 21.3828V21.3906C295.438 23.1016 296.336 24.2109 297.617 24.2109ZM306.312 25.6641C303.898 25.6641 302.438 24.0156 302.438 21.4219V21.4141C302.438 18.8438 303.922 17.125 306.227 17.125C308.531 17.125 309.945 18.7812 309.945 21.25V21.8203H304.125C304.156 23.375 305.008 24.2812 306.352 24.2812C307.352 24.2812 308.016 23.7656 308.227 23.1484L308.25 23.0859H309.852L309.836 23.1719C309.57 24.4766 308.305 25.6641 306.312 25.6641ZM306.234 18.5078C305.141 18.5078 304.297 19.25 304.148 20.625H308.273C308.133 19.2031 307.336 18.5078 306.234 18.5078ZM311.258 25.5V17.2812H312.945V18.6875H312.984C313.25 17.7266 313.938 17.125 314.875 17.125C315.117 17.125 315.328 17.1641 315.461 17.1875V18.7578C315.328 18.7031 315.031 18.6641 314.703 18.6641C313.617 18.6641 312.945 19.375 312.945 20.6016V25.5H311.258ZM319.586 25.6641C317.531 25.6641 316.328 24.6484 316.156 23.1484L316.148 23.0781H317.82L317.836 23.1562C317.992 23.9141 318.555 24.3594 319.594 24.3594C320.609 24.3594 321.219 23.9375 321.219 23.2734V23.2656C321.219 22.7344 320.922 22.4297 320.039 22.2188L318.695 21.9141C317.133 21.5547 316.359 20.8047 316.359 19.6094V19.6016C316.359 18.1328 317.641 17.125 319.531 17.125C321.477 17.125 322.648 18.2109 322.734 19.6094L322.742 19.7031H321.156L321.148 19.6484C321.047 18.9297 320.484 18.4297 319.531 18.4297C318.625 18.4297 318.055 18.8594 318.055 19.5156V19.5234C318.055 20.0312 318.391 20.375 319.273 20.5859L320.609 20.8906C322.289 21.2812 322.93 21.9453 322.93 23.125V23.1328C322.93 24.6328 321.523 25.6641 319.586 25.6641ZM328.148 16.3516H326.93L328.297 13.8906H329.938L328.148 16.3516ZM327.75 25.6641C325.336 25.6641 323.875 24.0156 323.875 21.4219V21.4141C323.875 18.8438 325.359 17.125 327.664 17.125C329.969 17.125 331.383 18.7812 331.383 21.25V21.8203H325.562C325.594 23.375 326.445 24.2812 327.789 24.2812C328.789 24.2812 329.453 23.7656 329.664 23.1484L329.688 23.0859H331.289L331.273 23.1719C331.008 24.4766 329.742 25.6641 327.75 25.6641ZM327.672 18.5078C326.578 18.5078 325.734 19.25 325.586 20.625H329.711C329.57 19.2031 328.773 18.5078 327.672 18.5078ZM336.227 25.6641C333.828 25.6641 332.328 24.0156 332.328 21.3828V21.375C332.328 18.7734 333.859 17.125 336.203 17.125C338.32 17.125 339.602 18.4844 339.742 20.0312L339.75 20.0859H338.141L338.125 20.0234C337.945 19.2188 337.32 18.5391 336.219 18.5391C334.906 18.5391 334.055 19.6328 334.055 21.3906V21.3984C334.055 23.1953 334.922 24.25 336.227 24.25C337.266 24.25 337.93 23.6484 338.133 22.7578L338.141 22.6953H339.766L339.758 22.75C339.578 24.3984 338.203 25.6641 336.227 25.6641ZM343.758 25.6641C341.953 25.6641 340.922 24.5 340.922 22.6094V17.2812H342.609V22.2812C342.609 23.5234 343.188 24.2109 344.359 24.2109C345.547 24.2109 346.312 23.3594 346.312 22.0781V17.2812H348.008V25.5H346.312V24.2656H346.273C345.844 25.0938 345.008 25.6641 343.758 25.6641ZM349.68 25.5V17.2812H351.367V18.6875H351.406C351.672 17.7266 352.359 17.125 353.297 17.125C353.539 17.125 353.75 17.1641 353.883 17.1875V18.7578C353.75 18.7031 353.453 18.6641 353.125 18.6641C352.039 18.6641 351.367 19.375 351.367 20.6016V25.5H349.68ZM355.844 16.0156C355.297 16.0156 354.859 15.5781 354.859 15.0469C354.859 14.5078 355.297 14.0703 355.844 14.0703C356.398 14.0703 356.828 14.5078 356.828 15.0469C356.828 15.5781 356.398 16.0156 355.844 16.0156ZM355 25.5V17.2812H356.688V25.5H355ZM361.312 25.6641C359.688 25.6641 358.906 24.9766 358.906 23.3359V18.625H357.727V17.2812H358.906V15.1406H360.633V17.2812H362.172V18.625H360.633V23.2344C360.633 24.0703 361.008 24.3203 361.719 24.3203C361.898 24.3203 362.047 24.3047 362.172 24.2891V25.5938C361.977 25.625 361.656 25.6641 361.312 25.6641ZM367.273 16.3516H366.055L367.422 13.8906H369.062L367.273 16.3516ZM366.875 25.6641C364.461 25.6641 363 24.0156 363 21.4219V21.4141C363 18.8438 364.484 17.125 366.789 17.125C369.094 17.125 370.508 18.7812 370.508 21.25V21.8203H364.688C364.719 23.375 365.57 24.2812 366.914 24.2812C367.914 24.2812 368.578 23.7656 368.789 23.1484L368.812 23.0859H370.414L370.398 23.1719C370.133 24.4766 368.867 25.6641 366.875 25.6641ZM366.797 18.5078C365.703 18.5078 364.859 19.25 364.711 20.625H368.836C368.695 19.2031 367.898 18.5078 366.797 18.5078ZM378.578 25.6641C376.164 25.6641 374.703 24.0156 374.703 21.4219V21.4141C374.703 18.8438 376.188 17.125 378.492 17.125C380.797 17.125 382.211 18.7812 382.211 21.25V21.8203H376.391C376.422 23.375 377.273 24.2812 378.617 24.2812C379.617 24.2812 380.281 23.7656 380.492 23.1484L380.516 23.0859H382.117L382.102 23.1719C381.836 24.4766 380.57 25.6641 378.578 25.6641ZM378.5 18.5078C377.406 18.5078 376.562 19.25 376.414 20.625H380.539C380.398 19.2031 379.602 18.5078 378.5 18.5078ZM386.406 25.6641C384.781 25.6641 384 24.9766 384 23.3359V18.625H382.82V17.2812H384V15.1406H385.727V17.2812H387.266V18.625H385.727V23.2344C385.727 24.0703 386.102 24.3203 386.812 24.3203C386.992 24.3203 387.141 24.3047 387.266 24.2891V25.5938C387.07 25.625 386.75 25.6641 386.406 25.6641ZM391.977 25.5V14.2266H393.664V25.5H391.977ZM397.812 25.6484C396.172 25.6484 395.07 24.6406 395.07 23.1641V23.1484C395.07 21.7188 396.18 20.8438 398.125 20.7266L400.359 20.5938V19.9766C400.359 19.0703 399.773 18.5234 398.727 18.5234C397.75 18.5234 397.148 18.9844 397.008 19.6406L396.992 19.7109H395.398L395.406 19.625C395.523 18.2109 396.75 17.125 398.773 17.125C400.781 17.125 402.055 18.1875 402.055 19.8359V25.5H400.359V24.2031H400.328C399.852 25.0859 398.898 25.6484 397.812 25.6484ZM396.773 23.125C396.773 23.8438 397.367 24.2969 398.273 24.2969C399.461 24.2969 400.359 23.4922 400.359 22.4219V21.7812L398.352 21.9062C397.336 21.9688 396.773 22.4141 396.773 23.1094V23.125ZM409.203 25.5L406.242 17.2812H408.039L410.102 23.8516H410.141L412.203 17.2812H413.961L411.016 25.5H409.203ZM415.844 16.0156C415.297 16.0156 414.859 15.5781 414.859 15.0469C414.859 14.5078 415.297 14.0703 415.844 14.0703C416.398 14.0703 416.828 14.5078 416.828 15.0469C416.828 15.5781 416.398 16.0156 415.844 16.0156ZM415 25.5V17.2812H416.688V25.5H415ZM421.938 25.6641C419.523 25.6641 418.062 24.0156 418.062 21.4219V21.4141C418.062 18.8438 419.547 17.125 421.852 17.125C424.156 17.125 425.57 18.7812 425.57 21.25V21.8203H419.75C419.781 23.375 420.633 24.2812 421.977 24.2812C422.977 24.2812 423.641 23.7656 423.852 23.1484L423.875 23.0859H425.477L425.461 23.1719C425.195 24.4766 423.93 25.6641 421.938 25.6641ZM421.859 18.5078C420.766 18.5078 419.922 19.25 419.773 20.625H423.898C423.758 19.2031 422.961 18.5078 421.859 18.5078ZM430.133 28.2344V17.2812H431.82V18.6953H431.859C432.352 17.7188 433.258 17.125 434.43 17.125C436.523 17.125 437.867 18.7656 437.867 21.3906V21.3984C437.867 24.0156 436.516 25.6641 434.453 25.6641C433.289 25.6641 432.344 25.0703 431.859 24.1172H431.82V28.2344H430.133ZM433.992 24.2109C435.32 24.2109 436.148 23.1328 436.148 21.3984V21.3906C436.148 19.6406 435.312 18.5703 433.992 18.5703C432.711 18.5703 431.812 19.6797 431.812 21.3906V21.3984C431.812 23.1016 432.719 24.2109 433.992 24.2109ZM439.18 25.5V17.2812H440.867V18.6875H440.906C441.172 17.7266 441.859 17.125 442.797 17.125C443.039 17.125 443.25 17.1641 443.383 17.1875V18.7578C443.25 18.7031 442.953 18.6641 442.625 18.6641C441.539 18.6641 440.867 19.375 440.867 20.6016V25.5H439.18ZM445.344 16.0156C444.797 16.0156 444.359 15.5781 444.359 15.0469C444.359 14.5078 444.797 14.0703 445.344 14.0703C445.898 14.0703 446.328 14.5078 446.328 15.0469C446.328 15.5781 445.898 16.0156 445.344 16.0156ZM444.5 25.5V17.2812H446.188V25.5H444.5ZM450.188 25.5L447.227 17.2812H449.023L451.086 23.8516H451.125L453.188 17.2812H454.945L452 25.5H450.188ZM459.508 16.3516H458.289L459.656 13.8906H461.297L459.508 16.3516ZM459.109 25.6641C456.695 25.6641 455.234 24.0156 455.234 21.4219V21.4141C455.234 18.8438 456.719 17.125 459.023 17.125C461.328 17.125 462.742 18.7812 462.742 21.25V21.8203H456.922C456.953 23.375 457.805 24.2812 459.148 24.2812C460.148 24.2812 460.812 23.7656 461.023 23.1484L461.047 23.0859H462.648L462.633 23.1719C462.367 24.4766 461.102 25.6641 459.109 25.6641ZM459.031 18.5078C457.938 18.5078 457.094 19.25 456.945 20.625H461.07C460.93 19.2031 460.133 18.5078 459.031 18.5078ZM467.562 25.6641C465.148 25.6641 463.688 24.0156 463.688 21.4219V21.4141C463.688 18.8438 465.172 17.125 467.477 17.125C469.781 17.125 471.195 18.7812 471.195 21.25V21.8203H465.375C465.406 23.375 466.258 24.2812 467.602 24.2812C468.602 24.2812 469.266 23.7656 469.477 23.1484L469.5 23.0859H471.102L471.086 23.1719C470.82 24.4766 469.555 25.6641 467.562 25.6641ZM467.484 18.5078C466.391 18.5078 465.547 19.25 465.398 20.625H469.523C469.383 19.2031 468.586 18.5078 467.484 18.5078ZM479.266 25.6641C476.852 25.6641 475.391 24.0156 475.391 21.4219V21.4141C475.391 18.8438 476.875 17.125 479.18 17.125C481.484 17.125 482.898 18.7812 482.898 21.25V21.8203H477.078C477.109 23.375 477.961 24.2812 479.305 24.2812C480.305 24.2812 480.969 23.7656 481.18 23.1484L481.203 23.0859H482.805L482.789 23.1719C482.523 24.4766 481.258 25.6641 479.266 25.6641ZM479.188 18.5078C478.094 18.5078 477.25 19.25 477.102 20.625H481.227C481.086 19.2031 480.289 18.5078 479.188 18.5078ZM484.211 25.5V17.2812H485.898V18.5234H485.938C486.367 17.6875 487.211 17.125 488.453 17.125C490.258 17.125 491.297 18.2891 491.297 20.1797V25.5H489.602V20.5C489.602 19.2656 489.023 18.5703 487.852 18.5703C486.664 18.5703 485.898 19.4297 485.898 20.7109V25.5H484.211ZM496.242 25.5V14.2266H497.93V25.5H496.242ZM500.578 16.0156C500.031 16.0156 499.594 15.5781 499.594 15.0469C499.594 14.5078 500.031 14.0703 500.578 14.0703C501.133 14.0703 501.562 14.5078 501.562 15.0469C501.562 15.5781 501.133 16.0156 500.578 16.0156ZM499.734 25.5V17.2812H501.422V25.5H499.734ZM506.766 28.3984C504.656 28.3984 503.32 27.4219 503.07 26.1641L503.062 26.0938H504.734L504.766 26.1562C504.992 26.6797 505.703 27.0391 506.758 27.0391C508.102 27.0391 508.844 26.3203 508.844 25.1719V24.0469H508.805C508.336 24.9375 507.398 25.5078 506.219 25.5078C504.156 25.5078 502.797 23.8906 502.797 21.3281V21.3203C502.797 18.7422 504.172 17.125 506.258 17.125C507.414 17.125 508.32 17.75 508.805 18.6797H508.844V17.2812H510.539V25.2734C510.539 27.1484 509.086 28.3984 506.766 28.3984ZM506.695 24.1328C507.984 24.1328 508.844 23.0469 508.844 21.3516V21.3438C508.844 19.6562 507.977 18.5703 506.695 18.5703C505.359 18.5703 504.523 19.6484 504.523 21.3438V21.3516C504.523 23.0703 505.359 24.1328 506.695 24.1328ZM512.211 25.5V17.2812H513.898V18.5234H513.938C514.367 17.6875 515.211 17.125 516.453 17.125C518.258 17.125 519.297 18.2891 519.297 20.1797V25.5H517.602V20.5C517.602 19.2656 517.023 18.5703 515.852 18.5703C514.664 18.5703 513.898 19.4297 513.898 20.7109V25.5H512.211ZM524.438 25.6641C522.023 25.6641 520.562 24.0156 520.562 21.4219V21.4141C520.562 18.8438 522.047 17.125 524.352 17.125C526.656 17.125 528.07 18.7812 528.07 21.25V21.8203H522.25C522.281 23.375 523.133 24.2812 524.477 24.2812C525.477 24.2812 526.141 23.7656 526.352 23.1484L526.375 23.0859H527.977L527.961 23.1719C527.695 24.4766 526.43 25.6641 524.438 25.6641ZM524.359 18.5078C523.266 18.5078 522.422 19.25 522.273 20.625H526.398C526.258 19.2031 525.461 18.5078 524.359 18.5078Z" fill="black"/>
<rect x="633" width="87" height="40" rx="8" fill="#237BFF"/>
<path d="M653.219 25.5L649.203 14.2266H651.086L654.164 23.5547H654.203L657.281 14.2266H659.164L655.148 25.5H653.219ZM662.648 25.6641C660.289 25.6641 658.75 24.0312 658.75 21.3906V21.375C658.75 18.75 660.305 17.125 662.641 17.125C664.984 17.125 666.547 18.7422 666.547 21.375V21.3906C666.547 24.0391 665 25.6641 662.648 25.6641ZM662.656 24.25C663.977 24.25 664.82 23.2031 664.82 21.3906V21.375C664.82 19.5781 663.961 18.5391 662.641 18.5391C661.344 18.5391 660.477 19.5781 660.477 21.375V21.3906C660.477 23.2109 661.336 24.25 662.656 24.25ZM668.766 16.0156C668.219 16.0156 667.781 15.5781 667.781 15.0469C667.781 14.5078 668.219 14.0703 668.766 14.0703C669.32 14.0703 669.75 14.5078 669.75 15.0469C669.75 15.5781 669.32 16.0156 668.766 16.0156ZM667.922 25.5V17.2812H669.609V25.5H667.922ZM671.352 25.5V17.2812H673.039V18.6875H673.078C673.344 17.7266 674.031 17.125 674.969 17.125C675.211 17.125 675.422 17.1641 675.555 17.1875V18.7578C675.422 18.7031 675.125 18.6641 674.797 18.6641C673.711 18.6641 673.039 19.375 673.039 20.6016V25.5H671.352Z" fill="white"/>
<path d="M688 24L696 16M696 16H690M696 16V22" stroke="white" stroke-width="2" stroke-linecap="round" stroke-linejoin="round"/>
<line x1="-4.37114e-08" y1="55.5" x2="720" y2="55.4999" stroke="#DDE2E5"/>
<path d="M5.00927 101.341H18.8297C20.9977 101.341 22.1165 100.222 22.1165 98.0786V85.8539C22.1165 83.7088 20.9977 82.5918 18.8297 82.5918H5.00927C2.84124 82.5918 1.71423 83.7005 1.71423 85.8539V98.0786C1.71423 100.23 2.84124 101.341 5.00927 101.341ZM4.98154 99.3728C4.13819 99.3728 3.68216 98.9405 3.68216 98.0569V88.7765C3.68216 87.9012 4.13819 87.4624 4.98154 87.4624H18.841C19.6843 87.4624 20.1485 87.9012 20.1485 88.7765V98.0569C20.1485 98.9405 19.6843 99.3728 18.841 99.3728H4.98154ZM9.98699 90.9437H10.5797C10.9366 90.9437 11.0525 90.8378 11.0525 90.4809V89.8882C11.0525 89.5312 10.9366 89.4171 10.5797 89.4171H9.98699C9.63001 89.4171 9.50585 89.5312 9.50585 89.8882V90.4809C9.50585 90.8378 9.63001 90.9437 9.98699 90.9437ZM13.2694 90.9437H13.862C14.219 90.9437 14.345 90.8378 14.345 90.4809V89.8882C14.345 89.5312 14.219 89.4171 13.862 89.4171H13.2694C12.9124 89.4171 12.7883 89.5312 12.7883 89.8882V90.4809C12.7883 90.8378 12.9124 90.9437 13.2694 90.9437ZM16.5536 90.9437H17.1462C17.5032 90.9437 17.6273 90.8378 17.6273 90.4809V89.8882C17.6273 89.5312 17.5032 89.4171 17.1462 89.4171H16.5536C16.1966 89.4171 16.0807 89.5312 16.0807 89.8882V90.4809C16.0807 90.8378 16.1966 90.9437 16.5536 90.9437ZM6.70461 94.1759H7.28719C7.65422 94.1759 7.77014 94.07 7.77014 93.713V93.1204C7.77014 92.7634 7.65422 92.6575 7.28719 92.6575H6.70461C6.33757 92.6575 6.22166 92.7634 6.22166 93.1204V93.713C6.22166 94.07 6.33757 94.1759 6.70461 94.1759ZM9.98699 94.1759H10.5797C10.9366 94.1759 11.0525 94.07 11.0525 93.713V93.1204C11.0525 92.7634 10.9366 92.6575 10.5797 92.6575H9.98699C9.63001 92.6575 9.50585 92.7634 9.50585 93.1204V93.713C9.50585 94.07 9.63001 94.1759 9.98699 94.1759ZM13.2694 94.1759H13.862C14.219 94.1759 14.345 94.07 14.345 93.713V93.1204C14.345 92.7634 14.219 92.6575 13.862 92.6575H13.2694C12.9124 92.6575 12.7883 92.7634 12.7883 93.1204V93.713C12.7883 94.07 12.9124 94.1759 13.2694 94.1759ZM16.5536 94.1759H17.1462C17.5032 94.1759 17.6273 94.07 17.6273 93.713V93.1204C17.6273 92.7634 17.5032 92.6575 17.1462 92.6575H16.5536C16.1966 92.6575 16.0807 92.7634 16.0807 93.1204V93.713C16.0807 94.07 16.1966 94.1759 16.5536 94.1759ZM6.70461 97.4163H7.28719C7.65422 97.4163 7.77014 97.304 7.77014 96.9452V96.3544C7.77014 95.9956 7.65422 95.8915 7.28719 95.8915H6.70461C6.33757 95.8915 6.22166 95.9956 6.22166 96.3544V96.9452C6.22166 97.304 6.33757 97.4163 6.70461 97.4163ZM9.98699 97.4163H10.5797C10.9366 97.4163 11.0525 97.304 11.0525 96.9452V96.3544C11.0525 95.9956 10.9366 95.8915 10.5797 95.8915H9.98699C9.63001 95.8915 9.50585 95.9956 9.50585 96.3544V96.9452C9.50585 97.304 9.63001 97.4163 9.98699 97.4163ZM13.2694 97.4163H13.862C14.219 97.4163 14.345 97.304 14.345 96.9452V96.3544C14.345 95.9956 14.219 95.8915 13.862 95.8915H13.2694C12.9124 95.8915 12.7883 95.9956 12.7883 96.3544V96.9452C12.7883 97.304 12.9124 97.4163 13.2694 97.4163Z" fill="black"/>
<path d="M28.875 97.5V96.2969L32.8438 92.3047C34.3438 90.8047 34.6797 90.2109 34.6797 89.3359V89.3203C34.6719 88.25 33.8594 87.4844 32.7188 87.4844C31.3984 87.4844 30.4531 88.375 30.4375 89.5156V89.5625H28.7812V89.5156C28.7812 87.5 30.4922 86.0391 32.6953 86.0391C34.8594 86.0391 36.4062 87.3984 36.4062 89.2188V89.2344C36.4062 90.5234 35.8047 91.4375 33.7812 93.4375L31.2188 95.9531V96.0234H36.5859V97.5H28.875ZM42.0781 97.6875C39.6719 97.6875 38.1016 96.375 37.9453 94.5391L37.9375 94.4375H39.6172L39.625 94.5234C39.7344 95.5234 40.6797 96.2266 42.0781 96.2266C43.4531 96.2266 44.3828 95.4609 44.3828 94.3672V94.3516C44.3828 93.0781 43.4609 92.3672 41.9531 92.3672H40.5859V91.0078H41.9062C43.1953 91.0078 44.0703 90.25 44.0703 89.2031V89.1875C44.0703 88.1016 43.3359 87.4688 42.0625 87.4688C40.8125 87.4688 39.9375 88.125 39.8281 89.1719L39.8203 89.2422H38.1797L38.1875 89.1641C38.3594 87.2812 39.8594 86.0391 42.0625 86.0391C44.3047 86.0391 45.7734 87.2266 45.7734 88.9609V88.9766C45.7734 90.375 44.7734 91.3125 43.3984 91.6016V91.6406C45.0547 91.7891 46.1641 92.7891 46.1641 94.3672V94.3828C46.1641 96.3125 44.4688 97.6875 42.0781 97.6875ZM51.9375 88.0156C51.3906 88.0156 50.9531 87.5781 50.9531 87.0469C50.9531 86.5078 51.3906 86.0703 51.9375 86.0703C52.4922 86.0703 52.9219 86.5078 52.9219 87.0469C52.9219 87.5781 52.4922 88.0156 51.9375 88.0156ZM50.0938 100.25C49.9609 100.25 49.8125 100.242 49.7031 100.234V98.8516C49.7812 98.8516 49.8594 98.8594 49.9453 98.8594C50.7812 98.8594 51.0938 98.5938 51.0938 97.7656V89.2812H52.7812V97.7812C52.7812 99.4531 51.9141 100.25 50.0938 100.25ZM57.3203 97.6641C55.5156 97.6641 54.4844 96.5 54.4844 94.6094V89.2812H56.1719V94.2812C56.1719 95.5234 56.75 96.2109 57.9219 96.2109C59.1094 96.2109 59.875 95.3594 59.875 94.0781V89.2812H61.5703V97.5H59.875V96.2656H59.8359C59.4062 97.0938 58.5703 97.6641 57.3203 97.6641ZM64.1562 88.0156C63.6094 88.0156 63.1719 87.5781 63.1719 87.0469C63.1719 86.5078 63.6094 86.0703 64.1562 86.0703C64.7109 86.0703 65.1406 86.5078 65.1406 87.0469C65.1406 87.5781 64.7109 88.0156 64.1562 88.0156ZM63.3125 97.5V89.2812H65V97.5H63.3125ZM66.7422 97.5V89.2812H68.4297V90.5234H68.4688C68.8984 89.6875 69.7422 89.125 70.9844 89.125C72.7891 89.125 73.8281 90.2891 73.8281 92.1797V97.5H72.1328V92.5C72.1328 91.2656 71.5547 90.5703 70.3828 90.5703C69.1953 90.5703 68.4297 91.4297 68.4297 92.7109V97.5H66.7422ZM78.75 97.5V96.2969L82.7188 92.3047C84.2188 90.8047 84.5547 90.2109 84.5547 89.3359V89.3203C84.5469 88.25 83.7344 87.4844 82.5938 87.4844C81.2734 87.4844 80.3281 88.375 80.3125 89.5156V89.5625H78.6562V89.5156C78.6562 87.5 80.3672 86.0391 82.5703 86.0391C84.7344 86.0391 86.2812 87.3984 86.2812 89.2188V89.2344C86.2812 90.5234 85.6797 91.4375 83.6562 93.4375L81.0938 95.9531V96.0234H86.4609V97.5H78.75ZM92.1172 97.6875C89.4219 97.6875 87.8125 95.4453 87.8125 91.8672V91.8516C87.8125 88.2734 89.4219 86.0391 92.1172 86.0391C94.8047 86.0391 96.4219 88.2734 96.4219 91.8516V91.8672C96.4219 95.4453 94.8047 97.6875 92.1172 97.6875ZM92.1172 96.2266C93.7188 96.2266 94.6562 94.5703 94.6562 91.8672V91.8516C94.6562 89.1484 93.7188 87.5078 92.1172 87.5078C90.5078 87.5078 89.5781 89.1484 89.5781 91.8516V91.8672C89.5781 94.5703 90.5078 96.2266 92.1172 96.2266ZM97.8594 97.5V96.2969L101.828 92.3047C103.328 90.8047 103.664 90.2109 103.664 89.3359V89.3203C103.656 88.25 102.844 87.4844 101.703 87.4844C100.383 87.4844 99.4375 88.375 99.4219 89.5156V89.5625H97.7656V89.5156C97.7656 87.5 99.4766 86.0391 101.68 86.0391C103.844 86.0391 105.391 87.3984 105.391 89.2188V89.2344C105.391 90.5234 104.789 91.4375 102.766 93.4375L100.203 95.9531V96.0234H105.57V97.5H97.8594ZM111.062 97.6875C108.656 97.6875 107.086 96.375 106.93 94.5391L106.922 94.4375H108.602L108.609 94.5234C108.719 95.5234 109.664 96.2266 111.062 96.2266C112.438 96.2266 113.367 95.4609 113.367 94.3672V94.3516C113.367 93.0781 112.445 92.3672 110.938 92.3672H109.57V91.0078H110.891C112.18 91.0078 113.055 90.25 113.055 89.2031V89.1875C113.055 88.1016 112.32 87.4688 111.047 87.4688C109.797 87.4688 108.922 88.125 108.812 89.1719L108.805 89.2422H107.164L107.172 89.1641C107.344 87.2812 108.844 86.0391 111.047 86.0391C113.289 86.0391 114.758 87.2266 114.758 88.9609V88.9766C114.758 90.375 113.758 91.3125 112.383 91.6016V91.6406C114.039 91.7891 115.148 92.7891 115.148 94.3672V94.3828C115.148 96.3125 113.453 97.6875 111.062 97.6875ZM120.141 93.6875V92.1641H125.164V93.6875H120.141ZM133.102 97.5V87.9609H133.062L130.117 89.9922V88.3359L133.086 86.2266H134.812V97.5H133.102ZM141.5 97.6875C139.094 97.6875 137.523 96.375 137.367 94.5391L137.359 94.4375H139.039L139.047 94.5234C139.156 95.5234 140.102 96.2266 141.5 96.2266C142.875 96.2266 143.805 95.4609 143.805 94.3672V94.3516C143.805 93.0781 142.883 92.3672 141.375 92.3672H140.008V91.0078H141.328C142.617 91.0078 143.492 90.25 143.492 89.2031V89.1875C143.492 88.1016 142.758 87.4688 141.484 87.4688C140.234 87.4688 139.359 88.125 139.25 89.1719L139.242 89.2422H137.602L137.609 89.1641C137.781 87.2812 139.281 86.0391 141.484 86.0391C143.727 86.0391 145.195 87.2266 145.195 88.9609V88.9766C145.195 90.375 144.195 91.3125 142.82 91.6016V91.6406C144.477 91.7891 145.586 92.7891 145.586 94.3672V94.3828C145.586 96.3125 143.891 97.6875 141.5 97.6875ZM147.273 97.5V86.2266H148.961V90.6328H149C149.438 89.6797 150.32 89.125 151.547 89.125C153.305 89.125 154.461 90.4375 154.461 92.4219V97.5H152.773V92.7422C152.773 91.3828 152.086 90.5703 150.898 90.5703C149.734 90.5703 148.961 91.4609 148.961 92.7422V97.5H147.273ZM160.258 97.6875C157.562 97.6875 155.953 95.4453 155.953 91.8672V91.8516C155.953 88.2734 157.562 86.0391 160.258 86.0391C162.945 86.0391 164.562 88.2734 164.562 91.8516V91.8672C164.562 95.4453 162.945 97.6875 160.258 97.6875ZM160.258 96.2266C161.859 96.2266 162.797 94.5703 162.797 91.8672V91.8516C162.797 89.1484 161.859 87.5078 160.258 87.5078C158.648 87.5078 157.719 89.1484 157.719 91.8516V91.8672C157.719 94.5703 158.648 96.2266 160.258 96.2266ZM170.242 97.6875C167.547 97.6875 165.938 95.4453 165.938 91.8672V91.8516C165.938 88.2734 167.547 86.0391 170.242 86.0391C172.93 86.0391 174.547 88.2734 174.547 91.8516V91.8672C174.547 95.4453 172.93 97.6875 170.242 97.6875ZM170.242 96.2266C171.844 96.2266 172.781 94.5703 172.781 91.8672V91.8516C172.781 89.1484 171.844 87.5078 170.242 87.5078C168.633 87.5078 167.703 89.1484 167.703 91.8516V91.8672C167.703 94.5703 168.633 96.2266 170.242 96.2266ZM179.438 93.6875V92.1641H184.461V93.6875H179.438ZM194.531 97.6875C191.336 97.6875 189.305 95.4375 189.305 91.8594V91.8516C189.305 88.2734 191.336 86.0391 194.531 86.0391C197.016 86.0391 198.883 87.5703 199.234 89.7969L199.25 89.8672H197.516L197.469 89.7109C197.094 88.3906 196.047 87.5859 194.531 87.5859C192.438 87.5859 191.094 89.2422 191.094 91.8516V91.8594C191.094 94.4688 192.445 96.1406 194.531 96.1406C196.031 96.1406 197.07 95.3594 197.492 93.9297L197.516 93.8594H199.25L199.242 93.9375C198.891 96.1797 197.023 97.6875 194.531 97.6875ZM204.164 97.6641C201.805 97.6641 200.266 96.0312 200.266 93.3906V93.375C200.266 90.75 201.82 89.125 204.156 89.125C206.5 89.125 208.062 90.7422 208.062 93.375V93.3906C208.062 96.0391 206.516 97.6641 204.164 97.6641ZM204.172 96.25C205.492 96.25 206.336 95.2031 206.336 93.3906V93.375C206.336 91.5781 205.477 90.5391 204.156 90.5391C202.859 90.5391 201.992 91.5781 201.992 93.375V93.3906C201.992 95.2109 202.852 96.25 204.172 96.25ZM209.367 97.5V89.2812H211.055V90.5547H211.094C211.445 89.6953 212.281 89.125 213.359 89.125C214.492 89.125 215.32 89.7109 215.648 90.7422H215.688C216.109 89.7422 217.078 89.125 218.25 89.125C219.875 89.125 220.938 90.2031 220.938 91.8516V97.5H219.242V92.2578C219.242 91.1875 218.672 90.5703 217.672 90.5703C216.672 90.5703 215.977 91.3203 215.977 92.3594V97.5H214.32V92.1328C214.32 91.1797 213.719 90.5703 212.766 90.5703C211.766 90.5703 211.055 91.3594 211.055 92.4219V97.5H209.367ZM222.57 100.234V89.2812H224.258V90.6953H224.297C224.789 89.7188 225.695 89.125 226.867 89.125C228.961 89.125 230.305 90.7656 230.305 93.3906V93.3984C230.305 96.0156 228.953 97.6641 226.891 97.6641C225.727 97.6641 224.781 97.0703 224.297 96.1172H224.258V100.234H222.57ZM226.43 96.2109C227.758 96.2109 228.586 95.1328 228.586 93.3984V93.3906C228.586 91.6406 227.75 90.5703 226.43 90.5703C225.148 90.5703 224.25 91.6797 224.25 93.3906V93.3984C224.25 95.1016 225.156 96.2109 226.43 96.2109ZM231.617 97.5V89.2812H233.305V90.6875H233.344C233.609 89.7266 234.297 89.125 235.234 89.125C235.477 89.125 235.688 89.1641 235.82 89.1875V90.7578C235.688 90.7031 235.391 90.6641 235.062 90.6641C233.977 90.6641 233.305 91.375 233.305 92.6016V97.5H231.617ZM240.016 97.6641C237.602 97.6641 236.141 96.0156 236.141 93.4219V93.4141C236.141 90.8438 237.625 89.125 239.93 89.125C242.234 89.125 243.648 90.7812 243.648 93.25V93.8203H237.828C237.859 95.375 238.711 96.2812 240.055 96.2812C241.055 96.2812 241.719 95.7656 241.93 95.1484L241.953 95.0859H243.555L243.539 95.1719C243.273 96.4766 242.008 97.6641 240.016 97.6641ZM239.938 90.5078C238.844 90.5078 238 91.25 237.852 92.625H241.977C241.836 91.2031 241.039 90.5078 239.938 90.5078ZM244.961 97.5V89.2812H246.648V90.5234H246.688C247.117 89.6875 247.961 89.125 249.203 89.125C251.008 89.125 252.047 90.2891 252.047 92.1797V97.5H250.352V92.5C250.352 91.2656 249.773 90.5703 248.602 90.5703C247.414 90.5703 246.648 91.4297 246.648 92.7109V97.5H244.961ZM256.75 97.6641C254.656 97.6641 253.312 96.0078 253.312 93.3906V93.3828C253.312 90.7656 254.672 89.125 256.734 89.125C257.898 89.125 258.836 89.7109 259.328 90.6797H259.359V86.2266H261.055V97.5H259.359V96.1094H259.328C258.836 97.0703 257.93 97.6641 256.75 97.6641ZM257.195 96.2109C258.469 96.2109 259.367 95.1016 259.367 93.3906V93.3828C259.367 91.6797 258.461 90.5703 257.195 90.5703C255.867 90.5703 255.039 91.6484 255.039 93.3828V93.3906C255.039 95.1406 255.859 96.2109 257.195 96.2109ZM262.789 97.5V89.2812H264.477V90.6875H264.516C264.781 89.7266 265.469 89.125 266.406 89.125C266.648 89.125 266.859 89.1641 266.992 89.1875V90.7578C266.859 90.7031 266.562 90.6641 266.234 90.6641C265.148 90.6641 264.477 91.375 264.477 92.6016V97.5H262.789ZM271.188 97.6641C268.773 97.6641 267.312 96.0156 267.312 93.4219V93.4141C267.312 90.8438 268.797 89.125 271.102 89.125C273.406 89.125 274.82 90.7812 274.82 93.25V93.8203H269C269.031 95.375 269.883 96.2812 271.227 96.2812C272.227 96.2812 272.891 95.7656 273.102 95.1484L273.125 95.0859H274.727L274.711 95.1719C274.445 96.4766 273.18 97.6641 271.188 97.6641ZM271.109 90.5078C270.016 90.5078 269.172 91.25 269.023 92.625H273.148C273.008 91.2031 272.211 90.5078 271.109 90.5078ZM282.891 97.6641C280.477 97.6641 279.016 96.0156 279.016 93.4219V93.4141C279.016 90.8438 280.5 89.125 282.805 89.125C285.109 89.125 286.523 90.7812 286.523 93.25V93.8203H280.703C280.734 95.375 281.586 96.2812 282.93 96.2812C283.93 96.2812 284.594 95.7656 284.805 95.1484L284.828 95.0859H286.43L286.414 95.1719C286.148 96.4766 284.883 97.6641 282.891 97.6641ZM282.812 90.5078C281.719 90.5078 280.875 91.25 280.727 92.625H284.852C284.711 91.2031 283.914 90.5078 282.812 90.5078ZM290.719 97.6641C289.094 97.6641 288.312 96.9766 288.312 95.3359V90.625H287.133V89.2812H288.312V87.1406H290.039V89.2812H291.578V90.625H290.039V95.2344C290.039 96.0703 290.414 96.3203 291.125 96.3203C291.305 96.3203 291.453 96.3047 291.578 96.2891V97.5938C291.383 97.625 291.062 97.6641 290.719 97.6641ZM296.227 100.234V89.2812H297.914V90.6953H297.953C298.445 89.7188 299.352 89.125 300.523 89.125C302.617 89.125 303.961 90.7656 303.961 93.3906V93.3984C303.961 96.0156 302.609 97.6641 300.547 97.6641C299.383 97.6641 298.438 97.0703 297.953 96.1172H297.914V100.234H296.227ZM300.086 96.2109C301.414 96.2109 302.242 95.1328 302.242 93.3984V93.3906C302.242 91.6406 301.406 90.5703 300.086 90.5703C298.805 90.5703 297.906 91.6797 297.906 93.3906V93.3984C297.906 95.1016 298.812 96.2109 300.086 96.2109ZM305.273 97.5V89.2812H306.961V90.6875H307C307.266 89.7266 307.953 89.125 308.891 89.125C309.133 89.125 309.344 89.1641 309.477 89.1875V90.7578C309.344 90.7031 309.047 90.6641 308.719 90.6641C307.633 90.6641 306.961 91.375 306.961 92.6016V97.5H305.273ZM314.07 88.3516H312.852L314.219 85.8906H315.859L314.07 88.3516ZM313.672 97.6641C311.258 97.6641 309.797 96.0156 309.797 93.4219V93.4141C309.797 90.8438 311.281 89.125 313.586 89.125C315.891 89.125 317.305 90.7812 317.305 93.25V93.8203H311.484C311.516 95.375 312.367 96.2812 313.711 96.2812C314.711 96.2812 315.375 95.7656 315.586 95.1484L315.609 95.0859H317.211L317.195 95.1719C316.93 96.4766 315.664 97.6641 313.672 97.6641ZM313.594 90.5078C312.5 90.5078 311.656 91.25 311.508 92.625H315.633C315.492 91.2031 314.695 90.5078 313.594 90.5078ZM320.875 97.5L317.914 89.2812H319.711L321.773 95.8516H321.812L323.875 89.2812H325.633L322.688 97.5H320.875ZM329.797 97.6641C327.383 97.6641 325.922 96.0156 325.922 93.4219V93.4141C325.922 90.8438 327.406 89.125 329.711 89.125C332.016 89.125 333.43 90.7812 333.43 93.25V93.8203H327.609C327.641 95.375 328.492 96.2812 329.836 96.2812C330.836 96.2812 331.5 95.7656 331.711 95.1484L331.734 95.0859H333.336L333.32 95.1719C333.055 96.4766 331.789 97.6641 329.797 97.6641ZM329.719 90.5078C328.625 90.5078 327.781 91.25 327.633 92.625H331.758C331.617 91.2031 330.82 90.5078 329.719 90.5078ZM334.742 97.5V89.2812H336.43V90.5234H336.469C336.898 89.6875 337.742 89.125 338.984 89.125C340.789 89.125 341.828 90.2891 341.828 92.1797V97.5H340.133V92.5C340.133 91.2656 339.555 90.5703 338.383 90.5703C337.195 90.5703 336.43 91.4297 336.43 92.7109V97.5H334.742ZM344.375 88.0156C343.828 88.0156 343.391 87.5781 343.391 87.0469C343.391 86.5078 343.828 86.0703 344.375 86.0703C344.93 86.0703 345.359 86.5078 345.359 87.0469C345.359 87.5781 344.93 88.0156 344.375 88.0156ZM343.531 97.5V89.2812H345.219V97.5H343.531ZM346.961 97.5V89.2812H348.648V90.6875H348.688C348.953 89.7266 349.641 89.125 350.578 89.125C350.82 89.125 351.031 89.1641 351.164 89.1875V90.7578C351.031 90.7031 350.734 90.6641 350.406 90.6641C349.32 90.6641 348.648 91.375 348.648 92.6016V97.5H346.961ZM355.523 97.5V86.2266H357.211V97.5H355.523ZM362.453 97.6641C360.039 97.6641 358.578 96.0156 358.578 93.4219V93.4141C358.578 90.8438 360.062 89.125 362.367 89.125C364.672 89.125 366.086 90.7812 366.086 93.25V93.8203H360.266C360.297 95.375 361.148 96.2812 362.492 96.2812C363.492 96.2812 364.156 95.7656 364.367 95.1484L364.391 95.0859H365.992L365.977 95.1719C365.711 96.4766 364.445 97.6641 362.453 97.6641ZM362.375 90.5078C361.281 90.5078 360.438 91.25 360.289 92.625H364.414C364.273 91.2031 363.477 90.5078 362.375 90.5078ZM370.477 97.6641C368.422 97.6641 367.219 96.6484 367.047 95.1484L367.039 95.0781H368.711L368.727 95.1562C368.883 95.9141 369.445 96.3594 370.484 96.3594C371.5 96.3594 372.109 95.9375 372.109 95.2734V95.2656C372.109 94.7344 371.812 94.4297 370.93 94.2188L369.586 93.9141C368.023 93.5547 367.25 92.8047 367.25 91.6094V91.6016C367.25 90.1328 368.531 89.125 370.422 89.125C372.367 89.125 373.539 90.2109 373.625 91.6094L373.633 91.7031H372.047L372.039 91.6484C371.938 90.9297 371.375 90.4297 370.422 90.4297C369.516 90.4297 368.945 90.8594 368.945 91.5156V91.5234C368.945 92.0312 369.281 92.375 370.164 92.5859L371.5 92.8906C373.18 93.2812 373.82 93.9453 373.82 95.125V95.1328C373.82 96.6328 372.414 97.6641 370.477 97.6641ZM378.383 97.5V89.2812H380.07V90.5547H380.109C380.461 89.6953 381.297 89.125 382.375 89.125C383.508 89.125 384.336 89.7109 384.664 90.7422H384.703C385.125 89.7422 386.094 89.125 387.266 89.125C388.891 89.125 389.953 90.2031 389.953 91.8516V97.5H388.258V92.2578C388.258 91.1875 387.688 90.5703 386.688 90.5703C385.688 90.5703 384.992 91.3203 384.992 92.3594V97.5H383.336V92.1328C383.336 91.1797 382.734 90.5703 381.781 90.5703C380.781 90.5703 380.07 91.3594 380.07 92.4219V97.5H378.383ZM395.492 88.3516H394.273L395.641 85.8906H397.281L395.492 88.3516ZM395.094 97.6641C392.68 97.6641 391.219 96.0156 391.219 93.4219V93.4141C391.219 90.8438 392.703 89.125 395.008 89.125C397.312 89.125 398.727 90.7812 398.727 93.25V93.8203H392.906C392.938 95.375 393.789 96.2812 395.133 96.2812C396.133 96.2812 396.797 95.7656 397.008 95.1484L397.031 95.0859H398.633L398.617 95.1719C398.352 96.4766 397.086 97.6641 395.094 97.6641ZM395.016 90.5078C393.922 90.5078 393.078 91.25 392.93 92.625H397.055C396.914 91.2031 396.117 90.5078 395.016 90.5078ZM403.57 97.6641C401.172 97.6641 399.672 96.0156 399.672 93.3828V93.375C399.672 90.7734 401.203 89.125 403.547 89.125C405.664 89.125 406.945 90.4844 407.086 92.0312L407.094 92.0859H405.484L405.469 92.0234C405.289 91.2188 404.664 90.5391 403.562 90.5391C402.25 90.5391 401.398 91.6328 401.398 93.3906V93.3984C401.398 95.1953 402.266 96.25 403.57 96.25C404.609 96.25 405.273 95.6484 405.477 94.7578L405.484 94.6953H407.109L407.102 94.75C406.922 96.3984 405.547 97.6641 403.57 97.6641ZM410.719 97.6484C409.078 97.6484 407.977 96.6406 407.977 95.1641V95.1484C407.977 93.7188 409.086 92.8438 411.031 92.7266L413.266 92.5938V91.9766C413.266 91.0703 412.68 90.5234 411.633 90.5234C410.656 90.5234 410.055 90.9844 409.914 91.6406L409.898 91.7109H408.305L408.312 91.625C408.43 90.2109 409.656 89.125 411.68 89.125C413.688 89.125 414.961 90.1875 414.961 91.8359V97.5H413.266V96.2031H413.234C412.758 97.0859 411.805 97.6484 410.719 97.6484ZM409.68 95.125C409.68 95.8438 410.273 96.2969 411.18 96.2969C412.367 96.2969 413.266 95.4922 413.266 94.4219V93.7812L411.258 93.9062C410.242 93.9688 409.68 94.4141 409.68 95.1094V95.125ZM416.602 97.5V89.2812H418.289V90.5234H418.328C418.758 89.6875 419.602 89.125 420.844 89.125C422.648 89.125 423.688 90.2891 423.688 92.1797V97.5H421.992V92.5C421.992 91.2656 421.414 90.5703 420.242 90.5703C419.055 90.5703 418.289 91.4297 418.289 92.7109V97.5H416.602ZM426.234 88.0156C425.688 88.0156 425.25 87.5781 425.25 87.0469C425.25 86.5078 425.688 86.0703 426.234 86.0703C426.789 86.0703 427.219 86.5078 427.219 87.0469C427.219 87.5781 426.789 88.0156 426.234 88.0156ZM425.391 97.5V89.2812H427.078V97.5H425.391ZM431.898 97.6641C429.844 97.6641 428.641 96.6484 428.469 95.1484L428.461 95.0781H430.133L430.148 95.1562C430.305 95.9141 430.867 96.3594 431.906 96.3594C432.922 96.3594 433.531 95.9375 433.531 95.2734V95.2656C433.531 94.7344 433.234 94.4297 432.352 94.2188L431.008 93.9141C429.445 93.5547 428.672 92.8047 428.672 91.6094V91.6016C428.672 90.1328 429.953 89.125 431.844 89.125C433.789 89.125 434.961 90.2109 435.047 91.6094L435.055 91.7031H433.469L433.461 91.6484C433.359 90.9297 432.797 90.4297 431.844 90.4297C430.938 90.4297 430.367 90.8594 430.367 91.5156V91.5234C430.367 92.0312 430.703 92.375 431.586 92.5859L432.922 92.8906C434.602 93.2812 435.242 93.9453 435.242 95.125V95.1328C435.242 96.6328 433.836 97.6641 431.898 97.6641ZM436.555 97.5V89.2812H438.242V90.5547H438.281C438.633 89.6953 439.469 89.125 440.547 89.125C441.68 89.125 442.508 89.7109 442.836 90.7422H442.875C443.297 89.7422 444.266 89.125 445.438 89.125C447.062 89.125 448.125 90.2031 448.125 91.8516V97.5H446.43V92.2578C446.43 91.1875 445.859 90.5703 444.859 90.5703C443.859 90.5703 443.164 91.3203 443.164 92.3594V97.5H441.508V92.1328C441.508 91.1797 440.906 90.5703 439.953 90.5703C438.953 90.5703 438.242 91.3594 438.242 92.4219V97.5H436.555ZM453.266 97.6641C450.852 97.6641 449.391 96.0156 449.391 93.4219V93.4141C449.391 90.8438 450.875 89.125 453.18 89.125C455.484 89.125 456.898 90.7812 456.898 93.25V93.8203H451.078C451.109 95.375 451.961 96.2812 453.305 96.2812C454.305 96.2812 454.969 95.7656 455.18 95.1484L455.203 95.0859H456.805L456.789 95.1719C456.523 96.4766 455.258 97.6641 453.266 97.6641ZM453.188 90.5078C452.094 90.5078 451.25 91.25 451.102 92.625H455.227C455.086 91.2031 454.289 90.5078 453.188 90.5078ZM461.289 97.6641C459.234 97.6641 458.031 96.6484 457.859 95.1484L457.852 95.0781H459.523L459.539 95.1562C459.695 95.9141 460.258 96.3594 461.297 96.3594C462.312 96.3594 462.922 95.9375 462.922 95.2734V95.2656C462.922 94.7344 462.625 94.4297 461.742 94.2188L460.398 93.9141C458.836 93.5547 458.062 92.8047 458.062 91.6094V91.6016C458.062 90.1328 459.344 89.125 461.234 89.125C463.18 89.125 464.352 90.2109 464.438 91.6094L464.445 91.7031H462.859L462.852 91.6484C462.75 90.9297 462.188 90.4297 461.234 90.4297C460.328 90.4297 459.758 90.8594 459.758 91.5156V91.5234C459.758 92.0312 460.094 92.375 460.977 92.5859L462.312 92.8906C463.992 93.2812 464.633 93.9453 464.633 95.125V95.1328C464.633 96.6328 463.227 97.6641 461.289 97.6641ZM472.266 97.6641C470.172 97.6641 468.828 96.0078 468.828 93.3906V93.3828C468.828 90.7656 470.188 89.125 472.25 89.125C473.414 89.125 474.352 89.7109 474.844 90.6797H474.875V86.2266H476.57V97.5H474.875V96.1094H474.844C474.352 97.0703 473.445 97.6641 472.266 97.6641ZM472.711 96.2109C473.984 96.2109 474.883 95.1016 474.883 93.3906V93.3828C474.883 91.6797 473.977 90.5703 472.711 90.5703C471.383 90.5703 470.555 91.6484 470.555 93.3828V93.3906C470.555 95.1406 471.375 96.2109 472.711 96.2109ZM481.102 97.6641C479.297 97.6641 478.266 96.5 478.266 94.6094V89.2812H479.953V94.2812C479.953 95.5234 480.531 96.2109 481.703 96.2109C482.891 96.2109 483.656 95.3594 483.656 94.0781V89.2812H485.352V97.5H483.656V96.2656H483.617C483.188 97.0938 482.352 97.6641 481.102 97.6641ZM490.336 97.5V86.2266H492.023V90.6328H492.062C492.5 89.6797 493.383 89.125 494.609 89.125C496.367 89.125 497.523 90.4375 497.523 92.4219V97.5H495.836V92.7422C495.836 91.3828 495.148 90.5703 493.961 90.5703C492.797 90.5703 492.023 91.4609 492.023 92.7422V97.5H490.336ZM501.578 97.6484C499.938 97.6484 498.836 96.6406 498.836 95.1641V95.1484C498.836 93.7188 499.945 92.8438 501.891 92.7266L504.125 92.5938V91.9766C504.125 91.0703 503.539 90.5234 502.492 90.5234C501.516 90.5234 500.914 90.9844 500.773 91.6406L500.758 91.7109H499.164L499.172 91.625C499.289 90.2109 500.516 89.125 502.539 89.125C504.547 89.125 505.82 90.1875 505.82 91.8359V97.5H504.125V96.2031H504.094C503.617 97.0859 502.664 97.6484 501.578 97.6484ZM500.539 95.125C500.539 95.8438 501.133 96.2969 502.039 96.2969C503.227 96.2969 504.125 95.4922 504.125 94.4219V93.7812L502.117 93.9062C501.102 93.9688 500.539 94.4141 500.539 95.1094V95.125ZM507.461 97.5V89.2812H509.148V90.6875H509.188C509.453 89.7266 510.141 89.125 511.078 89.125C511.32 89.125 511.531 89.1641 511.664 89.1875V90.7578C511.531 90.7031 511.234 90.6641 510.906 90.6641C509.82 90.6641 509.148 91.375 509.148 92.6016V97.5H507.461ZM515.883 97.6641C513.484 97.6641 511.984 96.0156 511.984 93.3828V93.375C511.984 90.7734 513.516 89.125 515.859 89.125C517.977 89.125 519.258 90.4844 519.398 92.0312L519.406 92.0859H517.797L517.781 92.0234C517.602 91.2188 516.977 90.5391 515.875 90.5391C514.562 90.5391 513.711 91.6328 513.711 93.3906V93.3984C513.711 95.1953 514.578 96.25 515.883 96.25C516.922 96.25 517.586 95.6484 517.789 94.7578L517.797 94.6953H519.422L519.414 94.75C519.234 96.3984 517.859 97.6641 515.883 97.6641ZM523.648 88.3516L521.859 85.8906H523.5L524.867 88.3516H523.648ZM524.125 97.6641C521.711 97.6641 520.25 96.0156 520.25 93.4219V93.4141C520.25 90.8438 521.734 89.125 524.039 89.125C526.344 89.125 527.758 90.7812 527.758 93.25V93.8203H521.938C521.969 95.375 522.82 96.2812 524.164 96.2812C525.164 96.2812 525.828 95.7656 526.039 95.1484L526.062 95.0859H527.664L527.648 95.1719C527.383 96.4766 526.117 97.6641 524.125 97.6641ZM524.047 90.5078C522.953 90.5078 522.109 91.25 521.961 92.625H526.086C525.945 91.2031 525.148 90.5078 524.047 90.5078ZM529.133 97.5V86.2266H530.82V97.5H529.133ZM536.062 97.6641C533.648 97.6641 532.188 96.0156 532.188 93.4219V93.4141C532.188 90.8438 533.672 89.125 535.977 89.125C538.281 89.125 539.695 90.7812 539.695 93.25V93.8203H533.875C533.906 95.375 534.758 96.2812 536.102 96.2812C537.102 96.2812 537.766 95.7656 537.977 95.1484L538 95.0859H539.602L539.586 95.1719C539.32 96.4766 538.055 97.6641 536.062 97.6641ZM535.984 90.5078C534.891 90.5078 534.047 91.25 533.898 92.625H538.023C537.883 91.2031 537.086 90.5078 535.984 90.5078ZM541.008 97.5V89.2812H542.695V90.5547H542.734C543.086 89.6953 543.922 89.125 545 89.125C546.133 89.125 546.961 89.7109 547.289 90.7422H547.328C547.75 89.7422 548.719 89.125 549.891 89.125C551.516 89.125 552.578 90.2031 552.578 91.8516V97.5H550.883V92.2578C550.883 91.1875 550.312 90.5703 549.312 90.5703C548.312 90.5703 547.617 91.3203 547.617 92.3594V97.5H545.961V92.1328C545.961 91.1797 545.359 90.5703 544.406 90.5703C543.406 90.5703 542.695 91.3594 542.695 92.4219V97.5H541.008ZM557.719 97.6641C555.305 97.6641 553.844 96.0156 553.844 93.4219V93.4141C553.844 90.8438 555.328 89.125 557.633 89.125C559.938 89.125 561.352 90.7812 561.352 93.25V93.8203H555.531C555.562 95.375 556.414 96.2812 557.758 96.2812C558.758 96.2812 559.422 95.7656 559.633 95.1484L559.656 95.0859H561.258L561.242 95.1719C560.977 96.4766 559.711 97.6641 557.719 97.6641ZM557.641 90.5078C556.547 90.5078 555.703 91.25 555.555 92.625H559.68C559.539 91.2031 558.742 90.5078 557.641 90.5078ZM562.664 97.5V89.2812H564.352V90.5234H564.391C564.82 89.6875 565.664 89.125 566.906 89.125C568.711 89.125 569.75 90.2891 569.75 92.1797V97.5H568.055V92.5C568.055 91.2656 567.477 90.5703 566.305 90.5703C565.117 90.5703 564.352 91.4297 564.352 92.7109V97.5H562.664ZM574.266 97.6641C572.641 97.6641 571.859 96.9766 571.859 95.3359V90.625H570.68V89.2812H571.859V87.1406H573.586V89.2812H575.125V90.625H573.586V95.2344C573.586 96.0703 573.961 96.3203 574.672 96.3203C574.852 96.3203 575 96.3047 575.125 96.2891V97.5938C574.93 97.625 574.609 97.6641 574.266 97.6641Z" fill="black"/>
<rect x="633" y="72" width="87" height="40" rx="8" fill="#237BFF"/>
<path d="M653.219 97.5L649.203 86.2266H651.086L654.164 95.5547H654.203L657.281 86.2266H659.164L655.148 97.5H653.219ZM662.648 97.6641C660.289 97.6641 658.75 96.0312 658.75 93.3906V93.375C658.75 90.75 660.305 89.125 662.641 89.125C664.984 89.125 666.547 90.7422 666.547 93.375V93.3906C666.547 96.0391 665 97.6641 662.648 97.6641ZM662.656 96.25C663.977 96.25 664.82 95.2031 664.82 93.3906V93.375C664.82 91.5781 663.961 90.5391 662.641 90.5391C661.344 90.5391 660.477 91.5781 660.477 93.375V93.3906C660.477 95.2109 661.336 96.25 662.656 96.25ZM668.766 88.0156C668.219 88.0156 667.781 87.5781 667.781 87.0469C667.781 86.5078 668.219 86.0703 668.766 86.0703C669.32 86.0703 669.75 86.5078 669.75 87.0469C669.75 87.5781 669.32 88.0156 668.766 88.0156ZM667.922 97.5V89.2812H669.609V97.5H667.922ZM671.352 97.5V89.2812H673.039V90.6875H673.078C673.344 89.7266 674.031 89.125 674.969 89.125C675.211 89.125 675.422 89.1641 675.555 89.1875V90.7578C675.422 90.7031 675.125 90.6641 674.797 90.6641C673.711 90.6641 673.039 91.375 673.039 92.6016V97.5H671.352Z" fill="white"/>
<path d="M688 96L696 88M696 88H690M696 88V94" stroke="white" stroke-width="2" stroke-linecap="round" stroke-linejoin="round"/>
<line x1="-4.37114e-08" y1="127.5" x2="720" y2="127.5" stroke="#DDE2E5"/>
<path d="M5.00927 173.341H18.8297C20.9977 173.341 22.1165 172.222 22.1165 170.079V157.854C22.1165 155.709 20.9977 154.592 18.8297 154.592H5.00927C2.84124 154.592 1.71423 155.701 1.71423 157.854V170.079C1.71423 172.23 2.84124 173.341 5.00927 173.341ZM4.98154 171.373C4.13819 171.373 3.68216 170.94 3.68216 170.057V160.776C3.68216 159.901 4.13819 159.462 4.98154 159.462H18.841C19.6843 159.462 20.1485 159.901 20.1485 160.776V170.057C20.1485 170.94 19.6843 171.373 18.841 171.373H4.98154ZM9.98699 162.944H10.5797C10.9366 162.944 11.0525 162.838 11.0525 162.481V161.888C11.0525 161.531 10.9366 161.417 10.5797 161.417H9.98699C9.63001 161.417 9.50585 161.531 9.50585 161.888V162.481C9.50585 162.838 9.63001 162.944 9.98699 162.944ZM13.2694 162.944H13.862C14.219 162.944 14.345 162.838 14.345 162.481V161.888C14.345 161.531 14.219 161.417 13.862 161.417H13.2694C12.9124 161.417 12.7883 161.531 12.7883 161.888V162.481C12.7883 162.838 12.9124 162.944 13.2694 162.944ZM16.5536 162.944H17.1462C17.5032 162.944 17.6273 162.838 17.6273 162.481V161.888C17.6273 161.531 17.5032 161.417 17.1462 161.417H16.5536C16.1966 161.417 16.0807 161.531 16.0807 161.888V162.481C16.0807 162.838 16.1966 162.944 16.5536 162.944ZM6.70461 166.176H7.28719C7.65422 166.176 7.77014 166.07 7.77014 165.713V165.12C7.77014 164.763 7.65422 164.658 7.28719 164.658H6.70461C6.33757 164.658 6.22166 164.763 6.22166 165.12V165.713C6.22166 166.07 6.33757 166.176 6.70461 166.176ZM9.98699 166.176H10.5797C10.9366 166.176 11.0525 166.07 11.0525 165.713V165.12C11.0525 164.763 10.9366 164.658 10.5797 164.658H9.98699C9.63001 164.658 9.50585 164.763 9.50585 165.12V165.713C9.50585 166.07 9.63001 166.176 9.98699 166.176ZM13.2694 166.176H13.862C14.219 166.176 14.345 166.07 14.345 165.713V165.12C14.345 164.763 14.219 164.658 13.862 164.658H13.2694C12.9124 164.658 12.7883 164.763 12.7883 165.12V165.713C12.7883 166.07 12.9124 166.176 13.2694 166.176ZM16.5536 166.176H17.1462C17.5032 166.176 17.6273 166.07 17.6273 165.713V165.12C17.6273 164.763 17.5032 164.658 17.1462 164.658H16.5536C16.1966 164.658 16.0807 164.763 16.0807 165.12V165.713C16.0807 166.07 16.1966 166.176 16.5536 166.176ZM6.70461 169.416H7.28719C7.65422 169.416 7.77014 169.304 7.77014 168.945V168.354C7.77014 167.996 7.65422 167.892 7.28719 167.892H6.70461C6.33757 167.892 6.22166 167.996 6.22166 168.354V168.945C6.22166 169.304 6.33757 169.416 6.70461 169.416ZM9.98699 169.416H10.5797C10.9366 169.416 11.0525 169.304 11.0525 168.945V168.354C11.0525 167.996 10.9366 167.892 10.5797 167.892H9.98699C9.63001 167.892 9.50585 167.996 9.50585 168.354V168.945C9.50585 169.304 9.63001 169.416 9.98699 169.416ZM13.2694 169.416H13.862C14.219 169.416 14.345 169.304 14.345 168.945V168.354C14.345 167.996 14.219 167.892 13.862 167.892H13.2694C12.9124 167.892 12.7883 167.996 12.7883 168.354V168.945C12.7883 169.304 12.9124 169.416 13.2694 169.416Z" fill="black"/>
<path d="M31.7266 169.5V159.961H31.6875L28.7422 161.992V160.336L31.7109 158.227H33.4375V169.5H31.7266ZM40.2578 158.039C42.5625 158.039 44.6875 159.641 44.6875 163.695V163.711C44.6875 167.469 43.0078 169.688 40.1875 169.688C38.1797 169.688 36.6719 168.539 36.3125 166.859L36.2891 166.766H38.0391L38.0703 166.844C38.3906 167.688 39.125 168.219 40.2031 168.219C42.1406 168.219 42.9297 166.352 43 164.117C43.0078 164.016 43.0078 163.914 43.0078 163.812H42.9688C42.5234 164.828 41.3828 165.625 39.8516 165.625C37.6953 165.625 36.1328 164.055 36.1328 161.922V161.906C36.1328 159.656 37.875 158.039 40.2578 158.039ZM40.25 164.203C41.625 164.203 42.6641 163.242 42.6641 161.906V161.898C42.6641 160.562 41.6172 159.508 40.2734 159.508C38.9453 159.508 37.875 160.547 37.875 161.859V161.875C37.875 163.234 38.8828 164.203 40.25 164.203ZM50.3594 160.016C49.8125 160.016 49.375 159.578 49.375 159.047C49.375 158.508 49.8125 158.07 50.3594 158.07C50.9141 158.07 51.3438 158.508 51.3438 159.047C51.3438 159.578 50.9141 160.016 50.3594 160.016ZM48.5156 172.25C48.3828 172.25 48.2344 172.242 48.125 172.234V170.852C48.2031 170.852 48.2812 170.859 48.3672 170.859C49.2031 170.859 49.5156 170.594 49.5156 169.766V161.281H51.2031V169.781C51.2031 171.453 50.3359 172.25 48.5156 172.25ZM55.7422 169.664C53.9375 169.664 52.9062 168.5 52.9062 166.609V161.281H54.5938V166.281C54.5938 167.523 55.1719 168.211 56.3438 168.211C57.5312 168.211 58.2969 167.359 58.2969 166.078V161.281H59.9922V169.5H58.2969V168.266H58.2578C57.8281 169.094 56.9922 169.664 55.7422 169.664ZM62.5781 160.016C62.0312 160.016 61.5938 159.578 61.5938 159.047C61.5938 158.508 62.0312 158.07 62.5781 158.07C63.1328 158.07 63.5625 158.508 63.5625 159.047C63.5625 159.578 63.1328 160.016 62.5781 160.016ZM61.7344 169.5V161.281H63.4219V169.5H61.7344ZM65.1641 169.5V161.281H66.8516V162.523H66.8906C67.3203 161.688 68.1641 161.125 69.4062 161.125C71.2109 161.125 72.25 162.289 72.25 164.18V169.5H70.5547V164.5C70.5547 163.266 69.9766 162.57 68.8047 162.57C67.6172 162.57 66.8516 163.43 66.8516 164.711V169.5H65.1641ZM77.1719 169.5V168.297L81.1406 164.305C82.6406 162.805 82.9766 162.211 82.9766 161.336V161.32C82.9688 160.25 82.1562 159.484 81.0156 159.484C79.6953 159.484 78.75 160.375 78.7344 161.516V161.562H77.0781V161.516C77.0781 159.5 78.7891 158.039 80.9922 158.039C83.1562 158.039 84.7031 159.398 84.7031 161.219V161.234C84.7031 162.523 84.1016 163.438 82.0781 165.438L79.5156 167.953V168.023H84.8828V169.5H77.1719ZM90.5391 169.688C87.8438 169.688 86.2344 167.445 86.2344 163.867V163.852C86.2344 160.273 87.8438 158.039 90.5391 158.039C93.2266 158.039 94.8438 160.273 94.8438 163.852V163.867C94.8438 167.445 93.2266 169.688 90.5391 169.688ZM90.5391 168.227C92.1406 168.227 93.0781 166.57 93.0781 163.867V163.852C93.0781 161.148 92.1406 159.508 90.5391 159.508C88.9297 159.508 88 161.148 88 163.852V163.867C88 166.57 88.9297 168.227 90.5391 168.227ZM96.2812 169.5V168.297L100.25 164.305C101.75 162.805 102.086 162.211 102.086 161.336V161.32C102.078 160.25 101.266 159.484 100.125 159.484C98.8047 159.484 97.8594 160.375 97.8438 161.516V161.562H96.1875V161.516C96.1875 159.5 97.8984 158.039 100.102 158.039C102.266 158.039 103.812 159.398 103.812 161.219V161.234C103.812 162.523 103.211 163.438 101.188 165.438L98.625 167.953V168.023H103.992V169.5H96.2812ZM109.484 169.688C107.078 169.688 105.508 168.375 105.352 166.539L105.344 166.438H107.023L107.031 166.523C107.141 167.523 108.086 168.227 109.484 168.227C110.859 168.227 111.789 167.461 111.789 166.367V166.352C111.789 165.078 110.867 164.367 109.359 164.367H107.992V163.008H109.312C110.602 163.008 111.477 162.25 111.477 161.203V161.188C111.477 160.102 110.742 159.469 109.469 159.469C108.219 159.469 107.344 160.125 107.234 161.172L107.227 161.242H105.586L105.594 161.164C105.766 159.281 107.266 158.039 109.469 158.039C111.711 158.039 113.18 159.227 113.18 160.961V160.977C113.18 162.375 112.18 163.312 110.805 163.602V163.641C112.461 163.789 113.57 164.789 113.57 166.367V166.383C113.57 168.312 111.875 169.688 109.484 169.688ZM118.562 165.688V164.164H123.586V165.688H118.562ZM131.523 169.5V159.961H131.484L128.539 161.992V160.336L131.508 158.227H133.234V169.5H131.523ZM140.055 158.039C142.359 158.039 144.484 159.641 144.484 163.695V163.711C144.484 167.469 142.805 169.688 139.984 169.688C137.977 169.688 136.469 168.539 136.109 166.859L136.086 166.766H137.836L137.867 166.844C138.188 167.688 138.922 168.219 140 168.219C141.938 168.219 142.727 166.352 142.797 164.117C142.805 164.016 142.805 163.914 142.805 163.812H142.766C142.32 164.828 141.18 165.625 139.648 165.625C137.492 165.625 135.93 164.055 135.93 161.922V161.906C135.93 159.656 137.672 158.039 140.055 158.039ZM140.047 164.203C141.422 164.203 142.461 163.242 142.461 161.906V161.898C142.461 160.562 141.414 159.508 140.07 159.508C138.742 159.508 137.672 160.547 137.672 161.859V161.875C137.672 163.234 138.68 164.203 140.047 164.203ZM146.07 169.5V158.227H147.758V162.633H147.797C148.234 161.68 149.117 161.125 150.344 161.125C152.102 161.125 153.258 162.438 153.258 164.422V169.5H151.57V164.742C151.57 163.383 150.883 162.57 149.695 162.57C148.531 162.57 147.758 163.461 147.758 164.742V169.5H146.07ZM160.297 169.5V167.258H154.656V165.734L159.445 158.227H161.977V165.789H163.531V167.258H161.977V169.5H160.297ZM156.281 165.812H160.312V159.609H160.266L156.281 165.766V165.812ZM168.891 169.688C166.633 169.688 165.062 168.32 164.906 166.461L164.898 166.367H166.57L166.578 166.43C166.727 167.445 167.648 168.227 168.906 168.227C170.328 168.227 171.32 167.242 171.32 165.844V165.828C171.312 164.445 170.32 163.469 168.922 163.469C168.227 163.469 167.625 163.672 167.172 164.078C166.961 164.258 166.781 164.477 166.633 164.727H165.102L165.656 158.227H172.375V159.703H167.07L166.727 163.273H166.766C167.273 162.516 168.211 162.086 169.32 162.086C171.477 162.086 173.031 163.641 173.031 165.797V165.812C173.031 168.102 171.32 169.688 168.891 169.688ZM177.781 165.688V164.164H182.805V165.688H177.781ZM188.055 169.5V158.227H189.805V167.992H195.055V169.5H188.055ZM198.766 169.648C197.125 169.648 196.023 168.641 196.023 167.164V167.148C196.023 165.719 197.133 164.844 199.078 164.727L201.312 164.594V163.977C201.312 163.07 200.727 162.523 199.68 162.523C198.703 162.523 198.102 162.984 197.961 163.641L197.945 163.711H196.352L196.359 163.625C196.477 162.211 197.703 161.125 199.727 161.125C201.734 161.125 203.008 162.188 203.008 163.836V169.5H201.312V168.203H201.281C200.805 169.086 199.852 169.648 198.766 169.648ZM197.727 167.125C197.727 167.844 198.32 168.297 199.227 168.297C200.414 168.297 201.312 167.492 201.312 166.422V165.781L199.305 165.906C198.289 165.969 197.727 166.414 197.727 167.109V167.125ZM208.102 169.5V158.227H212.477C214.781 158.227 216.234 159.562 216.234 161.68V161.695C216.234 163.227 215.398 164.445 214.047 164.906L216.57 169.5H214.555L212.258 165.172H209.852V169.5H208.102ZM209.852 163.734H212.305C213.656 163.734 214.43 162.992 214.43 161.711V161.695C214.43 160.445 213.602 159.695 212.258 159.695H209.852V163.734ZM218.641 160.016C218.094 160.016 217.656 159.578 217.656 159.047C217.656 158.508 218.094 158.07 218.641 158.07C219.195 158.07 219.625 158.508 219.625 159.047C219.625 159.578 219.195 160.016 218.641 160.016ZM217.797 169.5V161.281H219.484V169.5H217.797ZM224.758 169.664C222.359 169.664 220.859 168.016 220.859 165.383V165.375C220.859 162.773 222.391 161.125 224.734 161.125C226.852 161.125 228.133 162.484 228.273 164.031L228.281 164.086H226.672L226.656 164.023C226.477 163.219 225.852 162.539 224.75 162.539C223.438 162.539 222.586 163.633 222.586 165.391V165.398C222.586 167.195 223.453 168.25 224.758 168.25C225.797 168.25 226.461 167.648 226.664 166.758L226.672 166.695H228.297L228.289 166.75C228.109 168.398 226.734 169.664 224.758 169.664ZM231.906 169.648C230.266 169.648 229.164 168.641 229.164 167.164V167.148C229.164 165.719 230.273 164.844 232.219 164.727L234.453 164.594V163.977C234.453 163.07 233.867 162.523 232.82 162.523C231.844 162.523 231.242 162.984 231.102 163.641L231.086 163.711H229.492L229.5 163.625C229.617 162.211 230.844 161.125 232.867 161.125C234.875 161.125 236.148 162.188 236.148 163.836V169.5H234.453V168.203H234.422C233.945 169.086 232.992 169.648 231.906 169.648ZM230.867 167.125C230.867 167.844 231.461 168.297 232.367 168.297C233.555 168.297 234.453 167.492 234.453 166.422V165.781L232.445 165.906C231.43 165.969 230.867 166.414 230.867 167.109V167.125ZM237.789 169.5V161.281H239.477V162.555H239.516C239.867 161.695 240.703 161.125 241.781 161.125C242.914 161.125 243.742 161.711 244.07 162.742H244.109C244.531 161.742 245.5 161.125 246.672 161.125C248.297 161.125 249.359 162.203 249.359 163.852V169.5H247.664V164.258C247.664 163.188 247.094 162.57 246.094 162.57C245.094 162.57 244.398 163.32 244.398 164.359V169.5H242.742V164.133C242.742 163.18 242.141 162.57 241.188 162.57C240.188 162.57 239.477 163.359 239.477 164.422V169.5H237.789ZM253.406 169.648C251.766 169.648 250.664 168.641 250.664 167.164V167.148C250.664 165.719 251.773 164.844 253.719 164.727L255.953 164.594V163.977C255.953 163.07 255.367 162.523 254.32 162.523C253.344 162.523 252.742 162.984 252.602 163.641L252.586 163.711H250.992L251 163.625C251.117 162.211 252.344 161.125 254.367 161.125C256.375 161.125 257.648 162.188 257.648 163.836V169.5H255.953V168.203H255.922C255.445 169.086 254.492 169.648 253.406 169.648ZM252.367 167.125C252.367 167.844 252.961 168.297 253.867 168.297C255.055 168.297 255.953 167.492 255.953 166.422V165.781L253.945 165.906C252.93 165.969 252.367 166.414 252.367 167.109V167.125ZM259.289 169.5V161.281H260.977V162.688H261.016C261.281 161.727 261.969 161.125 262.906 161.125C263.148 161.125 263.359 161.164 263.492 161.188V162.758C263.359 162.703 263.062 162.664 262.734 162.664C261.648 162.664 260.977 163.375 260.977 164.602V169.5H259.289ZM265.453 160.016C264.906 160.016 264.469 159.578 264.469 159.047C264.469 158.508 264.906 158.07 265.453 158.07C266.008 158.07 266.438 158.508 266.438 159.047C266.438 159.578 266.008 160.016 265.453 160.016ZM264.609 169.5V161.281H266.297V169.5H264.609ZM271.547 169.664C269.133 169.664 267.672 168.016 267.672 165.422V165.414C267.672 162.844 269.156 161.125 271.461 161.125C273.766 161.125 275.18 162.781 275.18 165.25V165.82H269.359C269.391 167.375 270.242 168.281 271.586 168.281C272.586 168.281 273.25 167.766 273.461 167.148L273.484 167.086H275.086L275.07 167.172C274.805 168.477 273.539 169.664 271.547 169.664ZM271.469 162.508C270.375 162.508 269.531 163.25 269.383 164.625H273.508C273.367 163.203 272.57 162.508 271.469 162.508ZM280.703 163.75C280.125 163.75 279.672 163.297 279.672 162.719C279.672 162.148 280.125 161.695 280.703 161.695C281.273 161.695 281.727 162.148 281.727 162.719C281.727 163.297 281.273 163.75 280.703 163.75ZM280.703 169.617C280.125 169.617 279.672 169.164 279.672 168.594C279.672 168.016 280.125 167.57 280.703 167.57C281.273 167.57 281.727 168.016 281.727 168.594C281.727 169.164 281.273 169.617 280.703 169.617ZM289.383 169.664C287.578 169.664 286.547 168.5 286.547 166.609V161.281H288.234V166.281C288.234 167.523 288.812 168.211 289.984 168.211C291.172 168.211 291.938 167.359 291.938 166.078V161.281H293.633V169.5H291.938V168.266H291.898C291.469 169.094 290.633 169.664 289.383 169.664ZM295.305 169.5V161.281H296.992V162.523H297.031C297.461 161.688 298.305 161.125 299.547 161.125C301.352 161.125 302.391 162.289 302.391 164.18V169.5H300.695V164.5C300.695 163.266 300.117 162.57 298.945 162.57C297.758 162.57 296.992 163.43 296.992 164.711V169.5H295.305ZM307.531 169.664C305.117 169.664 303.656 168.016 303.656 165.422V165.414C303.656 162.844 305.141 161.125 307.445 161.125C309.75 161.125 311.164 162.781 311.164 165.25V165.82H305.344C305.375 167.375 306.227 168.281 307.57 168.281C308.57 168.281 309.234 167.766 309.445 167.148L309.469 167.086H311.07L311.055 167.172C310.789 168.477 309.523 169.664 307.531 169.664ZM307.453 162.508C306.359 162.508 305.516 163.25 305.367 164.625H309.492C309.352 163.203 308.555 162.508 307.453 162.508ZM319.258 169.664C316.859 169.664 315.359 168.016 315.359 165.383V165.375C315.359 162.773 316.891 161.125 319.234 161.125C321.352 161.125 322.633 162.484 322.773 164.031L322.781 164.086H321.172L321.156 164.023C320.977 163.219 320.352 162.539 319.25 162.539C317.938 162.539 317.086 163.633 317.086 165.391V165.398C317.086 167.195 317.953 168.25 319.258 168.25C320.297 168.25 320.961 167.648 321.164 166.758L321.172 166.695H322.797L322.789 166.75C322.609 168.398 321.234 169.664 319.258 169.664ZM327.523 169.664C325.164 169.664 323.625 168.031 323.625 165.391V165.375C323.625 162.75 325.18 161.125 327.516 161.125C329.859 161.125 331.422 162.742 331.422 165.375V165.391C331.422 168.039 329.875 169.664 327.523 169.664ZM327.531 168.25C328.852 168.25 329.695 167.203 329.695 165.391V165.375C329.695 163.578 328.836 162.539 327.516 162.539C326.219 162.539 325.352 163.578 325.352 165.375V165.391C325.352 167.211 326.211 168.25 327.531 168.25ZM332.727 169.5V161.281H334.414V162.523H334.453C334.883 161.688 335.727 161.125 336.969 161.125C338.773 161.125 339.812 162.289 339.812 164.18V169.5H338.117V164.5C338.117 163.266 337.539 162.57 336.367 162.57C335.18 162.57 334.414 163.43 334.414 164.711V169.5H332.727ZM341.938 169.5V162.625H340.805V161.281H341.938V160.406C341.938 158.812 342.688 158.062 344.359 158.062C344.703 158.062 345.078 158.094 345.305 158.133V159.383C345.141 159.359 344.93 159.344 344.719 159.344C343.961 159.344 343.602 159.711 343.602 160.438V161.281H345.273V162.625H343.633V169.5H341.938ZM349.789 160.352H348.57L349.938 157.891H351.578L349.789 160.352ZM349.391 169.664C346.977 169.664 345.516 168.016 345.516 165.422V165.414C345.516 162.844 347 161.125 349.305 161.125C351.609 161.125 353.023 162.781 353.023 165.25V165.82H347.203C347.234 167.375 348.086 168.281 349.43 168.281C350.43 168.281 351.094 167.766 351.305 167.148L351.328 167.086H352.93L352.914 167.172C352.648 168.477 351.383 169.664 349.391 169.664ZM349.312 162.508C348.219 162.508 347.375 163.25 347.227 164.625H351.352C351.211 163.203 350.414 162.508 349.312 162.508ZM354.336 169.5V161.281H356.023V162.688H356.062C356.328 161.727 357.016 161.125 357.953 161.125C358.195 161.125 358.406 161.164 358.539 161.188V162.758C358.406 162.703 358.109 162.664 357.781 162.664C356.695 162.664 356.023 163.375 356.023 164.602V169.5H354.336ZM362.734 169.664C360.32 169.664 358.859 168.016 358.859 165.422V165.414C358.859 162.844 360.344 161.125 362.648 161.125C364.953 161.125 366.367 162.781 366.367 165.25V165.82H360.547C360.578 167.375 361.43 168.281 362.773 168.281C363.773 168.281 364.438 167.766 364.648 167.148L364.672 167.086H366.273L366.258 167.172C365.992 168.477 364.727 169.664 362.734 169.664ZM362.656 162.508C361.562 162.508 360.719 163.25 360.57 164.625H364.695C364.555 163.203 363.758 162.508 362.656 162.508ZM367.68 169.5V161.281H369.367V162.523H369.406C369.836 161.688 370.68 161.125 371.922 161.125C373.727 161.125 374.766 162.289 374.766 164.18V169.5H373.07V164.5C373.07 163.266 372.492 162.57 371.32 162.57C370.133 162.57 369.367 163.43 369.367 164.711V169.5H367.68ZM379.93 169.664C377.531 169.664 376.031 168.016 376.031 165.383V165.375C376.031 162.773 377.562 161.125 379.906 161.125C382.023 161.125 383.305 162.484 383.445 164.031L383.453 164.086H381.844L381.828 164.023C381.648 163.219 381.023 162.539 379.922 162.539C378.609 162.539 377.758 163.633 377.758 165.391V165.398C377.758 167.195 378.625 168.25 379.93 168.25C380.969 168.25 381.633 167.648 381.836 166.758L381.844 166.695H383.469L383.461 166.75C383.281 168.398 381.906 169.664 379.93 169.664ZM388.172 169.664C385.758 169.664 384.297 168.016 384.297 165.422V165.414C384.297 162.844 385.781 161.125 388.086 161.125C390.391 161.125 391.805 162.781 391.805 165.25V165.82H385.984C386.016 167.375 386.867 168.281 388.211 168.281C389.211 168.281 389.875 167.766 390.086 167.148L390.109 167.086H391.711L391.695 167.172C391.43 168.477 390.164 169.664 388.172 169.664ZM388.094 162.508C387 162.508 386.156 163.25 386.008 164.625H390.133C389.992 163.203 389.195 162.508 388.094 162.508ZM399.445 169.664C397.391 169.664 396.188 168.648 396.016 167.148L396.008 167.078H397.68L397.695 167.156C397.852 167.914 398.414 168.359 399.453 168.359C400.469 168.359 401.078 167.938 401.078 167.273V167.266C401.078 166.734 400.781 166.43 399.898 166.219L398.555 165.914C396.992 165.555 396.219 164.805 396.219 163.609V163.602C396.219 162.133 397.5 161.125 399.391 161.125C401.336 161.125 402.508 162.211 402.594 163.609L402.602 163.703H401.016L401.008 163.648C400.906 162.93 400.344 162.43 399.391 162.43C398.484 162.43 397.914 162.859 397.914 163.516V163.523C397.914 164.031 398.25 164.375 399.133 164.586L400.469 164.891C402.148 165.281 402.789 165.945 402.789 167.125V167.133C402.789 168.633 401.383 169.664 399.445 169.664ZM406.898 169.664C405.094 169.664 404.062 168.5 404.062 166.609V161.281H405.75V166.281C405.75 167.523 406.328 168.211 407.5 168.211C408.688 168.211 409.453 167.359 409.453 166.078V161.281H411.148V169.5H409.453V168.266H409.414C408.984 169.094 408.148 169.664 406.898 169.664ZM412.82 169.5V161.281H414.508V162.688H414.547C414.812 161.727 415.5 161.125 416.438 161.125C416.68 161.125 416.891 161.164 417.023 161.188V162.758C416.891 162.703 416.594 162.664 416.266 162.664C415.18 162.664 414.508 163.375 414.508 164.602V169.5H412.82ZM421.383 169.5V158.227H423.07V169.5H421.383ZM428.312 169.664C425.898 169.664 424.438 168.016 424.438 165.422V165.414C424.438 162.844 425.922 161.125 428.227 161.125C430.531 161.125 431.945 162.781 431.945 165.25V165.82H426.125C426.156 167.375 427.008 168.281 428.352 168.281C429.352 168.281 430.016 167.766 430.227 167.148L430.25 167.086H431.852L431.836 167.172C431.57 168.477 430.305 169.664 428.312 169.664ZM428.234 162.508C427.141 162.508 426.297 163.25 426.148 164.625H430.273C430.133 163.203 429.336 162.508 428.234 162.508ZM436.336 169.664C434.281 169.664 433.078 168.648 432.906 167.148L432.898 167.078H434.57L434.586 167.156C434.742 167.914 435.305 168.359 436.344 168.359C437.359 168.359 437.969 167.938 437.969 167.273V167.266C437.969 166.734 437.672 166.43 436.789 166.219L435.445 165.914C433.883 165.555 433.109 164.805 433.109 163.609V163.602C433.109 162.133 434.391 161.125 436.281 161.125C438.227 161.125 439.398 162.211 439.484 163.609L439.492 163.703H437.906L437.898 163.648C437.797 162.93 437.234 162.43 436.281 162.43C435.375 162.43 434.805 162.859 434.805 163.516V163.523C434.805 164.031 435.141 164.375 436.023 164.586L437.359 164.891C439.039 165.281 439.68 165.945 439.68 167.125V167.133C439.68 168.633 438.273 169.664 436.336 169.664ZM447.312 169.664C445.219 169.664 443.875 168.008 443.875 165.391V165.383C443.875 162.766 445.234 161.125 447.297 161.125C448.461 161.125 449.398 161.711 449.891 162.68H449.922V158.227H451.617V169.5H449.922V168.109H449.891C449.398 169.07 448.492 169.664 447.312 169.664ZM447.758 168.211C449.031 168.211 449.93 167.102 449.93 165.391V165.383C449.93 163.68 449.023 162.57 447.758 162.57C446.43 162.57 445.602 163.648 445.602 165.383V165.391C445.602 167.141 446.422 168.211 447.758 168.211ZM455.766 169.648C454.125 169.648 453.023 168.641 453.023 167.164V167.148C453.023 165.719 454.133 164.844 456.078 164.727L458.312 164.594V163.977C458.312 163.07 457.727 162.523 456.68 162.523C455.703 162.523 455.102 162.984 454.961 163.641L454.945 163.711H453.352L453.359 163.625C453.477 162.211 454.703 161.125 456.727 161.125C458.734 161.125 460.008 162.188 460.008 163.836V169.5H458.312V168.203H458.281C457.805 169.086 456.852 169.648 455.766 169.648ZM454.727 167.125C454.727 167.844 455.32 168.297 456.227 168.297C457.414 168.297 458.312 167.492 458.312 166.422V165.781L456.305 165.906C455.289 165.969 454.727 166.414 454.727 167.109V167.125ZM461.648 169.5V161.281H463.336V162.523H463.375C463.805 161.688 464.648 161.125 465.891 161.125C467.695 161.125 468.734 162.289 468.734 164.18V169.5H467.039V164.5C467.039 163.266 466.461 162.57 465.289 162.57C464.102 162.57 463.336 163.43 463.336 164.711V169.5H461.648ZM473.969 172.398C471.859 172.398 470.523 171.422 470.273 170.164L470.266 170.094H471.938L471.969 170.156C472.195 170.68 472.906 171.039 473.961 171.039C475.305 171.039 476.047 170.32 476.047 169.172V168.047H476.008C475.539 168.938 474.602 169.508 473.422 169.508C471.359 169.508 470 167.891 470 165.328V165.32C470 162.742 471.375 161.125 473.461 161.125C474.617 161.125 475.523 161.75 476.008 162.68H476.047V161.281H477.742V169.273C477.742 171.148 476.289 172.398 473.969 172.398ZM473.898 168.133C475.188 168.133 476.047 167.047 476.047 165.352V165.344C476.047 163.656 475.18 162.57 473.898 162.57C472.562 162.57 471.727 163.648 471.727 165.344V165.352C471.727 167.07 472.562 168.133 473.898 168.133ZM482.922 169.664C480.508 169.664 479.047 168.016 479.047 165.422V165.414C479.047 162.844 480.531 161.125 482.836 161.125C485.141 161.125 486.555 162.781 486.555 165.25V165.82H480.734C480.766 167.375 481.617 168.281 482.961 168.281C483.961 168.281 484.625 167.766 484.836 167.148L484.859 167.086H486.461L486.445 167.172C486.18 168.477 484.914 169.664 482.922 169.664ZM482.844 162.508C481.75 162.508 480.906 163.25 480.758 164.625H484.883C484.742 163.203 483.945 162.508 482.844 162.508ZM487.867 169.5V161.281H489.555V162.688H489.594C489.859 161.727 490.547 161.125 491.484 161.125C491.727 161.125 491.938 161.164 492.07 161.188V162.758C491.938 162.703 491.641 162.664 491.312 162.664C490.227 162.664 489.555 163.375 489.555 164.602V169.5H487.867ZM496.195 169.664C494.141 169.664 492.938 168.648 492.766 167.148L492.758 167.078H494.43L494.445 167.156C494.602 167.914 495.164 168.359 496.203 168.359C497.219 168.359 497.828 167.938 497.828 167.273V167.266C497.828 166.734 497.531 166.43 496.648 166.219L495.305 165.914C493.742 165.555 492.969 164.805 492.969 163.609V163.602C492.969 162.133 494.25 161.125 496.141 161.125C498.086 161.125 499.258 162.211 499.344 163.609L499.352 163.703H497.766L497.758 163.648C497.656 162.93 497.094 162.43 496.141 162.43C495.234 162.43 494.664 162.859 494.664 163.516V163.523C494.664 164.031 495 164.375 495.883 164.586L497.219 164.891C498.898 165.281 499.539 165.945 499.539 167.125V167.133C499.539 168.633 498.133 169.664 496.195 169.664ZM507.172 169.664C505.078 169.664 503.734 168.008 503.734 165.391V165.383C503.734 162.766 505.094 161.125 507.156 161.125C508.32 161.125 509.258 161.711 509.75 162.68H509.781V158.227H511.477V169.5H509.781V168.109H509.75C509.258 169.07 508.352 169.664 507.172 169.664ZM507.617 168.211C508.891 168.211 509.789 167.102 509.789 165.391V165.383C509.789 163.68 508.883 162.57 507.617 162.57C506.289 162.57 505.461 163.648 505.461 165.383V165.391C505.461 167.141 506.281 168.211 507.617 168.211ZM516.719 169.664C514.305 169.664 512.844 168.016 512.844 165.422V165.414C512.844 162.844 514.328 161.125 516.633 161.125C518.938 161.125 520.352 162.781 520.352 165.25V165.82H514.531C514.562 167.375 515.414 168.281 516.758 168.281C517.758 168.281 518.422 167.766 518.633 167.148L518.656 167.086H520.258L520.242 167.172C519.977 168.477 518.711 169.664 516.719 169.664ZM516.641 162.508C515.547 162.508 514.703 163.25 514.555 164.625H518.68C518.539 163.203 517.742 162.508 516.641 162.508ZM524.742 169.664C522.688 169.664 521.484 168.648 521.312 167.148L521.305 167.078H522.977L522.992 167.156C523.148 167.914 523.711 168.359 524.75 168.359C525.766 168.359 526.375 167.938 526.375 167.273V167.266C526.375 166.734 526.078 166.43 525.195 166.219L523.852 165.914C522.289 165.555 521.516 164.805 521.516 163.609V163.602C521.516 162.133 522.797 161.125 524.688 161.125C526.633 161.125 527.805 162.211 527.891 163.609L527.898 163.703H526.312L526.305 163.648C526.203 162.93 525.641 162.43 524.688 162.43C523.781 162.43 523.211 162.859 523.211 163.516V163.523C523.211 164.031 523.547 164.375 524.43 164.586L525.766 164.891C527.445 165.281 528.086 165.945 528.086 167.125V167.133C528.086 168.633 526.68 169.664 524.742 169.664ZM536.555 160.352H535.336L536.703 157.891H538.344L536.555 160.352ZM536.156 169.664C533.742 169.664 532.281 168.016 532.281 165.422V165.414C532.281 162.844 533.766 161.125 536.07 161.125C538.375 161.125 539.789 162.781 539.789 165.25V165.82H533.969C534 167.375 534.852 168.281 536.195 168.281C537.195 168.281 537.859 167.766 538.07 167.148L538.094 167.086H539.695L539.68 167.172C539.414 168.477 538.148 169.664 536.156 169.664ZM536.078 162.508C534.984 162.508 534.141 163.25 533.992 164.625H538.117C537.977 163.203 537.18 162.508 536.078 162.508ZM544.633 169.664C542.234 169.664 540.734 168.016 540.734 165.383V165.375C540.734 162.773 542.266 161.125 544.609 161.125C546.727 161.125 548.008 162.484 548.148 164.031L548.156 164.086H546.547L546.531 164.023C546.352 163.219 545.727 162.539 544.625 162.539C543.312 162.539 542.461 163.633 542.461 165.391V165.398C542.461 167.195 543.328 168.25 544.633 168.25C545.672 168.25 546.336 167.648 546.539 166.758L546.547 166.695H548.172L548.164 166.75C547.984 168.398 546.609 169.664 544.633 169.664ZM549.367 169.5V161.281H551.055V162.688H551.094C551.359 161.727 552.047 161.125 552.984 161.125C553.227 161.125 553.438 161.164 553.57 161.188V162.758C553.438 162.703 553.141 162.664 552.812 162.664C551.727 162.664 551.055 163.375 551.055 164.602V169.5H549.367ZM556.859 169.648C555.219 169.648 554.117 168.641 554.117 167.164V167.148C554.117 165.719 555.227 164.844 557.172 164.727L559.406 164.594V163.977C559.406 163.07 558.82 162.523 557.773 162.523C556.797 162.523 556.195 162.984 556.055 163.641L556.039 163.711H554.445L554.453 163.625C554.57 162.211 555.797 161.125 557.82 161.125C559.828 161.125 561.102 162.188 561.102 163.836V169.5H559.406V168.203H559.375C558.898 169.086 557.945 169.648 556.859 169.648ZM555.82 167.125C555.82 167.844 556.414 168.297 557.32 168.297C558.508 168.297 559.406 167.492 559.406 166.422V165.781L557.398 165.906C556.383 165.969 555.82 166.414 555.82 167.109V167.125ZM562.742 169.5V161.281H564.43V162.523H564.469C564.898 161.688 565.742 161.125 566.984 161.125C568.789 161.125 569.828 162.289 569.828 164.18V169.5H568.133V164.5C568.133 163.266 567.555 162.57 566.383 162.57C565.195 162.57 564.43 163.43 564.43 164.711V169.5H562.742ZM574.539 169.664C572.484 169.664 571.281 168.648 571.109 167.148L571.102 167.078H572.773L572.789 167.156C572.945 167.914 573.508 168.359 574.547 168.359C575.562 168.359 576.172 167.938 576.172 167.273V167.266C576.172 166.734 575.875 166.43 574.992 166.219L573.648 165.914C572.086 165.555 571.312 164.805 571.312 163.609V163.602C571.312 162.133 572.594 161.125 574.484 161.125C576.43 161.125 577.602 162.211 577.688 163.609L577.695 163.703H576.109L576.102 163.648C576 162.93 575.438 162.43 574.484 162.43C573.578 162.43 573.008 162.859 573.008 163.516V163.523C573.008 164.031 573.344 164.375 574.227 164.586L575.562 164.891C577.242 165.281 577.883 165.945 577.883 167.125V167.133C577.883 168.633 576.477 169.664 574.539 169.664Z" fill="black"/>
<rect x="633" y="144" width="87" height="40" rx="8" fill="#237BFF"/>
<path d="M653.219 169.5L649.203 158.227H651.086L654.164 167.555H654.203L657.281 158.227H659.164L655.148 169.5H653.219ZM662.648 169.664C660.289 169.664 658.75 168.031 658.75 165.391V165.375C658.75 162.75 660.305 161.125 662.641 161.125C664.984 161.125 666.547 162.742 666.547 165.375V165.391C666.547 168.039 665 169.664 662.648 169.664ZM662.656 168.25C663.977 168.25 664.82 167.203 664.82 165.391V165.375C664.82 163.578 663.961 162.539 662.641 162.539C661.344 162.539 660.477 163.578 660.477 165.375V165.391C660.477 167.211 661.336 168.25 662.656 168.25ZM668.766 160.016C668.219 160.016 667.781 159.578 667.781 159.047C667.781 158.508 668.219 158.07 668.766 158.07C669.32 158.07 669.75 158.508 669.75 159.047C669.75 159.578 669.32 160.016 668.766 160.016ZM667.922 169.5V161.281H669.609V169.5H667.922ZM671.352 169.5V161.281H673.039V162.688H673.078C673.344 161.727 674.031 161.125 674.969 161.125C675.211 161.125 675.422 161.164 675.555 161.188V162.758C675.422 162.703 675.125 162.664 674.797 162.664C673.711 162.664 673.039 163.375 673.039 164.602V169.5H671.352Z" fill="white"/>
<path d="M688 168L696 160M696 160H690M696 160V166" stroke="white" stroke-width="2" stroke-linecap="round" stroke-linejoin="round"/>
</svg>
