<svg width="24" height="24" viewBox="0 0 24 24" fill="none" xmlns="http://www.w3.org/2000/svg">
<path d="M18 7.99902C18 6.40772 17.3679 4.8816 16.2426 3.75638C15.1174 2.63116 13.5913 1.99902 12 1.99902C10.4087 1.99902 8.88258 2.63116 7.75736 3.75638C6.63214 4.8816 6 6.40772 6 7.99902C6 14.999 3 16.999 3 16.999H21C21 16.999 18 14.999 18 7.99902Z" stroke="#237BFF" stroke-width="2.1" stroke-linecap="round" stroke-linejoin="round"/>
<path d="M13.73 21C13.5542 21.3031 13.3019 21.5547 12.9982 21.7295C12.6946 21.9044 12.3504 21.9965 12 21.9965C11.6496 21.9965 11.3054 21.9044 11.0018 21.7295C10.6982 21.5547 10.4458 21.3031 10.27 21" stroke="#237BFF" stroke-width="2.1" stroke-linecap="round" stroke-linejoin="round"/>
</svg>
