<svg width="143" height="10" viewBox="0 0 143 10" fill="none" xmlns="http://www.w3.org/2000/svg">
<path d="M4.39453 9.14062C1.99805 9.14062 0.474609 7.45312 0.474609 4.76953V4.76367C0.474609 2.08008 1.99805 0.404297 4.39453 0.404297C6.25781 0.404297 7.6582 1.55273 7.92188 3.22266L7.93359 3.27539H6.63281L6.59766 3.1582C6.31641 2.16797 5.53125 1.56445 4.39453 1.56445C2.82422 1.56445 1.81641 2.80664 1.81641 4.76367V4.76953C1.81641 6.72656 2.83008 7.98047 4.39453 7.98047C5.51953 7.98047 6.29883 7.39453 6.61523 6.32227L6.63281 6.26953H7.93359L7.92773 6.32812C7.66406 8.00977 6.26367 9.14062 4.39453 9.14062ZM10.083 9V0.544922H11.3955V4.11914H15.7373V0.544922H17.0498V9H15.7373V5.25586H11.3955V9H10.083ZM19.5626 9V0.544922H20.8751V9H19.5626ZM23.3937 9V0.544922H28.673V1.67578H24.7062V4.35352H28.339V5.46094H24.7062V9H23.3937ZM30.7755 9V0.544922H36.0548V1.67578H32.088V4.35352H35.7209V5.46094H32.088V9H30.7755ZM38.1574 9V0.544922H41.4387C43.1672 0.544922 44.257 1.54688 44.257 3.13477V3.14648C44.257 4.29492 43.6301 5.20898 42.6164 5.55469L44.509 9H42.9973L41.2746 5.75391H39.4699V9H38.1574ZM39.4699 4.67578H41.3098C42.3234 4.67578 42.9035 4.11914 42.9035 3.1582V3.14648C42.9035 2.20898 42.2824 1.64648 41.2746 1.64648H39.4699V4.67578ZM46.4885 9V0.544922H51.8557V1.67578H47.801V4.14258H51.6389V5.24414H47.801V7.86914H51.8557V9H46.4885ZM57.0462 9.14062C55.1477 9.14062 53.8938 8.23828 53.7884 6.75L53.7825 6.66211H55.0598L55.0716 6.73828C55.1888 7.51758 55.968 8.00391 57.0989 8.00391C58.2298 8.00391 58.9446 7.49414 58.9446 6.70312V6.69727C58.9446 6.01758 58.4817 5.64844 57.3626 5.40234L56.4427 5.20898C54.7845 4.85742 53.9817 4.0957 53.9817 2.8418V2.83594C53.9876 1.39453 55.2591 0.404297 57.0462 0.404297C58.8098 0.404297 60.0169 1.36523 60.1048 2.7832L60.1106 2.88281H58.8333L58.8274 2.80078C58.7102 2.01562 58.0305 1.54102 57.0286 1.54102C55.9798 1.54688 55.3118 2.04492 55.3118 2.7832V2.78906C55.3118 3.42188 55.7923 3.80859 56.847 4.03711L57.7727 4.23047C59.5188 4.59961 60.2688 5.30859 60.2688 6.61523V6.62109C60.2688 8.16211 59.0501 9.14062 57.0462 9.14062ZM65.8099 9V0.544922H68.7923C71.3002 0.544922 72.7943 2.08594 72.7943 4.74609V4.75781C72.7943 7.42969 71.3119 9 68.7923 9H65.8099ZM67.1224 7.86328H68.6693C70.4623 7.86328 71.4525 6.76758 71.4525 4.76953V4.75781C71.4525 2.77148 70.4505 1.67578 68.6693 1.67578H67.1224V7.86328ZM78.4359 9.14062C76.3148 9.14062 75.0082 7.88086 75.0082 6.0293V0.544922H76.3207V5.92383C76.3207 7.1543 77.0883 7.98047 78.4359 7.98047C79.7836 7.98047 80.5453 7.1543 80.5453 5.92383V0.544922H81.852V6.0293C81.852 7.88086 80.5629 9.14062 78.4359 9.14062ZM87.768 9V0.544922H89.2856L92.0219 7.29492H92.0571L94.7993 0.544922H96.311V9H95.1157V2.75977H95.0747L92.5259 9H91.5532L89.0044 2.75977H88.9634V9H87.768ZM102.486 9.14062C100.048 9.14062 98.5249 7.46484 98.5249 4.77539V4.76367C98.5249 2.08008 100.054 0.404297 102.486 0.404297C104.923 0.404297 106.447 2.08594 106.447 4.76367V4.77539C106.447 7.45898 104.929 9.14062 102.486 9.14062ZM102.486 7.98047C104.109 7.98047 105.105 6.72656 105.105 4.77539V4.76367C105.105 2.80078 104.091 1.56445 102.486 1.56445C100.886 1.56445 99.8609 2.79492 99.8609 4.76367V4.77539C99.8609 6.74414 100.88 7.98047 102.486 7.98047ZM108.661 9V0.544922H110.178L112.915 7.29492H112.95L115.692 0.544922H117.204V9H116.008V2.75977H115.967L113.419 9H112.446L109.897 2.75977H109.856V9H108.661ZM119.722 9V0.544922H125.089V1.67578H121.035V4.14258H124.873V5.24414H121.035V7.86914H125.089V9H119.722ZM127.397 9V0.544922H128.61L132.958 6.79688H132.993V0.544922H134.294V9H133.087L128.733 2.73633H128.698V9H127.397ZM138.916 9V1.67578H136.326V0.544922H142.812V1.67578H140.228V9H138.916Z" fill="black"/>
</svg>
