<svg width="54" height="54" viewBox="0 0 54 54" fill="none" xmlns="http://www.w3.org/2000/svg">
<path d="M50.3357 2.29339L49.6286 1.58663L48.9217 2.29356L27 24.2153L5.07831 2.29356L4.3712 1.58646L3.66409 2.29356L2.29289 3.66477L1.58579 4.37187L2.29289 5.07898L24.2146 27.0007L2.29289 48.9224L1.58579 49.6295L2.29289 50.3366L3.66409 51.7078L4.3712 52.4149L5.07831 51.7078L27 29.7861L48.9217 51.7078L49.629 52.4151L50.3361 51.7076L51.7073 50.3357L52.414 49.6286L51.7071 48.9217L29.7854 27L51.7071 5.0783L52.4144 4.37102L51.7069 3.66391L50.3357 2.29339Z" fill="#FFFEF0" stroke="#FFFEF0" stroke-width="2"/>
</svg>
