<svg width="239" height="68" viewBox="0 0 239 68" fill="none" xmlns="http://www.w3.org/2000/svg">
<g clip-path="url(#clip0_121_420)">
<path d="M0.394043 34.2394L7.33471 1.92798H21.7908C25.0474 1.92798 27.3683 2.57055 28.7535 3.85571C30.1535 5.14086 30.8534 6.82762 30.8534 8.916C30.8534 10.1135 30.6545 11.2965 30.2566 12.4648C29.8587 13.6331 29.2988 14.6992 28.5767 15.6631C27.8546 16.6269 27.0073 17.4155 26.0347 18.0289C25.0622 18.6423 24.0085 18.9928 22.8739 19.0804C23.6696 19.1242 24.399 19.2922 25.0622 19.5842C25.7253 19.8617 26.2484 20.2998 26.6315 20.8986C27.0294 21.4974 27.2284 22.2933 27.2284 23.2864C27.2284 23.7683 27.1694 24.3305 27.0515 24.9731C26.9484 25.6011 26.8157 26.2729 26.6537 26.9885C26.4916 27.7041 26.3221 28.4197 26.1453 29.1353C25.9832 29.8509 25.8432 30.53 25.7253 31.1725C25.6221 31.8151 25.5706 32.3774 25.5706 32.8593C25.5706 33.1514 25.5927 33.4216 25.6369 33.6698C25.6811 33.9035 25.7474 34.0933 25.8358 34.2394H16.9058C16.7584 33.9327 16.6847 33.48 16.6847 32.8812C16.6847 32.4285 16.7289 31.9246 16.8174 31.3697C16.9205 30.8147 17.0384 30.2379 17.171 29.6391C17.3036 29.0403 17.4363 28.4489 17.5689 27.8647C17.7162 27.266 17.8341 26.7037 17.9226 26.178C18.0257 25.6522 18.0773 25.1849 18.0773 24.776C18.0773 24.0166 17.8194 23.4324 17.3036 23.0235C16.8026 22.6 16.0437 22.3882 15.0269 22.3882H7.62207L12.1534 20.0662L9.10304 34.2394H0.394043ZM12.5734 18.0946L9.03673 15.8164H16.751C17.5468 15.8164 18.2983 15.6485 19.0056 15.3126C19.713 14.9621 20.2803 14.4728 20.7077 13.8449C21.1497 13.2023 21.3708 12.4356 21.3708 11.5447C21.3708 10.6977 21.1276 9.97479 20.6413 9.37603C20.1551 8.77726 19.3667 8.47788 18.2762 8.47788H10.6061L15.469 4.5786L12.5734 18.0946ZM34.4958 25.0169L35.5788 19.7595H49.4162L48.5542 20.8986C48.6278 20.6065 48.6794 20.3436 48.7089 20.11C48.7531 19.8763 48.7752 19.6792 48.7752 19.5185C48.7752 19.0658 48.6573 18.6277 48.4215 18.2042C48.1858 17.766 47.7952 17.4082 47.25 17.1308C46.7195 16.8533 45.9899 16.7145 45.0615 16.7145C43.9858 16.7145 43.0426 16.919 42.2322 17.3279C41.4217 17.7368 40.7512 18.3137 40.2207 19.0585C39.6902 19.7887 39.2923 20.643 39.0271 21.6215C38.7618 22.5854 38.6292 23.6369 38.6292 24.776C38.6292 25.55 38.7471 26.2145 38.9829 26.7694C39.2334 27.3244 39.646 27.7552 40.2207 28.0619C40.8101 28.354 41.6206 28.5 42.6521 28.5C43.3595 28.5 43.9784 28.4489 44.5089 28.3467C45.0394 28.2444 45.4815 28.113 45.8351 27.9523C46.2038 27.7917 46.4911 27.6165 46.6974 27.4266C46.9185 27.2368 47.0584 27.0542 47.1174 26.879H55.9148C55.5906 27.9012 55.0527 28.887 54.3012 29.8363C53.5497 30.7855 52.5845 31.6399 51.4056 32.3993C50.2267 33.1441 48.8268 33.7355 47.2058 34.1737C45.5993 34.5972 43.7721 34.8089 41.7238 34.8089C39.2629 34.8089 37.163 34.3781 35.4241 33.5165C33.7 32.6402 32.3811 31.4427 31.4675 29.9239C30.5539 28.3905 30.097 26.638 30.097 24.6664C30.097 22.5781 30.4949 20.6722 31.2907 18.949C32.0864 17.2111 33.1916 15.7142 34.6063 14.4582C36.0209 13.1877 37.664 12.2092 39.5355 11.5228C41.4217 10.8364 43.4479 10.4932 45.6141 10.4932C48.0458 10.4932 50.1309 10.8948 51.8698 11.6981C53.6086 12.4867 54.9422 13.6185 55.8706 15.0935C56.8137 16.5685 57.2853 18.3356 57.2853 20.3948C57.2853 21.0958 57.2189 21.8844 57.0863 22.7606C56.9537 23.6223 56.7695 24.3744 56.5337 25.0169H34.4958ZM70.6048 34.8089C69.7059 34.8089 68.7775 34.7505 67.8197 34.6337C66.8766 34.5169 65.9998 34.2832 65.1893 33.9327C64.3788 33.5676 63.723 33.0345 63.222 32.3336C62.721 31.6326 62.4705 30.6906 62.4705 29.5077C62.4705 28.9673 62.5221 28.3759 62.6252 27.7333C62.7431 27.0761 62.8905 26.3459 63.0673 25.5427L64.7914 17.547H59.5528L60.9674 10.9752H61.0779C62.2273 10.9752 63.1631 10.9167 63.8851 10.7999C64.6072 10.6831 65.1819 10.4202 65.6093 10.0113C66.0513 9.58778 66.4124 8.94521 66.6924 8.08357C66.9871 7.22193 67.2818 6.04631 67.5765 4.5567L67.8197 3.35187H76.7497L75.1361 10.9752H81.6126L80.1979 17.547H73.7215L72.351 23.9654C72.1889 24.7249 72.071 25.309 71.9973 25.7179C71.9237 26.1122 71.8868 26.4846 71.8868 26.8351C71.8868 27.2733 71.99 27.6238 72.1963 27.8866C72.4026 28.1495 72.8004 28.2809 73.3899 28.2809C73.9204 28.2809 74.4288 28.2298 74.9151 28.1276C75.4161 28.0254 75.7919 27.9231 76.0424 27.8209L74.6719 34.1956C74.3035 34.3416 73.7509 34.4803 73.0141 34.6118C72.2773 34.7432 71.4742 34.8089 70.6048 34.8089ZM90.1931 34.8089C88.3953 34.8089 86.7964 34.4292 85.3965 33.6698C84.0113 32.8958 82.9282 31.7567 82.1472 30.2525C81.3662 28.7483 80.9757 26.9082 80.9757 24.7322C80.9757 22.7606 81.2999 20.9132 81.9483 19.1899C82.5967 17.4667 83.5103 15.9551 84.6892 14.6554C85.8828 13.341 87.2901 12.3187 88.9111 11.5885C90.532 10.8583 92.3077 10.4932 94.2382 10.4932C95.8149 10.4932 97.259 10.8583 98.5705 11.5885C99.882 12.3187 100.928 13.341 101.709 14.6554C102.505 15.9697 102.903 17.4959 102.903 19.2337C102.903 19.6427 102.866 20.1246 102.792 20.6795C102.733 21.2345 102.645 21.7237 102.527 22.1472L99.3663 22.3225C99.4105 22.118 99.4473 21.9136 99.4768 21.7091C99.5063 21.4901 99.521 21.2856 99.521 21.0958C99.521 20.351 99.3368 19.7376 98.9684 19.2556C98.6147 18.7591 98.1506 18.394 97.5759 18.1603C97.0159 17.9121 96.4264 17.7879 95.8075 17.7879C95.0707 17.7879 94.3781 17.9267 93.7298 18.2042C93.0814 18.467 92.5067 18.8467 92.0056 19.3433C91.5193 19.8398 91.1362 20.4386 90.8562 21.1396C90.5762 21.826 90.4362 22.5927 90.4362 23.4397C90.4362 24.3159 90.5836 25.0534 90.8783 25.6522C91.1731 26.251 91.5857 26.711 92.1162 27.0323C92.6467 27.339 93.2508 27.4923 93.9287 27.4923C94.7097 27.4923 95.4612 27.3317 96.1833 27.0104C96.9201 26.6745 97.5538 26.1853 98.0843 25.5427C98.6295 24.8855 99.0052 24.075 99.2116 23.1111L102.24 23.5273C101.754 25.8202 100.899 27.8136 99.6758 29.5077C98.4674 31.2017 97.038 32.5088 95.3876 33.4289C93.7371 34.3489 92.0056 34.8089 90.1931 34.8089ZM105.71 34.2394H96.8022L101.776 10.9752H110.684L105.71 34.2394ZM109.496 34.2394L114.47 10.9752H123.334L118.36 34.2394H109.496ZM119.93 8.23691C118.692 8.23691 117.631 7.93753 116.747 7.33876C115.862 6.74 115.42 5.88566 115.42 4.77576C115.42 3.8411 115.671 3.05979 116.172 2.43181C116.688 1.78924 117.351 1.3073 118.161 0.986016C118.986 0.650123 119.856 0.482177 120.769 0.482177C121.993 0.482177 123.046 0.78156 123.93 1.38032C124.829 1.96449 125.279 2.81882 125.279 3.94333C125.279 4.86338 125.021 5.6447 124.505 6.28727C124.004 6.92985 123.348 7.41909 122.538 7.75498C121.727 8.07627 120.858 8.23691 119.93 8.23691ZM138.927 0.000244141L131.588 34.2394H122.724L130.063 0.000244141H138.927ZM6.41371 41.8152L7.84311 40.3986L5.76533 50.1247L5.32325 49.2631H13.6638L13.207 51.4537H4.86643L5.66217 50.5921L3.56966 60.3914L2.7297 58.9748H13.2218L12.7502 61.1654H0.872964L5.50008 39.6246H17.3773L16.9058 41.8152H6.41371ZM36.8273 61.1654L38.463 53.7319C38.6496 52.8949 38.7872 52.2231 38.8756 51.7166C38.9738 51.2009 39.0229 50.7431 39.0229 50.3438C39.0229 49.5552 38.7429 48.9322 38.183 48.4745C37.6328 48.0172 36.7978 47.7881 35.6779 47.7881C34.8428 47.7881 34.0225 48.0026 33.2169 48.4307C32.4114 48.8496 31.7188 49.4192 31.1392 50.1393C30.5595 50.8504 30.1715 51.6486 29.975 52.5344L28.5309 51.994C28.7274 51.079 29.0909 50.227 29.6213 49.4383C30.1617 48.6401 30.81 47.9442 31.5665 47.35C32.3328 46.7466 33.158 46.2743 34.0422 45.9334C34.9263 45.5928 35.8154 45.4224 36.7094 45.4224C38.2321 45.4224 39.4405 45.7828 40.3344 46.5029C41.2284 47.214 41.6754 48.2166 41.6754 49.5114C41.6754 50.0471 41.6115 50.6651 41.4839 51.3661C41.3562 52.0575 41.1744 52.9241 40.9386 53.9656L39.3324 61.1654H36.8273ZM25.6279 61.1654L28.9582 45.6559H31.4634L28.133 61.1654H25.6279ZM58.0957 61.399C57.6831 61.399 57.2806 61.3602 56.8874 61.2822C56.4946 61.2142 56.1358 61.0828 55.8116 60.8879C55.4976 60.6935 55.2471 60.4206 55.0601 60.0701C54.8736 59.7196 54.7801 59.2719 54.7801 58.7265C54.7801 58.3956 54.8197 58.0209 54.898 57.602C54.9768 57.1835 55.0748 56.7066 55.1927 56.1708L56.9905 47.8465H53.1739L53.6455 45.6559H56.2095C56.524 45.6559 56.7695 45.6366 56.9463 45.5977C57.1232 45.5587 57.2608 45.4857 57.3589 45.3786C57.4575 45.2618 57.5408 45.0865 57.6094 44.8529C57.6785 44.6192 57.7522 44.3125 57.8305 43.9328L58.5526 40.5155H61.0724L59.9819 45.6559H64.8743L64.4028 47.8465H59.5104L57.8894 55.3676C57.7619 55.991 57.6536 56.5167 57.5652 56.9448C57.4869 57.3733 57.4473 57.7238 57.4473 57.9963C57.4473 58.386 57.5312 58.6877 57.6979 58.9017C57.8747 59.1062 58.1745 59.2084 58.5968 59.2084C58.8818 59.2084 59.1816 59.1842 59.4957 59.1354C59.8102 59.087 60.0363 59.0382 60.1735 58.9894L59.7167 61.1508C59.5302 61.2092 59.3041 61.263 59.0388 61.3114C58.7837 61.3698 58.4692 61.399 58.0957 61.399ZM75.0385 54.4037L75.51 52.1839H87.6083L87.1662 52.9141C87.2252 52.7096 87.2694 52.5006 87.2989 52.2861C87.3385 52.0721 87.3578 51.7704 87.3578 51.3807C87.3578 50.6797 87.2058 50.0517 86.901 49.4968C86.5966 48.9322 86.1301 48.4891 85.5011 48.1678C84.8821 47.8369 84.0864 47.6713 83.1138 47.6713C82.0528 47.6713 81.095 47.8565 80.2403 48.2262C79.3856 48.5867 78.6488 49.0979 78.0299 49.7596C77.4211 50.4218 76.9496 51.1958 76.6152 52.0817C76.291 52.968 76.1289 53.9318 76.1289 54.9733C76.1289 55.8495 76.291 56.6044 76.6152 57.2369C76.9496 57.8699 77.4506 58.3568 78.1183 58.6973C78.7962 59.0286 79.6463 59.1938 80.6676 59.1938C81.5325 59.1938 82.284 59.1112 82.9223 58.9456C83.5706 58.7703 84.1159 58.5417 84.558 58.2592C85.0102 57.9671 85.3684 57.6508 85.6337 57.3099C85.9091 56.9695 86.1006 56.6285 86.2084 56.2876H88.743C88.6058 56.911 88.311 57.529 87.8588 58.1423C87.4071 58.7557 86.8176 59.3157 86.0905 59.8218C85.3638 60.3183 84.5137 60.7177 83.5412 61.0193C82.5686 61.3215 81.4883 61.4721 80.2992 61.4721C78.9141 61.4721 77.7306 61.2046 76.7479 60.6688C75.7656 60.1239 75.0141 59.3691 74.4933 58.4052C73.9729 57.4318 73.7122 56.3022 73.7122 55.0171C73.7122 53.6543 73.9581 52.3934 74.449 51.2346C74.9501 50.0663 75.6427 49.049 76.5268 48.1824C77.411 47.3062 78.4379 46.6298 79.6067 46.1524C80.7759 45.6659 82.0284 45.4224 83.3643 45.4224C84.7302 45.4224 85.8893 45.6951 86.842 46.2401C87.7953 46.7854 88.5219 47.5252 89.023 48.4599C89.524 49.3945 89.7745 50.451 89.7745 51.6289C89.7745 52.0479 89.7303 52.5344 89.6419 53.0893C89.5535 53.6347 89.4554 54.0728 89.3472 54.4037H75.0385ZM100.398 61.1654L103.729 45.6559H106.234L105.217 50.4168L104.303 50.1247C104.49 49.5506 104.765 48.9856 105.129 48.4307C105.502 47.8661 105.959 47.36 106.499 46.9118C107.039 46.4546 107.658 46.094 108.356 45.8311C109.053 45.5587 109.824 45.4224 110.669 45.4224C111.298 45.4224 111.799 45.4759 112.172 45.5831C112.555 45.6805 112.786 45.7581 112.865 45.8165L111.686 48.2554C111.607 48.1874 111.426 48.0998 111.141 47.9925C110.866 47.8858 110.453 47.8319 109.903 47.8319C109.087 47.8319 108.38 47.9779 107.781 48.27C107.182 48.5621 106.676 48.9518 106.263 49.4383C105.86 49.9157 105.531 50.4364 105.276 51.001C105.03 51.566 104.849 52.1255 104.731 52.6804L102.903 61.1654H100.398ZM119.433 67.5473L124.133 45.6559H126.639L121.938 67.5473H119.433ZM128.539 61.4575C127.488 61.4575 126.535 61.2338 125.681 60.7857C124.826 60.3284 124.148 59.6954 123.647 58.8871C123.156 58.0693 122.91 57.1251 122.91 56.054C122.91 55.6743 122.93 55.3434 122.969 55.0609C123.019 54.7688 123.063 54.5694 123.102 54.4621L124.752 54.4183C124.723 54.5452 124.693 54.7154 124.664 54.9295C124.634 55.1339 124.62 55.2996 124.62 55.426C124.62 56.127 124.791 56.755 125.135 57.3099C125.479 57.8649 125.946 58.303 126.535 58.6243C127.125 58.9456 127.793 59.1062 128.539 59.1062C129.532 59.1062 130.411 58.9068 131.177 58.5074C131.944 58.1086 132.592 57.5632 133.122 56.8718C133.663 56.1808 134.071 55.3922 134.345 54.5059C134.62 53.6105 134.758 52.6708 134.758 51.6874C134.758 50.3342 134.419 49.3316 133.741 48.6789C133.073 48.0268 132.155 47.7005 130.986 47.7005C130.151 47.7005 129.326 47.9049 128.51 48.3138C127.694 48.7132 126.987 49.2535 126.388 49.9349C125.799 50.6167 125.41 51.3807 125.224 52.2277L123.308 52.1693C123.593 50.8358 124.168 49.6624 125.032 48.6497C125.907 47.6375 126.928 46.8489 128.097 46.2839C129.276 45.7098 130.47 45.4224 131.678 45.4224C133.349 45.4224 134.704 45.953 135.745 47.0141C136.797 48.0756 137.322 49.5944 137.322 51.5705C137.322 52.9141 137.106 54.1847 136.674 55.3822C136.252 56.5701 135.647 57.6216 134.861 58.5367C134.085 59.4421 133.157 60.1577 132.076 60.6834C131.005 61.1996 129.827 61.4575 128.539 61.4575ZM148 61.1654L151.331 45.6559H153.836L152.819 50.4168L151.905 50.1247C152.092 49.5506 152.367 48.9856 152.731 48.4307C153.104 47.8661 153.561 47.36 154.101 46.9118C154.641 46.4546 155.26 46.094 155.958 45.8311C156.655 45.5587 157.426 45.4224 158.271 45.4224C158.9 45.4224 159.401 45.4759 159.774 45.5831C160.157 45.6805 160.388 45.7581 160.467 45.8165L159.288 48.2554C159.209 48.1874 159.028 48.0998 158.743 47.9925C158.468 47.8858 158.055 47.8319 157.505 47.8319C156.689 47.8319 155.982 47.9779 155.383 48.27C154.784 48.5621 154.278 48.9518 153.865 49.4383C153.462 49.9157 153.133 50.4364 152.878 51.001C152.632 51.566 152.451 52.1255 152.333 52.6804L150.505 61.1654H148ZM168.552 61.1654L171.868 45.6559H174.358L171.043 61.1654H168.552ZM174.123 42.0927C173.681 42.0927 173.302 41.9759 172.988 41.7422C172.673 41.4988 172.516 41.1678 172.516 40.7491C172.516 40.4278 172.6 40.1552 172.767 39.9313C172.934 39.6976 173.155 39.5224 173.43 39.4056C173.715 39.279 174.014 39.2157 174.329 39.2157C174.761 39.2157 175.134 39.3374 175.449 39.5808C175.763 39.8145 175.92 40.1358 175.92 40.5447C175.92 40.866 175.837 41.1434 175.67 41.3771C175.503 41.601 175.282 41.7763 175.007 41.9028C174.732 42.0294 174.437 42.0927 174.123 42.0927ZM190.378 61.4575C189.533 61.4575 188.752 61.3698 188.035 61.1946C187.318 61.0193 186.694 60.7711 186.163 60.4498C185.633 60.1189 185.22 59.7246 184.926 59.2668C184.631 58.8096 184.483 58.2984 184.483 57.7334C184.483 57.539 184.503 57.3149 184.542 57.0616C184.592 56.7988 184.636 56.5993 184.675 56.4629H187.195C187.165 56.5505 187.136 56.6774 187.106 56.8426C187.087 57.0082 187.077 57.1397 187.077 57.2369C187.077 57.8795 187.396 58.3714 188.035 58.7119C188.674 59.0432 189.572 59.2084 190.732 59.2084C191.468 59.2084 192.185 59.1354 192.883 58.9894C193.59 58.8337 194.175 58.5759 194.637 58.2154C195.098 57.8553 195.329 57.3537 195.329 56.7111C195.329 56.0394 195.029 55.5428 194.43 55.2215C193.841 54.9002 192.868 54.6328 191.513 54.4183C190.55 54.2627 189.671 54.034 188.875 53.7319C188.089 53.4207 187.46 52.9972 186.989 52.4614C186.527 51.9165 186.296 51.2251 186.296 50.3876C186.296 49.5406 186.497 48.8058 186.9 48.1824C187.303 47.5594 187.843 47.0433 188.521 46.6344C189.209 46.2255 189.975 45.9238 190.82 45.7289C191.675 45.5246 192.549 45.4224 193.443 45.4224C194.465 45.4224 195.403 45.5782 196.258 45.8896C197.112 46.2013 197.795 46.6444 198.306 47.2185C198.817 47.7835 199.072 48.4503 199.072 49.2193C199.072 49.4922 199.057 49.7113 199.028 49.8765C199.008 50.0421 198.974 50.2028 198.925 50.3584H196.42C196.459 50.2224 196.484 50.1101 196.493 50.0225C196.503 49.9253 196.508 49.8135 196.508 49.6866C196.508 49.2193 196.351 48.8396 196.036 48.5475C195.732 48.2458 195.329 48.0218 194.828 47.8757C194.327 47.7297 193.777 47.6567 193.178 47.6567C192.47 47.6567 191.783 47.7397 191.115 47.9049C190.446 48.061 189.897 48.3138 189.464 48.6643C189.032 49.0052 188.816 49.4484 188.816 49.9933C188.816 50.6847 189.145 51.1908 189.803 51.5121C190.461 51.8238 191.385 52.0963 192.574 52.3299C193.301 52.476 193.983 52.6467 194.622 52.8411C195.261 53.0359 195.821 53.2842 196.302 53.5859C196.783 53.888 197.156 54.2627 197.422 54.7104C197.697 55.1485 197.834 55.6889 197.834 56.3314C197.834 57.2565 197.623 58.0451 197.201 58.6973C196.778 59.3499 196.208 59.8802 195.491 60.2891C194.784 60.6885 193.988 60.9805 193.104 61.1654C192.22 61.3602 191.311 61.4575 190.378 61.4575ZM211.628 54.4037L212.1 52.1839H224.198L223.756 52.9141C223.815 52.7096 223.859 52.5006 223.889 52.2861C223.928 52.0721 223.947 51.7704 223.947 51.3807C223.947 50.6797 223.795 50.0517 223.491 49.4968C223.186 48.9322 222.719 48.4891 222.091 48.1678C221.472 47.8369 220.676 47.6713 219.703 47.6713C218.642 47.6713 217.685 47.8565 216.83 48.2262C215.975 48.5867 215.238 49.0979 214.62 49.7596C214.01 50.4218 213.539 51.1958 213.205 52.0817C212.881 52.968 212.719 53.9318 212.719 54.9733C212.719 55.8495 212.881 56.6044 213.205 57.2369C213.539 57.8699 214.04 58.3568 214.708 58.6973C215.386 59.0286 216.235 59.1938 217.257 59.1938C218.122 59.1938 218.873 59.1112 219.512 58.9456C220.16 58.7703 220.706 58.5417 221.148 58.2592C221.599 57.9671 221.958 57.6508 222.223 57.3099C222.498 56.9695 222.69 56.6285 222.798 56.2876H225.333C225.195 56.911 224.9 57.529 224.448 58.1423C223.996 58.7557 223.407 59.3157 222.68 59.8218C221.953 60.3183 221.103 60.7177 220.131 61.0193C219.158 61.3215 218.077 61.4721 216.889 61.4721C215.504 61.4721 214.32 61.2046 213.338 60.6688C212.355 60.1239 211.603 59.3691 211.083 58.4052C210.562 57.4318 210.302 56.3022 210.302 55.0171C210.302 53.6543 210.547 52.3934 211.039 51.2346C211.54 50.0663 212.232 49.049 213.116 48.1824C214.001 47.3062 215.027 46.6298 216.196 46.1524C217.365 45.6659 218.618 45.4224 219.954 45.4224C221.319 45.4224 222.478 45.6951 223.432 46.2401C224.384 46.7854 225.112 47.5252 225.613 48.4599C226.114 49.3945 226.364 50.451 226.364 51.6289C226.364 52.0479 226.32 52.5344 226.232 53.0893C226.143 53.6347 226.045 54.0728 225.937 54.4037H211.628Z" fill="#FFFEF0"/>
<path fill-rule="evenodd" clip-rule="evenodd" d="M236.795 8.25374L238.564 0H143.536L141.767 8.25374H236.795ZM236.213 10.9711H141.185L136.198 34.2391H231.225L236.213 10.9711Z" fill="#888062"/>
</g>
<defs>
<clipPath id="clip0_121_420">
<rect width="239" height="68" fill="white"/>
</clipPath>
</defs>
</svg>
