<svg width="83" height="42" viewBox="0 0 83 42" fill="none" xmlns="http://www.w3.org/2000/svg">
<g clip-path="url(#clip0_71_915)">
<path d="M0.00488281 33.1874L7.01439 0.169434H21.6138C24.9028 0.169434 27.2467 0.826062 28.6457 2.13932C30.0593 3.45257 30.7664 5.17623 30.7664 7.31027C30.7664 8.53399 30.5653 9.74279 30.1635 10.9367C29.7617 12.1305 29.1964 13.2199 28.4672 14.2049C27.7377 15.1898 26.8821 15.9957 25.8999 16.6225C24.9176 17.2492 23.8536 17.6074 22.7077 17.6969C23.5112 17.7418 24.2479 17.9133 24.9176 18.2119C25.5874 18.4953 26.1157 18.9431 26.5026 19.5549C26.9043 20.1667 27.1054 20.9801 27.1054 21.9948C27.1054 22.4874 27.0458 23.0619 26.9267 23.7186C26.8226 24.3602 26.6887 25.0467 26.525 25.7779C26.3612 26.5092 26.19 27.2404 26.0114 27.9717C25.8478 28.7028 25.7064 29.3969 25.5874 30.0535C25.4832 30.71 25.4311 31.2847 25.4311 31.7771C25.4311 32.0755 25.4534 32.3519 25.498 32.6055C25.5426 32.8442 25.6096 33.0382 25.6989 33.1874H16.6803C16.5315 32.8741 16.4571 32.4115 16.4571 31.7995C16.4571 31.3369 16.5017 30.8222 16.5911 30.2549C16.6953 29.6879 16.8144 29.0985 16.9482 28.4867C17.0821 27.8747 17.2161 27.2703 17.35 26.6733C17.4988 26.0615 17.6179 25.487 17.7071 24.9497C17.8113 24.4124 17.8634 23.9349 17.8634 23.517C17.8634 22.741 17.603 22.1442 17.0821 21.7263C16.5762 21.2935 15.8097 21.0771 14.7829 21.0771H7.30458L11.8809 18.7042L8.80025 33.1874H0.00488281ZM12.305 16.6897L8.73327 14.3616H16.5241C17.3278 14.3616 18.0867 14.1899 18.8011 13.8467C19.5154 13.4886 20.0884 12.9886 20.52 12.3469C20.9664 11.6903 21.1897 10.9068 21.1897 9.99647C21.1897 9.13091 20.944 8.39221 20.453 7.78036C19.9618 7.16849 19.1658 6.86258 18.0645 6.86258H10.3182L15.2293 2.87802L12.305 16.6897Z" fill="#FFFEF0"/>
<path fill-rule="evenodd" clip-rule="evenodd" d="M82.8697 0.0248413L81.1369 8.27446H53.5449L52.6496 12.4607H80.2577L78.4882 20.8853H51.328L50.4327 25.0714L77.6089 25.0716L75.9043 33.1878H29.3438L36.3685 0.0248413H82.8697Z" fill="#888062"/>
<path d="M55.4536 38.7643C55.2566 38.7643 55.0778 38.7221 54.9175 38.6372C54.7573 38.5507 54.6302 38.4308 54.5362 38.278C54.4442 38.1233 54.3981 37.9445 54.3981 37.742C54.3981 37.6886 54.4008 37.6378 54.4064 37.59C54.4138 37.5422 54.4238 37.4925 54.4367 37.4408L54.7435 37.4325C54.736 37.4621 54.7305 37.4933 54.7269 37.5264C54.7233 37.5596 54.7214 37.5919 54.7214 37.6232C54.7214 37.7558 54.7537 37.8746 54.8181 37.9796C54.8824 38.0846 54.9692 38.1675 55.0778 38.2283C55.1883 38.2891 55.3135 38.3195 55.4536 38.3195C55.6395 38.3195 55.8045 38.2816 55.9482 38.2062C56.0919 38.1307 56.2135 38.0274 56.3129 37.8967C56.4143 37.766 56.4906 37.6168 56.5423 37.4491C56.5939 37.2797 56.6196 37.1017 56.6196 36.9158C56.6196 36.6596 56.5561 36.4701 56.429 36.3466C56.3038 36.2231 56.1314 36.1614 55.9123 36.1614C55.7556 36.1614 55.6009 36.2001 55.4481 36.2775C55.2953 36.3529 55.1626 36.4552 55.0502 36.5842C54.9396 36.7132 54.867 36.8578 54.8319 37.018L54.4727 37.007C54.526 36.7547 54.6338 36.5325 54.796 36.341C54.9598 36.1496 55.1516 36.0003 55.3707 35.8934C55.5917 35.7848 55.8156 35.7304 56.0421 35.7304C56.3552 35.7304 56.6094 35.8307 56.8048 36.0316C57.0018 36.2325 57.1004 36.5198 57.1004 36.8937C57.1004 37.1479 57.0598 37.3883 56.9789 37.6149C56.8995 37.8395 56.7863 38.0385 56.639 38.2117C56.4934 38.383 56.3193 38.5184 56.1167 38.6179C55.9159 38.7154 55.6948 38.7643 55.4536 38.7643ZM54.0029 38.7091L54.9203 34.3903H55.3928L54.4754 38.7091H54.0029ZM58.7561 39.947C58.6823 39.947 58.6141 39.9434 58.5516 39.9359C58.4889 39.9285 58.4511 39.9213 58.4384 39.9138L58.5268 39.4993C58.5469 39.5123 58.5837 39.5223 58.6373 39.5297C58.6906 39.5372 58.7451 39.5408 58.8003 39.5408C58.918 39.5408 59.023 39.514 59.1153 39.4607C59.2093 39.409 59.2911 39.341 59.3612 39.2562C59.4331 39.1714 59.4955 39.0813 59.5491 38.9854L59.6928 38.7257L59.306 35.7746H59.784L60.0824 38.3001H59.9995L61.3259 35.7746H61.8287L60.0769 38.9633C59.9791 39.1421 59.8733 39.3059 59.7591 39.4551C59.6447 39.6043 59.5077 39.7232 59.3474 39.8116C59.1888 39.9019 58.9918 39.947 58.7561 39.947ZM66.3443 38.7091L67.2092 34.6334H67.6761L66.814 38.7091H66.3443ZM69.003 38.7091L70.9952 34.6224H71.7302L71.9762 38.7091H71.5092L71.3158 34.9291H71.3213L69.5114 38.7091H69.003ZM69.8209 37.6287L69.8983 37.2142H71.7192L71.6418 37.6287H69.8209ZM74.1475 38.7091L75.0123 34.6334H75.4793L74.6172 38.7091H74.1475Z" fill="#FFFEF0"/>
</g>
<defs>
<clipPath id="clip0_71_915">
<rect width="82.8947" height="42" fill="white"/>
</clipPath>
</defs>
</svg>
