<svg width="32" height="32" viewBox="0 0 32 32" fill="none" xmlns="http://www.w3.org/2000/svg">
<rect width="32" height="32" rx="16" fill="#888062"/>
<path d="M21.7032 22.7008L17.6767 18.6736C15.8855 19.9471 13.4173 19.6356 11.9987 17.9571C10.58 16.2786 10.6842 13.793 12.2383 12.239C13.792 10.6844 16.2779 10.5798 17.9567 11.9984C19.6355 13.4169 19.9472 15.8854 18.6736 17.6767L22.7001 21.7039L21.7039 22.7001L21.7032 22.7008ZM15.227 12.4095C13.891 12.4092 12.7383 13.3471 12.4669 14.6552C12.1955 15.9634 12.88 17.2824 14.1059 17.8136C15.3317 18.3448 16.7621 17.9422 17.531 16.8496C18.2999 15.757 18.196 14.2747 17.2822 13.3001L17.7084 13.7228L17.2279 13.2437L17.2195 13.2353C16.6923 12.7049 15.9748 12.4075 15.227 12.4095Z" fill="#FFFEF0"/>
</svg>
