<svg width="22" height="28" viewBox="0 0 22 28" fill="none" xmlns="http://www.w3.org/2000/svg">
<path d="M10.9839 16.1487L13.7955 20.5594L15.9238 26.4267C16.1709 27.105 16.832 27.3286 17.3868 27.1188C17.9788 26.9208 18.2887 26.2404 18.0672 25.6558L15.9112 19.7236L13.769 13.8424V8.51296C13.769 8.27741 13.8852 8.07374 14.0995 7.96077L21.359 4.09077C21.9159 3.79476 22.1298 3.11226 21.8296 2.54578C21.5336 1.98679 20.8511 1.78664 20.2942 2.08476L13.2829 5.79281C12.5074 6.20296 11.7499 6.39046 10.9839 6.39046C10.2201 6.39046 9.46259 6.20296 8.68493 5.79281L1.67361 2.08476C1.11674 1.78664 0.436347 1.98679 0.140332 2.54578C-0.169512 3.11226 0.0540818 3.79476 0.610956 4.09077L7.87048 7.96077C8.0847 8.07374 8.20095 8.27741 8.20095 8.51296V13.8424L6.05877 19.7236L3.90064 25.6558C3.68127 26.2404 3.989 26.9208 4.57353 27.1188C5.13791 27.3286 5.79908 27.105 6.04611 26.4267L8.17447 20.5594L10.9839 16.1487ZM10.9839 5.17593C12.4014 5.17593 13.5527 4.01296 13.5527 2.57836C13.5527 1.16086 12.4014 0 10.9839 0C9.54931 0 8.38634 1.16086 8.38634 2.57836C8.38634 4.01296 9.54931 5.17593 10.9839 5.17593Z" fill="black"/>
</svg>
