<svg width="78" height="12" viewBox="0 0 78 12" fill="none" xmlns="http://www.w3.org/2000/svg">
<path d="M0.152344 11L3.22852 2.54492H4.64648L7.7168 11H6.33984L5.56641 8.71484H2.30859L1.5293 11H0.152344ZM3.92578 3.94531L2.66016 7.66016H5.20898L3.94922 3.94531H3.92578ZM12.9248 11.1406C10.5284 11.1406 9.00492 9.45312 9.00492 6.76953V6.76367C9.00492 4.08008 10.5284 2.4043 12.9248 2.4043C14.7881 2.4043 16.1885 3.55273 16.4522 5.22266L16.4639 5.27539H15.1631L15.128 5.1582C14.8467 4.16797 14.0616 3.56445 12.9248 3.56445C11.3545 3.56445 10.3467 4.80664 10.3467 6.76367V6.76953C10.3467 8.72656 11.3604 9.98047 12.9248 9.98047C14.0498 9.98047 14.8291 9.39453 15.1455 8.32227L15.1631 8.26953H16.4639L16.458 8.32812C16.1944 10.0098 14.794 11.1406 12.9248 11.1406ZM20.3477 11V3.67578H17.7579V2.54492H24.2442V3.67578H21.6602V11H20.3477ZM29.7042 11.1406C27.5831 11.1406 26.2765 9.88086 26.2765 8.0293V2.54492H27.589V7.92383C27.589 9.1543 28.3566 9.98047 29.7042 9.98047C31.0519 9.98047 31.8136 9.1543 31.8136 7.92383V2.54492H33.1202V8.0293C33.1202 9.88086 31.8312 11.1406 29.7042 11.1406ZM34.8478 11L37.924 2.54492H39.342L42.4123 11H41.0353L40.2619 8.71484H37.0041L36.2248 11H34.8478ZM38.6213 3.94531L37.3556 7.66016H39.9045L38.6447 3.94531H38.6213ZM44.3098 11V2.54492H45.6223V9.86914H49.5598V11H44.3098ZM51.6448 11V2.54492H52.9573V11H51.6448ZM57.5735 11V3.67578H54.9837V2.54492H61.47V3.67578H58.886V11H57.5735ZM66.5316 1.85938H65.6234L66.6077 0.078125H67.8148L66.5316 1.85938ZM63.5023 11V2.54492H68.8695V3.67578H64.8148V6.14258H68.6527V7.24414H64.8148V9.86914H68.8695V11H63.5023ZM74.0599 11.1406C72.1615 11.1406 70.9076 10.2383 70.8021 8.75L70.7962 8.66211H72.0736L72.0853 8.73828C72.2025 9.51758 72.9818 10.0039 74.1127 10.0039C75.2435 10.0039 75.9584 9.49414 75.9584 8.70312V8.69727C75.9584 8.01758 75.4955 7.64844 74.3763 7.40234L73.4564 7.20898C71.7982 6.85742 70.9955 6.0957 70.9955 4.8418V4.83594C71.0013 3.39453 72.2728 2.4043 74.0599 2.4043C75.8236 2.4043 77.0306 3.36523 77.1185 4.7832L77.1244 4.88281H75.847L75.8412 4.80078C75.724 4.01562 75.0443 3.54102 74.0423 3.54102C72.9935 3.54688 72.3255 4.04492 72.3255 4.7832V4.78906C72.3255 5.42188 72.806 5.80859 73.8607 6.03711L74.7865 6.23047C76.5326 6.59961 77.2826 7.30859 77.2826 8.61523V8.62109C77.2826 10.1621 76.0638 11.1406 74.0599 11.1406Z" fill="black"/>
</svg>
