<svg width="28" height="28" viewBox="0 0 28 28" fill="none" xmlns="http://www.w3.org/2000/svg">
<path d="M14.105 26.21C20.7369 26.21 26.2121 20.7273 26.2121 14.105C26.2121 7.47312 20.7273 2 14.0954 2C7.47523 2 2 7.47312 2 14.105C2 20.7273 7.48484 26.21 14.105 26.21Z" fill="white"/>
<path d="M8.37793 14.1128C8.37793 13.4338 8.85464 12.9529 9.52941 12.9529H12.9548V9.52535C12.9548 8.85269 13.4282 8.36426 14.0955 8.36426C14.7745 8.36426 15.2554 8.85269 15.2554 9.52535V12.9529H18.6925C19.3577 12.9529 19.844 13.4338 19.844 14.1128C19.844 14.7822 19.3577 15.2439 18.6925 15.2439H15.2554V18.681C15.2554 19.3537 14.7745 19.8304 14.0955 19.8304C13.4282 19.8304 12.9548 19.344 12.9548 18.681V15.2439H9.52941C8.85464 15.2439 8.37793 14.7822 8.37793 14.1128Z" fill="#237BFF"/>
</svg>
