<svg width="27" height="23" viewBox="0 0 27 23" fill="none" xmlns="http://www.w3.org/2000/svg">
<path d="M0 20.0189C0 21.0853 0.704528 21.5763 1.54358 21.5763C1.98421 21.5763 2.34093 21.3419 2.85795 21.0344C4.14069 20.1787 5.66905 19.6713 7.21991 19.683C8.86101 19.6947 10.4651 20.2947 11.7396 21.5076C12.2911 22.0165 12.7273 22.1983 13.2241 22.1983C13.7093 22.1983 14.1551 22.0165 14.699 21.5076C15.9715 20.3044 17.5755 19.6947 19.2262 19.683C20.7771 19.6713 22.2959 20.1787 23.5786 21.0344C24.0977 21.3419 24.4523 21.5763 24.9026 21.5763C25.732 21.5763 26.4365 21.0853 26.4365 20.0189V4.11444C26.4365 3.88148 26.4101 3.67945 26.2748 3.46546C25.1791 1.54781 22.4379 0 19.1773 0C16.6753 0 14.4605 0.968908 13.2241 2.37235C11.9857 0.968908 9.76124 0 7.27101 0C3.99867 0 1.25742 1.54781 0.161718 3.46546C0.0360932 3.67945 0 3.88148 0 4.11444V20.0189ZM2.29592 18.7254V4.4578C3.22405 3.16475 5.19796 2.29592 7.27101 2.29592C9.39632 2.29592 11.2657 3.17436 12.0703 4.51546V18.9014C10.8792 18.026 9.10453 17.3871 7.27101 17.3871C5.34374 17.3871 3.53178 17.9044 2.29592 18.7254ZM14.3662 18.9014V4.51546C15.1708 3.17436 17.0498 2.29592 19.1773 2.29592C21.2407 2.29592 23.2125 3.16475 24.1406 4.4578V18.7254C22.9048 17.9044 21.0949 17.3871 19.1773 17.3871C17.332 17.3871 15.5573 18.026 14.3662 18.9014Z" fill="white"/>
</svg>
