<svg width="11" height="10" viewBox="0 0 11 10" fill="none" xmlns="http://www.w3.org/2000/svg">
<path d="M2.25021 9.95659H9.03917C10.1042 9.95659 10.6537 9.40699 10.6537 8.35414V2.34901C10.6537 1.29527 10.1042 0.746582 9.03917 0.746582H2.25021C1.18521 0.746582 0.631592 1.29122 0.631592 2.34901V8.35414C0.631592 9.41107 1.18521 9.95659 2.25021 9.95659ZM2.23659 8.98989C1.82231 8.98989 1.59829 8.77751 1.59829 8.34349V3.78467C1.59829 3.3547 1.82231 3.13918 2.23659 3.13918H9.04473C9.459 3.13918 9.68705 3.3547 9.68705 3.78467V8.34349C9.68705 8.77751 9.459 8.98989 9.04473 8.98989H2.23659ZM4.6954 4.84928H4.98654C5.16187 4.84928 5.21883 4.79727 5.21883 4.62191V4.33079C5.21883 4.15543 5.16187 4.09937 4.98654 4.09937H4.6954C4.52004 4.09937 4.45905 4.15543 4.45905 4.33079V4.62191C4.45905 4.79727 4.52004 4.84928 4.6954 4.84928ZM6.3078 4.84928H6.59892C6.77429 4.84928 6.83618 4.79727 6.83618 4.62191V4.33079C6.83618 4.15543 6.77429 4.09937 6.59892 4.09937H6.3078C6.13243 4.09937 6.07147 4.15543 6.07147 4.33079V4.62191C6.07147 4.79727 6.13243 4.84928 6.3078 4.84928ZM7.92111 4.84928H8.21222C8.38759 4.84928 8.44856 4.79727 8.44856 4.62191V4.33079C8.44856 4.15543 8.38759 4.09937 8.21222 4.09937H7.92111C7.74574 4.09937 7.68881 4.15543 7.68881 4.33079V4.62191C7.68881 4.79727 7.74574 4.84928 7.92111 4.84928ZM3.083 6.43701H3.36918C3.54948 6.43701 3.60642 6.38501 3.60642 6.20964V5.91852C3.60642 5.74316 3.54948 5.69116 3.36918 5.69116H3.083C2.9027 5.69116 2.84576 5.74316 2.84576 5.91852V6.20964C2.84576 6.38501 2.9027 6.43701 3.083 6.43701ZM4.6954 6.43701H4.98654C5.16187 6.43701 5.21883 6.38501 5.21883 6.20964V5.91852C5.21883 5.74316 5.16187 5.69116 4.98654 5.69116H4.6954C4.52004 5.69116 4.45905 5.74316 4.45905 5.91852V6.20964C4.45905 6.38501 4.52004 6.43701 4.6954 6.43701ZM6.3078 6.43701H6.59892C6.77429 6.43701 6.83618 6.38501 6.83618 6.20964V5.91852C6.83618 5.74316 6.77429 5.69116 6.59892 5.69116H6.3078C6.13243 5.69116 6.07147 5.74316 6.07147 5.91852V6.20964C6.07147 6.38501 6.13243 6.43701 6.3078 6.43701ZM7.92111 6.43701H8.21222C8.38759 6.43701 8.44856 6.38501 8.44856 6.20964V5.91852C8.44856 5.74316 8.38759 5.69116 8.21222 5.69116H7.92111C7.74574 5.69116 7.68881 5.74316 7.68881 5.91852V6.20964C7.68881 6.38501 7.74574 6.43701 7.92111 6.43701ZM3.083 8.0288H3.36918C3.54948 8.0288 3.60642 7.97364 3.60642 7.79739V7.50715C3.60642 7.3309 3.54948 7.27979 3.36918 7.27979H3.083C2.9027 7.27979 2.84576 7.3309 2.84576 7.50715V7.79739C2.84576 7.97364 2.9027 8.0288 3.083 8.0288ZM4.6954 8.0288H4.98654C5.16187 8.0288 5.21883 7.97364 5.21883 7.79739V7.50715C5.21883 7.3309 5.16187 7.27979 4.98654 7.27979H4.6954C4.52004 7.27979 4.45905 7.3309 4.45905 7.50715V7.79739C4.45905 7.97364 4.52004 8.0288 4.6954 8.0288ZM6.3078 8.0288H6.59892C6.77429 8.0288 6.83618 7.97364 6.83618 7.79739V7.50715C6.83618 7.3309 6.77429 7.27979 6.59892 7.27979H6.3078C6.13243 7.27979 6.07147 7.3309 6.07147 7.50715V7.79739C6.07147 7.97364 6.13243 8.0288 6.3078 8.0288Z" fill="black"/>
</svg>
