<svg width="9" height="9" viewBox="0 0 9 9" fill="none" xmlns="http://www.w3.org/2000/svg">
<path d="M0.232254 8.4682C0.493436 8.73441 0.947443 8.72495 1.20091 8.47259L4.18494 5.48245L7.17287 8.47039C7.43076 8.72829 7.87422 8.73331 8.13541 8.4671C8.40664 8.20089 8.40162 7.75744 8.1387 7.49954L5.1569 4.51049L8.1387 1.52867C8.40162 1.26969 8.40664 0.821199 8.13541 0.561119C7.87422 0.294914 7.43076 0.299937 7.17287 0.556709L4.18494 3.54356L1.20091 0.555606C0.947443 0.302142 0.493436 0.293812 0.232254 0.558914C-0.032849 0.820097 -0.0245182 1.27411 0.228946 1.52757L3.2191 4.51049L0.228946 7.50064C-0.0245182 7.75409 -0.032849 8.20199 0.232254 8.4682Z" fill="#EB3131"/>
</svg>
