<svg width="45" height="45" viewBox="0 0 45 45" fill="none" xmlns="http://www.w3.org/2000/svg">
<rect x="0.919189" y="0.430176" width="43.9946" height="43.9946" rx="3.99951" fill="#F6B191"/>
<path d="M11.136 20.7807C12.8989 20.7807 14.3383 19.3414 14.3383 17.555C14.3383 15.8016 12.8989 14.3526 11.136 14.3526C9.35915 14.3526 7.9198 15.792 7.9198 17.555C7.9198 19.3414 9.36876 20.7807 11.136 20.7807ZM11.136 18.7377C10.4946 18.7377 9.96282 18.206 9.96282 17.555C9.96282 16.9082 10.4946 16.3957 11.136 16.3957C11.7635 16.3957 12.2953 16.9274 12.2953 17.555C12.2953 18.206 11.7828 18.7377 11.136 18.7377ZM23.2737 15.8494C25.0388 15.8494 26.4781 14.41 26.4781 12.6332C26.4781 10.8799 25.0388 9.43091 23.2737 9.43091C21.4893 9.43091 20.0596 10.8703 20.0596 12.6332C20.0596 14.41 21.499 15.8494 23.2737 15.8494ZM23.2737 13.8064C22.6344 13.8064 22.1006 13.2746 22.1006 12.6332C22.1006 11.9864 22.6344 11.4739 23.2737 11.4739C23.9033 11.4739 24.4351 12.0057 24.4351 12.6332C24.4351 13.2746 23.9226 13.8064 23.2737 13.8064ZM35.4039 20.7807C37.1669 20.7807 38.6179 19.3414 38.6179 17.555C38.6179 15.792 37.1786 14.3526 35.4039 14.3526C33.6388 14.3526 32.1994 15.8016 32.1994 17.555C32.1994 19.3414 33.6388 20.7807 35.4039 20.7807ZM35.4039 18.7377C34.755 18.7377 34.2404 18.206 34.2404 17.555C34.2404 16.9274 34.7742 16.3957 35.4039 16.3957C36.0433 16.3957 36.575 16.9082 36.575 17.555C36.575 18.206 36.0433 18.7377 35.4039 18.7377ZM12.446 19.98L16.251 22.288C17.1633 22.8315 18.4813 22.7938 19.2947 21.6919L23.8229 15.6057L21.8163 14.7454L17.7612 20.2001C17.5713 20.4731 17.3677 20.5232 17.0136 20.3046L13.5732 18.1786L12.446 19.98ZM34.1087 19.9957L32.9836 18.1943L29.5623 20.299C29.1891 20.5389 28.9758 20.4675 28.7667 20.1848L24.7404 14.7515L22.7434 15.6214L27.2812 21.7247C28.0754 22.7978 29.3838 22.8569 30.2385 22.3422L34.1087 19.9957ZM13.9624 28.649H32.5871V26.5253H13.9624V28.649ZM10.9782 20.2736L13.396 30.1225C13.8645 32.0549 14.915 33.0227 16.9201 33.0227H29.6197C31.6324 33.0227 32.6755 32.0549 33.1535 30.1225L35.5712 20.2736L33.5922 19.374L31.0521 29.8176C30.8761 30.5504 30.4186 30.8991 29.6411 30.8991H16.9063C16.1287 30.8991 15.6734 30.5504 15.4974 29.8176L12.9477 19.374L10.9782 20.2736Z" fill="white"/>
</svg>
