<svg width="45" height="45" viewBox="0 0 45 45" fill="none" xmlns="http://www.w3.org/2000/svg">
<rect x="0.919189" y="0.260742" width="43.9946" height="43.9946" rx="3.99951" fill="#FFD54B"/>
<path d="M11.136 20.6113C12.8989 20.6113 14.3383 19.172 14.3383 17.3855C14.3383 15.6322 12.8989 14.1832 11.136 14.1832C9.35915 14.1832 7.9198 15.6226 7.9198 17.3855C7.9198 19.172 9.36876 20.6113 11.136 20.6113ZM11.136 18.5683C10.4946 18.5683 9.96282 18.0366 9.96282 17.3855C9.96282 16.7387 10.4946 16.2262 11.136 16.2262C11.7635 16.2262 12.2953 16.758 12.2953 17.3855C12.2953 18.0366 11.7828 18.5683 11.136 18.5683ZM23.2737 15.68C25.0388 15.68 26.4781 14.2406 26.4781 12.4638C26.4781 10.7104 25.0388 9.26147 23.2737 9.26147C21.4893 9.26147 20.0596 10.7008 20.0596 12.4638C20.0596 14.2406 21.499 15.68 23.2737 15.68ZM23.2737 13.6369C22.6344 13.6369 22.1006 13.1052 22.1006 12.4638C22.1006 11.817 22.6344 11.3045 23.2737 11.3045C23.9033 11.3045 24.4351 11.8362 24.4351 12.4638C24.4351 13.1052 23.9226 13.6369 23.2737 13.6369ZM35.4039 20.6113C37.1669 20.6113 38.6179 19.172 38.6179 17.3855C38.6179 15.6226 37.1786 14.1832 35.4039 14.1832C33.6388 14.1832 32.1994 15.6322 32.1994 17.3855C32.1994 19.172 33.6388 20.6113 35.4039 20.6113ZM35.4039 18.5683C34.755 18.5683 34.2404 18.0366 34.2404 17.3855C34.2404 16.758 34.7742 16.2262 35.4039 16.2262C36.0433 16.2262 36.575 16.7387 36.575 17.3855C36.575 18.0366 36.0433 18.5683 35.4039 18.5683ZM12.446 19.8106L16.251 22.1186C17.1633 22.662 18.4813 22.6243 19.2947 21.5225L23.8229 15.4363L21.8163 14.576L17.7612 20.0307C17.5713 20.3036 17.3677 20.3538 17.0136 20.1351L13.5732 18.0092L12.446 19.8106ZM34.1087 19.8263L32.9836 18.0249L29.5623 20.1295C29.1891 20.3695 28.9758 20.298 28.7667 20.0154L24.7404 14.5821L22.7434 15.452L27.2812 21.5553C28.0754 22.6283 29.3838 22.6874 30.2385 22.1728L34.1087 19.8263ZM13.9624 28.4795H32.5871V26.3559H13.9624V28.4795ZM10.9782 20.1041L13.396 29.953C13.8645 31.8855 14.915 32.8533 16.9201 32.8533H29.6197C31.6324 32.8533 32.6755 31.8855 33.1535 29.953L35.5712 20.1041L33.5922 19.2045L31.0521 29.6482C30.8761 30.381 30.4186 30.7296 29.6411 30.7296H16.9063C16.1287 30.7296 15.6734 30.381 15.4974 29.6482L12.9477 19.2045L10.9782 20.1041Z" fill="white"/>
</svg>
