<svg width="45" height="45" viewBox="0 0 45 45" fill="none" xmlns="http://www.w3.org/2000/svg">
<rect x="0.919189" y="0.845459" width="43.9946" height="43.9946" rx="3.99951" fill="#E1E1E2"/>
<path d="M11.136 21.1958C12.8989 21.1958 14.3383 19.7564 14.3383 17.97C14.3383 16.2166 12.8989 14.7677 11.136 14.7677C9.35915 14.7677 7.9198 16.207 7.9198 17.97C7.9198 19.7564 9.36876 21.1958 11.136 21.1958ZM11.136 19.1528C10.4946 19.1528 9.96282 18.621 9.96282 17.97C9.96282 17.3232 10.4946 16.8107 11.136 16.8107C11.7635 16.8107 12.2953 17.3424 12.2953 17.97C12.2953 18.621 11.7828 19.1528 11.136 19.1528ZM23.2737 16.2644C25.0388 16.2644 26.4781 14.8251 26.4781 13.0483C26.4781 11.2949 25.0388 9.84595 23.2737 9.84595C21.4893 9.84595 20.0596 11.2853 20.0596 13.0483C20.0596 14.8251 21.499 16.2644 23.2737 16.2644ZM23.2737 14.2214C22.6344 14.2214 22.1006 13.6897 22.1006 13.0483C22.1006 12.4015 22.6344 11.889 23.2737 11.889C23.9033 11.889 24.4351 12.4207 24.4351 13.0483C24.4351 13.6897 23.9226 14.2214 23.2737 14.2214ZM35.4039 21.1958C37.1669 21.1958 38.6179 19.7564 38.6179 17.97C38.6179 16.207 37.1786 14.7677 35.4039 14.7677C33.6388 14.7677 32.1994 16.2166 32.1994 17.97C32.1994 19.7564 33.6388 21.1958 35.4039 21.1958ZM35.4039 19.1528C34.755 19.1528 34.2404 18.621 34.2404 17.97C34.2404 17.3424 34.7742 16.8107 35.4039 16.8107C36.0433 16.8107 36.575 17.3232 36.575 17.97C36.575 18.621 36.0433 19.1528 35.4039 19.1528ZM12.446 20.3951L16.251 22.7031C17.1633 23.2465 18.4813 23.2088 19.2947 22.1069L23.8229 16.0207L21.8163 15.1604L17.7612 20.6151C17.5713 20.8881 17.3677 20.9383 17.0136 20.7196L13.5732 18.5936L12.446 20.3951ZM34.1087 20.4108L32.9836 18.6093L29.5623 20.714C29.1891 20.954 28.9758 20.8825 28.7667 20.5998L24.7404 15.1665L22.7434 16.0364L27.2812 22.1397C28.0754 23.2128 29.3838 23.2719 30.2385 22.7573L34.1087 20.4108ZM13.9624 29.064H32.5871V26.9404H13.9624V29.064ZM10.9782 20.6886L13.396 30.5375C13.8645 32.47 14.915 33.4378 16.9201 33.4378H29.6197C31.6324 33.4378 32.6755 32.47 33.1535 30.5375L35.5712 20.6886L33.5922 19.789L31.0521 30.2326C30.8761 30.9655 30.4186 31.3141 29.6411 31.3141H16.9063C16.1287 31.3141 15.6734 30.9655 15.4974 30.2326L12.9477 19.789L10.9782 20.6886Z" fill="white"/>
</svg>
