<svg width="30" height="25" viewBox="0 0 30 25" fill="none" xmlns="http://www.w3.org/2000/svg">
<path d="M3.84421 18.7446H6.92342V16.4487H3.97733C2.88772 16.4487 2.29592 15.8845 2.29592 14.7459V4.00827C2.29592 2.86967 2.88772 2.29592 3.97733 2.29592H19.5909C20.6709 2.29592 21.282 2.86967 21.282 4.00827V6.45538H23.5779V3.80577C23.5779 1.30523 22.2555 0 19.7337 0H3.84421C1.30523 0 0 1.30523 0 3.80577V14.9388C0 17.449 1.30523 18.7446 3.84421 18.7446Z" fill="black"/>
<path d="M9.76826 24.3138H25.7613C28.2832 24.3138 29.6076 23.0107 29.6076 20.508V9.37707C29.6076 6.87652 28.2832 5.57129 25.7613 5.57129H9.76826C7.22717 5.57129 5.92194 6.87652 5.92194 9.37707V20.508C5.92194 23.0203 7.22717 24.3138 9.76826 24.3138ZM9.90138 22.0179C8.80966 22.0179 8.21786 21.4559 8.21786 20.3173V9.57956C8.21786 8.43886 8.80966 7.86721 9.90138 7.86721H25.6186C26.7007 7.86721 27.3117 8.43886 27.3117 9.57956V20.3173C27.3117 21.4559 26.7007 22.0179 25.6186 22.0179H9.90138Z" fill="black"/>
</svg>
