<svg width="148" height="13" viewBox="0 0 148 13" fill="none" xmlns="http://www.w3.org/2000/svg">
<path d="M4.60156 12L0.445312 0.726562H1.92188L5.28125 10.3125H5.3125L8.67188 0.726562H10.1484L5.99219 12H4.60156ZM13.4766 12.1562C11.1406 12.1562 9.73438 10.5234 9.73438 7.96875V7.96094C9.73438 5.44531 11.1719 3.71875 13.3906 3.71875C15.6094 3.71875 16.9609 5.36719 16.9609 7.80469V8.30469H11.1094C11.1406 9.97656 12.0625 10.9531 13.5078 10.9531C14.5391 10.9531 15.2656 10.4375 15.5 9.74219L15.5234 9.67188H16.8594L16.8438 9.75C16.5781 11.0938 15.25 12.1562 13.4766 12.1562ZM13.3828 4.92188C12.2031 4.92188 11.2812 5.72656 11.1328 7.24219H15.5781C15.4453 5.66406 14.5703 4.92188 13.3828 4.92188ZM18.3359 12V3.875H19.6953V5.03125H19.7266C20.1641 4.27344 20.9922 3.71875 22.2266 3.71875C24.0078 3.71875 25.0391 4.875 25.0391 6.72656V12H23.6797V6.96875C23.6797 5.64844 23.0625 4.92188 21.8125 4.92188C20.5312 4.92188 19.6953 5.83594 19.6953 7.21875V12H18.3359ZM29.8281 12.1562C27.75 12.1562 26.375 10.5 26.375 7.9375V7.92969C26.375 5.36719 27.7656 3.71875 29.8047 3.71875C30.9531 3.71875 31.8984 4.29688 32.4062 5.23438H32.4375V0.726562H33.7969V12H32.4375V10.625H32.4062C31.8984 11.5703 30.9922 12.1562 29.8281 12.1562ZM30.0938 10.9531C31.4688 10.9531 32.4453 9.75781 32.4453 7.9375V7.92969C32.4453 6.11719 31.4609 4.92188 30.0938 4.92188C28.6562 4.92188 27.7656 6.07812 27.7656 7.92969V7.9375C27.7656 9.80469 28.6562 10.9531 30.0938 10.9531ZM35.6328 12V3.875H36.9922V5.25H37.0234C37.2969 4.3125 38 3.71875 38.9141 3.71875C39.1484 3.71875 39.3516 3.75781 39.4609 3.77344V5.09375C39.3516 5.05469 39.0625 5.01562 38.7344 5.01562C37.6797 5.01562 36.9922 5.75 36.9922 6.98438V12H35.6328ZM43.5234 12.1562C41.1875 12.1562 39.7812 10.5234 39.7812 7.96875V7.96094C39.7812 5.44531 41.2188 3.71875 43.4375 3.71875C45.6562 3.71875 47.0078 5.36719 47.0078 7.80469V8.30469H41.1562C41.1875 9.97656 42.1094 10.9531 43.5547 10.9531C44.5859 10.9531 45.3125 10.4375 45.5469 9.74219L45.5703 9.67188H46.9062L46.8906 9.75C46.625 11.0938 45.2969 12.1562 43.5234 12.1562ZM43.4297 4.92188C42.25 4.92188 41.3281 5.72656 41.1797 7.24219H45.625C45.4922 5.66406 44.6172 4.92188 43.4297 4.92188ZM51.4375 12.1562C49.3594 12.1562 47.9844 10.5 47.9844 7.9375V7.92969C47.9844 5.36719 49.375 3.71875 51.4141 3.71875C52.5625 3.71875 53.5078 4.29688 54.0156 5.23438H54.0469V0.726562H55.4062V12H54.0469V10.625H54.0156C53.5078 11.5703 52.6016 12.1562 51.4375 12.1562ZM51.7031 10.9531C53.0781 10.9531 54.0547 9.75781 54.0547 7.9375V7.92969C54.0547 6.11719 53.0703 4.92188 51.7031 4.92188C50.2656 4.92188 49.375 6.07812 49.375 7.92969V7.9375C49.375 9.80469 50.2656 10.9531 51.7031 10.9531ZM58.0078 2.5C57.5391 2.5 57.1562 2.11719 57.1562 1.64844C57.1562 1.17188 57.5391 0.796875 58.0078 0.796875C58.4844 0.796875 58.8594 1.17188 58.8594 1.64844C58.8594 2.11719 58.4844 2.5 58.0078 2.5ZM57.3281 12V3.875H58.6875V12H57.3281ZM66.7266 12V2.21875H66.6953L63.7109 4.29688V2.88281L66.7109 0.726562H68.0859V12H66.7266ZM75.0234 12.1875C72.9453 12.1875 70.7422 10.75 70.7422 6.57031V6.55469C70.7422 2.75781 72.3594 0.539062 75.1172 0.539062C77.0312 0.539062 78.4609 1.63281 78.8359 3.27344L78.8594 3.375H77.4297L77.3984 3.28906C77.0625 2.35938 76.2578 1.78125 75.1016 1.78125C73 1.78125 72.1719 3.82031 72.1094 6.1875C72.1016 6.26562 72.1016 6.34375 72.1016 6.42969H72.1328C72.5859 5.42969 73.7422 4.61719 75.2734 4.61719C77.4219 4.61719 79.0156 6.20312 79.0156 8.34375V8.35938C79.0156 10.5781 77.3281 12.1875 75.0234 12.1875ZM72.4375 8.34375C72.4375 9.78906 73.5625 10.9375 75.0078 10.9375C76.4453 10.9375 77.5859 9.8125 77.5859 8.39062V8.375C77.5859 6.90625 76.5156 5.85156 75.0312 5.85156C73.5547 5.85156 72.4375 6.89844 72.4375 8.33594V8.34375ZM84.2812 12V0.726562H85.9062L89.8125 10.2266H89.8594L93.7656 0.726562H95.3906V12H94.0781V3.28906H94.0312L90.4297 12H89.2422L85.6406 3.28906H85.5938V12H84.2812ZM99.5078 12.1562C97.8906 12.1562 96.8047 11.1797 96.8047 9.70312V9.6875C96.8047 8.30469 97.8828 7.4375 99.75 7.32812L102.078 7.19531V6.51562C102.078 5.52344 101.43 4.92188 100.297 4.92188C99.25 4.92188 98.5938 5.42188 98.4375 6.14844L98.4219 6.21875H97.1094L97.1172 6.13281C97.2344 4.79688 98.3984 3.71875 100.312 3.71875C102.234 3.71875 103.438 4.75781 103.438 6.38281V12H102.078V10.6797H102.047C101.57 11.5703 100.594 12.1562 99.5078 12.1562ZM98.1953 9.70312C98.1953 10.4844 98.8359 10.9766 99.8125 10.9766C101.094 10.9766 102.078 10.0938 102.078 8.91406V8.25L99.9062 8.38281C98.8203 8.44531 98.1953 8.92969 98.1953 9.6875V9.70312ZM105.93 2.5C105.461 2.5 105.078 2.11719 105.078 1.64844C105.078 1.17188 105.461 0.796875 105.93 0.796875C106.406 0.796875 106.781 1.17188 106.781 1.64844C106.781 2.11719 106.406 2.5 105.93 2.5ZM105.25 12V3.875H106.609V12H105.25ZM111.773 12V11.0312L115.742 6.89062C117.266 5.30469 117.617 4.69531 117.617 3.75781V3.74219C117.609 2.59375 116.742 1.76562 115.516 1.76562C114.109 1.76562 113.062 2.73438 113.062 3.94531V3.98438H111.703V3.9375C111.703 1.98438 113.391 0.539062 115.492 0.539062C117.531 0.539062 119.023 1.90625 119.023 3.67188V3.6875C119.023 4.92188 118.453 5.85156 116.383 7.96875L113.703 10.7188V10.75H119.211V12H111.773ZM124.766 12.1875C122.172 12.1875 120.633 9.94531 120.633 6.36719V6.35156C120.633 2.77344 122.172 0.539062 124.766 0.539062C127.359 0.539062 128.914 2.77344 128.914 6.35156V6.36719C128.914 9.94531 127.359 12.1875 124.766 12.1875ZM124.766 10.9609C126.484 10.9609 127.5 9.19531 127.5 6.36719V6.35156C127.5 3.52344 126.484 1.77344 124.766 1.77344C123.047 1.77344 122.047 3.52344 122.047 6.35156V6.36719C122.047 9.19531 123.047 10.9609 124.766 10.9609ZM130.383 12V11.0312L134.352 6.89062C135.875 5.30469 136.227 4.69531 136.227 3.75781V3.74219C136.219 2.59375 135.352 1.76562 134.125 1.76562C132.719 1.76562 131.672 2.73438 131.672 3.94531V3.98438H130.312V3.9375C130.312 1.98438 132 0.539062 134.102 0.539062C136.141 0.539062 137.633 1.90625 137.633 3.67188V3.6875C137.633 4.92188 137.062 5.85156 134.992 7.96875L132.312 10.7188V10.75H137.82V12H130.383ZM143.242 12.1875C140.914 12.1875 139.406 10.8906 139.258 9.10938L139.25 9.01562H140.602L140.609 9.09375C140.727 10.2031 141.742 10.9688 143.242 10.9688C144.719 10.9688 145.727 10.1406 145.727 8.94531V8.92969C145.727 7.54688 144.734 6.77344 143.156 6.77344H141.742V5.58594H143.094C144.438 5.58594 145.375 4.75781 145.375 3.63281V3.61719C145.375 2.4375 144.602 1.75781 143.227 1.75781C141.898 1.75781 140.953 2.46094 140.836 3.60156L140.828 3.67969H139.477L139.484 3.60156C139.664 1.76562 141.117 0.539062 143.227 0.539062C145.375 0.539062 146.789 1.73438 146.789 3.44531V3.46094C146.789 4.85156 145.805 5.80469 144.398 6.10156V6.13281C146.039 6.27344 147.156 7.29688 147.156 8.89844V8.91406C147.156 10.7969 145.5 12.1875 143.242 12.1875Z" fill="#495057"/>
</svg>
