<svg width="125" height="13" viewBox="0 0 125 13" fill="none" xmlns="http://www.w3.org/2000/svg">
<path d="M0.328125 12V0.726562H1.73438V10.7344H7.17188V12H0.328125ZM11.2812 12.1562C9.5 12.1562 8.46875 11 8.46875 9.14844V3.875H9.82812V8.90625C9.82812 10.2266 10.4453 10.9531 11.6953 10.9531C12.9766 10.9531 13.8125 10.0391 13.8125 8.65625V3.875H15.1719V12H13.8125V10.8438H13.7812C13.3438 11.6016 12.5156 12.1562 11.2812 12.1562ZM16.9453 12V3.875H18.3047V5.03125H18.3359C18.7734 4.27344 19.6016 3.71875 20.8359 3.71875C22.6172 3.71875 23.6484 4.875 23.6484 6.72656V12H22.2891V6.96875C22.2891 5.64844 21.6719 4.92188 20.4219 4.92188C19.1406 4.92188 18.3047 5.83594 18.3047 7.21875V12H16.9453ZM28.4375 12.1562C26.3594 12.1562 24.9844 10.5 24.9844 7.9375V7.92969C24.9844 5.36719 26.375 3.71875 28.4141 3.71875C29.5625 3.71875 30.5078 4.29688 31.0156 5.23438H31.0469V0.726562H32.4062V12H31.0469V10.625H31.0156C30.5078 11.5703 29.6016 12.1562 28.4375 12.1562ZM28.7031 10.9531C30.0781 10.9531 31.0547 9.75781 31.0547 7.9375V7.92969C31.0547 6.11719 30.0703 4.92188 28.7031 4.92188C27.2656 4.92188 26.375 6.07812 26.375 7.92969V7.9375C26.375 9.80469 27.2656 10.9531 28.7031 10.9531ZM35.0078 2.5C34.5391 2.5 34.1562 2.11719 34.1562 1.64844C34.1562 1.17188 34.5391 0.796875 35.0078 0.796875C35.4844 0.796875 35.8594 1.17188 35.8594 1.64844C35.8594 2.11719 35.4844 2.5 35.0078 2.5ZM34.3281 12V3.875H35.6875V12H34.3281ZM43.7266 12V2.21875H43.6953L40.7109 4.29688V2.88281L43.7109 0.726562H45.0859V12H43.7266ZM51.9141 0.539062C53.9922 0.539062 56.1953 1.97656 56.1953 6.15625V6.17188C56.1953 9.96875 54.5781 12.1875 51.8203 12.1875C49.9062 12.1875 48.4766 11.0938 48.1016 9.45312L48.0781 9.35156H49.5078L49.5391 9.4375C49.875 10.3672 50.6797 10.9453 51.8359 10.9453C53.9375 10.9453 54.7656 8.90625 54.8281 6.53906C54.8359 6.46094 54.8359 6.38281 54.8359 6.29688H54.8047C54.3516 7.29688 53.1953 8.10938 51.6641 8.10938C49.5156 8.10938 47.9219 6.52344 47.9219 4.38281V4.36719C47.9219 2.14844 49.6094 0.539062 51.9141 0.539062ZM51.9062 6.875C53.3828 6.875 54.5 5.82812 54.5 4.39062V4.38281C54.5 2.9375 53.375 1.78906 51.9297 1.78906C50.4922 1.78906 49.3516 2.91406 49.3516 4.33594V4.35156C49.3516 5.82031 50.4219 6.875 51.9062 6.875ZM61.2812 12V0.726562H62.9062L66.8125 10.2266H66.8594L70.7656 0.726562H72.3906V12H71.0781V3.28906H71.0312L67.4297 12H66.2422L62.6406 3.28906H62.5938V12H61.2812ZM76.5078 12.1562C74.8906 12.1562 73.8047 11.1797 73.8047 9.70312V9.6875C73.8047 8.30469 74.8828 7.4375 76.75 7.32812L79.0781 7.19531V6.51562C79.0781 5.52344 78.4297 4.92188 77.2969 4.92188C76.25 4.92188 75.5938 5.42188 75.4375 6.14844L75.4219 6.21875H74.1094L74.1172 6.13281C74.2344 4.79688 75.3984 3.71875 77.3125 3.71875C79.2344 3.71875 80.4375 4.75781 80.4375 6.38281V12H79.0781V10.6797H79.0469C78.5703 11.5703 77.5938 12.1562 76.5078 12.1562ZM75.1953 9.70312C75.1953 10.4844 75.8359 10.9766 76.8125 10.9766C78.0938 10.9766 79.0781 10.0938 79.0781 8.91406V8.25L76.9062 8.38281C75.8203 8.44531 75.1953 8.92969 75.1953 9.6875V9.70312ZM82.9297 2.5C82.4609 2.5 82.0781 2.11719 82.0781 1.64844C82.0781 1.17188 82.4609 0.796875 82.9297 0.796875C83.4062 0.796875 83.7812 1.17188 83.7812 1.64844C83.7812 2.11719 83.4062 2.5 82.9297 2.5ZM82.25 12V3.875H83.6094V12H82.25ZM88.7734 12V11.0312L92.7422 6.89062C94.2656 5.30469 94.6172 4.69531 94.6172 3.75781V3.74219C94.6094 2.59375 93.7422 1.76562 92.5156 1.76562C91.1094 1.76562 90.0625 2.73438 90.0625 3.94531V3.98438H88.7031V3.9375C88.7031 1.98438 90.3906 0.539062 92.4922 0.539062C94.5312 0.539062 96.0234 1.90625 96.0234 3.67188V3.6875C96.0234 4.92188 95.4531 5.85156 93.3828 7.96875L90.7031 10.7188V10.75H96.2109V12H88.7734ZM101.766 12.1875C99.1719 12.1875 97.6328 9.94531 97.6328 6.36719V6.35156C97.6328 2.77344 99.1719 0.539062 101.766 0.539062C104.359 0.539062 105.914 2.77344 105.914 6.35156V6.36719C105.914 9.94531 104.359 12.1875 101.766 12.1875ZM101.766 10.9609C103.484 10.9609 104.5 9.19531 104.5 6.36719V6.35156C104.5 3.52344 103.484 1.77344 101.766 1.77344C100.047 1.77344 99.0469 3.52344 99.0469 6.35156V6.36719C99.0469 9.19531 100.047 10.9609 101.766 10.9609ZM107.383 12V11.0312L111.352 6.89062C112.875 5.30469 113.227 4.69531 113.227 3.75781V3.74219C113.219 2.59375 112.352 1.76562 111.125 1.76562C109.719 1.76562 108.672 2.73438 108.672 3.94531V3.98438H107.312V3.9375C107.312 1.98438 109 0.539062 111.102 0.539062C113.141 0.539062 114.633 1.90625 114.633 3.67188V3.6875C114.633 4.92188 114.062 5.85156 111.992 7.96875L109.312 10.7188V10.75H114.82V12H107.383ZM120.242 12.1875C117.914 12.1875 116.406 10.8906 116.258 9.10938L116.25 9.01562H117.602L117.609 9.09375C117.727 10.2031 118.742 10.9688 120.242 10.9688C121.719 10.9688 122.727 10.1406 122.727 8.94531V8.92969C122.727 7.54688 121.734 6.77344 120.156 6.77344H118.742V5.58594H120.094C121.438 5.58594 122.375 4.75781 122.375 3.63281V3.61719C122.375 2.4375 121.602 1.75781 120.227 1.75781C118.898 1.75781 117.953 2.46094 117.836 3.60156L117.828 3.67969H116.477L116.484 3.60156C116.664 1.76562 118.117 0.539062 120.227 0.539062C122.375 0.539062 123.789 1.73438 123.789 3.44531V3.46094C123.789 4.85156 122.805 5.80469 121.398 6.10156V6.13281C123.039 6.27344 124.156 7.29688 124.156 8.89844V8.91406C124.156 10.7969 122.5 12.1875 120.242 12.1875Z" fill="#495057"/>
</svg>
