<svg width="492" height="171" viewBox="0 0 492 171" fill="none" xmlns="http://www.w3.org/2000/svg">
<path d="M21.6707 28.1785H22.8678C22.9803 29.2103 23.9591 29.8915 25.3215 29.8915C26.6112 29.8915 27.5504 29.2103 27.5504 28.2711C27.5504 27.4643 26.9882 26.9682 25.7051 26.6375L24.4816 26.3201C22.7223 25.8703 21.9419 25.0965 21.9419 23.8002C21.9419 22.2129 23.3308 21.1018 25.3149 21.1018C27.2131 21.1018 28.5887 22.2262 28.6416 23.8267H27.4512C27.3454 22.8016 26.5186 22.1732 25.2752 22.1732C24.0385 22.1732 23.1787 22.8148 23.1787 23.7473C23.1787 24.4682 23.7078 24.8981 25.0041 25.2354L26.0028 25.5C27.9803 25.996 28.7805 26.7566 28.7805 28.1256C28.7805 29.8717 27.4049 30.9629 25.2091 30.9629C23.1853 30.9629 21.7832 29.865 21.6707 28.1785ZM32.2594 29.9444C33.344 29.9444 34.1774 29.1838 34.1774 28.1918V27.6296L32.3387 27.742C31.4128 27.8016 30.8837 28.2116 30.8837 28.8598C30.8837 29.5145 31.4327 29.9444 32.2594 29.9444ZM32.0014 30.9232C30.6324 30.9232 29.7131 30.0965 29.7131 28.8598C29.7131 27.6825 30.6192 26.9418 32.2065 26.8492L34.1774 26.7367V26.1613C34.1774 25.3214 33.6218 24.8187 32.6694 24.8187C31.7832 24.8187 31.2276 25.2354 31.0821 25.91H29.971C30.0504 24.7195 31.0689 23.8068 32.6959 23.8068C34.3096 23.8068 35.3282 24.6799 35.3282 26.0489V30.8042H34.2369V29.6203H34.2104C33.8004 30.4074 32.9274 30.9232 32.0014 30.9232ZM36.8493 30.8042V23.9259H38.0001V30.8042H36.8493ZM37.4247 22.7685C37.0345 22.7685 36.7104 22.4444 36.7104 22.0542C36.7104 21.6574 37.0345 21.3399 37.4247 21.3399C37.8215 21.3399 38.1456 21.6574 38.1456 22.0542C38.1456 22.4444 37.8215 22.7685 37.4247 22.7685ZM39.4353 25.824C39.4353 24.6468 40.4869 23.8068 42.0014 23.8068C43.4234 23.8068 44.4684 24.6534 44.5213 25.8174H43.4234C43.344 25.1561 42.8083 24.746 41.9618 24.746C41.1218 24.746 40.5663 25.1627 40.5663 25.7645C40.5663 26.2407 40.93 26.5582 41.7104 26.7566L42.7752 27.0145C44.1641 27.365 44.6668 27.8677 44.6668 28.8796C44.6668 30.0767 43.5358 30.9232 41.9287 30.9232C40.4207 30.9232 39.3692 30.1031 39.2501 28.8862H40.4009C40.5266 29.6005 41.0689 29.9841 42.0014 29.9841C42.934 29.9841 43.5094 29.5873 43.5094 28.9656C43.5094 28.4762 43.225 28.2116 42.4512 28.0066L41.2409 27.6957C40.0305 27.3849 39.4353 26.7632 39.4353 25.824ZM45.9234 30.8042V23.9259H47.0742V30.8042H45.9234ZM46.4988 22.7685C46.1086 22.7685 45.7845 22.4444 45.7845 22.0542C45.7845 21.6574 46.1086 21.3399 46.4988 21.3399C46.8956 21.3399 47.2197 21.6574 47.2197 22.0542C47.2197 22.4444 46.8956 22.7685 46.4988 22.7685ZM48.6284 30.8042V23.9259H49.7131V25.0502H49.7395C49.9644 24.2896 50.5993 23.8068 51.4062 23.8068C51.6046 23.8068 51.7766 23.8399 51.8692 23.8531V24.9709C51.7766 24.9378 51.5319 24.9047 51.2541 24.9047C50.3612 24.9047 49.7792 25.5463 49.7792 26.5185V30.8042H48.6284ZM61.2276 23.9259L58.7012 30.8042H57.5239L54.9909 23.9259H56.2012L58.0993 29.5807H58.1258L60.0305 23.9259H61.2276ZM64.7858 30.9232C62.8811 30.9232 61.598 29.5542 61.598 27.365C61.598 25.1693 62.8811 23.8068 64.7858 23.8068C66.684 23.8068 67.967 25.1693 67.967 27.365C67.967 29.5542 66.684 30.9232 64.7858 30.9232ZM64.7858 29.9113C66.0028 29.9113 66.7964 28.9854 66.7964 27.365C66.7964 25.7447 66.0028 24.8187 64.7858 24.8187C63.5689 24.8187 62.7686 25.7447 62.7686 27.365C62.7686 28.9854 63.5689 29.9113 64.7858 29.9113ZM69.5014 22.2658H70.6522V23.9259H71.9882V24.8717H70.6522V28.959C70.6522 29.5873 70.9168 29.8717 71.5054 29.8717C71.6377 29.8717 71.9022 29.8518 71.9816 29.8386V30.8042C71.8427 30.8373 71.5252 30.8571 71.2541 30.8571C69.9909 30.8571 69.5014 30.3412 69.5014 29.0185V24.8717H68.4763V23.9259H69.5014V22.2658ZM73.2184 30.8042V23.9259H74.303V25.0502H74.3295C74.5543 24.2896 75.1893 23.8068 75.9961 23.8068C76.1946 23.8068 76.3665 23.8399 76.4591 23.8531V24.9709C76.3665 24.9378 76.1218 24.9047 75.844 24.9047C74.9512 24.9047 74.3692 25.5463 74.3692 26.5185V30.8042H73.2184ZM79.8255 24.8055C78.7475 24.8055 77.9935 25.6322 77.9207 26.7764H81.6575C81.6311 25.6256 80.9102 24.8055 79.8255 24.8055ZM81.6311 28.8333H82.762C82.5636 30.037 81.3996 30.9232 79.8983 30.9232C77.9274 30.9232 76.7303 29.5542 76.7303 27.3915C76.7303 25.2553 77.9472 23.8068 79.8453 23.8068C81.7038 23.8068 82.848 25.1561 82.848 27.2394V27.6759H77.9141V27.742C77.9141 29.0582 78.6879 29.9246 79.9247 29.9246C80.7977 29.9246 81.4393 29.4814 81.6311 28.8333ZM87.1602 22.2658H88.311V23.9259H89.6469V24.8717H88.311V28.959C88.311 29.5873 88.5755 29.8717 89.1641 29.8717C89.2964 29.8717 89.561 29.8518 89.6403 29.8386V30.8042C89.5014 30.8373 89.184 30.8571 88.9128 30.8571C87.6496 30.8571 87.1602 30.3412 87.1602 29.0185V24.8717H86.135V23.9259H87.1602V22.2658ZM93.4366 24.8055C92.3586 24.8055 91.6046 25.6322 91.5319 26.7764H95.2686C95.2422 25.6256 94.5213 24.8055 93.4366 24.8055ZM95.2422 28.8333H96.3731C96.1747 30.037 95.0107 30.9232 93.5094 30.9232C91.5385 30.9232 90.3414 29.5542 90.3414 27.3915C90.3414 25.2553 91.5583 23.8068 93.4565 23.8068C95.3149 23.8068 96.4591 25.1561 96.4591 27.2394V27.6759H91.5252V27.742C91.5252 29.0582 92.2991 29.9246 93.5358 29.9246C94.4088 29.9246 95.0504 29.4814 95.2422 28.8333ZM99.9247 28.1852H99.8983L98.2382 30.8042H96.9618L99.303 27.365L97.0014 23.9259H98.2845L99.9379 26.5053H99.9644L101.598 23.9259H102.881L100.56 27.3187L102.848 30.8042H101.572L99.9247 28.1852ZM104.224 22.2658H105.374V23.9259H106.71V24.8717H105.374V28.959C105.374 29.5873 105.639 29.8717 106.228 29.8717C106.36 29.8717 106.624 29.8518 106.704 29.8386V30.8042C106.565 30.8373 106.247 30.8571 105.976 30.8571C104.713 30.8571 104.224 30.3412 104.224 29.0185V24.8717H103.199V23.9259H104.224V22.2658ZM110.5 24.8055C109.422 24.8055 108.668 25.6322 108.595 26.7764H112.332C112.306 25.6256 111.585 24.8055 110.5 24.8055ZM112.306 28.8333H113.437C113.238 30.037 112.074 30.9232 110.573 30.9232C108.602 30.9232 107.405 29.5542 107.405 27.3915C107.405 25.2553 108.622 23.8068 110.52 23.8068C112.378 23.8068 113.523 25.1561 113.523 27.2394V27.6759H108.589V27.742C108.589 29.0582 109.363 29.9246 110.599 29.9246C111.472 29.9246 112.114 29.4814 112.306 28.8333ZM115.659 30.8703C115.236 30.8703 114.905 30.5396 114.905 30.1164C114.905 29.6931 115.236 29.3624 115.659 29.3624C116.082 29.3624 116.413 29.6931 116.413 30.1164C116.413 30.5396 116.082 30.8703 115.659 30.8703ZM119.098 30.8703C118.675 30.8703 118.344 30.5396 118.344 30.1164C118.344 29.6931 118.675 29.3624 119.098 29.3624C119.521 29.3624 119.852 29.6931 119.852 30.1164C119.852 30.5396 119.521 30.8703 119.098 30.8703ZM122.537 30.8703C122.114 30.8703 121.783 30.5396 121.783 30.1164C121.783 29.6931 122.114 29.3624 122.537 29.3624C122.96 29.3624 123.291 29.6931 123.291 30.1164C123.291 30.5396 122.96 30.8703 122.537 30.8703Z" fill="black"/>
<path d="M437.061 150.413C434.832 150.413 433.542 148.495 433.542 145.479C433.542 142.489 434.845 140.552 437.061 140.552C439.277 140.552 440.566 142.476 440.566 145.472C440.566 148.488 439.283 150.413 437.061 150.413ZM437.061 149.374C438.549 149.374 439.369 147.86 439.369 145.479C439.369 143.131 438.536 141.596 437.061 141.596C435.586 141.596 434.74 143.144 434.74 145.472C434.74 147.853 435.566 149.374 437.061 149.374ZM442.147 152.284H441.161L444.541 140.71H445.527L442.147 152.284ZM449.581 150.413C447.755 150.413 446.406 149.275 446.307 147.648H447.478C447.583 148.667 448.45 149.368 449.594 149.368C450.89 149.368 451.79 148.468 451.79 147.185C451.79 145.902 450.884 144.983 449.614 144.983C448.721 144.983 447.96 145.386 447.57 146.054H446.453L446.975 140.71H452.438V141.768H447.954L447.663 144.877H447.689C448.119 144.302 448.913 143.958 449.826 143.958C451.658 143.958 452.98 145.3 452.98 147.152C452.98 149.07 451.572 150.413 449.581 150.413ZM457.564 150.413C455.335 150.413 454.045 148.495 454.045 145.479C454.045 142.489 455.348 140.552 457.564 140.552C459.779 140.552 461.069 142.476 461.069 145.472C461.069 148.488 459.786 150.413 457.564 150.413ZM457.564 149.374C459.052 149.374 459.872 147.86 459.872 145.479C459.872 143.131 459.038 141.596 457.564 141.596C456.089 141.596 455.242 143.144 455.242 145.472C455.242 147.853 456.069 149.374 457.564 149.374ZM465.778 150.413C463.549 150.413 462.259 148.495 462.259 145.479C462.259 142.489 463.562 140.552 465.778 140.552C467.993 140.552 469.283 142.476 469.283 145.472C469.283 148.488 468 150.413 465.778 150.413ZM465.778 149.374C467.266 149.374 468.086 147.86 468.086 145.479C468.086 143.131 467.253 141.596 465.778 141.596C464.303 141.596 463.456 143.144 463.456 145.472C463.456 147.853 464.283 149.374 465.778 149.374Z" fill="black"/>
<rect x="0.88367" y="1.71961" width="489.312" height="167.619" rx="5.92593" stroke="black" stroke-width="1.69312" stroke-dasharray="6.77 6.77"/>
</svg>
