<svg width="24" height="22" viewBox="0 0 24 22" fill="none" xmlns="http://www.w3.org/2000/svg">
<path d="M3.84421 21.8972H19.968C22.4974 21.8972 23.8026 20.5919 23.8026 18.0914V3.82921C23.8026 1.32656 22.4974 0.0234375 19.968 0.0234375H3.84421C1.31484 0.0234375 0 1.31695 0 3.82921V18.0914C0 20.6016 1.31484 21.8972 3.84421 21.8972ZM3.81186 19.6013C2.82795 19.6013 2.29592 19.0969 2.29592 18.0661V7.2389C2.29592 6.21772 2.82795 5.70585 3.81186 5.70585H19.9812C20.9651 5.70585 21.5067 6.21772 21.5067 7.2389V18.0661C21.5067 19.0969 20.9651 19.6013 19.9812 19.6013H3.81186ZM9.65155 9.76734H10.343C10.7594 9.76734 10.8947 9.64382 10.8947 9.22734V8.53593C10.8947 8.11945 10.7594 7.98632 10.343 7.98632H9.65155C9.23507 7.98632 9.09022 8.11945 9.09022 8.53593V9.22734C9.09022 9.64382 9.23507 9.76734 9.65155 9.76734ZM13.481 9.76734H14.1724C14.5889 9.76734 14.7359 9.64382 14.7359 9.22734V8.53593C14.7359 8.11945 14.5889 7.98632 14.1724 7.98632H13.481C13.0645 7.98632 12.9197 8.11945 12.9197 8.53593V9.22734C12.9197 9.64382 13.0645 9.76734 13.481 9.76734ZM17.3126 9.76734H18.004C18.4205 9.76734 18.5653 9.64382 18.5653 9.22734V8.53593C18.5653 8.11945 18.4205 7.98632 18.004 7.98632H17.3126C16.8961 7.98632 16.7609 8.11945 16.7609 8.53593V9.22734C16.7609 9.64382 16.8961 9.76734 17.3126 9.76734ZM5.8221 13.5382H6.50178C6.92999 13.5382 7.06522 13.4147 7.06522 12.9982V12.3068C7.06522 11.8903 6.92999 11.7668 6.50178 11.7668H5.8221C5.39389 11.7668 5.25866 11.8903 5.25866 12.3068V12.9982C5.25866 13.4147 5.39389 13.5382 5.8221 13.5382ZM9.65155 13.5382H10.343C10.7594 13.5382 10.8947 13.4147 10.8947 12.9982V12.3068C10.8947 11.8903 10.7594 11.7668 10.343 11.7668H9.65155C9.23507 11.7668 9.09022 11.8903 9.09022 12.3068V12.9982C9.09022 13.4147 9.23507 13.5382 9.65155 13.5382ZM13.481 13.5382H14.1724C14.5889 13.5382 14.7359 13.4147 14.7359 12.9982V12.3068C14.7359 11.8903 14.5889 11.7668 14.1724 11.7668H13.481C13.0645 11.7668 12.9197 11.8903 12.9197 12.3068V12.9982C12.9197 13.4147 13.0645 13.5382 13.481 13.5382ZM17.3126 13.5382H18.004C18.4205 13.5382 18.5653 13.4147 18.5653 12.9982V12.3068C18.5653 11.8903 18.4205 11.7668 18.004 11.7668H17.3126C16.8961 11.7668 16.7609 11.8903 16.7609 12.3068V12.9982C16.7609 13.4147 16.8961 13.5382 17.3126 13.5382ZM5.8221 17.3187H6.50178C6.92999 17.3187 7.06522 17.1877 7.06522 16.7691V16.0798C7.06522 15.6612 6.92999 15.5398 6.50178 15.5398H5.8221C5.39389 15.5398 5.25866 15.6612 5.25866 16.0798V16.7691C5.25866 17.1877 5.39389 17.3187 5.8221 17.3187ZM9.65155 17.3187H10.343C10.7594 17.3187 10.8947 17.1877 10.8947 16.7691V16.0798C10.8947 15.6612 10.7594 15.5398 10.343 15.5398H9.65155C9.23507 15.5398 9.09022 15.6612 9.09022 16.0798V16.7691C9.09022 17.1877 9.23507 17.3187 9.65155 17.3187ZM13.481 17.3187H14.1724C14.5889 17.3187 14.7359 17.1877 14.7359 16.7691V16.0798C14.7359 15.6612 14.5889 15.5398 14.1724 15.5398H13.481C13.0645 15.5398 12.9197 15.6612 12.9197 16.0798V16.7691C12.9197 17.1877 13.0645 17.3187 13.481 17.3187Z" fill="black"/>
</svg>
