<svg width="28" height="22" viewBox="0 0 28 22" fill="none" xmlns="http://www.w3.org/2000/svg">
<path d="M26.5355 17.4112L19.5935 10.8975C19.0683 10.4287 18.4589 10.1772 17.8324 10.1772C17.19 10.1772 16.6137 10.3978 16.0788 10.8761L10.7862 15.6063L8.62453 13.6556C8.13234 13.2124 7.59117 12.9897 7.04249 12.9897C6.50039 12.9897 6.02507 13.2007 5.53288 13.6439L1.11023 17.6076C1.16788 19.7667 2.17217 20.8933 4.11232 20.8933H23.1117C25.4627 20.8933 26.6346 19.6802 26.5355 17.4112ZM9.0785 11.1539C10.6134 11.1539 11.8788 9.88845 11.8788 8.3397C11.8788 6.80478 10.6134 5.52767 9.0785 5.52767C7.52975 5.52767 6.26436 6.80478 6.26436 8.3397C6.26436 9.88845 7.52975 11.1539 9.0785 11.1539ZM3.84421 21.8782H23.9109C26.4499 21.8782 27.7552 20.5825 27.7552 18.082V3.81017C27.7552 1.30752 26.4499 0.00439453 23.9109 0.00439453H3.84421C1.31484 0.00439453 0 1.30752 0 3.81017V18.082C0 20.5825 1.31484 21.8782 3.84421 21.8782ZM3.97733 19.5822C2.88772 19.5822 2.29592 19.0181 2.29592 17.8795V4.01056C2.29592 2.87196 2.88772 2.30032 3.97733 2.30032H23.7778C24.8578 2.30032 25.4592 2.87196 25.4592 4.01056V17.8795C25.4592 19.0181 24.8578 19.5822 23.7778 19.5822H3.97733Z" fill="black"/>
</svg>
