<svg width="57" height="64" viewBox="0 0 57 64" fill="none" xmlns="http://www.w3.org/2000/svg">
<path d="M0 0H56.8874V64H0V0Z" fill="white"/>
<path d="M23.4412 47.7826C23.1378 47.7826 22.8818 47.9752 22.7851 48.2376L21.4474 51.6216L21.3295 52.0068L21.2227 51.6143L20.1892 48.3241C20.1892 48.3099 20.1799 48.2994 20.177 48.2937V48.2847C20.129 48.1475 20.0397 48.0285 19.9213 47.9441C19.803 47.8597 19.6614 47.8139 19.5161 47.8131H17.846C17.6647 47.8219 17.4937 47.9 17.3683 48.0312C17.2429 48.1625 17.1726 48.3368 17.172 48.5183C17.172 48.6191 17.2204 48.7527 17.2529 48.8795L17.471 49.5673L16.6524 51.6257L16.5228 52.0068L16.4168 51.6216L15.3894 48.3241C15.3768 48.3099 15.3768 48.2994 15.374 48.2937V48.2847C15.3258 48.1476 15.2365 48.0287 15.1182 47.9442C14.9999 47.8598 14.8584 47.814 14.713 47.8131H13.0438C12.6741 47.8342 12.3706 48.1385 12.3706 48.5183C12.3706 48.6191 12.4116 48.7527 12.4543 48.8795L14.9519 56.3276C14.9905 56.4784 15.078 56.6121 15.2008 56.7077C15.3236 56.8034 15.4747 56.8556 15.6303 56.8561C15.9488 56.8561 16.2137 56.6522 16.3006 56.3642L18.0511 51.947L18.1803 51.5538L18.2851 51.943L19.759 56.3276C19.8342 56.6323 20.1076 56.8561 20.4395 56.8561C20.7608 56.8561 21.0261 56.6428 21.1167 56.3447L24.0774 48.797C24.1201 48.7028 24.1489 48.5996 24.1489 48.4935C24.1489 48.1011 23.8308 47.7826 23.4412 47.7826ZM35.8943 47.7826C35.5908 47.7826 35.3316 47.9752 35.2317 48.2376L33.9025 51.6216L33.7745 52.0068L33.6778 51.6143L32.6362 48.3241C32.6362 48.3099 32.6362 48.2994 32.6321 48.2937V48.2847C32.5828 48.147 32.4922 48.0278 32.3727 47.9434C32.2532 47.859 32.1106 47.8135 31.9643 47.8131H30.2958C30.1151 47.8222 29.9448 47.9005 29.8203 48.0318C29.6957 48.1631 29.6266 48.3374 29.6271 48.5183C29.6271 48.6191 29.6649 48.7527 29.7067 48.8795L29.9257 49.5673L29.1039 51.6257L28.9702 52.0068L28.8703 51.6216L27.8413 48.3241C27.8307 48.3099 27.8307 48.2994 27.8238 48.2937V48.2847C27.7777 48.1473 27.6895 48.0278 27.5718 47.9432C27.454 47.8585 27.3127 47.813 27.1677 47.8131H25.4956C25.314 47.8212 25.1424 47.8991 25.0167 48.0304C24.891 48.1618 24.8207 48.3365 24.8204 48.5183C24.8204 48.6191 24.8675 48.7527 24.9013 48.8795L27.409 56.3276C27.4826 56.6323 27.7576 56.8561 28.0866 56.8561C28.397 56.8561 28.6627 56.6522 28.7561 56.3642L30.505 51.947L30.6277 51.5538L30.7386 51.943L32.2056 56.3276C32.2449 56.4773 32.3323 56.6099 32.4542 56.7052C32.5762 56.8004 32.726 56.8531 32.8808 56.855C33.0355 56.8569 33.1866 56.8081 33.3109 56.7159C33.4352 56.6237 33.5259 56.4933 33.5689 56.3447L36.5309 48.797C36.5763 48.7023 36.6003 48.5986 36.6012 48.4935C36.6012 48.3057 36.5268 48.1255 36.3944 47.9923C36.2619 47.8591 36.0821 47.7837 35.8943 47.7826ZM43.983 47.7976H38.1445C37.8057 47.7976 37.5359 48.0711 37.5359 48.4086V56.1655C37.5359 56.1696 37.5359 56.1623 37.5359 56.1655H37.5375C37.5514 56.5157 37.841 56.8009 38.1916 56.8009H39.8454C40.0172 56.797 40.1808 56.7264 40.3016 56.6042C40.4223 56.4819 40.4908 56.3174 40.4926 56.1456V52.5235L42.872 52.5178C43.0406 52.5159 43.2016 52.4471 43.3195 52.3265C43.4375 52.2059 43.5027 52.0434 43.5008 51.8747C43.5008 51.5278 43.2161 51.2381 42.8577 51.2381H40.4958L40.4926 49.1667H44.0168C44.1928 49.1586 44.359 49.0829 44.4805 48.9553C44.6021 48.8277 44.6697 48.658 44.6692 48.4818C44.6692 48.1019 44.3588 47.7976 43.983 47.7976ZM34.927 23.0837C35.9902 24.274 36.1039 27.814 38.7733 26.4051C40.3792 25.5597 40.3565 21.9864 38.2156 20.6982C36.4825 19.6736 35.5348 21.0549 34.9075 22.7493C34.8588 22.8822 34.8559 23.0158 34.927 23.0837ZM30.7805 22.5174C29.6645 23.4432 28.8979 25.9798 26.8452 25.1181C25.186 24.2744 25.0268 20.987 27.8864 19.4685C29.8786 18.5524 30.8897 20.3671 30.9035 22.2927C30.9035 22.3601 30.8381 22.4617 30.7805 22.5174ZM33.5356 28.9885C34.6378 28.8743 34.3891 27.8526 33.5535 27.5958C32.808 27.3736 31.6754 27.2286 30.8751 27.2432C29.4573 27.2761 29.4923 28.3584 30.2304 28.542C30.7882 28.7285 31.1473 28.8024 31.6295 29.4219C32.0691 30.2758 31.8741 29.1664 33.5356 28.9885ZM38.7372 10.6919C40.1217 8.38649 42.5303 8.83336 43.7373 9.98223C45.0653 11.2306 45.2794 12.6724 44.7699 13.6868C44.0769 15.0473 42.3048 16.7007 41.1507 15.1009C40.6417 14.3953 39.559 13.5507 38.9696 13.3069C38.062 12.9251 37.8898 12.1065 38.7372 10.6919Z" fill="black"/>
<path d="M44.2483 20.8579C44.124 20.4496 43.9213 20.4728 43.9302 20.8095C44.0423 25.0121 41.5334 29.5125 36.1628 29.5438C34.7893 29.5463 35.2016 31.7457 32.6971 30.6403C30.8897 29.4215 29.8554 31.8204 28.5713 29.2395C28.2922 28.4957 27.8681 28.1979 27.3204 28.0618C22.0185 26.748 20.3269 19.4502 24.9996 13.5584C25.9246 14.1097 26.2626 14.195 27.2485 13.2903C27.7637 12.8154 28.6261 12.2905 29.0961 12.1175C30.2198 11.6877 30.8292 11.2087 29.8554 9.06577C28.6099 6.2842 26.0558 7.06948 24.8887 8.03106C23.5708 9.11899 22.645 10.8699 24.3431 12.9328C19.5936 16.1369 18.7791 20.0726 18.8884 23.4932C19.0005 27.1319 18.0698 26.822 19.2313 30.5253C19.3336 30.8503 19.1066 30.843 18.9315 30.7378C13.9809 27.5674 11.305 17.9016 19.0204 12.5717C19.1943 12.4161 19.1228 12.2134 18.4882 12.5851C11.8092 16.117 11.1957 22.9582 12.3036 27.5674C12.8451 29.7998 12.0216 30.2113 12.8873 33.144C14.8747 39.2563 16.57 39.7394 18.9636 39.9157C23.321 39.9157 20.3663 37.5127 20.5252 34.4939C20.5252 34.3176 20.7409 34.2315 20.864 34.5947C23.262 39.9738 24.9553 44.8674 31.2578 44.4096C34.9075 43.9347 32.8832 42.1216 32.6601 41.0946C29.9769 32.1893 36.4882 30.0906 34.6447 38.7733C33.4279 43.747 37.2759 43.2485 39.9848 41.4639C42.7781 39.6293 46.271 27.5215 44.2483 20.8579ZM33.6294 31.3914C33.0262 32.9884 29.894 32.4404 29.7949 30.8946C29.7949 30.8332 29.8786 30.8471 29.9147 30.8552C31.3094 31.1818 32.6366 31.3358 33.5356 31.3325C33.5689 31.3325 33.6424 31.3134 33.6294 31.3914Z" fill="black"/>
<path d="M19.6432 42.1838C19.6426 42.4931 19.5194 42.7896 19.3006 43.0083C19.0819 43.2271 18.7854 43.3503 18.476 43.3509C18.3205 43.355 18.1656 43.3279 18.0207 43.2712C17.8757 43.2145 17.7436 43.1293 17.6321 43.0207C17.5206 42.9121 17.432 42.7823 17.3714 42.6389C17.3109 42.4955 17.2798 42.3414 17.2798 42.1858C17.2798 42.0301 17.3109 41.8761 17.3714 41.7327C17.432 41.5893 17.5206 41.4594 17.6321 41.3508C17.7436 41.2422 17.8757 41.1571 18.0207 41.1004C18.1656 41.0437 18.3205 41.0166 18.476 41.0207C19.1155 41.0207 19.6432 41.5439 19.6432 42.1838ZM18.476 40.7871C18.1055 40.7875 17.7501 40.9347 17.4878 41.1964C17.2254 41.4582 17.0774 41.8132 17.0761 42.1838C17.0764 42.5552 17.224 42.9113 17.4864 43.1742C17.7488 43.437 18.1046 43.5851 18.476 43.5861C19.2487 43.5861 19.8687 42.9568 19.8687 42.1838C19.8691 41.8139 19.7226 41.459 19.4615 41.1971C19.2004 40.9352 18.8459 40.7877 18.476 40.7871Z" fill="black"/>
<path d="M18.8746 42.4019C18.8474 42.5718 18.7048 42.69 18.5102 42.69C18.2421 42.69 18.0706 42.4523 18.0706 42.1805C18.0706 41.897 18.2258 41.6853 18.5086 41.6853C18.6975 41.6853 18.8368 41.7946 18.8746 41.9608H19.0696C19.0351 41.6516 18.7942 41.4785 18.5033 41.4785C18.0861 41.4785 17.8468 41.782 17.8468 42.1805C17.8468 42.5811 18.106 42.8862 18.5102 42.8862C18.7942 42.8862 19.0213 42.7022 19.0798 42.4019H18.8746ZM44.2166 45.5207C44.2164 45.8302 44.0934 46.127 43.8746 46.3459C43.6558 46.5648 43.359 46.6879 43.0495 46.6882C42.8957 46.6889 42.7433 46.6593 42.6011 46.6009C42.4588 46.5425 42.3295 46.4566 42.2205 46.3482C42.1115 46.2397 42.025 46.1107 41.966 45.9687C41.907 45.8267 41.8767 45.6745 41.8767 45.5207C41.8767 44.8776 42.3999 44.3592 43.0495 44.3592C43.3582 44.3589 43.6543 44.481 43.8731 44.6987C44.0919 44.9164 44.2155 45.212 44.2166 45.5207ZM43.0495 44.1232C42.8658 44.1226 42.6837 44.1583 42.5139 44.2283C42.344 44.2983 42.1897 44.4012 42.0597 44.5311C41.9298 44.661 41.8269 44.8153 41.7568 44.9851C41.6868 45.155 41.651 45.337 41.6516 45.5207C41.6505 45.7046 41.6859 45.8869 41.7558 46.057C41.8257 46.2271 41.9286 46.3816 42.0586 46.5117C42.1886 46.6418 42.3432 46.7447 42.5132 46.8146C42.6833 46.8845 42.8656 46.92 43.0495 46.919C43.2331 46.9192 43.4149 46.8832 43.5845 46.813C43.7542 46.7427 43.9083 46.6397 44.038 46.5098C44.1677 46.3799 44.2705 46.2256 44.3405 46.0559C44.4105 45.8862 44.4462 45.7043 44.4458 45.5207C44.4458 45.1503 44.2987 44.795 44.0369 44.533C43.7751 44.2709 43.4199 44.1235 43.0495 44.1232Z" fill="black"/>
<path d="M42.8066 45.6161H43.0357L43.3871 46.1845H43.6053L43.2279 45.6015C43.4249 45.5767 43.5728 45.4736 43.5728 45.2428C43.5728 44.9796 43.4208 44.8674 43.11 44.8674H42.601V46.1845H42.8066V45.6161ZM42.8066 45.4415V45.0303H43.0779C43.2157 45.0303 43.3639 45.0673 43.3639 45.2282C43.3639 45.4325 43.2157 45.4415 43.0406 45.4415H42.8066Z" fill="black"/>
</svg>
