<svg width="144" height="24" viewBox="0 0 144 24" fill="none" xmlns="http://www.w3.org/2000/svg">
<path d="M14.1099 10.1168C15.512 10.1168 17.4983 10.5664 19.3424 12.0117L21.6767 9.42342C19.1519 7.3228 15.639 6.94434 14.1099 6.94434C10.338 6.94434 7.49313 8.98399 7.49313 11.745C7.49313 12.3241 7.29246 15.5017 12.9187 16.7108C17.6279 17.7243 17.7778 18.2526 17.7778 19.007C17.7778 19.7614 17.0843 19.9214 16.8379 20.0001C16.3858 20.1449 15.7584 20.2465 14.9202 20.2465C12.2938 20.2465 10.1144 19.1416 8.77839 18.1561L6.39075 20.8663C8.21196 22.2684 11.4429 23.4216 14.4274 23.4216C18.0241 23.4216 21.4481 22.2506 21.4481 18.6311C21.4481 17.5084 21.2424 15.1233 16.0404 13.8939C12.0703 12.9541 11.1889 12.4715 11.1863 11.5317C11.1863 10.4547 12.8602 10.1194 14.1049 10.1194L14.1099 10.1168Z" fill="#01083B"/>
<path d="M50.4071 10.1168C51.8092 10.1168 53.7955 10.5664 55.6396 12.0117L57.9739 9.42342C55.4491 7.3228 51.9362 6.94434 50.4071 6.94434C46.6352 6.94434 43.7903 8.98399 43.7903 11.745C43.7903 12.3241 43.5897 15.5017 49.2159 16.7108C53.9251 17.7243 54.075 18.2526 54.075 19.007C54.075 20.1272 52.2334 20.2465 51.2199 20.2465C48.5935 20.2465 46.4142 19.1416 45.0781 18.1561L42.6905 20.8663C44.5117 22.2684 47.7426 23.4216 50.7272 23.4216C54.3239 23.4216 57.7479 22.2506 57.7479 18.6311C57.7479 17.5084 57.5421 15.1233 52.3401 13.8939C48.37 12.9541 47.4886 12.4715 47.4861 11.5317C47.4861 10.4547 49.16 10.1194 50.4046 10.1194L50.4071 10.1168Z" fill="#01083B"/>
<path d="M32.4185 6.93945C26.5205 6.93945 22.7791 10.5793 22.7791 15.187C22.7791 19.5736 26.2792 23.4345 32.4185 23.4345C38.5654 23.4345 42.058 19.5863 42.058 15.1895C42.058 10.5895 38.2987 6.94199 32.4185 6.94199V6.93945ZM38.2708 15.1997C38.2708 18.1487 36.005 20.2543 32.4337 20.2543C28.6542 20.2543 26.6247 17.9988 26.6247 15.1997C26.6247 12.2989 28.7253 10.117 32.4337 10.117C36.3353 10.117 38.2708 12.5174 38.2708 15.1997Z" fill="#01083B"/>
<path d="M86.6027 6.93652C80.6717 6.93652 77.169 10.838 77.169 15.1815C77.169 19.8171 80.2272 23.4265 86.7754 23.4265C88.6068 23.4265 90.8776 23.1826 93.3643 22.0853L91.8403 19.2024C90.0292 20.1524 87.9159 20.3124 87.0091 20.3124C83.9839 20.3124 81.8249 19.0373 81.1645 16.896H95.1957C95.2389 16.421 95.2846 15.9765 95.2846 15.5015C95.2846 10.2716 91.472 6.93906 86.6053 6.93906L86.6027 6.93652ZM91.2815 13.8454H81.0451C81.5303 11.7728 83.1914 10.0506 86.3132 10.0506C89.4349 10.0506 90.9436 12.0293 91.2815 13.8454Z" fill="#01083B"/>
<path d="M90.7862 2.27814C90.7862 3.13667 90.0902 3.83264 89.2316 3.83264H83.0949C82.2364 3.83264 81.5404 3.13667 81.5404 2.27814C81.5404 1.4196 82.2364 0.723633 83.0949 0.723633H89.2316C90.0902 0.723633 90.7862 1.4196 90.7862 2.27814Z" fill="#C83662"/>
<path d="M2.3851 4.56699C3.68306 4.56699 4.7702 3.5459 4.7702 2.26825C4.7702 0.990614 3.65512 0 2.3851 0C1.11508 0 0 0.960134 0 2.26825C0 3.57638 1.10746 4.56699 2.3851 4.56699Z" fill="#C83662"/>
<path d="M4.24437 7.31738H0.551147V23.0402H4.24437V7.31738Z" fill="#01083B"/>
<path d="M69.587 14.468L77.1614 7.31776H72.2185L66.13 13.1446H63.8643V2.27832H60.1431V23.0432H63.8643V16.3425H66.5237L72.6427 23.0432H77.5576L69.587 14.468Z" fill="#01083B"/>
<path d="M101.531 2.27832H97.8094V23.0432H101.531V2.27832Z" fill="#01083B"/>
<path d="M123.926 5.68996L129.578 8.26049H138.234L138.95 7.01587C139.38 6.26909 138.861 5.375 138.077 5.375H123.984C123.794 5.375 123.746 5.60868 123.924 5.68996H123.926Z" fill="#01083B"/>
<path d="M129.578 9.36328H143.68C143.842 9.36328 144 9.49028 144 9.68079C144 9.84843 143.886 9.96019 143.769 9.99067L118.254 16.8996C118.089 16.9453 117.972 16.7294 118.112 16.6202L129.58 9.36328H129.578Z" fill="#01083B"/>
<path d="M122.453 16.9095L131.711 16.7368C132.61 16.719 133.662 16.2034 134.142 15.3703L135.252 13.4424L122.455 16.9095H122.453Z" fill="#01083B"/>
<path d="M118.732 19.2002C117.698 19.7565 115.834 20.3102 113.901 20.3102C112.102 20.3102 108.998 19.8124 108.051 16.8939H113.337L118.158 13.8433H107.931C108.371 11.9078 109.943 10.0485 113.2 10.0485C117.134 10.0485 118.079 13.1067 118.168 13.8357L121.417 11.7808C120.708 10.0434 118.308 6.93945 113.492 6.93945C112.082 6.93945 107.032 7.13504 104.741 11.9459C104.269 12.9365 103.464 15.6518 104.741 18.6719C105.831 21.2475 108.633 23.4192 113.667 23.4192C117.119 23.4192 119.232 22.5226 120.256 22.0806L118.732 19.1977V19.2002Z" fill="#01083B"/>
</svg>
