<svg width="472" height="163" viewBox="0 0 472 163" fill="none" xmlns="http://www.w3.org/2000/svg">
<path d="M29.054 29.6455H27.9113V25.4744H22.8831V29.6455H21.7404V20.4844H22.8831V24.446H27.9113V20.4844H29.054V29.6455ZM33.3076 23.8873C32.2728 23.8873 31.549 24.6809 31.4792 25.7792H35.0662C35.0408 24.6745 34.3488 23.8873 33.3076 23.8873ZM35.0408 27.7536H36.1264C35.936 28.9091 34.8186 29.7598 33.3775 29.7598C31.4856 29.7598 30.3364 28.4456 30.3364 26.3696C30.3364 24.319 31.5046 22.9286 33.3267 22.9286C35.1106 22.9286 36.2089 24.2238 36.2089 26.2236V26.6426H31.4729V26.7061C31.4729 27.9695 32.2156 28.8011 33.4028 28.8011C34.2409 28.8011 34.8567 28.3758 35.0408 27.7536ZM37.3834 29.6455V20.4844H38.4881V29.6455H37.3834ZM40.0372 29.6455V20.4844H41.1419V29.6455H40.0372ZM45.3701 29.7598C43.5416 29.7598 42.31 28.4456 42.31 26.3442C42.31 24.2365 43.5416 22.9286 45.3701 22.9286C47.1921 22.9286 48.4238 24.2365 48.4238 26.3442C48.4238 28.4456 47.1921 29.7598 45.3701 29.7598ZM45.3701 28.7884C46.5382 28.7884 47.3 27.8996 47.3 26.3442C47.3 24.7888 46.5382 23.9 45.3701 23.9C44.2019 23.9 43.4337 24.7888 43.4337 26.3442C43.4337 27.8996 44.2019 28.7884 45.3701 28.7884ZM52.2647 29.6455V20.4844H53.3694V29.6455H52.2647ZM57.5087 23.8873C56.4738 23.8873 55.7501 24.6809 55.6803 25.7792H59.2673C59.2419 24.6745 58.5499 23.8873 57.5087 23.8873ZM59.2419 27.7536H60.3275C60.137 28.9091 59.0197 29.7598 57.5785 29.7598C55.6866 29.7598 54.5375 28.4456 54.5375 26.3696C54.5375 24.319 55.7057 22.9286 57.5277 22.9286C59.3117 22.9286 60.41 24.2238 60.41 26.2236V26.6426H55.6739V26.7061C55.6739 27.9695 56.4167 28.8011 57.6039 28.8011C58.4419 28.8011 59.0577 28.3758 59.2419 27.7536ZM61.4131 24.865C61.4131 23.7349 62.4225 22.9286 63.8764 22.9286C65.2413 22.9286 66.2444 23.7413 66.2952 24.8586H65.2413C65.1651 24.2238 64.6509 23.8301 63.8383 23.8301C63.032 23.8301 62.4987 24.2301 62.4987 24.8078C62.4987 25.2649 62.8479 25.5697 63.597 25.7601L64.6192 26.0077C65.9524 26.3442 66.4349 26.8267 66.4349 27.7981C66.4349 28.9472 65.3493 29.7598 63.8065 29.7598C62.359 29.7598 61.3496 28.9726 61.2353 27.8044H62.34C62.4606 28.4901 62.9812 28.8583 63.8764 28.8583C64.7715 28.8583 65.3239 28.4774 65.3239 27.8806C65.3239 27.4108 65.0509 27.1568 64.3081 26.96L63.1463 26.6616C61.9845 26.3633 61.4131 25.7665 61.4131 24.865ZM70.6059 29.6455V23.9508H69.6854V23.0429H70.6059V22.3065C70.6059 21.0367 71.1964 20.4336 72.4153 20.4336C72.6629 20.4336 72.9295 20.459 73.0883 20.4844V21.3796C72.9549 21.3605 72.7708 21.3415 72.5867 21.3415C71.9899 21.3415 71.7043 21.6589 71.7043 22.3128V23.0429H73.0565V23.9508H71.7106V29.6455H70.6059ZM74.2564 29.6455V23.0429H75.3611V29.6455H74.2564ZM74.8087 21.9319C74.4342 21.9319 74.1231 21.6208 74.1231 21.2462C74.1231 20.8653 74.4342 20.5606 74.8087 20.5606C75.1897 20.5606 75.5008 20.8653 75.5008 21.2462C75.5008 21.6208 75.1897 21.9319 74.8087 21.9319ZM76.9102 29.6455V20.4844H78.0148V29.6455H76.9102ZM79.5639 29.6455V20.4844H80.6686V29.6455H79.5639ZM84.8079 23.8873C83.773 23.8873 83.0493 24.6809 82.9795 25.7792H86.5664C86.5411 24.6745 85.8491 23.8873 84.8079 23.8873ZM86.5411 27.7536H87.6267C87.4362 28.9091 86.3189 29.7598 84.8777 29.7598C82.9858 29.7598 81.8367 28.4456 81.8367 26.3696C81.8367 24.319 83.0049 22.9286 84.8269 22.9286C86.6109 22.9286 87.7092 24.2238 87.7092 26.2236V26.6426H82.9731V26.7061C82.9731 27.9695 83.7159 28.8011 84.9031 28.8011C85.7411 28.8011 86.3569 28.3758 86.5411 27.7536ZM88.7123 24.865C88.7123 23.7349 89.7217 22.9286 91.1756 22.9286C92.5405 22.9286 93.5436 23.7413 93.5944 24.8586H92.5405C92.4643 24.2238 91.9501 23.8301 91.1375 23.8301C90.3312 23.8301 89.7979 24.2301 89.7979 24.8078C89.7979 25.2649 90.1471 25.5697 90.8962 25.7601L91.9184 26.0077C93.2516 26.3442 93.7341 26.8267 93.7341 27.7981C93.7341 28.9472 92.6485 29.7598 91.1057 29.7598C89.6582 29.7598 88.6488 28.9726 88.5345 27.8044H89.6392C89.7598 28.4901 90.2804 28.8583 91.1756 28.8583C92.0707 28.8583 92.6231 28.4774 92.6231 27.8806C92.6231 27.4108 92.3501 27.1568 91.6073 26.96L90.4455 26.6616C89.2837 26.3633 88.7123 25.7665 88.7123 24.865ZM95.6387 31.4676H94.7181L95.3339 28.2361H96.5084L95.6387 31.4676ZM101.378 23.0429V29.9693C101.378 31.3089 100.743 31.9183 99.3336 31.9183C99.3145 31.9183 99.1368 31.9183 99.1241 31.912V30.9914C99.1368 30.9914 99.2891 30.9914 99.2955 30.9914C100.013 30.9914 100.273 30.7184 100.273 29.982V23.0429H101.378ZM100.826 21.9319C100.451 21.9319 100.14 21.6208 100.14 21.2462C100.14 20.8653 100.451 20.5606 100.826 20.5606C101.206 20.5606 101.518 20.8653 101.518 21.2462C101.518 21.6208 101.206 21.9319 100.826 21.9319ZM103.886 23.7159H102.965L103.581 20.4844H104.755L103.886 23.7159ZM107.511 28.8202C108.552 28.8202 109.352 28.0901 109.352 27.1378V26.5982L107.587 26.7061C106.698 26.7632 106.19 27.1568 106.19 27.779C106.19 28.4075 106.717 28.8202 107.511 28.8202ZM107.263 29.7598C105.949 29.7598 105.066 28.9662 105.066 27.779C105.066 26.6489 105.936 25.9379 107.46 25.849L109.352 25.7411V25.1888C109.352 24.3825 108.818 23.9 107.904 23.9C107.054 23.9 106.52 24.2999 106.381 24.9475H105.314C105.39 23.8047 106.368 22.9286 107.93 22.9286C109.479 22.9286 110.456 23.7667 110.456 25.0808V29.6455H109.409V28.5091H109.383C108.99 29.2646 108.152 29.7598 107.263 29.7598ZM111.917 29.6455V23.0429H113.021V29.6455H111.917ZM112.469 21.9319C112.094 21.9319 111.783 21.6208 111.783 21.2462C111.783 20.8653 112.094 20.5606 112.469 20.5606C112.85 20.5606 113.161 20.8653 113.161 21.2462C113.161 21.6208 112.85 21.9319 112.469 21.9319ZM117.535 29.6455V23.9508H116.615V23.0429H117.535V22.3065C117.535 21.0367 118.126 20.4336 119.345 20.4336C119.592 20.4336 119.859 20.459 120.017 20.4844V21.3796C119.884 21.3605 119.7 21.3415 119.516 21.3415C118.919 21.3415 118.633 21.6589 118.633 22.3128V23.0429H119.986V23.9508H118.64V29.6455H117.535ZM122.925 28.8202C123.966 28.8202 124.766 28.0901 124.766 27.1378V26.5982L123.001 26.7061C122.113 26.7632 121.605 27.1568 121.605 27.779C121.605 28.4075 122.132 28.8202 122.925 28.8202ZM122.678 29.7598C121.363 29.7598 120.481 28.9662 120.481 27.779C120.481 26.6489 121.351 25.9379 122.874 25.849L124.766 25.7411V25.1888C124.766 24.3825 124.233 23.9 123.319 23.9C122.468 23.9 121.935 24.2999 121.795 24.9475H120.729C120.805 23.8047 121.782 22.9286 123.344 22.9286C124.893 22.9286 125.871 23.7667 125.871 25.0808V29.6455H124.823V28.5091H124.798C124.404 29.2646 123.566 29.7598 122.678 29.7598ZM127.331 29.6455V23.0429H128.436V29.6455H127.331ZM127.883 21.9319C127.509 21.9319 127.198 21.6208 127.198 21.2462C127.198 20.8653 127.509 20.5606 127.883 20.5606C128.264 20.5606 128.575 20.8653 128.575 21.2462C128.575 21.6208 128.264 21.9319 127.883 21.9319ZM129.813 24.865C129.813 23.7349 130.823 22.9286 132.277 22.9286C133.642 22.9286 134.645 23.7413 134.696 24.8586H133.642C133.566 24.2238 133.051 23.8301 132.239 23.8301C131.432 23.8301 130.899 24.2301 130.899 24.8078C130.899 25.2649 131.248 25.5697 131.997 25.7601L133.02 26.0077C134.353 26.3442 134.835 26.8267 134.835 27.7981C134.835 28.9472 133.75 29.7598 132.207 29.7598C130.759 29.7598 129.75 28.9726 129.636 27.8044H130.74C130.861 28.4901 131.382 28.8583 132.277 28.8583C133.172 28.8583 133.724 28.4774 133.724 27.8806C133.724 27.4108 133.451 27.1568 132.708 26.96L131.547 26.6616C130.385 26.3633 129.813 25.7665 129.813 24.865ZM141.152 29.7598C139.47 29.7598 138.327 28.4139 138.327 26.3442C138.327 24.2745 139.463 22.9286 141.127 22.9286C142.073 22.9286 142.835 23.3921 143.228 24.1158H143.254V20.4844H144.358V29.6455H143.304V28.5281H143.285C142.86 29.29 142.104 29.7598 141.152 29.7598ZM141.362 23.9C140.193 23.9 139.457 24.8523 139.457 26.3442C139.457 27.8425 140.193 28.7884 141.362 28.7884C142.498 28.7884 143.26 27.8234 143.26 26.3442C143.26 24.8713 142.498 23.9 141.362 23.9ZM148.498 23.8873C147.463 23.8873 146.739 24.6809 146.669 25.7792H150.256C150.231 24.6745 149.539 23.8873 148.498 23.8873ZM150.231 27.7536H151.316C151.126 28.9091 150.009 29.7598 148.567 29.7598C146.675 29.7598 145.526 28.4456 145.526 26.3696C145.526 24.319 146.695 22.9286 148.517 22.9286C150.301 22.9286 151.399 24.2238 151.399 26.2236V26.6426H146.663V26.7061C146.663 27.9695 147.406 28.8011 148.593 28.8011C149.431 28.8011 150.047 28.3758 150.231 27.7536ZM155.24 29.6455V20.4844H156.344V29.6455H155.24ZM160.014 28.8202C161.055 28.8202 161.855 28.0901 161.855 27.1378V26.5982L160.09 26.7061C159.201 26.7632 158.693 27.1568 158.693 27.779C158.693 28.4075 159.22 28.8202 160.014 28.8202ZM159.766 29.7598C158.452 29.7598 157.57 28.9662 157.57 27.779C157.57 26.6489 158.44 25.9379 159.963 25.849L161.855 25.7411V25.1888C161.855 24.3825 161.322 23.9 160.408 23.9C159.557 23.9 159.024 24.2999 158.884 24.9475H157.817C157.894 23.8047 158.871 22.9286 160.433 22.9286C161.982 22.9286 162.96 23.7667 162.96 25.0808V29.6455H161.912V28.5091H161.887C161.493 29.2646 160.655 29.7598 159.766 29.7598ZM167.029 29.6455V23.0429H168.07V24.1222H168.096C168.312 23.3921 168.921 22.9286 169.696 22.9286C169.886 22.9286 170.051 22.9604 170.14 22.9731V24.046C170.051 24.0143 169.816 23.9825 169.55 23.9825C168.693 23.9825 168.134 24.5983 168.134 25.5316V29.6455H167.029ZM173.092 28.8202C174.133 28.8202 174.933 28.0901 174.933 27.1378V26.5982L173.168 26.7061C172.28 26.7632 171.772 27.1568 171.772 27.779C171.772 28.4075 172.299 28.8202 173.092 28.8202ZM172.845 29.7598C171.53 29.7598 170.648 28.9662 170.648 27.779C170.648 26.6489 171.518 25.9379 173.041 25.849L174.933 25.7411V25.1888C174.933 24.3825 174.4 23.9 173.486 23.9C172.635 23.9 172.102 24.2999 171.962 24.9475H170.896C170.972 23.8047 171.949 22.9286 173.511 22.9286C175.06 22.9286 176.038 23.7667 176.038 25.0808V29.6455H174.99V28.5091H174.965C174.571 29.2646 173.733 29.7598 172.845 29.7598ZM179.942 29.7598C178.26 29.7598 177.117 28.4139 177.117 26.3442C177.117 24.2745 178.254 22.9286 179.917 22.9286C180.863 22.9286 181.625 23.3921 182.018 24.1158H182.044V20.4844H183.148V29.6455H182.095V28.5281H182.076C181.65 29.29 180.895 29.7598 179.942 29.7598ZM180.152 23.9C178.984 23.9 178.247 24.8523 178.247 26.3442C178.247 27.8425 178.984 28.7884 180.152 28.7884C181.288 28.7884 182.05 27.8234 182.05 26.3442C182.05 24.8713 181.288 23.9 180.152 23.9ZM184.698 29.6455V23.0429H185.802V29.6455H184.698ZM185.25 21.9319C184.875 21.9319 184.564 21.6208 184.564 21.2462C184.564 20.8653 184.875 20.5606 185.25 20.5606C185.631 20.5606 185.942 20.8653 185.942 21.2462C185.942 21.6208 185.631 21.9319 185.25 21.9319ZM190.03 29.7598C188.202 29.7598 186.97 28.4456 186.97 26.3442C186.97 24.2365 188.202 22.9286 190.03 22.9286C191.852 22.9286 193.084 24.2365 193.084 26.3442C193.084 28.4456 191.852 29.7598 190.03 29.7598ZM190.03 28.7884C191.199 28.7884 191.96 27.8996 191.96 26.3442C191.96 24.7888 191.199 23.9 190.03 23.9C188.862 23.9 188.094 24.7888 188.094 26.3442C188.094 27.8996 188.862 28.7884 190.03 28.7884ZM194.557 29.6455V23.9508H193.636V23.0429H194.557V22.3065C194.557 21.0367 195.147 20.4336 196.366 20.4336C196.614 20.4336 196.881 20.459 197.039 20.4844V21.3796C196.906 21.3605 196.722 21.3415 196.538 21.3415C195.941 21.3415 195.655 21.6589 195.655 22.3128V23.0429H197.008V23.9508H195.662V29.6455H194.557ZM198.15 29.6455V23.0429H199.192V24.1222H199.217C199.433 23.3921 200.042 22.9286 200.817 22.9286C201.007 22.9286 201.172 22.9604 201.261 22.9731V24.046C201.172 24.0143 200.937 23.9825 200.671 23.9825C199.814 23.9825 199.255 24.5983 199.255 25.5316V29.6455H198.15ZM204.493 23.8873C203.458 23.8873 202.734 24.6809 202.664 25.7792H206.251C206.226 24.6745 205.534 23.8873 204.493 23.8873ZM206.226 27.7536H207.311C207.121 28.9091 206.004 29.7598 204.562 29.7598C202.671 29.7598 201.521 28.4456 201.521 26.3696C201.521 24.319 202.69 22.9286 204.512 22.9286C206.296 22.9286 207.394 24.2238 207.394 26.2236V26.6426H202.658V26.7061C202.658 27.9695 203.401 28.8011 204.588 28.8011C205.426 28.8011 206.042 28.3758 206.226 27.7536ZM205.013 22.0906H204.048L205.381 20.186H206.575L205.013 22.0906ZM211 22.9286C211.959 22.9286 212.714 23.3984 213.139 24.1603H213.165V23.0429H214.219V31.8485H213.114V28.5408H213.089C212.676 29.2963 211.908 29.7598 210.975 29.7598C209.305 29.7598 208.188 28.4139 208.188 26.3442C208.188 24.2682 209.305 22.9286 211 22.9286ZM211.197 28.7884C212.327 28.7884 213.114 27.8171 213.114 26.3442C213.114 24.8713 212.327 23.9 211.197 23.9C210.041 23.9 209.318 24.8332 209.318 26.3442C209.318 27.8488 210.041 28.7884 211.197 28.7884ZM221.082 23.0429V29.6455H220.034V28.5726H220.009C219.615 29.3344 218.929 29.7598 217.914 29.7598C216.473 29.7598 215.628 28.8265 215.628 27.3283V23.0429H216.733V27.1314C216.733 28.2044 217.234 28.7821 218.257 28.7821C219.329 28.7821 219.977 28.0456 219.977 26.9219V23.0429H221.082ZM225.164 23.8873C224.129 23.8873 223.405 24.6809 223.335 25.7792H226.922C226.897 24.6745 226.205 23.8873 225.164 23.8873ZM226.897 27.7536H227.983C227.792 28.9091 226.675 29.7598 225.234 29.7598C223.342 29.7598 222.193 28.4456 222.193 26.3696C222.193 24.319 223.361 22.9286 225.183 22.9286C226.967 22.9286 228.065 24.2238 228.065 26.2236V26.6426H223.329V26.7061C223.329 27.9695 224.072 28.8011 225.259 28.8011C226.097 28.8011 226.713 28.3758 226.897 27.7536ZM229.183 29.6455V23.0429H230.224V24.0968H230.249C230.617 23.3857 231.322 22.9286 232.344 22.9286C233.792 22.9286 234.63 23.8619 234.63 25.3602V29.6455H233.525V25.557C233.525 24.4904 233.023 23.9063 232.008 23.9063C230.967 23.9063 230.287 24.6428 230.287 25.7601V29.6455H229.183ZM241.524 25.2078H240.445C240.286 24.4904 239.728 23.9 238.756 23.9C237.614 23.9 236.839 24.8459 236.839 26.3442C236.839 27.8806 237.626 28.7884 238.769 28.7884C239.671 28.7884 240.261 28.3123 240.451 27.5187H241.537C241.366 28.8329 240.261 29.7598 238.763 29.7598C236.934 29.7598 235.715 28.471 235.715 26.3442C235.715 24.2619 236.928 22.9286 238.75 22.9286C240.401 22.9286 241.385 24.0206 241.524 25.2078ZM245.2 23.8873C244.165 23.8873 243.442 24.6809 243.372 25.7792H246.959C246.933 24.6745 246.241 23.8873 245.2 23.8873ZM246.933 27.7536H248.019C247.829 28.9091 246.711 29.7598 245.27 29.7598C243.378 29.7598 242.229 28.4456 242.229 26.3696C242.229 24.319 243.397 22.9286 245.219 22.9286C247.003 22.9286 248.102 24.2238 248.102 26.2236V26.6426H243.365V26.7061C243.365 27.9695 244.108 28.8011 245.295 28.8011C246.133 28.8011 246.749 28.3758 246.933 27.7536ZM250.152 29.709C249.746 29.709 249.428 29.3916 249.428 28.9852C249.428 28.5789 249.746 28.2615 250.152 28.2615C250.558 28.2615 250.876 28.5789 250.876 28.9852C250.876 29.3916 250.558 29.709 250.152 29.709ZM262.297 23.373H261.142C260.85 22.1731 259.802 21.3859 258.494 21.3859C256.704 21.3859 255.542 22.8334 255.542 25.0618C255.542 27.3092 256.691 28.744 258.501 28.744C259.847 28.744 260.812 28.0964 261.142 26.9791H262.297C261.91 28.6488 260.723 29.6392 258.945 29.7788L258.647 30.4708C259.472 30.4835 260.005 30.8391 260.005 31.4866C260.005 32.2104 259.345 32.604 258.52 32.6167C258.151 32.623 257.732 32.5786 257.567 32.5278V31.8802C257.707 31.912 258.094 31.9564 258.361 31.9564C258.888 31.9564 259.167 31.7914 259.167 31.4993C259.167 31.2073 258.888 31.093 258.24 31.093H257.796V30.6549L258.139 29.7852C255.821 29.6201 254.368 27.8234 254.368 25.0618C254.368 22.1858 255.987 20.332 258.494 20.332C260.488 20.332 262.005 21.5446 262.297 23.373ZM265.656 28.8202C266.697 28.8202 267.497 28.0901 267.497 27.1378V26.5982L265.732 26.7061C264.843 26.7632 264.335 27.1568 264.335 27.779C264.335 28.4075 264.862 28.8202 265.656 28.8202ZM265.408 29.7598C264.094 29.7598 263.211 28.9662 263.211 27.779C263.211 26.6489 264.081 25.9379 265.605 25.849L267.497 25.7411V25.1888C267.497 24.3825 266.963 23.9 266.049 23.9C265.198 23.9 264.665 24.2999 264.525 24.9475H263.459C263.535 23.8047 264.513 22.9286 266.075 22.9286C267.624 22.9286 268.601 23.7667 268.601 25.0808V29.6455H267.554V28.5091H267.528C267.135 29.2646 266.297 29.7598 265.408 29.7598ZM272.671 29.6455V23.0429H273.712V24.1222H273.737C273.953 23.3921 274.563 22.9286 275.337 22.9286C275.528 22.9286 275.693 22.9604 275.782 22.9731V24.046C275.693 24.0143 275.458 23.9825 275.191 23.9825C274.334 23.9825 273.775 24.5983 273.775 25.5316V29.6455H272.671ZM278.734 28.8202C279.775 28.8202 280.575 28.0901 280.575 27.1378V26.5982L278.81 26.7061C277.921 26.7632 277.413 27.1568 277.413 27.779C277.413 28.4075 277.94 28.8202 278.734 28.8202ZM278.486 29.7598C277.172 29.7598 276.29 28.9662 276.29 27.779C276.29 26.6489 277.159 25.9379 278.683 25.849L280.575 25.7411V25.1888C280.575 24.3825 280.042 23.9 279.127 23.9C278.277 23.9 277.743 24.2999 277.604 24.9475H276.537C276.613 23.8047 277.591 22.9286 279.153 22.9286C280.702 22.9286 281.68 23.7667 281.68 25.0808V29.6455H280.632V28.5091H280.607C280.213 29.2646 279.375 29.7598 278.486 29.7598ZM284.244 23.0429V29.9693C284.244 31.3089 283.61 31.9183 282.2 31.9183C282.181 31.9183 282.003 31.9183 281.991 31.912V30.9914C282.003 30.9914 282.156 30.9914 282.162 30.9914C282.879 30.9914 283.14 30.7184 283.14 29.982V23.0429H284.244ZM283.692 21.9319C283.318 21.9319 283.006 21.6208 283.006 21.2462C283.006 20.8653 283.318 20.5606 283.692 20.5606C284.073 20.5606 284.384 20.8653 284.384 21.2462C284.384 21.6208 284.073 21.9319 283.692 21.9319ZM288.384 23.8873C287.349 23.8873 286.625 24.6809 286.555 25.7792H290.142C290.117 24.6745 289.425 23.8873 288.384 23.8873ZM290.117 27.7536H291.203C291.012 28.9091 289.895 29.7598 288.454 29.7598C286.562 29.7598 285.413 28.4456 285.413 26.3696C285.413 24.319 286.581 22.9286 288.403 22.9286C290.187 22.9286 291.285 24.2238 291.285 26.2236V26.6426H286.549V26.7061C286.549 27.9695 287.292 28.8011 288.479 28.8011C289.317 28.8011 289.933 28.3758 290.117 27.7536ZM297.824 23.0429V29.6455H296.777V28.5726H296.751C296.358 29.3344 295.672 29.7598 294.656 29.7598C293.215 29.7598 292.371 28.8265 292.371 27.3283V23.0429H293.475V27.1314C293.475 28.2044 293.977 28.7821 294.999 28.7821C296.072 28.7821 296.719 28.0456 296.719 26.9219V23.0429H297.824ZM299.259 29.6455V23.0429H300.3V24.0968H300.326C300.694 23.3857 301.398 22.9286 302.421 22.9286C303.868 22.9286 304.706 23.8619 304.706 25.3602V29.6455H303.601V25.557C303.601 24.4904 303.1 23.9063 302.084 23.9063C301.043 23.9063 300.364 24.6428 300.364 25.7601V29.6455H299.259ZM306.173 29.6455V23.0429H307.277V29.6455H306.173ZM306.725 21.9319C306.35 21.9319 306.039 21.6208 306.039 21.2462C306.039 20.8653 306.35 20.5606 306.725 20.5606C307.106 20.5606 307.417 20.8653 307.417 21.2462C307.417 21.6208 307.106 21.9319 306.725 21.9319ZM311.417 23.8873C310.382 23.8873 309.658 24.6809 309.588 25.7792H313.175C313.15 24.6745 312.458 23.8873 311.417 23.8873ZM313.15 27.7536H314.235C314.045 28.9091 312.928 29.7598 311.486 29.7598C309.595 29.7598 308.445 28.4456 308.445 26.3696C308.445 24.319 309.614 22.9286 311.436 22.9286C313.22 22.9286 314.318 24.2238 314.318 26.2236V26.6426H309.582V26.7061C309.582 27.9695 310.325 28.8011 311.512 28.8011C312.35 28.8011 312.966 28.3758 313.15 27.7536ZM318.159 29.6455V20.4844H319.264V29.6455H318.159ZM323.403 23.8873C322.368 23.8873 321.644 24.6809 321.574 25.7792H325.161C325.136 24.6745 324.444 23.8873 323.403 23.8873ZM325.136 27.7536H326.222C326.031 28.9091 324.914 29.7598 323.473 29.7598C321.581 29.7598 320.432 28.4456 320.432 26.3696C320.432 24.319 321.6 22.9286 323.422 22.9286C325.206 22.9286 326.304 24.2238 326.304 26.2236V26.6426H321.568V26.7061C321.568 27.9695 322.311 28.8011 323.498 28.8011C324.336 28.8011 324.952 28.3758 325.136 27.7536ZM335.503 23.0429L333.078 29.6455H331.948L329.517 23.0429H330.678L332.5 28.471H332.526L334.354 23.0429H335.503ZM338.424 28.8202C339.465 28.8202 340.265 28.0901 340.265 27.1378V26.5982L338.5 26.7061C337.611 26.7632 337.103 27.1568 337.103 27.779C337.103 28.4075 337.63 28.8202 338.424 28.8202ZM338.176 29.7598C336.862 29.7598 335.98 28.9662 335.98 27.779C335.98 26.6489 336.849 25.9379 338.373 25.849L340.265 25.7411V25.1888C340.265 24.3825 339.732 23.9 338.817 23.9C337.967 23.9 337.433 24.2999 337.294 24.9475H336.227C336.303 23.8047 337.281 22.9286 338.843 22.9286C340.392 22.9286 341.37 23.7667 341.37 25.0808V29.6455H340.322V28.5091H340.297C339.903 29.2646 339.065 29.7598 338.176 29.7598ZM345.458 28.725C346.607 28.725 347.375 27.7727 347.375 26.3188C347.375 24.865 346.607 23.9 345.458 23.9C344.322 23.9 343.579 24.8396 343.579 26.3188C343.579 27.7981 344.322 28.725 345.458 28.725ZM345.496 32.1342C344.042 32.1342 342.893 31.3152 342.709 30.1915H343.846C344.061 30.7946 344.715 31.1946 345.541 31.1946C346.683 31.1946 347.375 30.5343 347.375 29.5503V28.5091H347.35C346.944 29.2265 346.163 29.6963 345.236 29.6963C343.553 29.6963 342.449 28.3694 342.449 26.3188C342.449 24.2492 343.553 22.9286 345.261 22.9286C346.195 22.9286 346.969 23.3857 347.407 24.1539H347.426V23.0429H348.48V29.5122C348.48 31.0867 347.318 32.1342 345.496 32.1342ZM349.978 29.6455V23.0429H351.083V29.6455H349.978ZM350.531 21.9319C350.156 21.9319 349.845 21.6208 349.845 21.2462C349.845 20.8653 350.156 20.5606 350.531 20.5606C350.912 20.5606 351.223 20.8653 351.223 21.2462C351.223 21.6208 350.912 21.9319 350.531 21.9319ZM352.575 29.6455V23.0429H353.616V24.0968H353.641C354.01 23.3857 354.714 22.9286 355.737 22.9286C357.184 22.9286 358.022 23.8619 358.022 25.3602V29.6455H356.917V25.557C356.917 24.4904 356.416 23.9063 355.4 23.9063C354.359 23.9063 353.68 24.6428 353.68 25.7601V29.6455H352.575ZM360.187 31.4676H359.266L359.882 28.2361H361.057L360.187 31.4676ZM370.25 25.2078H369.17C369.012 24.4904 368.453 23.9 367.482 23.9C366.339 23.9 365.564 24.8459 365.564 26.3442C365.564 27.8806 366.351 28.7884 367.494 28.7884C368.396 28.7884 368.986 28.3123 369.177 27.5187H370.262C370.091 28.8329 368.986 29.7598 367.488 29.7598C365.659 29.7598 364.441 28.471 364.441 26.3442C364.441 24.2619 365.653 22.9286 367.475 22.9286C369.126 22.9286 370.11 24.0206 370.25 25.2078ZM371.913 23.7159H370.992L371.608 20.4844H372.783L371.913 23.7159ZM375.881 23.8873C374.846 23.8873 374.122 24.6809 374.052 25.7792H377.639C377.614 24.6745 376.922 23.8873 375.881 23.8873ZM377.614 27.7536H378.7C378.509 28.9091 377.392 29.7598 375.951 29.7598C374.059 29.7598 372.91 28.4456 372.91 26.3696C372.91 24.319 374.078 22.9286 375.9 22.9286C377.684 22.9286 378.782 24.2238 378.782 26.2236V26.6426H374.046V26.7061C374.046 27.9695 374.789 28.8011 375.976 28.8011C376.814 28.8011 377.43 28.3758 377.614 27.7536ZM379.785 24.865C379.785 23.7349 380.795 22.9286 382.249 22.9286C383.613 22.9286 384.617 23.7413 384.667 24.8586H383.613C383.537 24.2238 383.023 23.8301 382.21 23.8301C381.404 23.8301 380.871 24.2301 380.871 24.8078C380.871 25.2649 381.22 25.5697 381.969 25.7601L382.991 26.0077C384.325 26.3442 384.807 26.8267 384.807 27.7981C384.807 28.9472 383.721 29.7598 382.179 29.7598C380.731 29.7598 379.722 28.9726 379.607 27.8044H380.712C380.833 28.4901 381.353 28.8583 382.249 28.8583C383.144 28.8583 383.696 28.4774 383.696 27.8806C383.696 27.4108 383.423 27.1568 382.68 26.96L381.518 26.6616C380.357 26.3633 379.785 25.7665 379.785 24.865ZM386.312 21.4494H387.416V23.0429H388.699V23.9508H387.416V27.8742C387.416 28.4774 387.67 28.7503 388.235 28.7503C388.362 28.7503 388.616 28.7313 388.692 28.7186V29.6455C388.559 29.6773 388.254 29.6963 387.994 29.6963C386.781 29.6963 386.312 29.2011 386.312 27.9314V23.9508H385.328V23.0429H386.312V21.4494ZM392.902 21.4494H394.006V23.0429H395.289V23.9508H394.006V27.8742C394.006 28.4774 394.26 28.7503 394.825 28.7503C394.952 28.7503 395.206 28.7313 395.282 28.7186V29.6455C395.149 29.6773 394.844 29.6963 394.584 29.6963C393.371 29.6963 392.902 29.2011 392.902 27.9314V23.9508H391.917V23.0429H392.902V21.4494ZM396.47 29.6455V23.0429H397.511V24.1222H397.536C397.752 23.3921 398.361 22.9286 399.136 22.9286C399.326 22.9286 399.491 22.9604 399.58 22.9731V24.046C399.491 24.0143 399.257 23.9825 398.99 23.9825C398.133 23.9825 397.574 24.5983 397.574 25.5316V29.6455H396.47ZM402.901 29.7598C401.072 29.7598 399.841 28.4456 399.841 26.3442C399.841 24.2365 401.072 22.9286 402.901 22.9286C404.723 22.9286 405.954 24.2365 405.954 26.3442C405.954 28.4456 404.723 29.7598 402.901 29.7598ZM402.901 28.7884C404.069 28.7884 404.831 27.8996 404.831 26.3442C404.831 24.7888 404.069 23.9 402.901 23.9C401.733 23.9 400.964 24.7888 400.964 26.3442C400.964 27.8996 401.733 28.7884 402.901 28.7884ZM410.278 22.9286C411.96 22.9286 413.103 24.2745 413.103 26.3442C413.103 28.4139 411.967 29.7598 410.303 29.7598C409.357 29.7598 408.595 29.2963 408.202 28.5726H408.176V31.8485H407.072V23.0429H408.119V24.1603H408.145C408.551 23.4175 409.319 22.9286 410.278 22.9286ZM410.062 28.7884C411.236 28.7884 411.973 27.8425 411.973 26.3442C411.973 24.8523 411.236 23.9 410.062 23.9C408.932 23.9 408.17 24.8777 408.17 26.3442C408.17 27.8171 408.932 28.7884 410.062 28.7884ZM420.169 29.7598C419.204 29.7598 418.449 29.29 418.023 28.5281H417.998V29.6455H416.944V20.4844H418.049V24.1476H418.074C418.487 23.3921 419.255 22.9286 420.188 22.9286C421.851 22.9286 422.975 24.2745 422.975 26.3442C422.975 28.4202 421.858 29.7598 420.169 29.7598ZM419.953 23.9C418.836 23.9 418.042 24.8777 418.042 26.3442C418.042 27.8171 418.836 28.7884 419.953 28.7884C421.121 28.7884 421.845 27.8552 421.845 26.3442C421.845 24.8459 421.121 23.9 419.953 23.9ZM424.156 29.6455V23.0429H425.261V29.6455H424.156ZM424.708 21.9319C424.334 21.9319 424.023 21.6208 424.023 21.2462C424.023 20.8653 424.334 20.5606 424.708 20.5606C425.089 20.5606 425.4 20.8653 425.4 21.2462C425.4 21.6208 425.089 21.9319 424.708 21.9319ZM429.4 23.8873C428.365 23.8873 427.641 24.6809 427.572 25.7792H431.159C431.133 24.6745 430.441 23.8873 429.4 23.8873ZM431.133 27.7536H432.219C432.028 28.9091 430.911 29.7598 429.47 29.7598C427.578 29.7598 426.429 28.4456 426.429 26.3696C426.429 24.319 427.597 22.9286 429.419 22.9286C431.203 22.9286 432.301 24.2238 432.301 26.2236V26.6426H427.565V26.7061C427.565 27.9695 428.308 28.8011 429.495 28.8011C430.333 28.8011 430.949 28.3758 431.133 27.7536ZM433.419 29.6455V23.0429H434.46V24.0968H434.485C434.853 23.3857 435.558 22.9286 436.58 22.9286C438.028 22.9286 438.866 23.8619 438.866 25.3602V29.6455H437.761V25.557C437.761 24.4904 437.26 23.9063 436.244 23.9063C435.203 23.9063 434.523 24.6428 434.523 25.7601V29.6455H433.419ZM441.208 29.709C440.802 29.709 440.485 29.3916 440.485 28.9852C440.485 28.5789 440.802 28.2615 441.208 28.2615C441.615 28.2615 441.932 28.5789 441.932 28.9852C441.932 29.3916 441.615 29.709 441.208 29.709ZM30.7682 45.6455H29.7016V38.5858H29.6571L26.7368 45.582H25.7718L22.8514 38.5858H22.8069V45.6455H21.7404V36.4844H23.0672L26.2289 44.1282H26.2797L29.4413 36.4844H30.7682V45.6455ZM35.1106 45.7598C33.2822 45.7598 32.0506 44.4456 32.0506 42.3442C32.0506 40.2365 33.2822 38.9286 35.1106 38.9286C36.9327 38.9286 38.1643 40.2365 38.1643 42.3442C38.1643 44.4456 36.9327 45.7598 35.1106 45.7598ZM35.1106 44.7884C36.2788 44.7884 37.0406 43.8996 37.0406 42.3442C37.0406 40.7888 36.2788 39.9 35.1106 39.9C33.9425 39.9 33.1743 40.7888 33.1743 42.3442C33.1743 43.8996 33.9425 44.7884 35.1106 44.7884ZM39.2817 45.6455V39.0429H40.3229V40.0968H40.3483C40.7165 39.3857 41.4212 38.9286 42.4433 38.9286C43.8908 38.9286 44.7288 39.8619 44.7288 41.3602V45.6455H43.6242V41.557C43.6242 40.4904 43.1226 39.9063 42.1068 39.9063C41.0657 39.9063 40.3864 40.6428 40.3864 41.7601V45.6455H39.2817ZM54.2899 41.2078H53.2106C53.0519 40.4904 52.4932 39.9 51.5219 39.9C50.3791 39.9 49.6046 40.8459 49.6046 42.3442C49.6046 43.8806 50.3918 44.7884 51.5346 44.7884C52.4361 44.7884 53.0265 44.3123 53.217 43.5187H54.3026C54.1312 44.8329 53.0265 45.7598 51.5282 45.7598C49.6998 45.7598 48.4809 44.471 48.4809 42.3442C48.4809 40.2619 49.6935 38.9286 51.5155 38.9286C53.1662 38.9286 54.1502 40.0206 54.2899 41.2078ZM55.3755 45.6455V36.4844H56.4802V40.0968H56.5056C56.8738 39.3603 57.5976 38.9286 58.6006 38.9286C60.0481 38.9286 60.9242 39.9063 60.9242 41.3792V45.6455H59.8196V41.5824C59.8196 40.5348 59.2926 39.9063 58.2578 39.9063C57.1595 39.9063 56.4802 40.6555 56.4802 41.7982V45.6455H55.3755ZM62.3844 45.6455V39.0429H63.4891V45.6455H62.3844ZM62.9368 37.9319C62.5622 37.9319 62.2511 37.6208 62.2511 37.2462C62.2511 36.8653 62.5622 36.5606 62.9368 36.5606C63.3177 36.5606 63.6288 36.8653 63.6288 37.2462C63.6288 37.6208 63.3177 37.9319 62.9368 37.9319ZM64.981 45.6455V39.0429H66.0222V40.1222H66.0476C66.2635 39.3921 66.8729 38.9286 67.6475 38.9286C67.8379 38.9286 68.003 38.9604 68.0919 38.9731V40.046C68.003 40.0143 67.7681 39.9825 67.5014 39.9825C66.6444 39.9825 66.0857 40.5983 66.0857 41.5316V45.6455H64.981ZM74.4151 39.0429V45.6455H73.3676V44.5726H73.3422C72.9486 45.3344 72.2629 45.7598 71.2472 45.7598C69.806 45.7598 68.9616 44.8265 68.9616 43.3283V39.0429H70.0663V43.1314C70.0663 44.2044 70.5678 44.7821 71.59 44.7821C72.6629 44.7821 73.3105 44.0456 73.3105 42.9219V39.0429H74.4151ZM75.8499 45.6455V39.0429H76.8911V40.1222H76.9165C77.1324 39.3921 77.7418 38.9286 78.5164 38.9286C78.7068 38.9286 78.8719 38.9604 78.9608 38.9731V40.046C78.8719 40.0143 78.637 39.9825 78.3703 39.9825C77.5133 39.9825 76.9546 40.5983 76.9546 41.5316V45.6455H75.8499ZM82.2303 44.725C83.3794 44.725 84.1476 43.7727 84.1476 42.3188C84.1476 40.865 83.3794 39.9 82.2303 39.9C81.0939 39.9 80.3511 40.8396 80.3511 42.3188C80.3511 43.7981 81.0939 44.725 82.2303 44.725ZM82.2684 48.1342C80.8146 48.1342 79.6655 47.3152 79.4814 46.1915H80.6178C80.8336 46.7946 81.4875 47.1946 82.3129 47.1946C83.4556 47.1946 84.1476 46.5343 84.1476 45.5503V44.5091H84.1222C83.7159 45.2265 82.935 45.6963 82.0081 45.6963C80.3257 45.6963 79.2211 44.3694 79.2211 42.3188C79.2211 40.2492 80.3257 38.9286 82.0335 38.9286C82.9668 38.9286 83.7413 39.3857 84.1794 40.1539H84.1984V39.0429H85.2523V45.5122C85.2523 47.0867 84.0905 48.1342 82.2684 48.1342ZM86.7506 45.6455V39.0429H87.8552V45.6455H86.7506ZM87.3029 37.9319C86.9283 37.9319 86.6172 37.6208 86.6172 37.2462C86.6172 36.8653 86.9283 36.5606 87.3029 36.5606C87.6838 36.5606 87.9949 36.8653 87.9949 37.2462C87.9949 37.6208 87.6838 37.9319 87.3029 37.9319ZM91.9945 39.8873C90.9597 39.8873 90.236 40.6809 90.1661 41.7792H93.7531C93.7277 40.6745 93.0357 39.8873 91.9945 39.8873ZM93.7277 43.7536H94.8133C94.6229 44.9091 93.5055 45.7598 92.0644 45.7598C90.1725 45.7598 89.0234 44.4456 89.0234 42.3696C89.0234 40.319 90.1915 38.9286 92.0136 38.9286C93.7976 38.9286 94.8959 40.2238 94.8959 42.2236V42.6426H90.1598V42.7061C90.1598 43.9695 90.9026 44.8011 92.0898 44.8011C92.9278 44.8011 93.5436 44.3758 93.7277 43.7536ZM96.0132 45.6455V39.0429H97.0544V40.0968H97.0798C97.448 39.3857 98.1527 38.9286 99.1749 38.9286C100.622 38.9286 101.46 39.8619 101.46 41.3602V45.6455H100.356V41.557C100.356 40.4904 99.8542 39.9063 98.8384 39.9063C97.7972 39.9063 97.1179 40.6428 97.1179 41.7601V45.6455H96.0132ZM105.593 45.6455V39.0429H106.698V45.6455H105.593ZM106.146 37.9319C105.771 37.9319 105.46 37.6208 105.46 37.2462C105.46 36.8653 105.771 36.5606 106.146 36.5606C106.527 36.5606 106.838 36.8653 106.838 37.2462C106.838 37.6208 106.527 37.9319 106.146 37.9319ZM108.247 45.6455V36.4844H109.352V45.6455H108.247ZM113.866 45.6455V39.9508H112.945V39.0429H113.866V38.3065C113.866 37.0367 114.456 36.4336 115.675 36.4336C115.923 36.4336 116.189 36.459 116.348 36.4844V37.3796C116.215 37.3605 116.031 37.3415 115.846 37.3415C115.25 37.3415 114.964 37.6589 114.964 38.3128V39.0429H116.316V39.9508H114.97V45.6455H113.866ZM119.256 44.8202C120.297 44.8202 121.097 44.0901 121.097 43.1378V42.5982L119.332 42.7061C118.443 42.7632 117.935 43.1568 117.935 43.779C117.935 44.4075 118.462 44.8202 119.256 44.8202ZM119.008 45.7598C117.694 45.7598 116.811 44.9662 116.811 43.779C116.811 42.6489 117.681 41.9379 119.205 41.849L121.097 41.7411V41.1888C121.097 40.3825 120.563 39.9 119.649 39.9C118.799 39.9 118.265 40.2999 118.126 40.9475H117.059C117.135 39.8047 118.113 38.9286 119.675 38.9286C121.224 38.9286 122.201 39.7667 122.201 41.0808V45.6455H121.154V44.5091H121.129C120.735 45.2646 119.897 45.7598 119.008 45.7598ZM123.662 45.6455V39.0429H124.766V45.6455H123.662ZM124.214 37.9319C123.839 37.9319 123.528 37.6208 123.528 37.2462C123.528 36.8653 123.839 36.5606 124.214 36.5606C124.595 36.5606 124.906 36.8653 124.906 37.2462C124.906 37.6208 124.595 37.9319 124.214 37.9319ZM126.614 37.4494H127.718V39.0429H129.001V39.9508H127.718V43.8742C127.718 44.4774 127.972 44.7503 128.537 44.7503C128.664 44.7503 128.918 44.7313 128.994 44.7186V45.6455C128.861 45.6773 128.556 45.6963 128.296 45.6963C127.084 45.6963 126.614 45.2011 126.614 43.9314V39.9508H125.63V39.0429H126.614V37.4494ZM138.264 39.0429L135.838 45.6455H134.708L132.277 39.0429H133.439L135.261 44.471H135.286L137.114 39.0429H138.264ZM139.133 45.6455V39.0429H140.174V40.1222H140.2C140.416 39.3921 141.025 38.9286 141.8 38.9286C141.99 38.9286 142.155 38.9604 142.244 38.9731V40.046C142.155 40.0143 141.92 39.9825 141.654 39.9825C140.797 39.9825 140.238 40.5983 140.238 41.5316V45.6455H139.133ZM145.196 44.8202C146.237 44.8202 147.037 44.0901 147.037 43.1378V42.5982L145.272 42.7061C144.384 42.7632 143.876 43.1568 143.876 43.779C143.876 44.4075 144.403 44.8202 145.196 44.8202ZM144.949 45.7598C143.634 45.7598 142.752 44.9662 142.752 43.779C142.752 42.6489 143.622 41.9379 145.145 41.849L147.037 41.7411V41.1888C147.037 40.3825 146.504 39.9 145.59 39.9C144.739 39.9 144.206 40.2999 144.066 40.9475H143C143.076 39.8047 144.053 38.9286 145.615 38.9286C147.164 38.9286 148.142 39.7667 148.142 41.0808V45.6455H147.094V44.5091H147.069C146.675 45.2646 145.837 45.7598 144.949 45.7598ZM149.602 45.6455V39.0429H150.707V45.6455H149.602ZM150.155 37.9319C149.78 37.9319 149.469 37.6208 149.469 37.2462C149.469 36.8653 149.78 36.5606 150.155 36.5606C150.535 36.5606 150.847 36.8653 150.847 37.2462C150.847 37.6208 150.535 37.9319 150.155 37.9319ZM152.199 45.6455V39.0429H153.24V40.0968H153.265C153.576 39.3984 154.249 38.9286 155.138 38.9286C156.04 38.9286 156.706 39.3857 156.992 40.1857H157.017C157.386 39.3984 158.16 38.9286 159.087 38.9286C160.395 38.9286 161.239 39.7794 161.239 41.0872V45.6455H160.135V41.3411C160.135 40.4396 159.633 39.9063 158.763 39.9063C157.887 39.9063 157.271 40.5539 157.271 41.449V45.6455H156.167V41.2205C156.167 40.4269 155.633 39.9063 154.814 39.9063C153.938 39.9063 153.303 40.592 153.303 41.5062V45.6455H152.199ZM165.296 39.8873C164.261 39.8873 163.537 40.6809 163.468 41.7792H167.055C167.029 40.6745 166.337 39.8873 165.296 39.8873ZM167.029 43.7536H168.115C167.924 44.9091 166.807 45.7598 165.366 45.7598C163.474 45.7598 162.325 44.4456 162.325 42.3696C162.325 40.319 163.493 38.9286 165.315 38.9286C167.099 38.9286 168.197 40.2238 168.197 42.2236V42.6426H163.461V42.7061C163.461 43.9695 164.204 44.8011 165.391 44.8011C166.229 44.8011 166.845 44.3758 167.029 43.7536ZM169.315 45.6455V39.0429H170.356V40.0968H170.381C170.75 39.3857 171.454 38.9286 172.476 38.9286C173.924 38.9286 174.762 39.8619 174.762 41.3602V45.6455H173.657V41.557C173.657 40.4904 173.156 39.9063 172.14 39.9063C171.099 39.9063 170.419 40.6428 170.419 41.7601V45.6455H169.315ZM176.527 37.4494H177.631V39.0429H178.914V39.9508H177.631V43.8742C177.631 44.4774 177.885 44.7503 178.45 44.7503C178.577 44.7503 178.831 44.7313 178.908 44.7186V45.6455C178.774 45.6773 178.47 45.6963 178.209 45.6963C176.997 45.6963 176.527 45.2011 176.527 43.9314V39.9508H175.543V39.0429H176.527V37.4494ZM183.117 37.4494H184.221V39.0429H185.504V39.9508H184.221V43.8742C184.221 44.4774 184.475 44.7503 185.04 44.7503C185.167 44.7503 185.421 44.7313 185.497 44.7186V45.6455C185.364 45.6773 185.059 45.6963 184.799 45.6963C183.587 45.6963 183.117 45.2011 183.117 43.9314V39.9508H182.133V39.0429H183.117V37.4494ZM186.685 45.6455V39.0429H187.726V40.1222H187.751C187.967 39.3921 188.577 38.9286 189.351 38.9286C189.542 38.9286 189.707 38.9604 189.796 38.9731V40.046C189.707 40.0143 189.472 39.9825 189.205 39.9825C188.348 39.9825 187.789 40.5983 187.789 41.5316V45.6455H186.685ZM193.116 45.7598C191.287 45.7598 190.056 44.4456 190.056 42.3442C190.056 40.2365 191.287 38.9286 193.116 38.9286C194.938 38.9286 196.17 40.2365 196.17 42.3442C196.17 44.4456 194.938 45.7598 193.116 45.7598ZM193.116 44.7884C194.284 44.7884 195.046 43.8996 195.046 42.3442C195.046 40.7888 194.284 39.9 193.116 39.9C191.948 39.9 191.18 40.7888 191.18 42.3442C191.18 43.8996 191.948 44.7884 193.116 44.7884ZM200.493 38.9286C202.175 38.9286 203.318 40.2745 203.318 42.3442C203.318 44.4139 202.182 45.7598 200.518 45.7598C199.572 45.7598 198.811 45.2963 198.417 44.5726H198.392V47.8485H197.287V39.0429H198.334V40.1603H198.36C198.766 39.4175 199.534 38.9286 200.493 38.9286ZM200.277 44.7884C201.452 44.7884 202.188 43.8425 202.188 42.3442C202.188 40.8523 201.452 39.9 200.277 39.9C199.147 39.9 198.385 40.8777 198.385 42.3442C198.385 43.8171 199.147 44.7884 200.277 44.7884ZM210.384 45.7598C209.419 45.7598 208.664 45.29 208.238 44.5281H208.213V45.6455H207.159V36.4844H208.264V40.1476H208.289C208.702 39.3921 209.47 38.9286 210.403 38.9286C212.067 38.9286 213.19 40.2745 213.19 42.3442C213.19 44.4202 212.073 45.7598 210.384 45.7598ZM210.168 39.9C209.051 39.9 208.257 40.8777 208.257 42.3442C208.257 43.8171 209.051 44.7884 210.168 44.7884C211.336 44.7884 212.06 43.8552 212.06 42.3442C212.06 40.8459 211.336 39.9 210.168 39.9ZM214.371 45.6455V39.0429H215.476V45.6455H214.371ZM214.923 37.9319C214.549 37.9319 214.238 37.6208 214.238 37.2462C214.238 36.8653 214.549 36.5606 214.923 36.5606C215.304 36.5606 215.615 36.8653 215.615 37.2462C215.615 37.6208 215.304 37.9319 214.923 37.9319ZM219.615 39.8873C218.58 39.8873 217.857 40.6809 217.787 41.7792H221.374C221.348 40.6745 220.656 39.8873 219.615 39.8873ZM221.348 43.7536H222.434C222.243 44.9091 221.126 45.7598 219.685 45.7598C217.793 45.7598 216.644 44.4456 216.644 42.3696C216.644 40.319 217.812 38.9286 219.634 38.9286C221.418 38.9286 222.516 40.2238 222.516 42.2236V42.6426H217.78V42.7061C217.78 43.9695 218.523 44.8011 219.71 44.8011C220.548 44.8011 221.164 44.3758 221.348 43.7536ZM223.634 45.6455V39.0429H224.675V40.0968H224.7C225.069 39.3857 225.773 38.9286 226.795 38.9286C228.243 38.9286 229.081 39.8619 229.081 41.3602V45.6455H227.976V41.557C227.976 40.4904 227.475 39.9063 226.459 39.9063C225.418 39.9063 224.738 40.6428 224.738 41.7601V45.6455H223.634ZM231.424 45.709C231.017 45.709 230.7 45.3916 230.7 44.9852C230.7 44.5789 231.017 44.2615 231.424 44.2615C231.83 44.2615 232.147 44.5789 232.147 44.9852C232.147 45.3916 231.83 45.709 231.424 45.709ZM235.372 43.4933H236.509C236.534 44.2679 237.125 44.8075 237.956 44.8075C238.966 44.8075 239.512 44.2044 239.512 43.087V36.4844H240.655V43.0934C240.655 44.8329 239.651 45.8614 237.963 45.8614C236.439 45.8614 235.372 44.8837 235.372 43.4933ZM244.908 39.8873C243.873 39.8873 243.15 40.6809 243.08 41.7792H246.667C246.641 40.6745 245.949 39.8873 244.908 39.8873ZM246.641 43.7536H247.727C247.536 44.9091 246.419 45.7598 244.978 45.7598C243.086 45.7598 241.937 44.4456 241.937 42.3696C241.937 40.319 243.105 38.9286 244.927 38.9286C246.711 38.9286 247.809 40.2238 247.809 42.2236V42.6426H243.073V42.7061C243.073 43.9695 243.816 44.8011 245.003 44.8011C245.841 44.8011 246.457 44.3758 246.641 43.7536ZM251.949 37.4494H253.053V39.0429H254.336V39.9508H253.053V43.8742C253.053 44.4774 253.307 44.7503 253.872 44.7503C253.999 44.7503 254.253 44.7313 254.33 44.7186V45.6455C254.196 45.6773 253.891 45.6963 253.631 45.6963C252.419 45.6963 251.949 45.2011 251.949 43.9314V39.9508H250.965V39.0429H251.949V37.4494ZM255.517 45.6455V39.0429H256.558V40.1222H256.583C256.799 39.3921 257.409 38.9286 258.183 38.9286C258.374 38.9286 258.539 38.9604 258.628 38.9731V40.046C258.539 40.0143 258.304 39.9825 258.037 39.9825C257.18 39.9825 256.621 40.5983 256.621 41.5316V45.6455H255.517ZM261.948 45.7598C260.12 45.7598 258.888 44.4456 258.888 42.3442C258.888 40.2365 260.12 38.9286 261.948 38.9286C263.77 38.9286 265.002 40.2365 265.002 42.3442C265.002 44.4456 263.77 45.7598 261.948 45.7598ZM261.948 44.7884C263.116 44.7884 263.878 43.8996 263.878 42.3442C263.878 40.7888 263.116 39.9 261.948 39.9C260.78 39.9 260.012 40.7888 260.012 42.3442C260.012 43.8996 260.78 44.7884 261.948 44.7884ZM271.541 39.0429V45.6455H270.493V44.5726H270.468C270.074 45.3344 269.389 45.7598 268.373 45.7598C266.932 45.7598 266.087 44.8265 266.087 43.3283V39.0429H267.192V43.1314C267.192 44.2044 267.693 44.7821 268.716 44.7821C269.789 44.7821 270.436 44.0456 270.436 42.9219V39.0429H271.541ZM278.391 39.0429L275.966 45.6455H274.836L272.404 39.0429H273.566L275.388 44.471H275.413L277.242 39.0429H278.391ZM281.718 39.8873C280.683 39.8873 279.959 40.6809 279.889 41.7792H283.476C283.451 40.6745 282.759 39.8873 281.718 39.8873ZM283.451 43.7536H284.536C284.346 44.9091 283.229 45.7598 281.787 45.7598C279.896 45.7598 278.746 44.4456 278.746 42.3696C278.746 40.319 279.915 38.9286 281.737 38.9286C283.521 38.9286 284.619 40.2238 284.619 42.2236V42.6426H279.883V42.7061C279.883 43.9695 280.626 44.8011 281.813 44.8011C282.651 44.8011 283.267 44.3758 283.451 43.7536ZM290.891 38.9286C291.85 38.9286 292.606 39.3984 293.031 40.1603H293.056V39.0429H294.11V47.8485H293.006V44.5408H292.98C292.567 45.2963 291.799 45.7598 290.866 45.7598C289.196 45.7598 288.079 44.4139 288.079 42.3442C288.079 40.2682 289.196 38.9286 290.891 38.9286ZM291.088 44.7884C292.218 44.7884 293.006 43.8171 293.006 42.3442C293.006 40.8713 292.218 39.9 291.088 39.9C289.933 39.9 289.209 40.8332 289.209 42.3442C289.209 43.8488 289.933 44.7884 291.088 44.7884ZM300.973 39.0429V45.6455H299.926V44.5726H299.9C299.507 45.3344 298.821 45.7598 297.805 45.7598C296.364 45.7598 295.52 44.8265 295.52 43.3283V39.0429H296.624V43.1314C296.624 44.2044 297.126 44.7821 298.148 44.7821C299.221 44.7821 299.868 44.0456 299.868 42.9219V39.0429H300.973ZM305.055 39.8873C304.02 39.8873 303.297 40.6809 303.227 41.7792H306.814C306.788 40.6745 306.096 39.8873 305.055 39.8873ZM306.788 43.7536H307.874C307.684 44.9091 306.566 45.7598 305.125 45.7598C303.233 45.7598 302.084 44.4456 302.084 42.3696C302.084 40.319 303.252 38.9286 305.074 38.9286C306.858 38.9286 307.957 40.2238 307.957 42.2236V42.6426H303.221V42.7061C303.221 43.9695 303.963 44.8011 305.151 44.8011C305.989 44.8011 306.604 44.3758 306.788 43.7536ZM317.226 41.2078H316.146C315.988 40.4904 315.429 39.9 314.458 39.9C313.315 39.9 312.54 40.8459 312.54 42.3442C312.54 43.8806 313.328 44.7884 314.47 44.7884C315.372 44.7884 315.962 44.3123 316.153 43.5187H317.238C317.067 44.8329 315.962 45.7598 314.464 45.7598C312.636 45.7598 311.417 44.471 311.417 42.3442C311.417 40.2619 312.629 38.9286 314.451 38.9286C316.102 38.9286 317.086 40.0206 317.226 41.2078ZM318.889 39.7159H317.968L318.584 36.4844H319.759L318.889 39.7159ZM322.857 39.8873C321.822 39.8873 321.098 40.6809 321.028 41.7792H324.615C324.59 40.6745 323.898 39.8873 322.857 39.8873ZM324.59 43.7536H325.676C325.485 44.9091 324.368 45.7598 322.927 45.7598C321.035 45.7598 319.886 44.4456 319.886 42.3696C319.886 40.319 321.054 38.9286 322.876 38.9286C324.66 38.9286 325.758 40.2238 325.758 42.2236V42.6426H321.022V42.7061C321.022 43.9695 321.765 44.8011 322.952 44.8011C323.79 44.8011 324.406 44.3758 324.59 43.7536ZM326.761 40.865C326.761 39.7349 327.771 38.9286 329.225 38.9286C330.59 38.9286 331.593 39.7413 331.643 40.8586H330.59C330.513 40.2238 329.999 39.8301 329.186 39.8301C328.38 39.8301 327.847 40.2301 327.847 40.8078C327.847 41.2649 328.196 41.5697 328.945 41.7601L329.967 42.0077C331.301 42.3442 331.783 42.8267 331.783 43.7981C331.783 44.9472 330.697 45.7598 329.155 45.7598C327.707 45.7598 326.698 44.9726 326.584 43.8044H327.688C327.809 44.4901 328.329 44.8583 329.225 44.8583C330.12 44.8583 330.672 44.4774 330.672 43.8806C330.672 43.4108 330.399 43.1568 329.656 42.96L328.494 42.6616C327.333 42.3633 326.761 41.7665 326.761 40.865ZM333.288 37.4494H334.392V39.0429H335.675V39.9508H334.392V43.8742C334.392 44.4774 334.646 44.7503 335.211 44.7503C335.338 44.7503 335.592 44.7313 335.668 44.7186V45.6455C335.535 45.6773 335.23 45.6963 334.97 45.6963C333.758 45.6963 333.288 45.2011 333.288 43.9314V39.9508H332.304V39.0429H333.288V37.4494ZM339.579 45.6455V36.4844H340.684V40.0968H340.709C341.078 39.3603 341.801 38.9286 342.804 38.9286C344.252 38.9286 345.128 39.9063 345.128 41.3792V45.6455H344.023V41.5824C344.023 40.5348 343.496 39.9063 342.462 39.9063C341.363 39.9063 340.684 40.6555 340.684 41.7982V45.6455H339.579ZM347.077 48.1151C346.944 48.1151 346.721 48.1024 346.601 48.077V47.1501C346.721 47.1755 346.893 47.1819 347.033 47.1819C347.648 47.1819 347.991 46.8835 348.245 46.1153L348.397 45.6519L345.96 39.0429H347.14L348.969 44.5408H348.988L350.816 39.0429H351.978L349.382 46.109C348.817 47.6517 348.271 48.1151 347.077 48.1151ZM356.06 38.9286C357.743 38.9286 358.885 40.2745 358.885 42.3442C358.885 44.4139 357.749 45.7598 356.086 45.7598C355.14 45.7598 354.378 45.2963 353.984 44.5726H353.959V47.8485H352.854V39.0429H353.902V40.1603H353.927C354.334 39.4175 355.102 38.9286 356.06 38.9286ZM355.844 44.7884C357.019 44.7884 357.755 43.8425 357.755 42.3442C357.755 40.8523 357.019 39.9 355.844 39.9C354.714 39.9 353.953 40.8777 353.953 42.3442C353.953 43.8171 354.714 44.7884 355.844 44.7884ZM362.65 39.8873C361.615 39.8873 360.892 40.6809 360.822 41.7792H364.409C364.383 40.6745 363.691 39.8873 362.65 39.8873ZM364.383 43.7536H365.469C365.279 44.9091 364.161 45.7598 362.72 45.7598C360.828 45.7598 359.679 44.4456 359.679 42.3696C359.679 40.319 360.847 38.9286 362.669 38.9286C364.453 38.9286 365.552 40.2238 365.552 42.2236V42.6426H360.815V42.7061C360.815 43.9695 361.558 44.8011 362.745 44.8011C363.583 44.8011 364.199 44.3758 364.383 43.7536ZM366.669 45.6455V39.0429H367.71V40.1222H367.736C367.951 39.3921 368.561 38.9286 369.335 38.9286C369.526 38.9286 369.691 38.9604 369.78 38.9731V40.046C369.691 40.0143 369.456 39.9825 369.189 39.9825C368.332 39.9825 367.774 40.5983 367.774 41.5316V45.6455H366.669ZM373.405 45.6455V39.0429H374.51V45.6455H373.405ZM373.957 37.9319C373.583 37.9319 373.272 37.6208 373.272 37.2462C373.272 36.8653 373.583 36.5606 373.957 36.5606C374.338 36.5606 374.649 36.8653 374.649 37.2462C374.649 37.6208 374.338 37.9319 373.957 37.9319ZM376.001 45.6455V39.0429H377.043V40.0968H377.068C377.379 39.3984 378.052 38.9286 378.941 38.9286C379.842 38.9286 380.509 39.3857 380.795 40.1857H380.82C381.188 39.3984 381.963 38.9286 382.89 38.9286C384.198 38.9286 385.042 39.7794 385.042 41.0872V45.6455H383.937V41.3411C383.937 40.4396 383.436 39.9063 382.566 39.9063C381.69 39.9063 381.074 40.5539 381.074 41.449V45.6455H379.969V41.2205C379.969 40.4269 379.436 39.9063 378.617 39.9063C377.741 39.9063 377.106 40.592 377.106 41.5062V45.6455H376.001ZM389.657 38.9286C391.34 38.9286 392.483 40.2745 392.483 42.3442C392.483 44.4139 391.346 45.7598 389.683 45.7598C388.737 45.7598 387.975 45.2963 387.581 44.5726H387.556V47.8485H386.451V39.0429H387.499V40.1603H387.524C387.931 39.4175 388.699 38.9286 389.657 38.9286ZM389.442 44.7884C390.616 44.7884 391.352 43.8425 391.352 42.3442C391.352 40.8523 390.616 39.9 389.442 39.9C388.311 39.9 387.55 40.8777 387.55 42.3442C387.55 43.8171 388.311 44.7884 389.442 44.7884ZM396.336 45.7598C394.508 45.7598 393.276 44.4456 393.276 42.3442C393.276 40.2365 394.508 38.9286 396.336 38.9286C398.158 38.9286 399.39 40.2365 399.39 42.3442C399.39 44.4456 398.158 45.7598 396.336 45.7598ZM396.336 44.7884C397.504 44.7884 398.266 43.8996 398.266 42.3442C398.266 40.7888 397.504 39.9 396.336 39.9C395.168 39.9 394.4 40.7888 394.4 42.3442C394.4 43.8996 395.168 44.7884 396.336 44.7884ZM400.507 45.6455V39.0429H401.548V40.1222H401.574C401.79 39.3921 402.399 38.9286 403.174 38.9286C403.364 38.9286 403.529 38.9604 403.618 38.9731V40.046C403.529 40.0143 403.294 39.9825 403.028 39.9825C402.171 39.9825 401.612 40.5983 401.612 41.5316V45.6455H400.507ZM404.875 37.4494H405.98V39.0429H407.262V39.9508H405.98V43.8742C405.98 44.4774 406.234 44.7503 406.799 44.7503C406.926 44.7503 407.18 44.7313 407.256 44.7186V45.6455C407.123 45.6773 406.818 45.6963 406.557 45.6963C405.345 45.6963 404.875 45.2011 404.875 43.9314V39.9508H403.891V39.0429H404.875V37.4494ZM410.494 44.8202C411.535 44.8202 412.335 44.0901 412.335 43.1378V42.5982L410.57 42.7061C409.681 42.7632 409.173 43.1568 409.173 43.779C409.173 44.4075 409.7 44.8202 410.494 44.8202ZM410.246 45.7598C408.932 45.7598 408.049 44.9662 408.049 43.779C408.049 42.6489 408.919 41.9379 410.443 41.849L412.335 41.7411V41.1888C412.335 40.3825 411.802 39.9 410.887 39.9C410.037 39.9 409.503 40.2999 409.364 40.9475H408.297C408.373 39.8047 409.351 38.9286 410.913 38.9286C412.462 38.9286 413.439 39.7667 413.439 41.0808V45.6455H412.392V44.5091H412.367C411.973 45.2646 411.135 45.7598 410.246 45.7598ZM414.842 45.6455V39.0429H415.884V40.0968H415.909C416.277 39.3857 416.982 38.9286 418.004 38.9286C419.452 38.9286 420.29 39.8619 420.29 41.3602V45.6455H419.185V41.557C419.185 40.4904 418.683 39.9063 417.668 39.9063C416.626 39.9063 415.947 40.6428 415.947 41.7601V45.6455H414.842ZM422.055 37.4494H423.159V39.0429H424.442V39.9508H423.159V43.8742C423.159 44.4774 423.413 44.7503 423.978 44.7503C424.105 44.7503 424.359 44.7313 424.435 44.7186V45.6455C424.302 45.6773 423.997 45.6963 423.737 45.6963C422.524 45.6963 422.055 45.2011 422.055 43.9314V39.9508H421.071V39.0429H422.055V37.4494ZM24.0703 61.7598C22.3879 61.7598 21.2452 60.4139 21.2452 58.3442C21.2452 56.2745 22.3816 54.9286 24.0449 54.9286C24.9909 54.9286 25.7527 55.3921 26.1463 56.1158H26.1717V52.4844H27.2764V61.6455H26.2225V60.5281H26.2035C25.7781 61.29 25.0226 61.7598 24.0703 61.7598ZM24.2798 55.9C23.1117 55.9 22.3752 56.8523 22.3752 58.3442C22.3752 59.8425 23.1117 60.7884 24.2798 60.7884C25.4162 60.7884 26.1781 59.8234 26.1781 58.3442C26.1781 56.8713 25.4162 55.9 24.2798 55.9ZM29.7841 55.7159H28.8636L29.4794 52.4844H30.6539L29.7841 55.7159ZM33.4092 60.8202C34.4504 60.8202 35.2503 60.0901 35.2503 59.1378V58.5982L33.4854 58.7061C32.5966 58.7632 32.0887 59.1568 32.0887 59.779C32.0887 60.4075 32.6156 60.8202 33.4092 60.8202ZM33.1616 61.7598C31.8474 61.7598 30.965 60.9662 30.965 59.779C30.965 58.6489 31.8347 57.9379 33.3584 57.849L35.2503 57.7411V57.1888C35.2503 56.3825 34.717 55.9 33.8028 55.9C32.9521 55.9 32.4188 56.2999 32.2791 56.9475H31.2126C31.2887 55.8047 32.2664 54.9286 33.8282 54.9286C35.3773 54.9286 36.355 55.7667 36.355 57.0808V61.6455H35.3074V60.5091H35.282C34.8884 61.2646 34.0504 61.7598 33.1616 61.7598ZM43.1734 55.0429L40.7482 61.6455H39.6182L37.1866 55.0429H38.3484L40.1705 60.471H40.1959L42.0243 55.0429H43.1734ZM46.589 61.7598C44.7606 61.7598 43.5289 60.4456 43.5289 58.3442C43.5289 56.2365 44.7606 54.9286 46.589 54.9286C48.4111 54.9286 49.6427 56.2365 49.6427 58.3442C49.6427 60.4456 48.4111 61.7598 46.589 61.7598ZM46.589 60.7884C47.7571 60.7884 48.519 59.8996 48.519 58.3442C48.519 56.7888 47.7571 55.9 46.589 55.9C45.4208 55.9 44.6527 56.7888 44.6527 58.3442C44.6527 59.8996 45.4208 60.7884 46.589 60.7884ZM50.8172 61.6455V55.0429H51.9219V61.6455H50.8172ZM51.3695 53.9319C50.995 53.9319 50.6839 53.6208 50.6839 53.2462C50.6839 52.8653 50.995 52.5606 51.3695 52.5606C51.7504 52.5606 52.0615 52.8653 52.0615 53.2462C52.0615 53.6208 51.7504 53.9319 51.3695 53.9319ZM53.4138 61.6455V55.0429H54.455V56.1222H54.4804C54.6962 55.3921 55.3057 54.9286 56.0802 54.9286C56.2707 54.9286 56.4358 54.9604 56.5246 54.9731V56.046C56.4358 56.0143 56.2009 55.9825 55.9342 55.9825C55.0771 55.9825 54.5185 56.5983 54.5185 57.5316V61.6455H53.4138ZM65.5143 55.0429V61.6455H64.4668V60.5726H64.4414C64.0478 61.3344 63.3621 61.7598 62.3463 61.7598C60.9052 61.7598 60.0608 60.8265 60.0608 59.3283V55.0429H61.1655V59.1314C61.1655 60.2044 61.667 60.7821 62.6892 60.7821C63.7621 60.7821 64.4097 60.0456 64.4097 58.9219V55.0429H65.5143ZM66.9491 61.6455V55.0429H67.9903V56.0968H68.0157C68.3839 55.3857 69.0886 54.9286 70.1107 54.9286C71.5582 54.9286 72.3963 55.8619 72.3963 57.3602V61.6455H71.2916V57.557C71.2916 56.4904 70.7901 55.9063 69.7743 55.9063C68.7331 55.9063 68.0538 56.6428 68.0538 57.7601V61.6455H66.9491ZM76.4721 61.6455V55.0429H77.5133V56.0968H77.5387C77.9069 55.3857 78.6116 54.9286 79.6337 54.9286C81.0812 54.9286 81.9192 55.8619 81.9192 57.3602V61.6455H80.8146V57.557C80.8146 56.4904 80.313 55.9063 79.2972 55.9063C78.2561 55.9063 77.5768 56.6428 77.5768 57.7601V61.6455H76.4721ZM86.0649 61.7598C84.2365 61.7598 83.0049 60.4456 83.0049 58.3442C83.0049 56.2365 84.2365 54.9286 86.0649 54.9286C87.887 54.9286 89.1186 56.2365 89.1186 58.3442C89.1186 60.4456 87.887 61.7598 86.0649 61.7598ZM86.0649 60.7884C87.2331 60.7884 87.9949 59.8996 87.9949 58.3442C87.9949 56.7888 87.2331 55.9 86.0649 55.9C84.8968 55.9 84.1286 56.7888 84.1286 58.3442C84.1286 59.8996 84.8968 60.7884 86.0649 60.7884ZM95.6577 55.0429V61.6455H94.6102V60.5726H94.5848C94.1912 61.3344 93.5055 61.7598 92.4897 61.7598C91.0486 61.7598 90.2042 60.8265 90.2042 59.3283V55.0429H91.3089V59.1314C91.3089 60.2044 91.8104 60.7821 92.8326 60.7821C93.9055 60.7821 94.5531 60.0456 94.5531 58.9219V55.0429H95.6577ZM102.508 55.0429L100.083 61.6455H98.9527L96.5211 55.0429H97.6829L99.505 60.471H99.5304L101.359 55.0429H102.508ZM105.835 55.8873C104.8 55.8873 104.076 56.6809 104.006 57.7792H107.593C107.568 56.6745 106.876 55.8873 105.835 55.8873ZM107.568 59.7536H108.653C108.463 60.9091 107.346 61.7598 105.904 61.7598C104.013 61.7598 102.863 60.4456 102.863 58.3696C102.863 56.319 104.032 54.9286 105.854 54.9286C107.638 54.9286 108.736 56.2238 108.736 58.2236V58.6426H104V58.7061C104 59.9695 104.743 60.8011 105.93 60.8011C106.768 60.8011 107.384 60.3758 107.568 59.7536ZM112.031 60.8202C113.072 60.8202 113.872 60.0901 113.872 59.1378V58.5982L112.107 58.7061C111.218 58.7632 110.71 59.1568 110.71 59.779C110.71 60.4075 111.237 60.8202 112.031 60.8202ZM111.783 61.7598C110.469 61.7598 109.587 60.9662 109.587 59.779C109.587 58.6489 110.456 57.9379 111.98 57.849L113.872 57.7411V57.1888C113.872 56.3825 113.339 55.9 112.425 55.9C111.574 55.9 111.04 56.2999 110.901 56.9475H109.834C109.91 55.8047 110.888 54.9286 112.45 54.9286C113.999 54.9286 114.977 55.7667 114.977 57.0808V61.6455H113.929V60.5091H113.904C113.51 61.2646 112.672 61.7598 111.783 61.7598ZM121.801 55.0429V61.6455H120.754V60.5726H120.729C120.335 61.3344 119.649 61.7598 118.633 61.7598C117.192 61.7598 116.348 60.8265 116.348 59.3283V55.0429H117.453V59.1314C117.453 60.2044 117.954 60.7821 118.976 60.7821C120.049 60.7821 120.697 60.0456 120.697 58.9219V55.0429H121.801ZM131.318 55.0429L128.893 61.6455H127.763L125.331 55.0429H126.493L128.315 60.471H128.341L130.169 55.0429H131.318ZM134.238 60.8202C135.28 60.8202 136.08 60.0901 136.08 59.1378V58.5982L134.315 58.7061C133.426 58.7632 132.918 59.1568 132.918 59.779C132.918 60.4075 133.445 60.8202 134.238 60.8202ZM133.991 61.7598C132.677 61.7598 131.794 60.9662 131.794 59.779C131.794 58.6489 132.664 57.9379 134.188 57.849L136.08 57.7411V57.1888C136.08 56.3825 135.546 55.9 134.632 55.9C133.781 55.9 133.248 56.2999 133.108 56.9475H132.042C132.118 55.8047 133.096 54.9286 134.657 54.9286C136.207 54.9286 137.184 55.7667 137.184 57.0808V61.6455H136.137V60.5091H136.111C135.718 61.2646 134.88 61.7598 133.991 61.7598ZM141.273 60.725C142.422 60.725 143.19 59.7727 143.19 58.3188C143.19 56.865 142.422 55.9 141.273 55.9C140.136 55.9 139.394 56.8396 139.394 58.3188C139.394 59.7981 140.136 60.725 141.273 60.725ZM141.311 64.1342C139.857 64.1342 138.708 63.3152 138.524 62.1915H139.66C139.876 62.7946 140.53 63.1946 141.355 63.1946C142.498 63.1946 143.19 62.5343 143.19 61.5503V60.5091H143.165C142.758 61.2265 141.977 61.6963 141.051 61.6963C139.368 61.6963 138.264 60.3694 138.264 58.3188C138.264 56.2492 139.368 54.9286 141.076 54.9286C142.009 54.9286 142.784 55.3857 143.222 56.1539H143.241V55.0429H144.295V61.5122C144.295 63.0867 143.133 64.1342 141.311 64.1342ZM145.793 61.6455V55.0429H146.898V61.6455H145.793ZM146.345 53.9319C145.971 53.9319 145.66 53.6208 145.66 53.2462C145.66 52.8653 145.971 52.5606 146.345 52.5606C146.726 52.5606 147.037 52.8653 147.037 53.2462C147.037 53.6208 146.726 53.9319 146.345 53.9319ZM148.39 61.6455V55.0429H149.431V56.0968H149.456C149.824 55.3857 150.529 54.9286 151.551 54.9286C152.999 54.9286 153.837 55.8619 153.837 57.3602V61.6455H152.732V57.557C152.732 56.4904 152.231 55.9063 151.215 55.9063C150.174 55.9063 149.494 56.6428 149.494 57.7601V61.6455H148.39ZM160.414 61.7598C158.732 61.7598 157.589 60.4139 157.589 58.3442C157.589 56.2745 158.725 54.9286 160.389 54.9286C161.335 54.9286 162.096 55.3921 162.49 56.1158H162.515V52.4844H163.62V61.6455H162.566V60.5281H162.547C162.122 61.29 161.366 61.7598 160.414 61.7598ZM160.623 55.9C159.455 55.9 158.719 56.8523 158.719 58.3442C158.719 59.8425 159.455 60.7884 160.623 60.7884C161.76 60.7884 162.522 59.8234 162.522 58.3442C162.522 56.8713 161.76 55.9 160.623 55.9ZM167.759 55.8873C166.725 55.8873 166.001 56.6809 165.931 57.7792H169.518C169.493 56.6745 168.801 55.8873 167.759 55.8873ZM169.493 59.7536H170.578C170.388 60.9091 169.27 61.7598 167.829 61.7598C165.937 61.7598 164.788 60.4456 164.788 58.3696C164.788 56.319 165.956 54.9286 167.778 54.9286C169.562 54.9286 170.661 56.2238 170.661 58.2236V58.6426H165.925V58.7061C165.925 59.9695 166.667 60.8011 167.855 60.8011C168.693 60.8011 169.308 60.3758 169.493 59.7536ZM176.806 61.6455V53.697H176.781L174.356 55.4429V54.2366L176.793 52.4844H177.911V61.6455H176.806ZM180.177 55.1254C180.177 53.5256 181.472 52.332 183.199 52.332C184.837 52.332 186.126 53.4431 186.126 54.8461C186.126 55.8682 185.663 56.6301 184.133 58.2109L181.815 60.6043V60.6297H186.278V61.6455H180.234V60.8583L183.46 57.4617C184.691 56.1666 184.983 55.6778 184.983 54.9159C184.983 54.0335 184.177 53.3288 183.168 53.3288C182.095 53.3288 181.282 54.1033 181.282 55.1254V55.1318H180.177V55.1254ZM192.418 60.8202C193.459 60.8202 194.259 60.0901 194.259 59.1378V58.5982L192.494 58.7061C191.605 58.7632 191.097 59.1568 191.097 59.779C191.097 60.4075 191.624 60.8202 192.418 60.8202ZM192.17 61.7598C190.856 61.7598 189.973 60.9662 189.973 59.779C189.973 58.6489 190.843 57.9379 192.367 57.849L194.259 57.7411V57.1888C194.259 56.3825 193.725 55.9 192.811 55.9C191.96 55.9 191.427 56.2999 191.287 56.9475H190.221C190.297 55.8047 191.275 54.9286 192.837 54.9286C194.386 54.9286 195.363 55.7667 195.363 57.0808V61.6455H194.316V60.5091H194.29C193.897 61.2646 193.059 61.7598 192.17 61.7598ZM196.766 61.6455V55.0429H197.808V56.0968H197.833C198.201 55.3857 198.906 54.9286 199.928 54.9286C201.375 54.9286 202.213 55.8619 202.213 57.3602V61.6455H201.109V57.557C201.109 56.4904 200.607 55.9063 199.591 55.9063C198.55 55.9063 197.871 56.6428 197.871 57.7601V61.6455H196.766ZM203.509 56.865C203.509 55.7349 204.518 54.9286 205.972 54.9286C207.337 54.9286 208.34 55.7413 208.391 56.8586H207.337C207.261 56.2238 206.746 55.8301 205.934 55.8301C205.127 55.8301 204.594 56.2301 204.594 56.8078C204.594 57.2649 204.943 57.5697 205.693 57.7601L206.715 58.0077C208.048 58.3442 208.53 58.8267 208.53 59.7981C208.53 60.9472 207.445 61.7598 205.902 61.7598C204.455 61.7598 203.445 60.9726 203.331 59.8044H204.435C204.556 60.4901 205.077 60.8583 205.972 60.8583C206.867 60.8583 207.419 60.4774 207.419 59.8806C207.419 59.4108 207.146 59.1568 206.404 58.96L205.242 58.6616C204.08 58.3633 203.509 57.7665 203.509 56.865ZM210.613 61.709C210.206 61.709 209.889 61.3916 209.889 60.9852C209.889 60.5789 210.206 60.2615 210.613 60.2615C211.019 60.2615 211.336 60.5789 211.336 60.9852C211.336 61.3916 211.019 61.709 210.613 61.709ZM216.327 61.6455H215.184V52.4844H216.327V61.6455ZM217.99 61.6455V52.4844H219.095V61.6455H217.99ZM223.608 61.6455V55.9508H222.688V55.0429H223.608V54.3065C223.608 53.0367 224.199 52.4336 225.418 52.4336C225.665 52.4336 225.932 52.459 226.091 52.4844V53.3796C225.957 53.3605 225.773 53.3415 225.589 53.3415C224.992 53.3415 224.707 53.6589 224.707 54.3128V55.0429H226.059V55.9508H224.713V61.6455H223.608ZM228.998 60.8202C230.04 60.8202 230.84 60.0901 230.84 59.1378V58.5982L229.075 58.7061C228.186 58.7632 227.678 59.1568 227.678 59.779C227.678 60.4075 228.205 60.8202 228.998 60.8202ZM228.751 61.7598C227.437 61.7598 226.554 60.9662 226.554 59.779C226.554 58.6489 227.424 57.9379 228.948 57.849L230.84 57.7411V57.1888C230.84 56.3825 230.306 55.9 229.392 55.9C228.541 55.9 228.008 56.2999 227.868 56.9475H226.802C226.878 55.8047 227.856 54.9286 229.417 54.9286C230.967 54.9286 231.944 55.7667 231.944 57.0808V61.6455H230.897V60.5091H230.871C230.478 61.2646 229.64 61.7598 228.751 61.7598ZM238.769 55.0429V61.6455H237.721V60.5726H237.696C237.302 61.3344 236.617 61.7598 235.601 61.7598C234.16 61.7598 233.316 60.8265 233.316 59.3283V55.0429H234.42V59.1314C234.42 60.2044 234.922 60.7821 235.944 60.7821C237.017 60.7821 237.664 60.0456 237.664 58.9219V55.0429H238.769ZM240.559 53.4494H241.664V55.0429H242.946V55.9508H241.664V59.8742C241.664 60.4774 241.918 60.7503 242.483 60.7503C242.61 60.7503 242.864 60.7313 242.94 60.7186V61.6455C242.807 61.6773 242.502 61.6963 242.242 61.6963C241.029 61.6963 240.559 61.2011 240.559 59.9314V55.9508H239.575V55.0429H240.559V53.4494ZM249.441 55.8873C248.406 55.8873 247.683 56.6809 247.613 57.7792H251.2C251.174 56.6745 250.482 55.8873 249.441 55.8873ZM251.174 59.7536H252.26C252.069 60.9091 250.952 61.7598 249.511 61.7598C247.619 61.7598 246.47 60.4456 246.47 58.3696C246.47 56.319 247.638 54.9286 249.46 54.9286C251.244 54.9286 252.342 56.2238 252.342 58.2236V58.6426H247.606V58.7061C247.606 59.9695 248.349 60.8011 249.536 60.8011C250.374 60.8011 250.99 60.3758 251.174 59.7536ZM253.46 61.6455V55.0429H254.501V56.0968H254.526C254.895 55.3857 255.599 54.9286 256.621 54.9286C258.069 54.9286 258.907 55.8619 258.907 57.3602V61.6455H257.802V57.557C257.802 56.4904 257.301 55.9063 256.285 55.9063C255.244 55.9063 254.564 56.6428 254.564 57.7601V61.6455H253.46ZM260.672 53.4494H261.777V55.0429H263.059V55.9508H261.777V59.8742C261.777 60.4774 262.03 60.7503 262.595 60.7503C262.722 60.7503 262.976 60.7313 263.053 60.7186V61.6455C262.919 61.6773 262.615 61.6963 262.354 61.6963C261.142 61.6963 260.672 61.2011 260.672 59.9314V55.9508H259.688V55.0429H260.672V53.4494ZM264.24 61.6455V55.0429H265.281V56.1222H265.306C265.522 55.3921 266.132 54.9286 266.906 54.9286C267.097 54.9286 267.262 54.9604 267.351 54.9731V56.046C267.262 56.0143 267.027 55.9825 266.76 55.9825C265.903 55.9825 265.344 56.5983 265.344 57.5316V61.6455H264.24ZM270.582 55.8873C269.547 55.8873 268.824 56.6809 268.754 57.7792H272.341C272.315 56.6745 271.623 55.8873 270.582 55.8873ZM272.315 59.7536H273.401C273.21 60.9091 272.093 61.7598 270.652 61.7598C268.76 61.7598 267.611 60.4456 267.611 58.3696C267.611 56.319 268.779 54.9286 270.601 54.9286C272.385 54.9286 273.483 56.2238 273.483 58.2236V58.6426H268.747V58.7061C268.747 59.9695 269.49 60.8011 270.677 60.8011C271.515 60.8011 272.131 60.3758 272.315 59.7536ZM274.956 53.4494H276.061V55.0429H277.343V55.9508H276.061V59.8742C276.061 60.4774 276.315 60.7503 276.88 60.7503C277.007 60.7503 277.261 60.7313 277.337 60.7186V61.6455C277.204 61.6773 276.899 61.6963 276.639 61.6963C275.426 61.6963 274.956 61.2011 274.956 59.9314V55.9508H273.972V55.0429H274.956V53.4494ZM280.981 55.8873C279.946 55.8873 279.223 56.6809 279.153 57.7792H282.74C282.714 56.6745 282.022 55.8873 280.981 55.8873ZM282.714 59.7536H283.8C283.61 60.9091 282.492 61.7598 281.051 61.7598C279.159 61.7598 278.01 60.4456 278.01 58.3696C278.01 56.319 279.178 54.9286 281 54.9286C282.784 54.9286 283.883 56.2238 283.883 58.2236V58.6426H279.146V58.7061C279.146 59.9695 279.889 60.8011 281.076 60.8011C281.914 60.8011 282.53 60.3758 282.714 59.7536ZM285 61.6455V55.0429H286.041V56.0968H286.066C286.435 55.3857 287.139 54.9286 288.161 54.9286C289.609 54.9286 290.447 55.8619 290.447 57.3602V61.6455H289.342V57.557C289.342 56.4904 288.841 55.9063 287.825 55.9063C286.784 55.9063 286.105 56.6428 286.105 57.7601V61.6455H285ZM291.914 61.6455V55.0429H293.018V61.6455H291.914ZM292.466 53.9319C292.091 53.9319 291.78 53.6208 291.78 53.2462C291.78 52.8653 292.091 52.5606 292.466 52.5606C292.847 52.5606 293.158 52.8653 293.158 53.2462C293.158 53.6208 292.847 53.9319 292.466 53.9319ZM294.51 61.6455V55.0429H295.551V56.1222H295.577C295.793 55.3921 296.402 54.9286 297.177 54.9286C297.367 54.9286 297.532 54.9604 297.621 54.9731V56.046C297.532 56.0143 297.297 55.9825 297.031 55.9825C296.173 55.9825 295.615 56.5983 295.615 57.5316V61.6455H294.51ZM301.075 56.865C301.075 55.7349 302.084 54.9286 303.538 54.9286C304.903 54.9286 305.906 55.7413 305.957 56.8586H304.903C304.827 56.2238 304.312 55.8301 303.5 55.8301C302.694 55.8301 302.16 56.2301 302.16 56.8078C302.16 57.2649 302.509 57.5697 303.259 57.7601L304.281 58.0077C305.614 58.3442 306.096 58.8267 306.096 59.7981C306.096 60.9472 305.011 61.7598 303.468 61.7598C302.021 61.7598 301.011 60.9726 300.897 59.8044H302.002C302.122 60.4901 302.643 60.8583 303.538 60.8583C304.433 60.8583 304.985 60.4774 304.985 59.8806C304.985 59.4108 304.712 59.1568 303.97 58.96L302.808 58.6616C301.646 58.3633 301.075 57.7665 301.075 56.865ZM309.982 61.7598C308.153 61.7598 306.922 60.4456 306.922 58.3442C306.922 56.2365 308.153 54.9286 309.982 54.9286C311.804 54.9286 313.036 56.2365 313.036 58.3442C313.036 60.4456 311.804 61.7598 309.982 61.7598ZM309.982 60.7884C311.15 60.7884 311.912 59.8996 311.912 58.3442C311.912 56.7888 311.15 55.9 309.982 55.9C308.814 55.9 308.045 56.7888 308.045 58.3442C308.045 59.8996 308.814 60.7884 309.982 60.7884ZM314.153 61.6455V55.0429H315.194V56.0968H315.219C315.588 55.3857 316.292 54.9286 317.315 54.9286C318.762 54.9286 319.6 55.8619 319.6 57.3602V61.6455H318.495V57.557C318.495 56.4904 317.994 55.9063 316.978 55.9063C315.937 55.9063 315.258 56.6428 315.258 57.7601V61.6455H314.153ZM329.091 55.0429L326.666 61.6455H325.536L323.104 55.0429H324.266L326.088 60.471H326.114L327.942 55.0429H329.091ZM332.012 60.8202C333.053 60.8202 333.853 60.0901 333.853 59.1378V58.5982L332.088 58.7061C331.199 58.7632 330.691 59.1568 330.691 59.779C330.691 60.4075 331.218 60.8202 332.012 60.8202ZM331.764 61.7598C330.45 61.7598 329.567 60.9662 329.567 59.779C329.567 58.6489 330.437 57.9379 331.961 57.849L333.853 57.7411V57.1888C333.853 56.3825 333.319 55.9 332.405 55.9C331.555 55.9 331.021 56.2999 330.882 56.9475H329.815C329.891 55.8047 330.869 54.9286 332.431 54.9286C333.98 54.9286 334.957 55.7667 334.957 57.0808V61.6455H333.91V60.5091H333.885C333.491 61.2646 332.653 61.7598 331.764 61.7598ZM339.046 60.725C340.195 60.725 340.963 59.7727 340.963 58.3188C340.963 56.865 340.195 55.9 339.046 55.9C337.91 55.9 337.167 56.8396 337.167 58.3188C337.167 59.7981 337.91 60.725 339.046 60.725ZM339.084 64.1342C337.63 64.1342 336.481 63.3152 336.297 62.1915H337.433C337.649 62.7946 338.303 63.1946 339.128 63.1946C340.271 63.1946 340.963 62.5343 340.963 61.5503V60.5091H340.938C340.532 61.2265 339.751 61.6963 338.824 61.6963C337.141 61.6963 336.037 60.3694 336.037 58.3188C336.037 56.2492 337.141 54.9286 338.849 54.9286C339.782 54.9286 340.557 55.3857 340.995 56.1539H341.014V55.0429H342.068V61.5122C342.068 63.0867 340.906 64.1342 339.084 64.1342ZM343.566 61.6455V55.0429H344.671V61.6455H343.566ZM344.119 53.9319C343.744 53.9319 343.433 53.6208 343.433 53.2462C343.433 52.8653 343.744 52.5606 344.119 52.5606C344.499 52.5606 344.811 52.8653 344.811 53.2462C344.811 53.6208 344.499 53.9319 344.119 53.9319ZM346.163 61.6455V55.0429H347.204V56.0968H347.229C347.598 55.3857 348.302 54.9286 349.324 54.9286C350.772 54.9286 351.61 55.8619 351.61 57.3602V61.6455H350.505V57.557C350.505 56.4904 350.004 55.9063 348.988 55.9063C347.947 55.9063 347.267 56.6428 347.267 57.7601V61.6455H346.163ZM353.953 61.709C353.546 61.709 353.229 61.3916 353.229 60.9852C353.229 60.5789 353.546 60.2615 353.953 60.2615C354.359 60.2615 354.676 60.5789 354.676 60.9852C354.676 61.3916 354.359 61.709 353.953 61.709ZM24.8068 93.6455L25.3274 91.087H23.245L22.7244 93.6455H21.8229L22.3371 91.087H20.8516L21.0293 90.1728H22.534L22.9974 87.8619H21.4293L21.6134 86.954H23.1815L23.6958 84.4844H24.5973L24.1021 86.954H26.1717L26.686 84.4844H27.5938L27.0859 86.954H28.6668L28.489 87.8619H26.8955L26.4193 90.1728H28.0763L27.8986 91.087H26.2352L25.7146 93.6455H24.8068ZM23.4228 90.1918H25.5178L25.994 87.8492H23.8989L23.4228 90.1918ZM29.3905 93.6455V87.0429H30.4317V88.0968H30.4571C30.8253 87.3857 31.53 86.9286 32.5521 86.9286C33.9996 86.9286 34.8376 87.8619 34.8376 89.3602V93.6455H33.733V89.557C33.733 88.4904 33.2314 87.9063 32.2156 87.9063C31.1745 87.9063 30.4952 88.6428 30.4952 89.7601V93.6455H29.3905ZM38.8944 87.8873C37.8596 87.8873 37.1359 88.6809 37.066 89.7792H40.653C40.6276 88.6745 39.9356 87.8873 38.8944 87.8873ZM40.6276 91.7536H41.7132C41.5228 92.9091 40.4054 93.7598 38.9643 93.7598C37.0724 93.7598 35.9233 92.4456 35.9233 90.3696C35.9233 88.319 37.0914 86.9286 38.9135 86.9286C40.6974 86.9286 41.7958 88.2238 41.7958 90.2236V90.6426H37.0597V90.7061C37.0597 91.9695 37.8025 92.8011 38.9897 92.8011C39.8277 92.8011 40.4435 92.3758 40.6276 91.7536ZM51.3124 87.0429L49.4713 93.6455H48.3476L46.8556 88.5348H46.8302L45.3447 93.6455H44.2209L42.3735 87.0429H43.4718L44.7923 92.4139H44.8177L46.3097 87.0429H47.3762L48.8745 92.4139H48.8999L50.2204 87.0429H51.3124ZM57.6356 87.0429L55.2105 93.6455H54.0804L51.6489 87.0429H52.8107L54.6327 92.471H54.6581L56.4865 87.0429H57.6356ZM60.556 92.8202C61.5972 92.8202 62.3971 92.0901 62.3971 91.1378V90.5982L60.6322 90.7061C59.7434 90.7632 59.2355 91.1568 59.2355 91.779C59.2355 92.4075 59.7624 92.8202 60.556 92.8202ZM60.3084 93.7598C58.9943 93.7598 58.1118 92.9662 58.1118 91.779C58.1118 90.6489 58.9816 89.9379 60.5052 89.849L62.3971 89.7411V89.1888C62.3971 88.3825 61.8638 87.9 60.9496 87.9C60.0989 87.9 59.5656 88.2999 59.426 88.9475H58.3594C58.4356 87.8047 59.4133 86.9286 60.975 86.9286C62.5241 86.9286 63.5018 87.7667 63.5018 89.0808V93.6455H62.4543V92.5091H62.4289C62.0353 93.2646 61.1972 93.7598 60.3084 93.7598ZM67.5903 92.725C68.7394 92.725 69.5076 91.7727 69.5076 90.3188C69.5076 88.865 68.7394 87.9 67.5903 87.9C66.4539 87.9 65.7111 88.8396 65.7111 90.3188C65.7111 91.7981 66.4539 92.725 67.5903 92.725ZM67.6284 96.1342C66.1746 96.1342 65.0255 95.3152 64.8414 94.1915H65.9778C66.1936 94.7946 66.8475 95.1946 67.6729 95.1946C68.8156 95.1946 69.5076 94.5343 69.5076 93.5503V92.5091H69.4822C69.0759 93.2265 68.295 93.6963 67.3681 93.6963C65.6857 93.6963 64.5811 92.3694 64.5811 90.3188C64.5811 88.2492 65.6857 86.9286 67.3935 86.9286C68.3268 86.9286 69.1013 87.3857 69.5394 88.1539H69.5584V87.0429H70.6123V93.5122C70.6123 95.0867 69.4505 96.1342 67.6284 96.1342ZM72.1106 93.6455V87.0429H73.2152V93.6455H72.1106ZM72.6629 85.9319C72.2883 85.9319 71.9772 85.6208 71.9772 85.2462C71.9772 84.8653 72.2883 84.5606 72.6629 84.5606C73.0438 84.5606 73.3549 84.8653 73.3549 85.2462C73.3549 85.6208 73.0438 85.9319 72.6629 85.9319ZM74.7072 93.6455V87.0429H75.7483V88.0968H75.7737C76.142 87.3857 76.8467 86.9286 77.8688 86.9286C79.3163 86.9286 80.1543 87.8619 80.1543 89.3602V93.6455H79.0496V89.557C79.0496 88.4904 78.5481 87.9063 77.5323 87.9063C76.4911 87.9063 75.8118 88.6428 75.8118 89.7601V93.6455H74.7072ZM87.468 93.6455L87.9885 91.087H85.9062L85.3856 93.6455H84.4841L84.9983 91.087H83.5127L83.6905 90.1728H85.1951L85.6586 87.8619H84.0905L84.2746 86.954H85.8427L86.3569 84.4844H87.2585L86.7633 86.954H88.8329L89.3472 84.4844H90.255L89.7471 86.954H91.3279L91.1502 87.8619H89.5567L89.0805 90.1728H90.7375L90.5598 91.087H88.8964L88.3758 93.6455H87.468ZM86.084 90.1918H88.179L88.6552 87.8492H86.5601L86.084 90.1918ZM97.5369 89.2078H96.4576C96.2989 88.4904 95.7402 87.9 94.7689 87.9C93.6261 87.9 92.8516 88.8459 92.8516 90.3442C92.8516 91.8806 93.6388 92.7884 94.7816 92.7884C95.6831 92.7884 96.2735 92.3123 96.464 91.5187H97.5496C97.3782 92.8329 96.2735 93.7598 94.7753 93.7598C92.9468 93.7598 91.7279 92.471 91.7279 90.3442C91.7279 88.2619 92.9405 86.9286 94.7626 86.9286C96.4132 86.9286 97.3972 88.0206 97.5369 89.2078ZM98.6225 93.6455V84.4844H99.7272V88.0968H99.7526C100.121 87.3603 100.845 86.9286 101.848 86.9286C103.295 86.9286 104.171 87.9063 104.171 89.3792V93.6455H103.067V89.5824C103.067 88.5348 102.54 87.9063 101.505 87.9063C100.407 87.9063 99.7272 88.6555 99.7272 89.7982V93.6455H98.6225ZM105.631 93.6455V87.0429H106.736V93.6455H105.631ZM106.184 85.9319C105.809 85.9319 105.498 85.6208 105.498 85.2462C105.498 84.8653 105.809 84.5606 106.184 84.5606C106.565 84.5606 106.876 84.8653 106.876 85.2462C106.876 85.6208 106.565 85.9319 106.184 85.9319ZM108.228 93.6455V87.0429H109.269V88.1222H109.295C109.51 87.3921 110.12 86.9286 110.894 86.9286C111.085 86.9286 111.25 86.9604 111.339 86.9731V88.046C111.25 88.0143 111.015 87.9825 110.748 87.9825C109.891 87.9825 109.333 88.5983 109.333 89.5316V93.6455H108.228ZM117.662 87.0429V93.6455H116.615V92.5726H116.589C116.196 93.3344 115.51 93.7598 114.494 93.7598C113.053 93.7598 112.209 92.8265 112.209 91.3283V87.0429H113.313V91.1314C113.313 92.2044 113.815 92.7821 114.837 92.7821C115.91 92.7821 116.557 92.0456 116.557 90.9219V87.0429H117.662ZM119.097 93.6455V87.0429H120.138V88.1222H120.164C120.379 87.3921 120.989 86.9286 121.763 86.9286C121.954 86.9286 122.119 86.9604 122.208 86.9731V88.046C122.119 88.0143 121.884 87.9825 121.617 87.9825C120.76 87.9825 120.202 88.5983 120.202 89.5316V93.6455H119.097ZM125.477 92.725C126.626 92.725 127.395 91.7727 127.395 90.3188C127.395 88.865 126.626 87.9 125.477 87.9C124.341 87.9 123.598 88.8396 123.598 90.3188C123.598 91.7981 124.341 92.725 125.477 92.725ZM125.515 96.1342C124.062 96.1342 122.912 95.3152 122.728 94.1915H123.865C124.081 94.7946 124.735 95.1946 125.56 95.1946C126.703 95.1946 127.395 94.5343 127.395 93.5503V92.5091H127.369C126.963 93.2265 126.182 93.6963 125.255 93.6963C123.573 93.6963 122.468 92.3694 122.468 90.3188C122.468 88.2492 123.573 86.9286 125.281 86.9286C126.214 86.9286 126.988 87.3857 127.426 88.1539H127.445V87.0429H128.499V93.5122C128.499 95.0867 127.337 96.1342 125.515 96.1342ZM129.998 93.6455V87.0429H131.102V93.6455H129.998ZM130.55 85.9319C130.175 85.9319 129.864 85.6208 129.864 85.2462C129.864 84.8653 130.175 84.5606 130.55 84.5606C130.931 84.5606 131.242 84.8653 131.242 85.2462C131.242 85.6208 130.931 85.9319 130.55 85.9319ZM135.242 87.8873C134.207 87.8873 133.483 88.6809 133.413 89.7792H137C136.975 88.6745 136.283 87.8873 135.242 87.8873ZM136.975 91.7536H138.06C137.87 92.9091 136.753 93.7598 135.311 93.7598C133.419 93.7598 132.27 92.4456 132.27 90.3696C132.27 88.319 133.439 86.9286 135.261 86.9286C137.045 86.9286 138.143 88.2238 138.143 90.2236V90.6426H133.407V90.7061C133.407 91.9695 134.15 92.8011 135.337 92.8011C136.175 92.8011 136.791 92.3758 136.975 91.7536ZM145.164 93.6455L145.685 91.087H143.603L143.082 93.6455H142.181L142.695 91.087H141.209L141.387 90.1728H142.892L143.355 87.8619H141.787L141.971 86.954H143.539L144.053 84.4844H144.955L144.46 86.954H146.529L147.044 84.4844H147.952L147.444 86.954H149.024L148.847 87.8619H147.253L146.777 90.1728H148.434L148.256 91.087H146.593L146.072 93.6455H145.164ZM143.78 90.1918H145.876L146.352 87.8492H144.257L143.78 90.1918ZM152.434 92.725C153.583 92.725 154.351 91.7727 154.351 90.3188C154.351 88.865 153.583 87.9 152.434 87.9C151.297 87.9 150.554 88.8396 150.554 90.3188C150.554 91.7981 151.297 92.725 152.434 92.725ZM152.472 96.1342C151.018 96.1342 149.869 95.3152 149.685 94.1915H150.821C151.037 94.7946 151.691 95.1946 152.516 95.1946C153.659 95.1946 154.351 94.5343 154.351 93.5503V92.5091H154.326C153.919 93.2265 153.138 93.6963 152.211 93.6963C150.529 93.6963 149.424 92.3694 149.424 90.3188C149.424 88.2492 150.529 86.9286 152.237 86.9286C153.17 86.9286 153.945 87.3857 154.383 88.1539H154.402V87.0429H155.456V93.5122C155.456 95.0867 154.294 96.1342 152.472 96.1342ZM156.897 93.6455V87.0429H157.938V88.1222H157.963C158.179 87.3921 158.789 86.9286 159.563 86.9286C159.754 86.9286 159.919 86.9604 160.008 86.9731V88.046C159.919 88.0143 159.684 87.9825 159.417 87.9825C158.56 87.9825 158.001 88.5983 158.001 89.5316V93.6455H156.897ZM163.328 93.7598C161.5 93.7598 160.268 92.4456 160.268 90.3442C160.268 88.2365 161.5 86.9286 163.328 86.9286C165.15 86.9286 166.382 88.2365 166.382 90.3442C166.382 92.4456 165.15 93.7598 163.328 93.7598ZM163.328 92.7884C164.496 92.7884 165.258 91.8996 165.258 90.3442C165.258 88.7888 164.496 87.9 163.328 87.9C162.16 87.9 161.392 88.7888 161.392 90.3442C161.392 91.8996 162.16 92.7884 163.328 92.7884ZM167.385 88.865C167.385 87.7349 168.394 86.9286 169.848 86.9286C171.213 86.9286 172.216 87.7413 172.267 88.8586H171.213C171.137 88.2238 170.623 87.8301 169.81 87.8301C169.004 87.8301 168.47 88.2301 168.47 88.8078C168.47 89.2649 168.82 89.5697 169.569 89.7601L170.591 90.0077C171.924 90.3442 172.407 90.8267 172.407 91.7981C172.407 92.9472 171.321 93.7598 169.778 93.7598C168.331 93.7598 167.321 92.9726 167.207 91.8044H168.312C168.432 92.4901 168.953 92.8583 169.848 92.8583C170.743 92.8583 171.296 92.4774 171.296 91.8806C171.296 91.4108 171.023 91.1568 170.28 90.96L169.118 90.6616C167.956 90.3633 167.385 89.7665 167.385 88.865ZM179.041 89.2078H177.962C177.803 88.4904 177.244 87.9 176.273 87.9C175.13 87.9 174.356 88.8459 174.356 90.3442C174.356 91.8806 175.143 92.7884 176.286 92.7884C177.187 92.7884 177.778 92.3123 177.968 91.5187H179.054C178.882 92.8329 177.778 93.7598 176.279 93.7598C174.451 93.7598 173.232 92.471 173.232 90.3442C173.232 88.2619 174.444 86.9286 176.267 86.9286C177.917 86.9286 178.901 88.0206 179.041 89.2078ZM185.491 87.0429V93.6455H184.444V92.5726H184.418C184.025 93.3344 183.339 93.7598 182.323 93.7598C180.882 93.7598 180.038 92.8265 180.038 91.3283V87.0429H181.142V91.1314C181.142 92.2044 181.644 92.7821 182.666 92.7821C183.739 92.7821 184.386 92.0456 184.386 90.9219V87.0429H185.491ZM186.983 93.6455V84.4844H188.088V93.6455H186.983ZM195.484 93.6455L196.004 91.087H193.922L193.402 93.6455H192.5L193.014 91.087H191.529L191.706 90.1728H193.211L193.675 87.8619H192.106L192.291 86.954H193.859L194.373 84.4844H195.274L194.779 86.954H196.849L197.363 84.4844H198.271L197.763 86.954H199.344L199.166 87.8619H197.573L197.096 90.1728H198.753L198.576 91.087H196.912L196.392 93.6455H195.484ZM194.1 90.1918H196.195L196.671 87.8492H194.576L194.1 90.1918ZM200.068 93.6455V87.0429H201.109V88.0968H201.134C201.445 87.3984 202.118 86.9286 203.007 86.9286C203.909 86.9286 204.575 87.3857 204.861 88.1857H204.886C205.254 87.3984 206.029 86.9286 206.956 86.9286C208.264 86.9286 209.108 87.7794 209.108 89.0872V93.6455H208.003V89.3411C208.003 88.4396 207.502 87.9063 206.632 87.9063C205.756 87.9063 205.14 88.5539 205.14 89.449V93.6455H204.036V89.2205C204.036 88.4269 203.502 87.9063 202.683 87.9063C201.807 87.9063 201.172 88.592 201.172 89.5062V93.6455H200.068ZM213.165 87.8873C212.13 87.8873 211.406 88.6809 211.336 89.7792H214.923C214.898 88.6745 214.206 87.8873 213.165 87.8873ZM214.898 91.7536H215.984C215.793 92.9091 214.676 93.7598 213.235 93.7598C211.343 93.7598 210.194 92.4456 210.194 90.3696C210.194 88.319 211.362 86.9286 213.184 86.9286C214.968 86.9286 216.066 88.2238 216.066 90.2236V90.6426H211.33V90.7061C211.33 91.9695 212.073 92.8011 213.26 92.8011C214.098 92.8011 214.714 92.3758 214.898 91.7536ZM222.605 87.0429V93.6455H221.558V92.5726H221.532C221.139 93.3344 220.453 93.7598 219.437 93.7598C217.996 93.7598 217.152 92.8265 217.152 91.3283V87.0429H218.257V91.1314C218.257 92.2044 218.758 92.7821 219.78 92.7821C220.853 92.7821 221.501 92.0456 221.501 90.9219V87.0429H222.605ZM224.396 93.6455V87.9508H223.475V87.0429H224.396V86.3065C224.396 85.0367 224.986 84.4336 226.205 84.4336C226.453 84.4336 226.719 84.459 226.878 84.4844V85.3796C226.745 85.3605 226.561 85.3415 226.376 85.3415C225.78 85.3415 225.494 85.6589 225.494 86.3128V87.0429H226.846V87.9508H225.5V93.6455H224.396ZM230.351 93.6455V85.697H230.325L227.9 87.4429V86.2366L230.338 84.4844H231.455V93.6455H230.351ZM233.722 87.1254C233.722 85.5256 235.017 84.332 236.744 84.332C238.382 84.332 239.671 85.4431 239.671 86.8461C239.671 87.8682 239.207 88.6301 237.677 90.2109L235.36 92.6043V92.6297H239.823V93.6455H233.779V92.8583L237.004 89.4617C238.236 88.1666 238.528 87.6778 238.528 86.9159C238.528 86.0335 237.721 85.3288 236.712 85.3288C235.639 85.3288 234.826 86.1033 234.826 87.1254V87.1318H233.722V87.1254ZM243.296 92.8202C244.337 92.8202 245.137 92.0901 245.137 91.1378V90.5982L243.372 90.7061C242.483 90.7632 241.975 91.1568 241.975 91.779C241.975 92.4075 242.502 92.8202 243.296 92.8202ZM243.048 93.7598C241.734 93.7598 240.851 92.9662 240.851 91.779C240.851 90.6489 241.721 89.9379 243.245 89.849L245.137 89.7411V89.1888C245.137 88.3825 244.603 87.9 243.689 87.9C242.838 87.9 242.305 88.2999 242.166 88.9475H241.099C241.175 87.8047 242.153 86.9286 243.715 86.9286C245.264 86.9286 246.241 87.7667 246.241 89.0808V93.6455H245.194V92.5091H245.168C244.775 93.2646 243.937 93.7598 243.048 93.7598ZM247.644 93.6455V87.0429H248.686V88.0968H248.711C249.079 87.3857 249.784 86.9286 250.806 86.9286C252.254 86.9286 253.092 87.8619 253.092 89.3602V93.6455H251.987V89.557C251.987 88.4904 251.485 87.9063 250.47 87.9063C249.428 87.9063 248.749 88.6428 248.749 89.7601V93.6455H247.644ZM254.387 88.865C254.387 87.7349 255.396 86.9286 256.85 86.9286C258.215 86.9286 259.218 87.7413 259.269 88.8586H258.215C258.139 88.2238 257.625 87.8301 256.812 87.8301C256.006 87.8301 255.472 88.2301 255.472 88.8078C255.472 89.2649 255.821 89.5697 256.571 89.7601L257.593 90.0077C258.926 90.3442 259.408 90.8267 259.408 91.7981C259.408 92.9472 258.323 93.7598 256.78 93.7598C255.333 93.7598 254.323 92.9726 254.209 91.8044H255.314C255.434 92.4901 255.955 92.8583 256.85 92.8583C257.745 92.8583 258.297 92.4774 258.297 91.8806C258.297 91.4108 258.024 91.1568 257.282 90.96L256.12 90.6616C254.958 90.3633 254.387 89.7665 254.387 88.865Z" fill="black"/>
<path d="M405.624 143.666V135.718H405.599L403.174 137.463V136.257L405.612 134.505H406.729V143.666H405.624ZM412.259 143.818C410.119 143.818 408.881 141.977 408.881 139.082C408.881 136.213 410.132 134.353 412.259 134.353C414.385 134.353 415.623 136.2 415.623 139.076C415.623 141.971 414.392 143.818 412.259 143.818ZM412.259 142.822C413.687 142.822 414.474 141.368 414.474 139.082C414.474 136.829 413.674 135.356 412.259 135.356C410.843 135.356 410.03 136.841 410.03 139.076C410.03 141.361 410.824 142.822 412.259 142.822ZM420.252 143.825C418.88 143.825 417.788 143.082 417.223 141.761C416.919 141.057 416.772 140.231 416.772 139.241C416.772 136.156 418.087 134.346 420.328 134.346C421.883 134.346 423.077 135.279 423.369 136.721H422.207C421.959 135.889 421.223 135.356 420.315 135.356C418.785 135.356 417.915 136.714 417.877 139.152H417.896C418.309 138.257 419.318 137.667 420.455 137.667C422.201 137.667 423.496 138.955 423.496 140.695C423.496 142.504 422.131 143.825 420.252 143.825ZM420.239 142.809C421.407 142.809 422.334 141.888 422.334 140.733C422.334 139.533 421.47 138.67 420.258 138.67C419.045 138.67 418.15 139.533 418.15 140.701C418.15 141.876 419.064 142.809 420.239 142.809ZM424.924 145.615H423.978L427.222 134.505H428.168L424.924 145.615ZM432.06 143.818C430.308 143.818 429.013 142.726 428.917 141.165H430.041C430.143 142.142 430.974 142.815 432.073 142.815C433.317 142.815 434.181 141.952 434.181 140.72C434.181 139.489 433.311 138.606 432.092 138.606C431.235 138.606 430.505 138.993 430.13 139.635H429.057L429.559 134.505H434.803V135.521H430.498L430.219 138.505H430.244C430.657 137.952 431.419 137.622 432.295 137.622C434.054 137.622 435.323 138.911 435.323 140.688C435.323 142.53 433.971 143.818 432.06 143.818ZM439.723 143.818C437.583 143.818 436.345 141.977 436.345 139.082C436.345 136.213 437.596 134.353 439.723 134.353C441.85 134.353 443.088 136.2 443.088 139.076C443.088 141.971 441.856 143.818 439.723 143.818ZM439.723 142.822C441.151 142.822 441.939 141.368 441.939 139.082C441.939 136.829 441.139 135.356 439.723 135.356C438.307 135.356 437.495 136.841 437.495 139.076C437.495 141.361 438.288 142.822 439.723 142.822ZM447.608 143.818C445.468 143.818 444.23 141.977 444.23 139.082C444.23 136.213 445.481 134.353 447.608 134.353C449.735 134.353 450.973 136.2 450.973 139.076C450.973 141.971 449.741 143.818 447.608 143.818ZM447.608 142.822C449.036 142.822 449.824 141.368 449.824 139.082C449.824 136.829 449.024 135.356 447.608 135.356C446.192 135.356 445.38 136.841 445.38 139.076C445.38 141.361 446.173 142.822 447.608 142.822Z" fill="black"/>
<rect x="1.34876" y="1.20569" width="469.699" height="160.9" rx="5.68839" stroke="black" stroke-width="1.62525" stroke-dasharray="6.5 6.5"/>
</svg>
