<svg width="233" height="24" viewBox="0 0 233 24" fill="none" xmlns="http://www.w3.org/2000/svg">
<path d="M18 7.99902C18 6.40772 17.3679 4.8816 16.2426 3.75638C15.1174 2.63116 13.5913 1.99902 12 1.99902C10.4087 1.99902 8.88258 2.63116 7.75736 3.75638C6.63214 4.8816 6 6.40772 6 7.99902C6 14.999 3 16.999 3 16.999H21C21 16.999 18 14.999 18 7.99902Z" stroke="#237BFF" stroke-width="2.1" stroke-linecap="round" stroke-linejoin="round"/>
<path d="M13.73 21C13.5542 21.3031 13.3019 21.5547 12.9982 21.7295C12.6946 21.9044 12.3504 21.9965 12 21.9965C11.6496 21.9965 11.3054 21.9044 11.0018 21.7295C10.6982 21.5547 10.4458 21.3031 10.27 21" stroke="#237BFF" stroke-width="2.1" stroke-linecap="round" stroke-linejoin="round"/>
<path d="M108.328 17V5.72656H109.734V15.7344H115.172V17H108.328ZM119.281 17.1562C117.5 17.1562 116.469 16 116.469 14.1484V8.875H117.828V13.9062C117.828 15.2266 118.445 15.9531 119.695 15.9531C120.977 15.9531 121.812 15.0391 121.812 13.6562V8.875H123.172V17H121.812V15.8438H121.781C121.344 16.6016 120.516 17.1562 119.281 17.1562ZM124.945 17V8.875H126.305V10.0312H126.336C126.773 9.27344 127.602 8.71875 128.836 8.71875C130.617 8.71875 131.648 9.875 131.648 11.7266V17H130.289V11.9688C130.289 10.6484 129.672 9.92188 128.422 9.92188C127.141 9.92188 126.305 10.8359 126.305 12.2188V17H124.945ZM136.438 17.1562C134.359 17.1562 132.984 15.5 132.984 12.9375V12.9297C132.984 10.3672 134.375 8.71875 136.414 8.71875C137.562 8.71875 138.508 9.29688 139.016 10.2344H139.047V5.72656H140.406V17H139.047V15.625H139.016C138.508 16.5703 137.602 17.1562 136.438 17.1562ZM136.703 15.9531C138.078 15.9531 139.055 14.7578 139.055 12.9375V12.9297C139.055 11.1172 138.07 9.92188 136.703 9.92188C135.266 9.92188 134.375 11.0781 134.375 12.9297V12.9375C134.375 14.8047 135.266 15.9531 136.703 15.9531ZM143.008 7.5C142.539 7.5 142.156 7.11719 142.156 6.64844C142.156 6.17188 142.539 5.79688 143.008 5.79688C143.484 5.79688 143.859 6.17188 143.859 6.64844C143.859 7.11719 143.484 7.5 143.008 7.5ZM142.328 17V8.875H143.688V17H142.328ZM151.727 17V7.21875H151.695L148.711 9.29688V7.88281L151.711 5.72656H153.086V17H151.727ZM159.914 5.53906C161.992 5.53906 164.195 6.97656 164.195 11.1562V11.1719C164.195 14.9688 162.578 17.1875 159.82 17.1875C157.906 17.1875 156.477 16.0938 156.102 14.4531L156.078 14.3516H157.508L157.539 14.4375C157.875 15.3672 158.68 15.9453 159.836 15.9453C161.938 15.9453 162.766 13.9062 162.828 11.5391C162.836 11.4609 162.836 11.3828 162.836 11.2969H162.805C162.352 12.2969 161.195 13.1094 159.664 13.1094C157.516 13.1094 155.922 11.5234 155.922 9.38281V9.36719C155.922 7.14844 157.609 5.53906 159.914 5.53906ZM159.906 11.875C161.383 11.875 162.5 10.8281 162.5 9.39062V9.38281C162.5 7.9375 161.375 6.78906 159.93 6.78906C158.492 6.78906 157.352 7.91406 157.352 9.33594V9.35156C157.352 10.8203 158.422 11.875 159.906 11.875ZM169.281 17V5.72656H170.906L174.812 15.2266H174.859L178.766 5.72656H180.391V17H179.078V8.28906H179.031L175.43 17H174.242L170.641 8.28906H170.594V17H169.281ZM184.508 17.1562C182.891 17.1562 181.805 16.1797 181.805 14.7031V14.6875C181.805 13.3047 182.883 12.4375 184.75 12.3281L187.078 12.1953V11.5156C187.078 10.5234 186.43 9.92188 185.297 9.92188C184.25 9.92188 183.594 10.4219 183.438 11.1484L183.422 11.2188H182.109L182.117 11.1328C182.234 9.79688 183.398 8.71875 185.312 8.71875C187.234 8.71875 188.438 9.75781 188.438 11.3828V17H187.078V15.6797H187.047C186.57 16.5703 185.594 17.1562 184.508 17.1562ZM183.195 14.7031C183.195 15.4844 183.836 15.9766 184.812 15.9766C186.094 15.9766 187.078 15.0938 187.078 13.9141V13.25L184.906 13.3828C183.82 13.4453 183.195 13.9297 183.195 14.6875V14.7031ZM190.93 7.5C190.461 7.5 190.078 7.11719 190.078 6.64844C190.078 6.17188 190.461 5.79688 190.93 5.79688C191.406 5.79688 191.781 6.17188 191.781 6.64844C191.781 7.11719 191.406 7.5 190.93 7.5ZM190.25 17V8.875H191.609V17H190.25ZM196.773 17V16.0312L200.742 11.8906C202.266 10.3047 202.617 9.69531 202.617 8.75781V8.74219C202.609 7.59375 201.742 6.76562 200.516 6.76562C199.109 6.76562 198.062 7.73438 198.062 8.94531V8.98438H196.703V8.9375C196.703 6.98438 198.391 5.53906 200.492 5.53906C202.531 5.53906 204.023 6.90625 204.023 8.67188V8.6875C204.023 9.92188 203.453 10.8516 201.383 12.9688L198.703 15.7188V15.75H204.211V17H196.773ZM209.766 17.1875C207.172 17.1875 205.633 14.9453 205.633 11.3672V11.3516C205.633 7.77344 207.172 5.53906 209.766 5.53906C212.359 5.53906 213.914 7.77344 213.914 11.3516V11.3672C213.914 14.9453 212.359 17.1875 209.766 17.1875ZM209.766 15.9609C211.484 15.9609 212.5 14.1953 212.5 11.3672V11.3516C212.5 8.52344 211.484 6.77344 209.766 6.77344C208.047 6.77344 207.047 8.52344 207.047 11.3516V11.3672C207.047 14.1953 208.047 15.9609 209.766 15.9609ZM215.383 17V16.0312L219.352 11.8906C220.875 10.3047 221.227 9.69531 221.227 8.75781V8.74219C221.219 7.59375 220.352 6.76562 219.125 6.76562C217.719 6.76562 216.672 7.73438 216.672 8.94531V8.98438H215.312V8.9375C215.312 6.98438 217 5.53906 219.102 5.53906C221.141 5.53906 222.633 6.90625 222.633 8.67188V8.6875C222.633 9.92188 222.062 10.8516 219.992 12.9688L217.312 15.7188V15.75H222.82V17H215.383ZM228.242 17.1875C225.914 17.1875 224.406 15.8906 224.258 14.1094L224.25 14.0156H225.602L225.609 14.0938C225.727 15.2031 226.742 15.9688 228.242 15.9688C229.719 15.9688 230.727 15.1406 230.727 13.9453V13.9297C230.727 12.5469 229.734 11.7734 228.156 11.7734H226.742V10.5859H228.094C229.438 10.5859 230.375 9.75781 230.375 8.63281V8.61719C230.375 7.4375 229.602 6.75781 228.227 6.75781C226.898 6.75781 225.953 7.46094 225.836 8.60156L225.828 8.67969H224.477L224.484 8.60156C224.664 6.76562 226.117 5.53906 228.227 5.53906C230.375 5.53906 231.789 6.73438 231.789 8.44531V8.46094C231.789 9.85156 230.805 10.8047 229.398 11.1016V11.1328C231.039 11.2734 232.156 12.2969 232.156 13.8984V13.9141C232.156 15.7969 230.5 17.1875 228.242 17.1875Z" fill="#495057"/>
</svg>
