<svg width="297" height="24" viewBox="0 0 297 24" fill="none" xmlns="http://www.w3.org/2000/svg">
<path d="M18 7.99902C18 6.40772 17.3679 4.8816 16.2426 3.75638C15.1174 2.63116 13.5913 1.99902 12 1.99902C10.4087 1.99902 8.88258 2.63116 7.75736 3.75638C6.63214 4.8816 6 6.40772 6 7.99902C6 14.999 3 16.999 3 16.999H21C21 16.999 18 14.999 18 7.99902Z" stroke="#237BFF" stroke-width="2.1" stroke-linecap="round" stroke-linejoin="round"/>
<path d="M13.73 21C13.5542 21.3031 13.3019 21.5547 12.9982 21.7295C12.6946 21.9044 12.3504 21.9965 12 21.9965C11.6496 21.9965 11.3054 21.9044 11.0018 21.7295C10.6982 21.5547 10.4458 21.3031 10.27 21" stroke="#237BFF" stroke-width="2.1" stroke-linecap="round" stroke-linejoin="round"/>
<path d="M153.602 17L149.445 5.72656H150.922L154.281 15.3125H154.312L157.672 5.72656H159.148L154.992 17H153.602ZM162.477 17.1562C160.141 17.1562 158.734 15.5234 158.734 12.9688V12.9609C158.734 10.4453 160.172 8.71875 162.391 8.71875C164.609 8.71875 165.961 10.3672 165.961 12.8047V13.3047H160.109C160.141 14.9766 161.062 15.9531 162.508 15.9531C163.539 15.9531 164.266 15.4375 164.5 14.7422L164.523 14.6719H165.859L165.844 14.75C165.578 16.0938 164.25 17.1562 162.477 17.1562ZM162.383 9.92188C161.203 9.92188 160.281 10.7266 160.133 12.2422H164.578C164.445 10.6641 163.57 9.92188 162.383 9.92188ZM167.336 17V8.875H168.695V10.0312H168.727C169.164 9.27344 169.992 8.71875 171.227 8.71875C173.008 8.71875 174.039 9.875 174.039 11.7266V17H172.68V11.9688C172.68 10.6484 172.062 9.92188 170.812 9.92188C169.531 9.92188 168.695 10.8359 168.695 12.2188V17H167.336ZM178.828 17.1562C176.75 17.1562 175.375 15.5 175.375 12.9375V12.9297C175.375 10.3672 176.766 8.71875 178.805 8.71875C179.953 8.71875 180.898 9.29688 181.406 10.2344H181.438V5.72656H182.797V17H181.438V15.625H181.406C180.898 16.5703 179.992 17.1562 178.828 17.1562ZM179.094 15.9531C180.469 15.9531 181.445 14.7578 181.445 12.9375V12.9297C181.445 11.1172 180.461 9.92188 179.094 9.92188C177.656 9.92188 176.766 11.0781 176.766 12.9297V12.9375C176.766 14.8047 177.656 15.9531 179.094 15.9531ZM184.633 17V8.875H185.992V10.25H186.023C186.297 9.3125 187 8.71875 187.914 8.71875C188.148 8.71875 188.352 8.75781 188.461 8.77344V10.0938C188.352 10.0547 188.062 10.0156 187.734 10.0156C186.68 10.0156 185.992 10.75 185.992 11.9844V17H184.633ZM192.523 17.1562C190.188 17.1562 188.781 15.5234 188.781 12.9688V12.9609C188.781 10.4453 190.219 8.71875 192.438 8.71875C194.656 8.71875 196.008 10.3672 196.008 12.8047V13.3047H190.156C190.188 14.9766 191.109 15.9531 192.555 15.9531C193.586 15.9531 194.312 15.4375 194.547 14.7422L194.57 14.6719H195.906L195.891 14.75C195.625 16.0938 194.297 17.1562 192.523 17.1562ZM192.43 9.92188C191.25 9.92188 190.328 10.7266 190.18 12.2422H194.625C194.492 10.6641 193.617 9.92188 192.43 9.92188ZM200.438 17.1562C198.359 17.1562 196.984 15.5 196.984 12.9375V12.9297C196.984 10.3672 198.375 8.71875 200.414 8.71875C201.562 8.71875 202.508 9.29688 203.016 10.2344H203.047V5.72656H204.406V17H203.047V15.625H203.016C202.508 16.5703 201.602 17.1562 200.438 17.1562ZM200.703 15.9531C202.078 15.9531 203.055 14.7578 203.055 12.9375V12.9297C203.055 11.1172 202.07 9.92188 200.703 9.92188C199.266 9.92188 198.375 11.0781 198.375 12.9297V12.9375C198.375 14.8047 199.266 15.9531 200.703 15.9531ZM207.008 7.5C206.539 7.5 206.156 7.11719 206.156 6.64844C206.156 6.17188 206.539 5.79688 207.008 5.79688C207.484 5.79688 207.859 6.17188 207.859 6.64844C207.859 7.11719 207.484 7.5 207.008 7.5ZM206.328 17V8.875H207.688V17H206.328ZM215.727 17V7.21875H215.695L212.711 9.29688V7.88281L215.711 5.72656H217.086V17H215.727ZM224.023 17.1875C221.945 17.1875 219.742 15.75 219.742 11.5703V11.5547C219.742 7.75781 221.359 5.53906 224.117 5.53906C226.031 5.53906 227.461 6.63281 227.836 8.27344L227.859 8.375H226.43L226.398 8.28906C226.062 7.35938 225.258 6.78125 224.102 6.78125C222 6.78125 221.172 8.82031 221.109 11.1875C221.102 11.2656 221.102 11.3438 221.102 11.4297H221.133C221.586 10.4297 222.742 9.61719 224.273 9.61719C226.422 9.61719 228.016 11.2031 228.016 13.3438V13.3594C228.016 15.5781 226.328 17.1875 224.023 17.1875ZM221.438 13.3438C221.438 14.7891 222.562 15.9375 224.008 15.9375C225.445 15.9375 226.586 14.8125 226.586 13.3906V13.375C226.586 11.9062 225.516 10.8516 224.031 10.8516C222.555 10.8516 221.438 11.8984 221.438 13.3359V13.3438ZM233.281 17V5.72656H234.906L238.812 15.2266H238.859L242.766 5.72656H244.391V17H243.078V8.28906H243.031L239.43 17H238.242L234.641 8.28906H234.594V17H233.281ZM248.508 17.1562C246.891 17.1562 245.805 16.1797 245.805 14.7031V14.6875C245.805 13.3047 246.883 12.4375 248.75 12.3281L251.078 12.1953V11.5156C251.078 10.5234 250.43 9.92188 249.297 9.92188C248.25 9.92188 247.594 10.4219 247.438 11.1484L247.422 11.2188H246.109L246.117 11.1328C246.234 9.79688 247.398 8.71875 249.312 8.71875C251.234 8.71875 252.438 9.75781 252.438 11.3828V17H251.078V15.6797H251.047C250.57 16.5703 249.594 17.1562 248.508 17.1562ZM247.195 14.7031C247.195 15.4844 247.836 15.9766 248.812 15.9766C250.094 15.9766 251.078 15.0938 251.078 13.9141V13.25L248.906 13.3828C247.82 13.4453 247.195 13.9297 247.195 14.6875V14.7031ZM254.93 7.5C254.461 7.5 254.078 7.11719 254.078 6.64844C254.078 6.17188 254.461 5.79688 254.93 5.79688C255.406 5.79688 255.781 6.17188 255.781 6.64844C255.781 7.11719 255.406 7.5 254.93 7.5ZM254.25 17V8.875H255.609V17H254.25ZM260.773 17V16.0312L264.742 11.8906C266.266 10.3047 266.617 9.69531 266.617 8.75781V8.74219C266.609 7.59375 265.742 6.76562 264.516 6.76562C263.109 6.76562 262.062 7.73438 262.062 8.94531V8.98438H260.703V8.9375C260.703 6.98438 262.391 5.53906 264.492 5.53906C266.531 5.53906 268.023 6.90625 268.023 8.67188V8.6875C268.023 9.92188 267.453 10.8516 265.383 12.9688L262.703 15.7188V15.75H268.211V17H260.773ZM273.766 17.1875C271.172 17.1875 269.633 14.9453 269.633 11.3672V11.3516C269.633 7.77344 271.172 5.53906 273.766 5.53906C276.359 5.53906 277.914 7.77344 277.914 11.3516V11.3672C277.914 14.9453 276.359 17.1875 273.766 17.1875ZM273.766 15.9609C275.484 15.9609 276.5 14.1953 276.5 11.3672V11.3516C276.5 8.52344 275.484 6.77344 273.766 6.77344C272.047 6.77344 271.047 8.52344 271.047 11.3516V11.3672C271.047 14.1953 272.047 15.9609 273.766 15.9609ZM279.383 17V16.0312L283.352 11.8906C284.875 10.3047 285.227 9.69531 285.227 8.75781V8.74219C285.219 7.59375 284.352 6.76562 283.125 6.76562C281.719 6.76562 280.672 7.73438 280.672 8.94531V8.98438H279.312V8.9375C279.312 6.98438 281 5.53906 283.102 5.53906C285.141 5.53906 286.633 6.90625 286.633 8.67188V8.6875C286.633 9.92188 286.062 10.8516 283.992 12.9688L281.312 15.7188V15.75H286.82V17H279.383ZM292.242 17.1875C289.914 17.1875 288.406 15.8906 288.258 14.1094L288.25 14.0156H289.602L289.609 14.0938C289.727 15.2031 290.742 15.9688 292.242 15.9688C293.719 15.9688 294.727 15.1406 294.727 13.9453V13.9297C294.727 12.5469 293.734 11.7734 292.156 11.7734H290.742V10.5859H292.094C293.438 10.5859 294.375 9.75781 294.375 8.63281V8.61719C294.375 7.4375 293.602 6.75781 292.227 6.75781C290.898 6.75781 289.953 7.46094 289.836 8.60156L289.828 8.67969H288.477L288.484 8.60156C288.664 6.76562 290.117 5.53906 292.227 5.53906C294.375 5.53906 295.789 6.73438 295.789 8.44531V8.46094C295.789 9.85156 294.805 10.8047 293.398 11.1016V11.1328C295.039 11.2734 296.156 12.2969 296.156 13.8984V13.9141C296.156 15.7969 294.5 17.1875 292.242 17.1875Z" fill="#495057"/>
</svg>
