<svg width="35" height="24" viewBox="0 0 35 24" fill="none" xmlns="http://www.w3.org/2000/svg">
<path d="M10.8216 22.9624H14.6995C15.7502 22.9624 16.4451 22.2567 16.4451 21.3595C16.4451 20.8509 16.2408 20.3855 15.8421 19.9305C15.3623 19.3849 15.048 18.7709 15.048 18.0996C15.048 16.8119 15.9637 15.7788 17.4019 15.7788C18.84 15.7788 19.7557 16.8119 19.7557 18.0996C19.7557 18.7709 19.4318 19.3849 18.952 19.9305C18.563 20.3855 18.3586 20.8509 18.3586 21.3595C18.3586 22.2567 19.0535 22.9624 20.1042 22.9624H23.9747C26.3702 22.9624 27.683 21.671 27.683 19.3106V15.3869C27.683 15.1973 27.814 15.1078 28.0291 15.2538C28.7285 15.7221 29.5376 16.0486 30.4575 16.0486C32.7272 16.0486 34.8037 14.2462 34.8037 11.5148C34.8037 8.79305 32.7272 6.98859 30.4575 6.98859C29.5376 6.98859 28.7285 7.31508 28.0291 7.78547C27.814 7.92938 27.683 7.84196 27.683 7.65024V3.64968C27.683 1.28929 26.3702 0 23.9747 0H20.1042C19.0535 0 18.3586 0.703591 18.3586 1.60288C18.3586 2.10937 18.563 2.57483 18.952 3.02976C19.4318 3.58499 19.7557 4.19156 19.7557 4.87031C19.7557 6.13875 18.8208 7.18148 17.4019 7.18148C15.983 7.18148 15.048 6.13875 15.048 4.87031C15.048 4.19156 15.3623 3.58499 15.8421 3.02976C16.2408 2.57483 16.4451 2.10937 16.4451 1.60288C16.4451 0.703591 15.7502 0 14.6995 0H10.8216C8.43351 0 7.12078 1.28929 7.12078 3.64968V7.65024C7.12078 7.84196 6.98977 7.92938 6.77461 7.78547C6.07734 7.31508 5.26828 6.98859 4.33663 6.98859C2.07867 6.98859 0 8.79305 0 11.5148C0 14.2462 2.07867 16.0486 4.33663 16.0486C5.26828 16.0486 6.07734 15.7221 6.77461 15.2538C6.98977 15.1078 7.12078 15.1973 7.12078 15.3869V19.3106C7.12078 21.671 8.43351 22.9624 10.8216 22.9624ZM10.8546 20.7635C9.89671 20.7635 9.31967 20.2132 9.31967 19.2126V14.2247C9.31967 13.1644 8.61397 12.4716 7.71679 12.4716C7.2082 12.4716 6.74273 12.6738 6.28781 13.0746C5.73257 13.5544 5.12812 13.8762 4.44726 13.8762C3.17882 13.8762 2.13608 12.9434 2.13608 11.5148C2.13608 10.0959 3.17882 9.161 4.44726 9.161C5.12812 9.161 5.73257 9.4828 6.28781 9.96257C6.74273 10.3633 7.2082 10.5677 7.71679 10.5677C8.61397 10.5677 9.31967 9.87281 9.31967 8.8125V3.74765C9.31967 2.75671 9.89671 2.19678 10.8546 2.19678H13.3516C13.8623 2.19678 13.7119 2.45061 13.5818 2.68171C13.1733 3.36702 12.8756 4.11632 12.8756 4.98093C12.8756 7.24101 14.6705 9.31757 17.4019 9.31757C20.1333 9.31757 21.9281 7.24101 21.9281 4.98093C21.9281 4.11632 21.6305 3.36702 21.2219 2.68171C21.094 2.45061 20.9414 2.19678 21.4521 2.19678H23.9491C24.9091 2.19678 25.4862 2.75671 25.4862 3.74765V8.8125C25.4862 9.87281 26.1898 10.5677 27.0891 10.5677C27.5976 10.5677 28.061 10.3633 28.518 9.96257C29.0637 9.4828 29.6777 9.161 30.3469 9.161C31.6249 9.161 32.6677 10.0959 32.6677 11.5148C32.6677 12.9434 31.6249 13.8762 30.3469 13.8762C29.6777 13.8762 29.0637 13.5544 28.518 13.0746C28.061 12.6738 27.5976 12.4716 27.0891 12.4716C26.1898 12.4716 25.4862 13.1644 25.4862 14.2247V19.2126C25.4862 20.2132 24.9091 20.7635 23.9491 20.7635H21.4521C20.9414 20.7635 21.094 20.5097 21.2219 20.2786C21.6305 19.5933 21.9281 18.844 21.9281 17.989C21.9281 15.7022 20.1525 13.6427 17.4019 13.6427C14.6512 13.6427 12.8756 15.7022 12.8756 17.989C12.8756 18.844 13.1733 19.5933 13.5818 20.2786C13.7119 20.5097 13.8623 20.7635 13.3516 20.7635H10.8546Z" fill="white"/>
</svg>
