<svg width="27" height="27" viewBox="0 0 27 27" fill="none" xmlns="http://www.w3.org/2000/svg">
<path d="M6.31151 23.6497H8.81534C9.04667 23.6497 9.20769 23.7116 9.37292 23.8789L11.1565 25.6508C12.6774 27.1813 14.1096 27.1717 15.6305 25.6508L17.4141 23.8789C17.5793 23.7116 17.7403 23.6497 17.9717 23.6497H20.4755C22.6343 23.6497 23.6492 22.6402 23.6492 20.4739V17.9701C23.6492 17.7409 23.7153 17.5852 23.8805 17.4125L25.6428 15.631C27.1732 14.1102 27.1636 12.6854 25.6428 11.1549L23.8805 9.37346C23.7132 9.20611 23.6492 9.0451 23.6492 8.82549V6.31205C23.6492 4.16283 22.6397 3.13627 20.4755 3.13627H17.9717C17.7403 3.13627 17.5772 3.07979 17.4141 2.91666L15.6305 1.14478C14.1075 -0.389901 12.6816 -0.373963 11.1565 1.14689L9.37292 2.91666C9.2098 3.07979 9.04667 3.13627 8.81534 3.13627H6.31151C4.15269 3.13627 3.13784 4.13939 3.13784 6.31205V8.82549C3.13784 9.0451 3.08136 9.20822 2.91613 9.37346L1.14425 11.1549C-0.386217 12.6854 -0.376608 14.1102 1.14425 15.631L2.91613 17.4125C3.08136 17.5852 3.13784 17.7409 3.13784 17.9701V20.4739C3.13784 22.6327 4.1548 23.6497 6.31151 23.6497ZM6.4676 21.5206C5.43518 21.5206 5.26901 21.3545 5.26479 20.3199V17.2583C5.26479 16.911 5.16565 16.6499 4.91205 16.3963L2.75416 14.2501C2.02221 13.5064 2.02221 13.2934 2.75416 12.5497L4.91205 10.4035C5.16565 10.1499 5.26479 9.88884 5.26901 9.53189V6.46813C5.26901 5.42399 5.42135 5.26954 6.4676 5.26954L9.53135 5.26743C9.8862 5.26743 10.1515 5.17368 10.4009 4.9147L12.5492 2.7568C13.2907 2.02485 13.5038 2.02274 14.2378 2.7568L16.3957 4.9147C16.6355 5.17368 16.9104 5.26743 17.2557 5.26743L20.3194 5.26954C21.3518 5.26954 21.518 5.43571 21.518 6.46813V9.53189C21.5201 9.88884 21.631 10.1499 21.8846 10.4035L24.0404 12.5497C24.7744 13.2934 24.7744 13.5064 24.0404 14.2501L21.8846 16.3963C21.631 16.6499 21.5201 16.911 21.5201 17.2583L21.518 20.3199C21.518 21.3545 21.3518 21.5206 20.3194 21.5206L17.2557 21.5228C16.9104 21.5228 16.6397 21.6198 16.3957 21.8851L14.2378 24.043C13.5059 24.7749 13.2907 24.7749 12.5492 24.043L10.4009 21.8851C10.1473 21.6198 9.8862 21.5228 9.53135 21.5228L6.4676 21.5206Z" fill="white"/>
<path d="M12.1399 18.9618C12.5604 18.9618 12.9265 18.7511 13.1756 18.3763L18.4172 10.1793C18.5651 9.93546 18.7069 9.66289 18.7069 9.38704C18.7069 8.81235 18.1875 8.42188 17.6438 8.42188C17.2927 8.42188 16.9744 8.61454 16.7264 9.0104L12.0994 16.4439L9.91951 13.6665C9.63193 13.2958 9.35724 13.1734 9.01341 13.1734C8.43873 13.1734 7.98334 13.63 7.98334 14.2143C7.98334 14.4878 8.09092 14.754 8.28662 15.0062L11.0574 18.3826C11.3693 18.7841 11.7132 18.9618 12.1399 18.9618Z" fill="white"/>
</svg>
