<svg width="492" height="452" viewBox="0 0 492 452" fill="none" xmlns="http://www.w3.org/2000/svg">
<path d="M248.17 185.628V187.831H253.753C257.263 187.831 259.421 185.74 259.421 182.9C259.421 180.528 258.056 178.605 255.832 177.717C255.846 172.638 252.18 168.975 247.479 168.975C244.481 168.975 242.244 170.526 240.834 172.559C238.171 171.897 234.992 173.916 234.888 177.094C232.318 177.532 230.725 179.668 230.725 182.372C230.725 185.391 233.019 187.831 236.757 187.831H241.954V185.628H236.754C234.285 185.628 232.952 184.158 232.952 182.334C232.952 180.225 234.337 178.742 236.639 178.742C236.803 178.742 236.867 178.648 236.863 178.491C236.796 175.137 239.2 174.072 241.613 174.767C241.752 174.812 241.843 174.785 241.91 174.658C242.987 172.701 244.66 171.178 247.465 171.178C251.021 171.178 253.53 173.99 253.709 177.275C253.745 177.856 253.703 178.51 253.65 179.052C253.637 179.209 253.697 179.301 253.844 179.321C255.903 179.722 257.194 180.921 257.194 182.807C257.194 184.456 256.034 185.628 253.699 185.628H248.17Z" fill="black"/>
<path d="M245.065 193.471C245.636 193.471 246.101 193.005 246.101 192.456V182.076L245.995 180.071L246.71 180.895L248.294 182.48C248.482 182.671 248.736 182.786 248.988 182.786C249.495 182.786 249.92 182.418 249.92 181.892C249.92 181.623 249.818 181.405 249.62 181.225L245.844 177.682C245.569 177.428 245.335 177.333 245.065 177.333C244.789 177.333 244.554 177.428 244.278 177.682L240.504 181.225C240.306 181.405 240.204 181.623 240.204 181.892C240.204 182.418 240.61 182.786 241.126 182.786C241.378 182.786 241.641 182.671 241.828 182.48L243.411 180.895L244.128 180.071L244.022 182.076V192.456C244.022 193.005 244.495 193.471 245.065 193.471Z" fill="black"/>
<path d="M160.341 251.954H163.549C166.38 251.954 168.053 253.72 168.053 256.722C168.053 259.732 166.386 261.498 163.549 261.498H160.341V251.954ZM161.532 253.025V260.426H163.47C165.632 260.426 166.836 259.103 166.836 256.736C166.836 254.348 165.639 253.025 163.47 253.025H161.532ZM172.114 255.499C171.036 255.499 170.282 256.326 170.209 257.47H173.946C173.919 256.319 173.199 255.499 172.114 255.499ZM173.919 259.527H175.05C174.852 260.73 173.688 261.617 172.187 261.617C170.216 261.617 169.019 260.248 169.019 258.085C169.019 255.949 170.236 254.5 172.134 254.5C173.992 254.5 175.136 255.849 175.136 257.933V258.369H170.202V258.435C170.202 259.752 170.976 260.618 172.213 260.618C173.086 260.618 173.728 260.175 173.919 259.527ZM172.656 253.627H171.651L173.04 251.643H174.283L172.656 253.627ZM179.64 254.5C181.393 254.5 182.583 255.902 182.583 258.058C182.583 260.214 181.4 261.617 179.667 261.617C178.681 261.617 177.888 261.134 177.478 260.38H177.451V263.793H176.3V254.619H177.392V255.783H177.418C177.841 255.009 178.642 254.5 179.64 254.5ZM179.415 260.605C180.639 260.605 181.406 259.619 181.406 258.058C181.406 256.504 180.639 255.512 179.415 255.512C178.238 255.512 177.445 256.531 177.445 258.058C177.445 259.593 178.238 260.605 179.415 260.605ZM186.598 261.617C184.693 261.617 183.41 260.248 183.41 258.058C183.41 255.863 184.693 254.5 186.598 254.5C188.496 254.5 189.779 255.863 189.779 258.058C189.779 260.248 188.496 261.617 186.598 261.617ZM186.598 260.605C187.815 260.605 188.609 259.679 188.609 258.058C188.609 256.438 187.815 255.512 186.598 255.512C185.381 255.512 184.581 256.438 184.581 258.058C184.581 259.679 185.381 260.605 186.598 260.605ZM190.824 256.517C190.824 255.34 191.876 254.5 193.39 254.5C194.812 254.5 195.857 255.347 195.91 256.511H194.812C194.733 255.849 194.197 255.439 193.351 255.439C192.511 255.439 191.955 255.856 191.955 256.458C191.955 256.934 192.319 257.252 193.099 257.45L194.164 257.708C195.553 258.058 196.056 258.561 196.056 259.573C196.056 260.77 194.925 261.617 193.318 261.617C191.81 261.617 190.758 260.797 190.639 259.58H191.79C191.915 260.294 192.458 260.677 193.39 260.677C194.323 260.677 194.898 260.281 194.898 259.659C194.898 259.17 194.614 258.905 193.84 258.7L192.63 258.389C191.419 258.078 190.824 257.457 190.824 256.517ZM200.011 255.499C198.933 255.499 198.179 256.326 198.106 257.47H201.843C201.816 256.319 201.095 255.499 200.011 255.499ZM201.816 259.527H202.947C202.749 260.73 201.585 261.617 200.083 261.617C198.113 261.617 196.915 260.248 196.915 258.085C196.915 255.949 198.132 254.5 200.031 254.5C201.889 254.5 203.033 255.849 203.033 257.933V258.369H198.099V258.435C198.099 259.752 198.873 260.618 200.11 260.618C200.983 260.618 201.624 260.175 201.816 259.527ZM204.052 261.498V260.677L207.861 255.585V255.565H204.058V254.619H209.164V255.459L205.381 260.532V260.552H209.184V261.498H204.052ZM218.959 254.619V261.498H217.868V260.38H217.841C217.431 261.173 216.717 261.617 215.659 261.617C214.158 261.617 213.278 260.644 213.278 259.084V254.619H214.429V258.879C214.429 259.996 214.951 260.598 216.016 260.598C217.134 260.598 217.808 259.831 217.808 258.66V254.619H218.959ZM220.454 261.498V254.619H221.538V255.717H221.565C221.949 254.976 222.683 254.5 223.747 254.5C225.255 254.5 226.128 255.472 226.128 257.033V261.498H224.978V257.238C224.978 256.127 224.455 255.519 223.397 255.519C222.312 255.519 221.605 256.286 221.605 257.45V261.498H220.454ZM230.745 261.498V255.565H229.786V254.619H230.745V253.852C230.745 252.529 231.36 251.901 232.63 251.901C232.888 251.901 233.165 251.927 233.331 251.954V252.886C233.192 252.867 233 252.847 232.808 252.847C232.187 252.847 231.889 253.177 231.889 253.859V254.619H233.298V255.565H231.896V261.498H230.745ZM234.548 261.498V254.619H235.699V261.498H234.548ZM235.123 253.462C234.733 253.462 234.409 253.138 234.409 252.748C234.409 252.351 234.733 252.033 235.123 252.033C235.52 252.033 235.844 252.351 235.844 252.748C235.844 253.138 235.52 253.462 235.123 253.462ZM242.967 256.875H241.843C241.677 256.127 241.095 255.512 240.083 255.512C238.893 255.512 238.086 256.498 238.086 258.058C238.086 259.659 238.906 260.605 240.097 260.605C241.036 260.605 241.651 260.109 241.849 259.282H242.98C242.802 260.651 241.651 261.617 240.09 261.617C238.185 261.617 236.915 260.274 236.915 258.058C236.915 255.889 238.179 254.5 240.077 254.5C241.796 254.5 242.822 255.638 242.967 256.875ZM244.098 261.498V251.954H245.249V255.717H245.275C245.659 254.95 246.413 254.5 247.458 254.5C248.966 254.5 249.878 255.519 249.878 257.053V261.498H248.728V257.265C248.728 256.173 248.179 255.519 247.101 255.519C245.956 255.519 245.249 256.299 245.249 257.49V261.498H244.098ZM251.4 261.498V254.619H252.55V261.498H251.4ZM251.975 253.462C251.585 253.462 251.261 253.138 251.261 252.748C251.261 252.351 251.585 252.033 251.975 252.033C252.372 252.033 252.696 252.351 252.696 252.748C252.696 253.138 252.372 253.462 251.975 253.462ZM256.863 255.499C255.785 255.499 255.031 256.326 254.958 257.47H258.695C258.668 256.319 257.947 255.499 256.863 255.499ZM258.668 259.527H259.799C259.601 260.73 258.437 261.617 256.935 261.617C254.964 261.617 253.767 260.248 253.767 258.085C253.767 255.949 254.984 254.5 256.882 254.5C258.741 254.5 259.885 255.849 259.885 257.933V258.369H254.951V258.435C254.951 259.752 255.725 260.618 256.962 260.618C257.835 260.618 258.476 260.175 258.668 259.527ZM261.049 261.498V254.619H262.134V255.744H262.16C262.385 254.983 263.02 254.5 263.827 254.5C264.025 254.5 264.197 254.533 264.29 254.547V255.664C264.197 255.631 263.952 255.598 263.675 255.598C262.782 255.598 262.2 256.24 262.2 257.212V261.498H261.049ZM265.355 263.396H264.396L265.037 260.029H266.261L265.355 263.396ZM275.771 254.619V261.498H274.68V260.38H274.654C274.244 261.173 273.529 261.617 272.471 261.617C270.97 261.617 270.09 260.644 270.09 259.084V254.619H271.241V258.879C271.241 259.996 271.763 260.598 272.828 260.598C273.946 260.598 274.62 259.831 274.62 258.66V254.619H275.771ZM277.266 261.498V254.619H278.351V255.717H278.377C278.761 254.976 279.495 254.5 280.56 254.5C282.068 254.5 282.941 255.472 282.941 257.033V261.498H281.79V257.238C281.79 256.127 281.267 255.519 280.209 255.519C279.124 255.519 278.417 256.286 278.417 257.45V261.498H277.266ZM287.167 255.499C286.089 255.499 285.335 256.326 285.262 257.47H288.999C288.972 256.319 288.251 255.499 287.167 255.499ZM288.972 259.527H290.103C289.905 260.73 288.741 261.617 287.24 261.617C285.269 261.617 284.072 260.248 284.072 258.085C284.072 255.949 285.288 254.5 287.187 254.5C289.045 254.5 290.189 255.849 290.189 257.933V258.369H285.255V258.435C285.255 259.752 286.029 260.618 287.266 260.618C288.139 260.618 288.781 260.175 288.972 259.527ZM294.191 261.498V254.619H295.341V261.498H294.191ZM294.766 253.462C294.376 253.462 294.052 253.138 294.052 252.748C294.052 252.351 294.376 252.033 294.766 252.033C295.163 252.033 295.487 252.351 295.487 252.748C295.487 253.138 295.163 253.462 294.766 253.462ZM296.896 261.498V254.619H297.98V255.717H298.007C298.331 254.99 299.032 254.5 299.958 254.5C300.897 254.5 301.591 254.976 301.889 255.81H301.915C302.299 254.99 303.106 254.5 304.072 254.5C305.434 254.5 306.314 255.386 306.314 256.749V261.498H305.163V257.013C305.163 256.074 304.64 255.519 303.734 255.519C302.822 255.519 302.18 256.193 302.18 257.126V261.498H301.029V256.888C301.029 256.061 300.474 255.519 299.62 255.519C298.708 255.519 298.046 256.233 298.046 257.185V261.498H296.896ZM310.05 260.638C311.135 260.638 311.968 259.877 311.968 258.885V258.323L310.13 258.435C309.204 258.495 308.675 258.905 308.675 259.553C308.675 260.208 309.224 260.638 310.05 260.638ZM309.792 261.617C308.423 261.617 307.504 260.79 307.504 259.553C307.504 258.376 308.41 257.635 309.997 257.543L311.968 257.43V256.855C311.968 256.015 311.413 255.512 310.46 255.512C309.574 255.512 309.019 255.929 308.873 256.603H307.762C307.841 255.413 308.86 254.5 310.487 254.5C312.101 254.5 313.119 255.373 313.119 256.742V261.498H312.028V260.314H312.001C311.591 261.101 310.718 261.617 309.792 261.617ZM317.378 260.539C318.575 260.539 319.376 259.547 319.376 258.032C319.376 256.517 318.575 255.512 317.378 255.512C316.195 255.512 315.421 256.491 315.421 258.032C315.421 259.573 316.195 260.539 317.378 260.539ZM317.418 264.09C315.904 264.09 314.706 263.237 314.515 262.066H315.699C315.923 262.695 316.605 263.111 317.464 263.111C318.655 263.111 319.376 262.423 319.376 261.398V260.314H319.349C318.926 261.061 318.113 261.55 317.147 261.55C315.394 261.55 314.243 260.168 314.243 258.032C314.243 255.876 315.394 254.5 317.173 254.5C318.146 254.5 318.952 254.976 319.409 255.777H319.429V254.619H320.527V261.359C320.527 262.999 319.316 264.09 317.418 264.09ZM324.786 255.499C323.708 255.499 322.954 256.326 322.881 257.47H326.618C326.591 256.319 325.87 255.499 324.786 255.499ZM326.591 259.527H327.722C327.524 260.73 326.36 261.617 324.859 261.617C322.888 261.617 321.691 260.248 321.691 258.085C321.691 255.949 322.908 254.5 324.806 254.5C326.664 254.5 327.808 255.849 327.808 257.933V258.369H322.874V258.435C322.874 259.752 323.648 260.618 324.885 260.618C325.758 260.618 326.4 260.175 326.591 259.527ZM329.945 261.564C329.521 261.564 329.191 261.233 329.191 260.81C329.191 260.386 329.521 260.056 329.945 260.056C330.368 260.056 330.699 260.386 330.699 260.81C330.699 261.233 330.368 261.564 329.945 261.564ZM241.968 277.617C240.064 277.617 238.781 276.248 238.781 274.058C238.781 271.863 240.064 270.5 241.968 270.5C243.867 270.5 245.15 271.863 245.15 274.058C245.15 276.248 243.867 277.617 241.968 277.617ZM241.968 276.605C243.185 276.605 243.979 275.679 243.979 274.058C243.979 272.438 243.185 271.512 241.968 271.512C240.751 271.512 239.951 272.438 239.951 274.058C239.951 275.679 240.751 276.605 241.968 276.605ZM251.962 270.619V277.498H250.87V276.38H250.844C250.434 277.173 249.72 277.617 248.661 277.617C247.16 277.617 246.281 276.644 246.281 275.084V270.619H247.431V274.879C247.431 275.996 247.954 276.598 249.019 276.598C250.136 276.598 250.811 275.831 250.811 274.66V270.619H251.962ZM178.285 293.498H177.094V285.025H174.085V283.954H181.294V285.025H178.285V293.498ZM183.344 287.499C182.266 287.499 181.512 288.326 181.439 289.47H185.176C185.15 288.319 184.429 287.499 183.344 287.499ZM185.15 291.527H186.281C186.082 292.73 184.918 293.617 183.417 293.617C181.446 293.617 180.249 292.248 180.249 290.085C180.249 287.949 181.466 286.5 183.364 286.5C185.222 286.5 186.367 287.849 186.367 289.933V290.369H181.433V290.435C181.433 291.752 182.206 292.618 183.443 292.618C184.316 292.618 184.958 292.175 185.15 291.527ZM183.886 285.627H182.881L184.27 283.643H185.513L183.886 285.627ZM187.59 293.498V283.954H188.741V293.498H187.59ZM193.053 287.499C191.975 287.499 191.221 288.326 191.148 289.47H194.885C194.859 288.319 194.138 287.499 193.053 287.499ZM194.859 291.527H195.99C195.791 292.73 194.627 293.617 193.126 293.617C191.155 293.617 189.958 292.248 189.958 290.085C189.958 287.949 191.175 286.5 193.073 286.5C194.931 286.5 196.076 287.849 196.076 289.933V290.369H191.142V290.435C191.142 291.752 191.915 292.618 193.152 292.618C194.025 292.618 194.667 292.175 194.859 291.527ZM193.595 285.627H192.59L193.979 283.643H195.222L193.595 285.627ZM202.954 288.875H201.829C201.664 288.127 201.082 287.512 200.07 287.512C198.88 287.512 198.073 288.498 198.073 290.058C198.073 291.659 198.893 292.605 200.083 292.605C201.023 292.605 201.638 292.109 201.836 291.282H202.967C202.788 292.651 201.638 293.617 200.077 293.617C198.172 293.617 196.902 292.274 196.902 290.058C196.902 287.889 198.165 286.5 200.064 286.5C201.783 286.5 202.808 287.638 202.954 288.875ZM204.085 293.498V283.954H205.236V287.717H205.262C205.646 286.95 206.4 286.5 207.445 286.5C208.952 286.5 209.865 287.519 209.865 289.053V293.498H208.714V289.265C208.714 288.173 208.165 287.519 207.087 287.519C205.943 287.519 205.236 288.299 205.236 289.49V293.498H204.085ZM213.595 292.638C214.68 292.638 215.513 291.877 215.513 290.885V290.323L213.675 290.435C212.749 290.495 212.22 290.905 212.22 291.553C212.22 292.208 212.769 292.638 213.595 292.638ZM213.337 293.617C211.968 293.617 211.049 292.79 211.049 291.553C211.049 290.376 211.955 289.635 213.542 289.543L215.513 289.43V288.855C215.513 288.015 214.958 287.512 214.005 287.512C213.119 287.512 212.564 287.929 212.418 288.603H211.307C211.386 287.413 212.405 286.5 214.032 286.5C215.646 286.5 216.664 287.373 216.664 288.742V293.498H215.573V292.314H215.546C215.136 293.101 214.263 293.617 213.337 293.617ZM218.126 293.498V286.619H219.21V287.744H219.237C219.462 286.983 220.097 286.5 220.904 286.5C221.102 286.5 221.274 286.533 221.367 286.547V287.664C221.274 287.631 221.029 287.598 220.751 287.598C219.859 287.598 219.277 288.24 219.277 289.212V293.498H218.126ZM224.773 292.539C225.97 292.539 226.77 291.547 226.77 290.032C226.77 288.517 225.97 287.512 224.773 287.512C223.589 287.512 222.815 288.491 222.815 290.032C222.815 291.573 223.589 292.539 224.773 292.539ZM224.812 296.09C223.298 296.09 222.101 295.237 221.909 294.066H223.093C223.318 294.695 223.999 295.111 224.859 295.111C226.049 295.111 226.77 294.423 226.77 293.398V292.314H226.744C226.32 293.061 225.507 293.55 224.541 293.55C222.788 293.55 221.638 292.168 221.638 290.032C221.638 287.876 222.788 286.5 224.568 286.5C225.54 286.5 226.347 286.976 226.803 287.777H226.823V286.619H227.921V293.359C227.921 294.999 226.71 296.09 224.812 296.09ZM232.18 287.499C231.102 287.499 230.348 288.326 230.275 289.47H234.012C233.986 288.319 233.265 287.499 232.18 287.499ZM233.986 291.527H235.117C234.918 292.73 233.754 293.617 232.253 293.617C230.282 293.617 229.085 292.248 229.085 290.085C229.085 287.949 230.302 286.5 232.2 286.5C234.058 286.5 235.203 287.849 235.203 289.933V290.369H230.269V290.435C230.269 291.752 231.042 292.618 232.279 292.618C233.152 292.618 233.794 292.175 233.986 291.527ZM236.367 293.498V286.619H237.451V287.744H237.478C237.703 286.983 238.337 286.5 239.144 286.5C239.343 286.5 239.515 286.533 239.607 286.547V287.664C239.515 287.631 239.27 287.598 238.992 287.598C238.099 287.598 237.517 288.24 237.517 289.212V293.498H236.367ZM248.972 286.619V293.498H247.881V292.38H247.855C247.445 293.173 246.73 293.617 245.672 293.617C244.171 293.617 243.291 292.644 243.291 291.084V286.619H244.442V290.879C244.442 291.996 244.964 292.598 246.029 292.598C247.147 292.598 247.822 291.831 247.822 290.66V286.619H248.972ZM250.467 293.498V286.619H251.552V287.717H251.578C251.962 286.976 252.696 286.5 253.761 286.5C255.269 286.5 256.142 287.472 256.142 289.033V293.498H254.991V289.238C254.991 288.127 254.468 287.519 253.41 287.519C252.326 287.519 251.618 288.286 251.618 289.45V293.498H250.467ZM262.993 293.617C261.241 293.617 260.05 292.214 260.05 290.058C260.05 287.902 261.234 286.5 262.967 286.5C263.952 286.5 264.746 286.983 265.156 287.737H265.183V283.954H266.333V293.498H265.236V292.334H265.216C264.773 293.127 263.986 293.617 262.993 293.617ZM263.212 287.512C261.995 287.512 261.228 288.504 261.228 290.058C261.228 291.619 261.995 292.605 263.212 292.605C264.396 292.605 265.189 291.599 265.189 290.058C265.189 288.524 264.396 287.512 263.212 287.512ZM270.738 293.617C268.833 293.617 267.55 292.248 267.55 290.058C267.55 287.863 268.833 286.5 270.738 286.5C272.636 286.5 273.919 287.863 273.919 290.058C273.919 292.248 272.636 293.617 270.738 293.617ZM270.738 292.605C271.955 292.605 272.749 291.679 272.749 290.058C272.749 288.438 271.955 287.512 270.738 287.512C269.521 287.512 268.721 288.438 268.721 290.058C268.721 291.679 269.521 292.605 270.738 292.605ZM280.798 288.875H279.673C279.508 288.127 278.926 287.512 277.914 287.512C276.724 287.512 275.917 288.498 275.917 290.058C275.917 291.659 276.737 292.605 277.927 292.605C278.867 292.605 279.482 292.109 279.68 291.282H280.811C280.632 292.651 279.482 293.617 277.921 293.617C276.016 293.617 274.746 292.274 274.746 290.058C274.746 287.889 276.009 286.5 277.908 286.5C279.627 286.5 280.652 287.638 280.798 288.875ZM287.517 286.619V293.498H286.426V292.38H286.4C285.99 293.173 285.275 293.617 284.217 293.617C282.716 293.617 281.836 292.644 281.836 291.084V286.619H282.987V290.879C282.987 291.996 283.509 292.598 284.574 292.598C285.692 292.598 286.367 291.831 286.367 290.66V286.619H287.517ZM289.012 293.498V286.619H290.097V287.717H290.123C290.447 286.99 291.148 286.5 292.074 286.5C293.013 286.5 293.708 286.976 294.005 287.81H294.032C294.415 286.99 295.222 286.5 296.188 286.5C297.55 286.5 298.43 287.386 298.43 288.749V293.498H297.279V289.013C297.279 288.074 296.757 287.519 295.851 287.519C294.938 287.519 294.296 288.193 294.296 289.126V293.498H293.146V288.888C293.146 288.061 292.59 287.519 291.737 287.519C290.824 287.519 290.163 288.233 290.163 289.185V293.498H289.012ZM302.656 287.499C301.578 287.499 300.824 288.326 300.751 289.47H304.488C304.462 288.319 303.741 287.499 302.656 287.499ZM304.462 291.527H305.593C305.394 292.73 304.23 293.617 302.729 293.617C300.758 293.617 299.561 292.248 299.561 290.085C299.561 287.949 300.778 286.5 302.676 286.5C304.535 286.5 305.679 287.849 305.679 289.933V290.369H300.745V290.435C300.745 291.752 301.519 292.618 302.755 292.618C303.628 292.618 304.27 292.175 304.462 291.527ZM306.843 293.498V286.619H307.927V287.717H307.954C308.337 286.976 309.072 286.5 310.136 286.5C311.644 286.5 312.517 287.472 312.517 289.033V293.498H311.367V289.238C311.367 288.127 310.844 287.519 309.786 287.519C308.701 287.519 307.993 288.286 307.993 289.45V293.498H306.843ZM314.356 284.959H315.507V286.619H316.843V287.565H315.507V291.652C315.507 292.281 315.771 292.565 316.36 292.565C316.492 292.565 316.757 292.545 316.836 292.532V293.498C316.697 293.531 316.38 293.55 316.109 293.55C314.845 293.55 314.356 293.035 314.356 291.712V287.565H313.331V286.619H314.356V284.959Z" fill="black"/>
<path d="M173.754 295.945H317.319V296.738H173.754V295.945Z" fill="black"/>
<rect x="0.88367" y="1.17469" width="489.312" height="449.524" rx="5.92593" stroke="black" stroke-width="1.69312" stroke-dasharray="6.77 6.77"/>
</svg>
