<svg width="171" height="81" viewBox="0 0 171 81" fill="none" xmlns="http://www.w3.org/2000/svg">
<path d="M11.7773 29.9688C5.95703 29.9688 2.1875 26.7266 1.81641 22.2734L1.79688 22.0391H5.17578L5.19531 22.2344C5.48828 25.0078 8.02734 26.9219 11.7773 26.9219C15.4688 26.9219 17.9883 24.8516 17.9883 21.8633V21.8242C17.9883 18.3672 15.5078 16.4336 11.5625 16.4336H8.02734V13.4648H11.4062C14.7656 13.4648 17.1094 11.3945 17.1094 8.58203V8.54297C17.1094 5.59375 15.1758 3.89453 11.7383 3.89453C8.41797 3.89453 6.05469 5.65234 5.76172 8.50391L5.74219 8.69922H2.36328L2.38281 8.50391C2.83203 3.91406 6.46484 0.847656 11.7383 0.847656C17.1094 0.847656 20.6445 3.83594 20.6445 8.11328V8.15234C20.6445 11.6289 18.1836 14.0117 14.668 14.7539V14.832C18.7695 15.1836 21.5625 17.7422 21.5625 21.7461V21.7852C21.5625 26.4922 17.4219 29.9688 11.7773 29.9688ZM27.5781 29.5L40.332 4.51953V4.44141H25.1562V1.31641H43.8086V4.57812L31.2695 29.5H27.5781ZM53.0273 15.2227C49.4727 15.2227 47.3242 12.5078 47.3242 8.15234V8.13281C47.3242 3.79688 49.4727 1.08203 53.0273 1.08203C56.582 1.08203 58.7305 3.79688 58.7305 8.13281V8.15234C58.7305 12.5078 56.582 15.2227 53.0273 15.2227ZM54.2969 29.5H51.0938L69.1797 1.31641H72.3438L54.2969 29.5ZM53.0273 12.8789C54.9219 12.8789 56.0156 11.1211 56.0156 8.15234V8.13281C56.0156 5.16406 54.9219 3.42578 53.0273 3.42578C51.1328 3.42578 50.0391 5.16406 50.0391 8.13281V8.15234C50.0391 11.1211 51.1328 12.8789 53.0273 12.8789ZM70.3906 29.7344C66.8359 29.7344 64.6875 27.0195 64.6875 22.6641V22.6445C64.6875 18.3086 66.8359 15.5938 70.3906 15.5938C73.9453 15.5938 76.0938 18.3086 76.0938 22.6445V22.6641C76.0938 27.0195 73.9453 29.7344 70.3906 29.7344ZM70.3906 27.3906C72.2852 27.3906 73.3789 25.6328 73.3789 22.6641V22.6445C73.3789 19.6758 72.2852 17.9375 70.3906 17.9375C68.4961 17.9375 67.4023 19.6758 67.4023 22.6445V22.6641C67.4023 25.6328 68.4961 27.3906 70.3906 27.3906Z" fill="#212429"/>
<path d="M85.1055 20.1855C84.1504 20.1855 83.4824 20.918 83.418 21.9316H86.7285C86.7051 20.9121 86.0664 20.1855 85.1055 20.1855ZM86.7051 23.7539H87.707C87.5312 24.8203 86.5 25.6055 85.1699 25.6055C83.4238 25.6055 82.3633 24.3926 82.3633 22.4766C82.3633 20.584 83.4414 19.3008 85.123 19.3008C86.7695 19.3008 87.7832 20.4961 87.7832 22.3418V22.7285H83.4121V22.7871C83.4121 23.9531 84.0977 24.7207 85.1934 24.7207C85.9668 24.7207 86.5352 24.3281 86.7051 23.7539ZM88.8145 25.5V19.4062H89.7754V20.3789H89.7988C90.1387 19.7227 90.7891 19.3008 91.7324 19.3008C93.0684 19.3008 93.8418 20.1621 93.8418 21.5449V25.5H92.8223V21.7266C92.8223 20.7422 92.3594 20.2031 91.4219 20.2031C90.4609 20.2031 89.834 20.8828 89.834 21.9141V25.5H88.8145ZM100.562 19.3008C102.115 19.3008 103.17 20.543 103.17 22.4531C103.17 24.3633 102.121 25.6055 100.586 25.6055C99.7129 25.6055 99.0098 25.1777 98.6465 24.5098H98.623V27.5332H97.6035V19.4062H98.5703V20.4375H98.5938C98.9688 19.752 99.6777 19.3008 100.562 19.3008ZM100.363 24.709C101.447 24.709 102.127 23.8359 102.127 22.4531C102.127 21.0762 101.447 20.1973 100.363 20.1973C99.3203 20.1973 98.6172 21.0996 98.6172 22.4531C98.6172 23.8125 99.3203 24.709 100.363 24.709ZM106.727 25.6055C105.039 25.6055 103.902 24.3926 103.902 22.4531C103.902 20.5078 105.039 19.3008 106.727 19.3008C108.408 19.3008 109.545 20.5078 109.545 22.4531C109.545 24.3926 108.408 25.6055 106.727 25.6055ZM106.727 24.709C107.805 24.709 108.508 23.8887 108.508 22.4531C108.508 21.0176 107.805 20.1973 106.727 20.1973C105.648 20.1973 104.939 21.0176 104.939 22.4531C104.939 23.8887 105.648 24.709 106.727 24.709ZM115.58 19.4062V25.5H114.613V24.5098H114.59C114.227 25.2129 113.594 25.6055 112.656 25.6055C111.326 25.6055 110.547 24.7441 110.547 23.3613V19.4062H111.566V23.1797C111.566 24.1699 112.029 24.7031 112.973 24.7031C113.963 24.7031 114.561 24.0234 114.561 22.9863V19.4062H115.58ZM116.904 25.5V19.4062H117.865V20.4023H117.889C118.088 19.7285 118.65 19.3008 119.365 19.3008C119.541 19.3008 119.693 19.3301 119.775 19.3418V20.332C119.693 20.3027 119.477 20.2734 119.23 20.2734C118.439 20.2734 117.924 20.8418 117.924 21.7031V25.5H116.904ZM125.377 21.4043H124.381C124.234 20.7422 123.719 20.1973 122.822 20.1973C121.768 20.1973 121.053 21.0703 121.053 22.4531C121.053 23.8711 121.779 24.709 122.834 24.709C123.666 24.709 124.211 24.2695 124.387 23.5371H125.389C125.23 24.75 124.211 25.6055 122.828 25.6055C121.141 25.6055 120.016 24.416 120.016 22.4531C120.016 20.5312 121.135 19.3008 122.816 19.3008C124.34 19.3008 125.248 20.3086 125.377 21.4043ZM128.77 20.1855C127.814 20.1855 127.146 20.918 127.082 21.9316H130.393C130.369 20.9121 129.73 20.1855 128.77 20.1855ZM130.369 23.7539H131.371C131.195 24.8203 130.164 25.6055 128.834 25.6055C127.088 25.6055 126.027 24.3926 126.027 22.4766C126.027 20.584 127.105 19.3008 128.787 19.3008C130.434 19.3008 131.447 20.4961 131.447 22.3418V22.7285H127.076V22.7871C127.076 23.9531 127.762 24.7207 128.857 24.7207C129.631 24.7207 130.199 24.3281 130.369 23.7539ZM132.479 25.5V19.4062H133.439V20.3789H133.463C133.803 19.7227 134.453 19.3008 135.396 19.3008C136.732 19.3008 137.506 20.1621 137.506 21.5449V25.5H136.486V21.7266C136.486 20.7422 136.023 20.2031 135.086 20.2031C134.125 20.2031 133.498 20.8828 133.498 21.9141V25.5H132.479ZM139.135 17.9355H140.154V19.4062H141.338V20.2441H140.154V23.8652C140.154 24.4219 140.389 24.6738 140.91 24.6738C141.027 24.6738 141.262 24.6562 141.332 24.6445V25.5C141.209 25.5293 140.928 25.5469 140.688 25.5469C139.568 25.5469 139.135 25.0898 139.135 23.918V20.2441H138.227V19.4062H139.135V17.9355ZM144.32 24.7383C145.281 24.7383 146.02 24.0645 146.02 23.1855V22.6875L144.391 22.7871C143.57 22.8398 143.102 23.2031 143.102 23.7773C143.102 24.3574 143.588 24.7383 144.32 24.7383ZM144.092 25.6055C142.879 25.6055 142.064 24.873 142.064 23.7773C142.064 22.7344 142.867 22.0781 144.273 21.9961L146.02 21.8965V21.3867C146.02 20.6426 145.527 20.1973 144.684 20.1973C143.898 20.1973 143.406 20.5664 143.277 21.1641H142.293C142.363 20.1094 143.266 19.3008 144.707 19.3008C146.137 19.3008 147.039 20.0742 147.039 21.2871V25.5H146.072V24.4512H146.049C145.686 25.1484 144.912 25.6055 144.092 25.6055ZM150.812 24.6504C151.873 24.6504 152.582 23.7715 152.582 22.4297C152.582 21.0879 151.873 20.1973 150.812 20.1973C149.764 20.1973 149.078 21.0645 149.078 22.4297C149.078 23.7949 149.764 24.6504 150.812 24.6504ZM150.848 27.7969C149.506 27.7969 148.445 27.041 148.275 26.0039H149.324C149.523 26.5605 150.127 26.9297 150.889 26.9297C151.943 26.9297 152.582 26.3203 152.582 25.4121V24.4512H152.559C152.184 25.1133 151.463 25.5469 150.607 25.5469C149.055 25.5469 148.035 24.3223 148.035 22.4297C148.035 20.5195 149.055 19.3008 150.631 19.3008C151.492 19.3008 152.207 19.7227 152.611 20.4316H152.629V19.4062H153.602V25.377C153.602 26.8301 152.529 27.7969 150.848 27.7969ZM157.375 20.1855C156.42 20.1855 155.752 20.918 155.688 21.9316H158.998C158.975 20.9121 158.336 20.1855 157.375 20.1855ZM158.975 23.7539H159.977C159.801 24.8203 158.77 25.6055 157.439 25.6055C155.693 25.6055 154.633 24.3926 154.633 22.4766C154.633 20.584 155.711 19.3008 157.393 19.3008C159.039 19.3008 160.053 20.4961 160.053 22.3418V22.7285H155.682V22.7871C155.682 23.9531 156.367 24.7207 157.463 24.7207C158.236 24.7207 158.805 24.3281 158.975 23.7539Z" fill="#237BFF"/>
<path d="M0.820312 40.0449H3.66211C6.16992 40.0449 7.65234 41.6094 7.65234 44.2695C7.65234 46.9355 6.17578 48.5 3.66211 48.5H0.820312V40.0449ZM1.875 40.9941V47.5508H3.5918C5.50781 47.5508 6.57422 46.3789 6.57422 44.2812C6.57422 42.166 5.51367 40.9941 3.5918 40.9941H1.875ZM11.25 43.1855C10.2949 43.1855 9.62695 43.918 9.5625 44.9316H12.873C12.8496 43.9121 12.2109 43.1855 11.25 43.1855ZM12.8496 46.7539H13.8516C13.6758 47.8203 12.6445 48.6055 11.3145 48.6055C9.56836 48.6055 8.50781 47.3926 8.50781 45.4766C8.50781 43.584 9.58594 42.3008 11.2676 42.3008C12.9141 42.3008 13.9277 43.4961 13.9277 45.3418V45.7285H9.55664V45.7871C9.55664 46.9531 10.2422 47.7207 11.3379 47.7207C12.1113 47.7207 12.6797 47.3281 12.8496 46.7539ZM14.8535 44.0879C14.8535 43.0449 15.7852 42.3008 17.127 42.3008C18.3867 42.3008 19.3125 43.0508 19.3594 44.082H18.3867C18.3164 43.4961 17.8418 43.1328 17.0918 43.1328C16.3477 43.1328 15.8555 43.502 15.8555 44.0352C15.8555 44.457 16.1777 44.7383 16.8691 44.9141L17.8125 45.1426C19.043 45.4531 19.4883 45.8984 19.4883 46.7949C19.4883 47.8555 18.4863 48.6055 17.0625 48.6055C15.7266 48.6055 14.7949 47.8789 14.6895 46.8008H15.709C15.8203 47.4336 16.3008 47.7734 17.127 47.7734C17.9531 47.7734 18.4629 47.4219 18.4629 46.8711C18.4629 46.4375 18.2109 46.2031 17.5254 46.0215L16.4531 45.7461C15.3809 45.4707 14.8535 44.9199 14.8535 44.0879ZM23.0098 48.5V42.4062H23.9707V43.3789H23.9941C24.2812 42.7344 24.9023 42.3008 25.7227 42.3008C26.5547 42.3008 27.1699 42.7227 27.4336 43.4609H27.457C27.7969 42.7344 28.5117 42.3008 29.3672 42.3008C30.5742 42.3008 31.3535 43.0859 31.3535 44.293V48.5H30.334V44.5273C30.334 43.6953 29.8711 43.2031 29.0684 43.2031C28.2598 43.2031 27.6914 43.8008 27.6914 44.627V48.5H26.6719V44.416C26.6719 43.6836 26.1797 43.2031 25.4238 43.2031C24.6152 43.2031 24.0293 43.8359 24.0293 44.6797V48.5H23.0098ZM35.1797 48.6055C33.4922 48.6055 32.3555 47.3926 32.3555 45.4531C32.3555 43.5078 33.4922 42.3008 35.1797 42.3008C36.8613 42.3008 37.998 43.5078 37.998 45.4531C37.998 47.3926 36.8613 48.6055 35.1797 48.6055ZM35.1797 47.709C36.2578 47.709 36.9609 46.8887 36.9609 45.4531C36.9609 44.0176 36.2578 43.1973 35.1797 43.1973C34.1016 43.1973 33.3926 44.0176 33.3926 45.4531C33.3926 46.8887 34.1016 47.709 35.1797 47.709ZM39.082 48.5V42.4062H40.1016V48.5H39.082ZM39.5918 41.3809C39.2461 41.3809 38.959 41.0938 38.959 40.748C38.959 40.3965 39.2461 40.1152 39.5918 40.1152C39.9434 40.1152 40.2305 40.3965 40.2305 40.748C40.2305 41.0938 39.9434 41.3809 39.5918 41.3809ZM41.4785 48.5V42.4062H42.4395V43.3789H42.4629C42.8027 42.7227 43.4531 42.3008 44.3965 42.3008C45.7324 42.3008 46.5059 43.1621 46.5059 44.5449V48.5H45.4863V44.7266C45.4863 43.7422 45.0234 43.2031 44.0859 43.2031C43.125 43.2031 42.498 43.8828 42.498 44.9141V48.5H41.4785ZM47.7012 44.0879C47.7012 43.0449 48.6328 42.3008 49.9746 42.3008C51.2344 42.3008 52.1602 43.0508 52.207 44.082H51.2344C51.1641 43.4961 50.6895 43.1328 49.9395 43.1328C49.1953 43.1328 48.7031 43.502 48.7031 44.0352C48.7031 44.457 49.0254 44.7383 49.7168 44.9141L50.6602 45.1426C51.8906 45.4531 52.3359 45.8984 52.3359 46.7949C52.3359 47.8555 51.334 48.6055 49.9102 48.6055C48.5742 48.6055 47.6426 47.8789 47.5371 46.8008H48.5566C48.668 47.4336 49.1484 47.7734 49.9746 47.7734C50.8008 47.7734 51.3105 47.4219 51.3105 46.8711C51.3105 46.4375 51.0586 46.2031 50.373 46.0215L49.3008 45.7461C48.2285 45.4707 47.7012 44.9199 47.7012 44.0879ZM58.166 48.6055C56.6133 48.6055 55.5586 47.3633 55.5586 45.4531C55.5586 43.543 56.6074 42.3008 58.1426 42.3008C59.0156 42.3008 59.7188 42.7285 60.082 43.3965H60.1055V40.0449H61.125V48.5H60.1523V47.4688H60.1348C59.7422 48.1719 59.0449 48.6055 58.166 48.6055ZM58.3594 43.1973C57.2812 43.1973 56.6016 44.0762 56.6016 45.4531C56.6016 46.8359 57.2812 47.709 58.3594 47.709C59.4082 47.709 60.1113 46.8184 60.1113 45.4531C60.1113 44.0938 59.4082 43.1973 58.3594 43.1973ZM64.9453 43.1855C63.9902 43.1855 63.3223 43.918 63.2578 44.9316H66.5684C66.5449 43.9121 65.9062 43.1855 64.9453 43.1855ZM66.5449 46.7539H67.5469C67.3711 47.8203 66.3398 48.6055 65.0098 48.6055C63.2637 48.6055 62.2031 47.3926 62.2031 45.4766C62.2031 43.584 63.2812 42.3008 64.9629 42.3008C66.6094 42.3008 67.623 43.4961 67.623 45.3418V45.7285H63.252V45.7871C63.252 46.9531 63.9375 47.7207 65.0332 47.7207C65.8066 47.7207 66.375 47.3281 66.5449 46.7539ZM73.2949 48.5V41.1641H73.2715L71.0332 42.7754V41.6621L73.2832 40.0449H74.3145V48.5H73.2949ZM79.3652 48.6406C77.748 48.6406 76.5527 47.6328 76.4648 46.1914H77.502C77.5957 47.0938 78.3633 47.7148 79.377 47.7148C80.5254 47.7148 81.3223 46.918 81.3223 45.7812C81.3223 44.6445 80.5195 43.8301 79.3945 43.8301C78.6035 43.8301 77.9297 44.1875 77.584 44.7793H76.5938L77.0566 40.0449H81.8965V40.9824H77.9238L77.666 43.7363H77.6895C78.0703 43.2266 78.7734 42.9219 79.582 42.9219C81.2051 42.9219 82.377 44.1113 82.377 45.752C82.377 47.4512 81.1289 48.6406 79.3652 48.6406ZM87.9258 47.7383C88.8867 47.7383 89.625 47.0645 89.625 46.1855V45.6875L87.9961 45.7871C87.1758 45.8398 86.707 46.2031 86.707 46.7773C86.707 47.3574 87.1934 47.7383 87.9258 47.7383ZM87.6973 48.6055C86.4844 48.6055 85.6699 47.873 85.6699 46.7773C85.6699 45.7344 86.4727 45.0781 87.8789 44.9961L89.625 44.8965V44.3867C89.625 43.6426 89.1328 43.1973 88.2891 43.1973C87.5039 43.1973 87.0117 43.5664 86.8828 44.1641H85.8984C85.9688 43.1094 86.8711 42.3008 88.3125 42.3008C89.7422 42.3008 90.6445 43.0742 90.6445 44.2871V48.5H89.6777V47.4512H89.6543C89.291 48.1484 88.5176 48.6055 87.6973 48.6055ZM91.9395 48.5V42.4062H92.9004V43.3789H92.9238C93.2637 42.7227 93.9141 42.3008 94.8574 42.3008C96.1934 42.3008 96.9668 43.1621 96.9668 44.5449V48.5H95.9473V44.7266C95.9473 43.7422 95.4844 43.2031 94.5469 43.2031C93.5859 43.2031 92.959 43.8828 92.959 44.9141V48.5H91.9395ZM98.1621 44.0879C98.1621 43.0449 99.0938 42.3008 100.436 42.3008C101.695 42.3008 102.621 43.0508 102.668 44.082H101.695C101.625 43.4961 101.15 43.1328 100.4 43.1328C99.6562 43.1328 99.1641 43.502 99.1641 44.0352C99.1641 44.457 99.4863 44.7383 100.178 44.9141L101.121 45.1426C102.352 45.4531 102.797 45.8984 102.797 46.7949C102.797 47.8555 101.795 48.6055 100.371 48.6055C99.0352 48.6055 98.1035 47.8789 97.998 46.8008H99.0176C99.1289 47.4336 99.6094 47.7734 100.436 47.7734C101.262 47.7734 101.771 47.4219 101.771 46.8711C101.771 46.4375 101.52 46.2031 100.834 46.0215L99.7617 45.7461C98.6895 45.4707 98.1621 44.9199 98.1621 44.0879ZM108.844 48.6055C107.156 48.6055 106.02 47.3926 106.02 45.4531C106.02 43.5078 107.156 42.3008 108.844 42.3008C110.525 42.3008 111.662 43.5078 111.662 45.4531C111.662 47.3926 110.525 48.6055 108.844 48.6055ZM108.844 47.709C109.922 47.709 110.625 46.8887 110.625 45.4531C110.625 44.0176 109.922 43.1973 108.844 43.1973C107.766 43.1973 107.057 44.0176 107.057 45.4531C107.057 46.8887 107.766 47.709 108.844 47.709ZM112.693 48.5V42.4062H113.654V43.3789H113.678C114.018 42.7227 114.668 42.3008 115.611 42.3008C116.947 42.3008 117.721 43.1621 117.721 44.5449V48.5H116.701V44.7266C116.701 43.7422 116.238 43.2031 115.301 43.2031C114.34 43.2031 113.713 43.8828 113.713 44.9141V48.5H112.693ZM119.35 40.9355H120.369V42.4062H121.553V43.2441H120.369V46.8652C120.369 47.4219 120.604 47.6738 121.125 47.6738C121.242 47.6738 121.477 47.6562 121.547 47.6445V48.5C121.424 48.5293 121.143 48.5469 120.902 48.5469C119.783 48.5469 119.35 48.0898 119.35 46.918V43.2441H118.441V42.4062H119.35V40.9355ZM124.998 44.0879C124.998 43.0449 125.93 42.3008 127.271 42.3008C128.531 42.3008 129.457 43.0508 129.504 44.082H128.531C128.461 43.4961 127.986 43.1328 127.236 43.1328C126.492 43.1328 126 43.502 126 44.0352C126 44.457 126.322 44.7383 127.014 44.9141L127.957 45.1426C129.188 45.4531 129.633 45.8984 129.633 46.7949C129.633 47.8555 128.631 48.6055 127.207 48.6055C125.871 48.6055 124.939 47.8789 124.834 46.8008H125.854C125.965 47.4336 126.445 47.7734 127.271 47.7734C128.098 47.7734 128.607 47.4219 128.607 46.8711C128.607 46.4375 128.355 46.2031 127.67 46.0215L126.598 45.7461C125.525 45.4707 124.998 44.9199 124.998 44.0879ZM135.697 42.4062V48.5H134.73V47.5098H134.707C134.344 48.2129 133.711 48.6055 132.773 48.6055C131.443 48.6055 130.664 47.7441 130.664 46.3613V42.4062H131.684V46.1797C131.684 47.1699 132.146 47.7031 133.09 47.7031C134.08 47.7031 134.678 47.0234 134.678 45.9863V42.4062H135.697ZM140.051 48.6055C139.16 48.6055 138.463 48.1719 138.07 47.4688H138.047V48.5H137.074V40.0449H138.094V43.4258H138.117C138.498 42.7285 139.207 42.3008 140.068 42.3008C141.604 42.3008 142.641 43.543 142.641 45.4531C142.641 47.3691 141.609 48.6055 140.051 48.6055ZM139.852 43.1973C138.82 43.1973 138.088 44.0996 138.088 45.4531C138.088 46.8125 138.82 47.709 139.852 47.709C140.93 47.709 141.598 46.8477 141.598 45.4531C141.598 44.0703 140.93 43.1973 139.852 43.1973ZM143.73 48.5V42.4062H144.75V48.5H143.73ZM144.24 41.3809C143.895 41.3809 143.607 41.0938 143.607 40.748C143.607 40.3965 143.895 40.1152 144.24 40.1152C144.592 40.1152 144.879 40.3965 144.879 40.748C144.879 41.0938 144.592 41.3809 144.24 41.3809ZM150.896 48.6055C149.344 48.6055 148.289 47.3633 148.289 45.4531C148.289 43.543 149.338 42.3008 150.873 42.3008C151.746 42.3008 152.449 42.7285 152.812 43.3965H152.836V40.0449H153.855V48.5H152.883V47.4688H152.865C152.473 48.1719 151.775 48.6055 150.896 48.6055ZM151.09 43.1973C150.012 43.1973 149.332 44.0762 149.332 45.4531C149.332 46.8359 150.012 47.709 151.09 47.709C152.139 47.709 152.842 46.8184 152.842 45.4531C152.842 44.0938 152.139 43.1973 151.09 43.1973ZM160.236 42.4062V48.5H159.27V47.5098H159.246C158.883 48.2129 158.25 48.6055 157.312 48.6055C155.982 48.6055 155.203 47.7441 155.203 46.3613V42.4062H156.223V46.1797C156.223 47.1699 156.686 47.7031 157.629 47.7031C158.619 47.7031 159.217 47.0234 159.217 45.9863V42.4062H160.236ZM0.714844 63.5V55.0449H1.73438V58.3789H1.75781C2.09766 57.6992 2.76562 57.3008 3.69141 57.3008C5.02734 57.3008 5.83594 58.2031 5.83594 59.5625V63.5H4.81641V59.75C4.81641 58.7832 4.33008 58.2031 3.375 58.2031C2.36133 58.2031 1.73438 58.8945 1.73438 59.9492V63.5H0.714844ZM9.14062 62.7383C10.1016 62.7383 10.8398 62.0645 10.8398 61.1855V60.6875L9.21094 60.7871C8.39062 60.8398 7.92188 61.2031 7.92188 61.7773C7.92188 62.3574 8.4082 62.7383 9.14062 62.7383ZM8.91211 63.6055C7.69922 63.6055 6.88477 62.873 6.88477 61.7773C6.88477 60.7344 7.6875 60.0781 9.09375 59.9961L10.8398 59.8965V59.3867C10.8398 58.6426 10.3477 58.1973 9.50391 58.1973C8.71875 58.1973 8.22656 58.5664 8.09766 59.1641H7.11328C7.18359 58.1094 8.08594 57.3008 9.52734 57.3008C10.957 57.3008 11.8594 58.0742 11.8594 59.2871V63.5H10.8926V62.4512H10.8691C10.5059 63.1484 9.73242 63.6055 8.91211 63.6055ZM13.1543 63.5V57.4062H14.1152V58.4023H14.1387C14.3379 57.7285 14.9004 57.3008 15.6152 57.3008C15.791 57.3008 15.9434 57.3301 16.0254 57.3418V58.332C15.9434 58.3027 15.7266 58.2734 15.4805 58.2734C14.6895 58.2734 14.1738 58.8418 14.1738 59.7031V63.5H13.1543ZM21.627 59.4043H20.6309C20.4844 58.7422 19.9688 58.1973 19.0723 58.1973C18.0176 58.1973 17.3027 59.0703 17.3027 60.4531C17.3027 61.8711 18.0293 62.709 19.084 62.709C19.916 62.709 20.4609 62.2695 20.6367 61.5371H21.6387C21.4805 62.75 20.4609 63.6055 19.0781 63.6055C17.3906 63.6055 16.2656 62.416 16.2656 60.4531C16.2656 58.5312 17.3848 57.3008 19.0664 57.3008C20.5898 57.3008 21.498 58.3086 21.627 59.4043ZM25.0195 58.1855C24.0645 58.1855 23.3965 58.918 23.332 59.9316H26.6426C26.6191 58.9121 25.9805 58.1855 25.0195 58.1855ZM26.6191 61.7539H27.6211C27.4453 62.8203 26.4141 63.6055 25.084 63.6055C23.3379 63.6055 22.2773 62.3926 22.2773 60.4766C22.2773 58.584 23.3555 57.3008 25.0371 57.3008C26.6836 57.3008 27.6973 58.4961 27.6973 60.3418V60.7285H23.3262V60.7871C23.3262 61.9531 24.0117 62.7207 25.1074 62.7207C25.8809 62.7207 26.4492 62.3281 26.6191 61.7539ZM25.4121 56.5273H24.5215L23.0801 54.7695H24.1816L25.4121 56.5273ZM28.7812 63.5V55.0449H29.8008V63.5H28.7812ZM33.6211 58.1855C32.666 58.1855 31.998 58.918 31.9336 59.9316H35.2441C35.2207 58.9121 34.582 58.1855 33.6211 58.1855ZM35.2207 61.7539H36.2227C36.0469 62.8203 35.0156 63.6055 33.6855 63.6055C31.9395 63.6055 30.8789 62.3926 30.8789 60.4766C30.8789 58.584 31.957 57.3008 33.6387 57.3008C35.2852 57.3008 36.2988 58.4961 36.2988 60.3418V60.7285H31.9277V60.7871C31.9277 61.9531 32.6133 62.7207 33.709 62.7207C34.4824 62.7207 35.0508 62.3281 35.2207 61.7539ZM37.3301 63.5V57.4062H38.291V58.3789H38.3145C38.6016 57.7344 39.2227 57.3008 40.043 57.3008C40.875 57.3008 41.4902 57.7227 41.7539 58.4609H41.7773C42.1172 57.7344 42.832 57.3008 43.6875 57.3008C44.8945 57.3008 45.6738 58.0859 45.6738 59.293V63.5H44.6543V59.5273C44.6543 58.6953 44.1914 58.2031 43.3887 58.2031C42.5801 58.2031 42.0117 58.8008 42.0117 59.627V63.5H40.9922V59.416C40.9922 58.6836 40.5 58.2031 39.7441 58.2031C38.9355 58.2031 38.3496 58.8359 38.3496 59.6797V63.5H37.3301ZM49.418 58.1855C48.4629 58.1855 47.7949 58.918 47.7305 59.9316H51.041C51.0176 58.9121 50.3789 58.1855 49.418 58.1855ZM51.0176 61.7539H52.0195C51.8438 62.8203 50.8125 63.6055 49.4824 63.6055C47.7363 63.6055 46.6758 62.3926 46.6758 60.4766C46.6758 58.584 47.7539 57.3008 49.4355 57.3008C51.082 57.3008 52.0957 58.4961 52.0957 60.3418V60.7285H47.7246V60.7871C47.7246 61.9531 48.4102 62.7207 49.5059 62.7207C50.2793 62.7207 50.8477 62.3281 51.0176 61.7539ZM53.127 63.5V57.4062H54.0879V58.3789H54.1113C54.4512 57.7227 55.1016 57.3008 56.0449 57.3008C57.3809 57.3008 58.1543 58.1621 58.1543 59.5449V63.5H57.1348V59.7266C57.1348 58.7422 56.6719 58.2031 55.7344 58.2031C54.7734 58.2031 54.1465 58.8828 54.1465 59.9141V63.5H53.127ZM59.7832 55.9355H60.8027V57.4062H61.9863V58.2441H60.8027V61.8652C60.8027 62.4219 61.0371 62.6738 61.5586 62.6738C61.6758 62.6738 61.9102 62.6562 61.9805 62.6445V63.5C61.8574 63.5293 61.5762 63.5469 61.3359 63.5469C60.2168 63.5469 59.7832 63.0898 59.7832 61.918V58.2441H58.875V57.4062H59.7832V55.9355ZM65.4316 59.0879C65.4316 58.0449 66.3633 57.3008 67.7051 57.3008C68.9648 57.3008 69.8906 58.0508 69.9375 59.082H68.9648C68.8945 58.4961 68.4199 58.1328 67.6699 58.1328C66.9258 58.1328 66.4336 58.502 66.4336 59.0352C66.4336 59.457 66.7559 59.7383 67.4473 59.9141L68.3906 60.1426C69.6211 60.4531 70.0664 60.8984 70.0664 61.7949C70.0664 62.8555 69.0645 63.6055 67.6406 63.6055C66.3047 63.6055 65.373 62.8789 65.2676 61.8008H66.2871C66.3984 62.4336 66.8789 62.7734 67.7051 62.7734C68.5312 62.7734 69.041 62.4219 69.041 61.8711C69.041 61.4375 68.7891 61.2031 68.1035 61.0215L67.0312 60.7461C65.959 60.4707 65.4316 59.9199 65.4316 59.0879ZM76.1309 57.4062V63.5H75.1641V62.5098H75.1406C74.7773 63.2129 74.1445 63.6055 73.207 63.6055C71.877 63.6055 71.0977 62.7441 71.0977 61.3613V57.4062H72.1172V61.1797C72.1172 62.1699 72.5801 62.7031 73.5234 62.7031C74.5137 62.7031 75.1113 62.0234 75.1113 60.9863V57.4062H76.1309ZM77.4551 63.5V57.4062H78.416V58.4023H78.4395C78.6387 57.7285 79.2012 57.3008 79.916 57.3008C80.0918 57.3008 80.2441 57.3301 80.3262 57.3418V58.332C80.2441 58.3027 80.0273 58.2734 79.7812 58.2734C78.9902 58.2734 78.4746 58.8418 78.4746 59.7031V63.5H77.4551ZM83.6719 63.5V55.0449H84.6914V63.5H83.6719ZM88.5117 58.1855C87.5566 58.1855 86.8887 58.918 86.8242 59.9316H90.1348C90.1113 58.9121 89.4727 58.1855 88.5117 58.1855ZM90.1113 61.7539H91.1133C90.9375 62.8203 89.9062 63.6055 88.5762 63.6055C86.8301 63.6055 85.7695 62.3926 85.7695 60.4766C85.7695 58.584 86.8477 57.3008 88.5293 57.3008C90.1758 57.3008 91.1895 58.4961 91.1895 60.3418V60.7285H86.8184V60.7871C86.8184 61.9531 87.5039 62.7207 88.5996 62.7207C89.373 62.7207 89.9414 62.3281 90.1113 61.7539ZM92.1152 59.0879C92.1152 58.0449 93.0469 57.3008 94.3887 57.3008C95.6484 57.3008 96.5742 58.0508 96.6211 59.082H95.6484C95.5781 58.4961 95.1035 58.1328 94.3535 58.1328C93.6094 58.1328 93.1172 58.502 93.1172 59.0352C93.1172 59.457 93.4395 59.7383 94.1309 59.9141L95.0742 60.1426C96.3047 60.4531 96.75 60.8984 96.75 61.7949C96.75 62.8555 95.748 63.6055 94.3242 63.6055C92.9883 63.6055 92.0566 62.8789 91.9512 61.8008H92.9707C93.082 62.4336 93.5625 62.7734 94.3887 62.7734C95.2148 62.7734 95.7246 62.4219 95.7246 61.8711C95.7246 61.4375 95.4727 61.2031 94.7871 61.0215L93.7148 60.7461C92.6426 60.4707 92.1152 59.9199 92.1152 59.0879ZM103.23 57.3008C104.783 57.3008 105.838 58.543 105.838 60.4531C105.838 62.3633 104.789 63.6055 103.254 63.6055C102.381 63.6055 101.678 63.1777 101.314 62.5098H101.291V65.5332H100.271V57.4062H101.238V58.4375H101.262C101.637 57.752 102.346 57.3008 103.23 57.3008ZM103.031 62.709C104.115 62.709 104.795 61.8359 104.795 60.4531C104.795 59.0762 104.115 58.1973 103.031 58.1973C101.988 58.1973 101.285 59.0996 101.285 60.4531C101.285 61.8125 101.988 62.709 103.031 62.709ZM106.922 63.5V55.0449H107.941V63.5H106.922ZM111.328 62.7383C112.289 62.7383 113.027 62.0645 113.027 61.1855V60.6875L111.398 60.7871C110.578 60.8398 110.109 61.2031 110.109 61.7773C110.109 62.3574 110.596 62.7383 111.328 62.7383ZM111.1 63.6055C109.887 63.6055 109.072 62.873 109.072 61.7773C109.072 60.7344 109.875 60.0781 111.281 59.9961L113.027 59.8965V59.3867C113.027 58.6426 112.535 58.1973 111.691 58.1973C110.906 58.1973 110.414 58.5664 110.285 59.1641H109.301C109.371 58.1094 110.273 57.3008 111.715 57.3008C113.145 57.3008 114.047 58.0742 114.047 59.2871V63.5H113.08V62.4512H113.057C112.693 63.1484 111.92 63.6055 111.1 63.6055ZM115.67 55.9355H116.689V57.4062H117.873V58.2441H116.689V61.8652C116.689 62.4219 116.924 62.6738 117.445 62.6738C117.562 62.6738 117.797 62.6562 117.867 62.6445V63.5C117.744 63.5293 117.463 63.5469 117.223 63.5469C116.104 63.5469 115.67 63.0898 115.67 61.918V58.2441H114.762V57.4062H115.67V55.9355ZM121.23 58.1855C120.275 58.1855 119.607 58.918 119.543 59.9316H122.854C122.83 58.9121 122.191 58.1855 121.23 58.1855ZM122.83 61.7539H123.832C123.656 62.8203 122.625 63.6055 121.295 63.6055C119.549 63.6055 118.488 62.3926 118.488 60.4766C118.488 58.584 119.566 57.3008 121.248 57.3008C122.895 57.3008 123.908 58.4961 123.908 60.3418V60.7285H119.537V60.7871C119.537 61.9531 120.223 62.7207 121.318 62.7207C122.092 62.7207 122.66 62.3281 122.83 61.7539ZM125.268 63.5V58.2441H124.418V57.4062H125.268V56.7266C125.268 55.5547 125.812 54.998 126.938 54.998C127.166 54.998 127.412 55.0215 127.559 55.0449V55.8711C127.436 55.8535 127.266 55.8359 127.096 55.8359C126.545 55.8359 126.281 56.1289 126.281 56.7324V57.4062H127.529V58.2441H126.287V63.5H125.268ZM130.816 63.6055C129.129 63.6055 127.992 62.3926 127.992 60.4531C127.992 58.5078 129.129 57.3008 130.816 57.3008C132.498 57.3008 133.635 58.5078 133.635 60.4531C133.635 62.3926 132.498 63.6055 130.816 63.6055ZM130.816 62.709C131.895 62.709 132.598 61.8887 132.598 60.4531C132.598 59.0176 131.895 58.1973 130.816 58.1973C129.738 58.1973 129.029 59.0176 129.029 60.4531C129.029 61.8887 129.738 62.709 130.816 62.709ZM134.666 63.5V57.4062H135.627V58.4023H135.65C135.85 57.7285 136.412 57.3008 137.127 57.3008C137.303 57.3008 137.455 57.3301 137.537 57.3418V58.332C137.455 58.3027 137.238 58.2734 136.992 58.2734C136.201 58.2734 135.686 58.8418 135.686 59.7031V63.5H134.666ZM138.369 63.5V57.4062H139.33V58.3789H139.354C139.641 57.7344 140.262 57.3008 141.082 57.3008C141.914 57.3008 142.529 57.7227 142.793 58.4609H142.816C143.156 57.7344 143.871 57.3008 144.727 57.3008C145.934 57.3008 146.713 58.0859 146.713 59.293V63.5H145.693V59.5273C145.693 58.6953 145.23 58.2031 144.428 58.2031C143.619 58.2031 143.051 58.8008 143.051 59.627V63.5H142.031V59.416C142.031 58.6836 141.539 58.2031 140.783 58.2031C139.975 58.2031 139.389 58.8359 139.389 59.6797V63.5H138.369ZM150.457 58.1855C149.502 58.1855 148.834 58.918 148.77 59.9316H152.08C152.057 58.9121 151.418 58.1855 150.457 58.1855ZM152.057 61.7539H153.059C152.883 62.8203 151.852 63.6055 150.521 63.6055C148.775 63.6055 147.715 62.3926 147.715 60.4766C147.715 58.584 148.793 57.3008 150.475 57.3008C152.121 57.3008 153.135 58.4961 153.135 60.3418V60.7285H148.764V60.7871C148.764 61.9531 149.449 62.7207 150.545 62.7207C151.318 62.7207 151.887 62.3281 152.057 61.7539ZM2.9707 77.6055C1.41797 77.6055 0.363281 76.3633 0.363281 74.4531C0.363281 72.543 1.41211 71.3008 2.94727 71.3008C3.82031 71.3008 4.52344 71.7285 4.88672 72.3965H4.91016V69.0449H5.92969V77.5H4.95703V76.4688H4.93945C4.54688 77.1719 3.84961 77.6055 2.9707 77.6055ZM3.16406 72.1973C2.08594 72.1973 1.40625 73.0762 1.40625 74.4531C1.40625 75.8359 2.08594 76.709 3.16406 76.709C4.21289 76.709 4.91602 75.8184 4.91602 74.4531C4.91602 73.0938 4.21289 72.1973 3.16406 72.1973ZM7.35938 77.5V71.4062H8.37891V77.5H7.35938ZM7.86914 70.3809C7.52344 70.3809 7.23633 70.0938 7.23633 69.748C7.23633 69.3965 7.52344 69.1152 7.86914 69.1152C8.2207 69.1152 8.50781 69.3965 8.50781 69.748C8.50781 70.0938 8.2207 70.3809 7.86914 70.3809ZM12.2344 76.6504C13.2949 76.6504 14.0039 75.7715 14.0039 74.4297C14.0039 73.0879 13.2949 72.1973 12.2344 72.1973C11.1855 72.1973 10.5 73.0645 10.5 74.4297C10.5 75.7949 11.1855 76.6504 12.2344 76.6504ZM12.2695 79.7969C10.9277 79.7969 9.86719 79.041 9.69727 78.0039H10.7461C10.9453 78.5605 11.5488 78.9297 12.3105 78.9297C13.3652 78.9297 14.0039 78.3203 14.0039 77.4121V76.4512H13.9805C13.6055 77.1133 12.8848 77.5469 12.0293 77.5469C10.4766 77.5469 9.45703 76.3223 9.45703 74.4297C9.45703 72.5195 10.4766 71.3008 12.0527 71.3008C12.9141 71.3008 13.6289 71.7227 14.0332 72.4316H14.0508V71.4062H15.0234V77.377C15.0234 78.8301 13.9512 79.7969 12.2695 79.7969ZM16.4062 77.5V71.4062H17.4258V77.5H16.4062ZM16.916 70.3809C16.5703 70.3809 16.2832 70.0938 16.2832 69.748C16.2832 69.3965 16.5703 69.1152 16.916 69.1152C17.2676 69.1152 17.5547 69.3965 17.5547 69.748C17.5547 70.0938 17.2676 70.3809 16.916 70.3809ZM19.1309 69.9355H20.1504V71.4062H21.334V72.2441H20.1504V75.8652C20.1504 76.4219 20.3848 76.6738 20.9062 76.6738C21.0234 76.6738 21.2578 76.6562 21.3281 76.6445V77.5C21.2051 77.5293 20.9238 77.5469 20.6836 77.5469C19.5645 77.5469 19.1309 77.0898 19.1309 75.918V72.2441H18.2227V71.4062H19.1309V69.9355ZM24.3164 76.7383C25.2773 76.7383 26.0156 76.0645 26.0156 75.1855V74.6875L24.3867 74.7871C23.5664 74.8398 23.0977 75.2031 23.0977 75.7773C23.0977 76.3574 23.584 76.7383 24.3164 76.7383ZM24.0879 77.6055C22.875 77.6055 22.0605 76.873 22.0605 75.7773C22.0605 74.7344 22.8633 74.0781 24.2695 73.9961L26.0156 73.8965V73.3867C26.0156 72.6426 25.5234 72.1973 24.6797 72.1973C23.8945 72.1973 23.4023 72.5664 23.2734 73.1641H22.2891C22.3594 72.1094 23.2617 71.3008 24.7031 71.3008C26.1328 71.3008 27.0352 72.0742 27.0352 73.2871V77.5H26.0684V76.4512H26.0449C25.6816 77.1484 24.9082 77.6055 24.0879 77.6055ZM28.3828 77.5V69.0449H29.4023V77.5H28.3828ZM33.2227 72.1855C32.2676 72.1855 31.5996 72.918 31.5352 73.9316H34.8457C34.8223 72.9121 34.1836 72.1855 33.2227 72.1855ZM34.8223 75.7539H35.8242C35.6484 76.8203 34.6172 77.6055 33.2871 77.6055C31.541 77.6055 30.4805 76.3926 30.4805 74.4766C30.4805 72.584 31.5586 71.3008 33.2402 71.3008C34.8867 71.3008 35.9004 72.4961 35.9004 74.3418V74.7285H31.5293V74.7871C31.5293 75.9531 32.2148 76.7207 33.3105 76.7207C34.084 76.7207 34.6523 76.3281 34.8223 75.7539ZM37.793 77.5586C37.418 77.5586 37.125 77.2656 37.125 76.8906C37.125 76.5156 37.418 76.2227 37.793 76.2227C38.168 76.2227 38.4609 76.5156 38.4609 76.8906C38.4609 77.2656 38.168 77.5586 37.793 77.5586Z" fill="#01083B"/>
</svg>
