<svg width="171" height="67" viewBox="0 0 171 67" fill="none" xmlns="http://www.w3.org/2000/svg">
<path d="M15.6836 29.5V23.6406H1.52344V20.457L13.8867 1.31641H19.082V20.5547H23.0664V23.6406H19.082V29.5H15.6836ZM5 20.5547H15.6836V4.32422H15.5664L5 20.4766V20.5547ZM36.1719 29.9688C30.1953 29.9688 25.9375 26.6094 25.9375 21.8828V21.8438C25.9375 18.3672 28.3789 15.4766 31.9922 14.6367V14.5586C28.9062 13.6016 26.9531 11.2578 26.9531 8.28906V8.25C26.9531 3.99219 30.8398 0.847656 36.1719 0.847656C41.5039 0.847656 45.3906 3.99219 45.3906 8.25V8.28906C45.3906 11.2578 43.4375 13.6016 40.3516 14.5586V14.6367C43.9648 15.4766 46.4062 18.3672 46.4062 21.8438V21.8828C46.4062 26.6094 42.1484 29.9688 36.1719 29.9688ZM36.1719 13.25C39.5703 13.25 41.8945 11.3164 41.8945 8.58203V8.54297C41.8945 5.80859 39.5703 3.875 36.1719 3.875C32.7734 3.875 30.4492 5.80859 30.4492 8.54297V8.58203C30.4492 11.3164 32.7734 13.25 36.1719 13.25ZM36.1719 26.9023C40.0586 26.9023 42.832 24.7148 42.832 21.668V21.6289C42.832 18.543 40.0781 16.3359 36.1719 16.3359C32.2656 16.3359 29.5117 18.543 29.5117 21.6289V21.668C29.5117 24.7148 32.2852 26.9023 36.1719 26.9023ZM55.6445 15.2227C52.0898 15.2227 49.9414 12.5078 49.9414 8.15234V8.13281C49.9414 3.79688 52.0898 1.08203 55.6445 1.08203C59.1992 1.08203 61.3477 3.79688 61.3477 8.13281V8.15234C61.3477 12.5078 59.1992 15.2227 55.6445 15.2227ZM56.9141 29.5H53.7109L71.7969 1.31641H74.9609L56.9141 29.5ZM55.6445 12.8789C57.5391 12.8789 58.6328 11.1211 58.6328 8.15234V8.13281C58.6328 5.16406 57.5391 3.42578 55.6445 3.42578C53.75 3.42578 52.6562 5.16406 52.6562 8.13281V8.15234C52.6562 11.1211 53.75 12.8789 55.6445 12.8789ZM73.0078 29.7344C69.4531 29.7344 67.3047 27.0195 67.3047 22.6641V22.6445C67.3047 18.3086 69.4531 15.5938 73.0078 15.5938C76.5625 15.5938 78.7109 18.3086 78.7109 22.6445V22.6641C78.7109 27.0195 76.5625 29.7344 73.0078 29.7344ZM73.0078 27.3906C74.9023 27.3906 75.9961 25.6328 75.9961 22.6641V22.6445C75.9961 19.6758 74.9023 17.9375 73.0078 17.9375C71.1133 17.9375 70.0195 19.6758 70.0195 22.6445V22.6641C70.0195 25.6328 71.1133 27.3906 73.0078 27.3906Z" fill="#212429"/>
<path d="M88.1055 20.1855C87.1504 20.1855 86.4824 20.918 86.418 21.9316H89.7285C89.7051 20.9121 89.0664 20.1855 88.1055 20.1855ZM89.7051 23.7539H90.707C90.5312 24.8203 89.5 25.6055 88.1699 25.6055C86.4238 25.6055 85.3633 24.3926 85.3633 22.4766C85.3633 20.584 86.4414 19.3008 88.123 19.3008C89.7695 19.3008 90.7832 20.4961 90.7832 22.3418V22.7285H86.4121V22.7871C86.4121 23.9531 87.0977 24.7207 88.1934 24.7207C88.9668 24.7207 89.5352 24.3281 89.7051 23.7539ZM91.8145 25.5V19.4062H92.7754V20.3789H92.7988C93.1387 19.7227 93.7891 19.3008 94.7324 19.3008C96.0684 19.3008 96.8418 20.1621 96.8418 21.5449V25.5H95.8223V21.7266C95.8223 20.7422 95.3594 20.2031 94.4219 20.2031C93.4609 20.2031 92.834 20.8828 92.834 21.9141V25.5H91.8145ZM103.562 19.3008C105.115 19.3008 106.17 20.543 106.17 22.4531C106.17 24.3633 105.121 25.6055 103.586 25.6055C102.713 25.6055 102.01 25.1777 101.646 24.5098H101.623V27.5332H100.604V19.4062H101.57V20.4375H101.594C101.969 19.752 102.678 19.3008 103.562 19.3008ZM103.363 24.709C104.447 24.709 105.127 23.8359 105.127 22.4531C105.127 21.0762 104.447 20.1973 103.363 20.1973C102.32 20.1973 101.617 21.0996 101.617 22.4531C101.617 23.8125 102.32 24.709 103.363 24.709ZM109.727 25.6055C108.039 25.6055 106.902 24.3926 106.902 22.4531C106.902 20.5078 108.039 19.3008 109.727 19.3008C111.408 19.3008 112.545 20.5078 112.545 22.4531C112.545 24.3926 111.408 25.6055 109.727 25.6055ZM109.727 24.709C110.805 24.709 111.508 23.8887 111.508 22.4531C111.508 21.0176 110.805 20.1973 109.727 20.1973C108.648 20.1973 107.939 21.0176 107.939 22.4531C107.939 23.8887 108.648 24.709 109.727 24.709ZM118.58 19.4062V25.5H117.613V24.5098H117.59C117.227 25.2129 116.594 25.6055 115.656 25.6055C114.326 25.6055 113.547 24.7441 113.547 23.3613V19.4062H114.566V23.1797C114.566 24.1699 115.029 24.7031 115.973 24.7031C116.963 24.7031 117.561 24.0234 117.561 22.9863V19.4062H118.58ZM119.904 25.5V19.4062H120.865V20.4023H120.889C121.088 19.7285 121.65 19.3008 122.365 19.3008C122.541 19.3008 122.693 19.3301 122.775 19.3418V20.332C122.693 20.3027 122.477 20.2734 122.23 20.2734C121.439 20.2734 120.924 20.8418 120.924 21.7031V25.5H119.904ZM128.377 21.4043H127.381C127.234 20.7422 126.719 20.1973 125.822 20.1973C124.768 20.1973 124.053 21.0703 124.053 22.4531C124.053 23.8711 124.779 24.709 125.834 24.709C126.666 24.709 127.211 24.2695 127.387 23.5371H128.389C128.23 24.75 127.211 25.6055 125.828 25.6055C124.141 25.6055 123.016 24.416 123.016 22.4531C123.016 20.5312 124.135 19.3008 125.816 19.3008C127.34 19.3008 128.248 20.3086 128.377 21.4043ZM131.77 20.1855C130.814 20.1855 130.146 20.918 130.082 21.9316H133.393C133.369 20.9121 132.73 20.1855 131.77 20.1855ZM133.369 23.7539H134.371C134.195 24.8203 133.164 25.6055 131.834 25.6055C130.088 25.6055 129.027 24.3926 129.027 22.4766C129.027 20.584 130.105 19.3008 131.787 19.3008C133.434 19.3008 134.447 20.4961 134.447 22.3418V22.7285H130.076V22.7871C130.076 23.9531 130.762 24.7207 131.857 24.7207C132.631 24.7207 133.199 24.3281 133.369 23.7539ZM135.479 25.5V19.4062H136.439V20.3789H136.463C136.803 19.7227 137.453 19.3008 138.396 19.3008C139.732 19.3008 140.506 20.1621 140.506 21.5449V25.5H139.486V21.7266C139.486 20.7422 139.023 20.2031 138.086 20.2031C137.125 20.2031 136.498 20.8828 136.498 21.9141V25.5H135.479ZM142.135 17.9355H143.154V19.4062H144.338V20.2441H143.154V23.8652C143.154 24.4219 143.389 24.6738 143.91 24.6738C144.027 24.6738 144.262 24.6562 144.332 24.6445V25.5C144.209 25.5293 143.928 25.5469 143.688 25.5469C142.568 25.5469 142.135 25.0898 142.135 23.918V20.2441H141.227V19.4062H142.135V17.9355ZM147.32 24.7383C148.281 24.7383 149.02 24.0645 149.02 23.1855V22.6875L147.391 22.7871C146.57 22.8398 146.102 23.2031 146.102 23.7773C146.102 24.3574 146.588 24.7383 147.32 24.7383ZM147.092 25.6055C145.879 25.6055 145.064 24.873 145.064 23.7773C145.064 22.7344 145.867 22.0781 147.273 21.9961L149.02 21.8965V21.3867C149.02 20.6426 148.527 20.1973 147.684 20.1973C146.898 20.1973 146.406 20.5664 146.277 21.1641H145.293C145.363 20.1094 146.266 19.3008 147.707 19.3008C149.137 19.3008 150.039 20.0742 150.039 21.2871V25.5H149.072V24.4512H149.049C148.686 25.1484 147.912 25.6055 147.092 25.6055ZM153.812 24.6504C154.873 24.6504 155.582 23.7715 155.582 22.4297C155.582 21.0879 154.873 20.1973 153.812 20.1973C152.764 20.1973 152.078 21.0645 152.078 22.4297C152.078 23.7949 152.764 24.6504 153.812 24.6504ZM153.848 27.7969C152.506 27.7969 151.445 27.041 151.275 26.0039H152.324C152.523 26.5605 153.127 26.9297 153.889 26.9297C154.943 26.9297 155.582 26.3203 155.582 25.4121V24.4512H155.559C155.184 25.1133 154.463 25.5469 153.607 25.5469C152.055 25.5469 151.035 24.3223 151.035 22.4297C151.035 20.5195 152.055 19.3008 153.631 19.3008C154.492 19.3008 155.207 19.7227 155.611 20.4316H155.629V19.4062H156.602V25.377C156.602 26.8301 155.529 27.7969 153.848 27.7969ZM160.375 20.1855C159.42 20.1855 158.752 20.918 158.688 21.9316H161.998C161.975 20.9121 161.336 20.1855 160.375 20.1855ZM161.975 23.7539H162.977C162.801 24.8203 161.77 25.6055 160.439 25.6055C158.693 25.6055 157.633 24.3926 157.633 22.4766C157.633 20.584 158.711 19.3008 160.393 19.3008C162.039 19.3008 163.053 20.4961 163.053 22.3418V22.7285H158.682V22.7871C158.682 23.9531 159.367 24.7207 160.463 24.7207C161.236 24.7207 161.805 24.3281 161.975 23.7539Z" fill="#237BFF"/>
<path d="M4.38867 39.9043C6.78516 39.9043 8.28516 41.5918 8.28516 44.2754C8.28516 46.959 6.78516 48.6406 4.38867 48.6406C1.99219 48.6406 0.492188 46.959 0.492188 44.2754C0.492188 41.5918 1.99219 39.9043 4.38867 39.9043ZM4.38867 40.877C2.66016 40.877 1.57617 42.1895 1.57617 44.2754C1.57617 46.3555 2.66016 47.668 4.38867 47.668C6.11719 47.668 7.20117 46.3555 7.20117 44.2754C7.20117 42.1895 6.11719 40.877 4.38867 40.877ZM12.4688 48.6055C11.5781 48.6055 10.8809 48.1719 10.4883 47.4688H10.4648V48.5H9.49219V40.0449H10.5117V43.4258H10.5352C10.916 42.7285 11.625 42.3008 12.4863 42.3008C14.0215 42.3008 15.0586 43.543 15.0586 45.4531C15.0586 47.3691 14.0273 48.6055 12.4688 48.6055ZM12.2695 43.1973C11.2383 43.1973 10.5059 44.0996 10.5059 45.4531C10.5059 46.8125 11.2383 47.709 12.2695 47.709C13.3477 47.709 14.0156 46.8477 14.0156 45.4531C14.0156 44.0703 13.3477 43.1973 12.2695 43.1973ZM16.4238 40.9355H17.4434V42.4062H18.627V43.2441H17.4434V46.8652C17.4434 47.4219 17.6777 47.6738 18.1992 47.6738C18.3164 47.6738 18.5508 47.6562 18.6211 47.6445V48.5C18.498 48.5293 18.2168 48.5469 17.9766 48.5469C16.8574 48.5469 16.4238 48.0898 16.4238 46.918V43.2441H15.5156V42.4062H16.4238V40.9355ZM19.7695 48.5V42.4062H20.7891V48.5H19.7695ZM20.2793 41.3809C19.9336 41.3809 19.6465 41.0938 19.6465 40.748C19.6465 40.3965 19.9336 40.1152 20.2793 40.1152C20.6309 40.1152 20.918 40.3965 20.918 40.748C20.918 41.0938 20.6309 41.3809 20.2793 41.3809ZM24.6094 43.1855C23.6543 43.1855 22.9863 43.918 22.9219 44.9316H26.2324C26.209 43.9121 25.5703 43.1855 24.6094 43.1855ZM26.209 46.7539H27.2109C27.0352 47.8203 26.0039 48.6055 24.6738 48.6055C22.9277 48.6055 21.8672 47.3926 21.8672 45.4766C21.8672 43.584 22.9453 42.3008 24.627 42.3008C26.2734 42.3008 27.2871 43.4961 27.2871 45.3418V45.7285H22.916V45.7871C22.916 46.9531 23.6016 47.7207 24.6973 47.7207C25.4707 47.7207 26.0391 47.3281 26.209 46.7539ZM28.3184 48.5V42.4062H29.2793V43.3789H29.3027C29.6426 42.7227 30.293 42.3008 31.2363 42.3008C32.5723 42.3008 33.3457 43.1621 33.3457 44.5449V48.5H32.3262V44.7266C32.3262 43.7422 31.8633 43.2031 30.9258 43.2031C29.9648 43.2031 29.3379 43.8828 29.3379 44.9141V48.5H28.3184ZM34.6465 48.5V42.4062H35.6074V43.3789H35.6309C35.9707 42.7227 36.6211 42.3008 37.5645 42.3008C38.9004 42.3008 39.6738 43.1621 39.6738 44.5449V48.5H38.6543V44.7266C38.6543 43.7422 38.1914 43.2031 37.2539 43.2031C36.293 43.2031 35.666 43.8828 35.666 44.9141V48.5H34.6465ZM43.418 43.1855C42.4629 43.1855 41.7949 43.918 41.7305 44.9316H45.041C45.0176 43.9121 44.3789 43.1855 43.418 43.1855ZM45.0176 46.7539H46.0195C45.8438 47.8203 44.8125 48.6055 43.4824 48.6055C41.7363 48.6055 40.6758 47.3926 40.6758 45.4766C40.6758 43.584 41.7539 42.3008 43.4355 42.3008C45.082 42.3008 46.0957 43.4961 46.0957 45.3418V45.7285H41.7246V45.7871C41.7246 46.9531 42.4102 47.7207 43.5059 47.7207C44.2793 47.7207 44.8477 47.3281 45.0176 46.7539ZM47.127 48.5V42.4062H48.0879V43.3789H48.1113C48.4512 42.7227 49.1016 42.3008 50.0449 42.3008C51.3809 42.3008 52.1543 43.1621 52.1543 44.5449V48.5H51.1348V44.7266C51.1348 43.7422 50.6719 43.2031 49.7344 43.2031C48.7734 43.2031 48.1465 43.8828 48.1465 44.9141V48.5H47.127ZM53.7832 40.9355H54.8027V42.4062H55.9863V43.2441H54.8027V46.8652C54.8027 47.4219 55.0371 47.6738 55.5586 47.6738C55.6758 47.6738 55.9102 47.6562 55.9805 47.6445V48.5C55.8574 48.5293 55.5762 48.5469 55.3359 48.5469C54.2168 48.5469 53.7832 48.0898 53.7832 46.918V43.2441H52.875V42.4062H53.7832V40.9355ZM59.5898 48.5V40.0449H60.6094V48.5H59.5898ZM64.4297 43.1855C63.4746 43.1855 62.8066 43.918 62.7422 44.9316H66.0527C66.0293 43.9121 65.3906 43.1855 64.4297 43.1855ZM66.0293 46.7539H67.0312C66.8555 47.8203 65.8242 48.6055 64.4941 48.6055C62.748 48.6055 61.6875 47.3926 61.6875 45.4766C61.6875 43.584 62.7656 42.3008 64.4473 42.3008C66.0938 42.3008 67.1074 43.4961 67.1074 45.3418V45.7285H62.7363V45.7871C62.7363 46.9531 63.4219 47.7207 64.5176 47.7207C65.291 47.7207 65.8594 47.3281 66.0293 46.7539ZM73.1426 42.4062V48.5H72.1758V47.5098H72.1523C71.7891 48.2129 71.1562 48.6055 70.2188 48.6055C68.8887 48.6055 68.1094 47.7441 68.1094 46.3613V42.4062H69.1289V46.1797C69.1289 47.1699 69.5918 47.7031 70.5352 47.7031C71.5254 47.7031 72.123 47.0234 72.123 45.9863V42.4062H73.1426ZM74.4668 48.5V42.4062H75.4277V43.4023H75.4512C75.6504 42.7285 76.2129 42.3008 76.9277 42.3008C77.1035 42.3008 77.2559 42.3301 77.3379 42.3418V43.332C77.2559 43.3027 77.0391 43.2734 76.793 43.2734C76.002 43.2734 75.4863 43.8418 75.4863 44.7031V48.5H74.4668ZM78.0645 44.0879C78.0645 43.0449 78.9961 42.3008 80.3379 42.3008C81.5977 42.3008 82.5234 43.0508 82.5703 44.082H81.5977C81.5273 43.4961 81.0527 43.1328 80.3027 43.1328C79.5586 43.1328 79.0664 43.502 79.0664 44.0352C79.0664 44.457 79.3887 44.7383 80.0801 44.9141L81.0234 45.1426C82.2539 45.4531 82.6992 45.8984 82.6992 46.7949C82.6992 47.8555 81.6973 48.6055 80.2734 48.6055C78.9375 48.6055 78.0059 47.8789 77.9004 46.8008H78.9199C79.0312 47.4336 79.5117 47.7734 80.3379 47.7734C81.1641 47.7734 81.6738 47.4219 81.6738 46.8711C81.6738 46.4375 81.4219 46.2031 80.7363 46.0215L79.6641 45.7461C78.5918 45.4707 78.0645 44.9199 78.0645 44.0879ZM86.2734 48.5V42.4062H87.293V48.5H86.2734ZM86.7832 41.3809C86.4375 41.3809 86.1504 41.0938 86.1504 40.748C86.1504 40.3965 86.4375 40.1152 86.7832 40.1152C87.1348 40.1152 87.4219 40.3965 87.4219 40.748C87.4219 41.0938 87.1348 41.3809 86.7832 41.3809ZM88.6699 48.5V42.4062H89.6309V43.3789H89.6543C89.9941 42.7227 90.6445 42.3008 91.5879 42.3008C92.9238 42.3008 93.6973 43.1621 93.6973 44.5449V48.5H92.6777V44.7266C92.6777 43.7422 92.2148 43.2031 91.2773 43.2031C90.3164 43.2031 89.6895 43.8828 89.6895 44.9141V48.5H88.6699ZM95.3262 48.5V43.2441H94.4766V42.4062H95.3262V41.7266C95.3262 40.5547 95.8711 39.998 96.9961 39.998C97.2246 39.998 97.4707 40.0215 97.6172 40.0449V40.8711C97.4941 40.8535 97.3242 40.8359 97.1543 40.8359C96.6035 40.8359 96.3398 41.1289 96.3398 41.7324V42.4062H97.5879V43.2441H96.3457V48.5H95.3262ZM100.875 48.6055C99.1875 48.6055 98.0508 47.3926 98.0508 45.4531C98.0508 43.5078 99.1875 42.3008 100.875 42.3008C102.557 42.3008 103.693 43.5078 103.693 45.4531C103.693 47.3926 102.557 48.6055 100.875 48.6055ZM100.875 47.709C101.953 47.709 102.656 46.8887 102.656 45.4531C102.656 44.0176 101.953 43.1973 100.875 43.1973C99.7969 43.1973 99.0879 44.0176 99.0879 45.4531C99.0879 46.8887 99.7969 47.709 100.875 47.709ZM104.725 48.5V42.4062H105.686V43.4023H105.709C105.908 42.7285 106.471 42.3008 107.186 42.3008C107.361 42.3008 107.514 42.3301 107.596 42.3418V43.332C107.514 43.3027 107.297 43.2734 107.051 43.2734C106.26 43.2734 105.744 43.8418 105.744 44.7031V48.5H104.725ZM108.428 48.5V42.4062H109.389V43.3789H109.412C109.699 42.7344 110.32 42.3008 111.141 42.3008C111.973 42.3008 112.588 42.7227 112.852 43.4609H112.875C113.215 42.7344 113.93 42.3008 114.785 42.3008C115.992 42.3008 116.771 43.0859 116.771 44.293V48.5H115.752V44.5273C115.752 43.6953 115.289 43.2031 114.486 43.2031C113.678 43.2031 113.109 43.8008 113.109 44.627V48.5H112.09V44.416C112.09 43.6836 111.598 43.2031 110.842 43.2031C110.033 43.2031 109.447 43.8359 109.447 44.6797V48.5H108.428ZM120.082 47.7383C121.043 47.7383 121.781 47.0645 121.781 46.1855V45.6875L120.152 45.7871C119.332 45.8398 118.863 46.2031 118.863 46.7773C118.863 47.3574 119.35 47.7383 120.082 47.7383ZM119.854 48.6055C118.641 48.6055 117.826 47.873 117.826 46.7773C117.826 45.7344 118.629 45.0781 120.035 44.9961L121.781 44.8965V44.3867C121.781 43.6426 121.289 43.1973 120.445 43.1973C119.66 43.1973 119.168 43.5664 119.039 44.1641H118.055C118.125 43.1094 119.027 42.3008 120.469 42.3008C121.898 42.3008 122.801 43.0742 122.801 44.2871V48.5H121.834V47.4512H121.811C121.447 48.1484 120.674 48.6055 119.854 48.6055ZM124.424 40.9355H125.443V42.4062H126.627V43.2441H125.443V46.8652C125.443 47.4219 125.678 47.6738 126.199 47.6738C126.316 47.6738 126.551 47.6562 126.621 47.6445V48.5C126.498 48.5293 126.217 48.5469 125.977 48.5469C124.857 48.5469 124.424 48.0898 124.424 46.918V43.2441H123.516V42.4062H124.424V40.9355ZM127.77 48.5V42.4062H128.789V48.5H127.77ZM128.279 41.3809C127.934 41.3809 127.646 41.0938 127.646 40.748C127.646 40.3965 127.934 40.1152 128.279 40.1152C128.631 40.1152 128.918 40.3965 128.918 40.748C128.918 41.0938 128.631 41.3809 128.279 41.3809ZM132.691 48.6055C131.004 48.6055 129.867 47.3926 129.867 45.4531C129.867 43.5078 131.004 42.3008 132.691 42.3008C134.373 42.3008 135.51 43.5078 135.51 45.4531C135.51 47.3926 134.373 48.6055 132.691 48.6055ZM132.691 47.709C133.77 47.709 134.473 46.8887 134.473 45.4531C134.473 44.0176 133.77 43.1973 132.691 43.1973C131.613 43.1973 130.904 44.0176 130.904 45.4531C130.904 46.8887 131.613 47.709 132.691 47.709ZM136.541 48.5V42.4062H137.502V43.3789H137.525C137.865 42.7227 138.516 42.3008 139.459 42.3008C140.795 42.3008 141.568 43.1621 141.568 44.5449V48.5H140.549V44.7266C140.549 43.7422 140.086 43.2031 139.148 43.2031C138.188 43.2031 137.561 43.8828 137.561 44.9141V48.5H136.541ZM142.764 44.0879C142.764 43.0449 143.695 42.3008 145.037 42.3008C146.297 42.3008 147.223 43.0508 147.27 44.082H146.297C146.227 43.4961 145.752 43.1328 145.002 43.1328C144.258 43.1328 143.766 43.502 143.766 44.0352C143.766 44.457 144.088 44.7383 144.779 44.9141L145.723 45.1426C146.953 45.4531 147.398 45.8984 147.398 46.7949C147.398 47.8555 146.396 48.6055 144.973 48.6055C143.637 48.6055 142.705 47.8789 142.6 46.8008H143.619C143.73 47.4336 144.211 47.7734 145.037 47.7734C145.863 47.7734 146.373 47.4219 146.373 46.8711C146.373 46.4375 146.121 46.2031 145.436 46.0215L144.363 45.7461C143.291 45.4707 142.764 44.9199 142.764 44.0879ZM153.879 42.3008C155.432 42.3008 156.486 43.543 156.486 45.4531C156.486 47.3633 155.438 48.6055 153.902 48.6055C153.029 48.6055 152.326 48.1777 151.963 47.5098H151.939V50.5332H150.92V42.4062H151.887V43.4375H151.91C152.285 42.752 152.994 42.3008 153.879 42.3008ZM153.68 47.709C154.764 47.709 155.443 46.8359 155.443 45.4531C155.443 44.0762 154.764 43.1973 153.68 43.1973C152.637 43.1973 151.934 44.0996 151.934 45.4531C151.934 46.8125 152.637 47.709 153.68 47.709ZM159.527 47.7383C160.488 47.7383 161.227 47.0645 161.227 46.1855V45.6875L159.598 45.7871C158.777 45.8398 158.309 46.2031 158.309 46.7773C158.309 47.3574 158.795 47.7383 159.527 47.7383ZM159.299 48.6055C158.086 48.6055 157.271 47.873 157.271 46.7773C157.271 45.7344 158.074 45.0781 159.48 44.9961L161.227 44.8965V44.3867C161.227 43.6426 160.734 43.1973 159.891 43.1973C159.105 43.1973 158.613 43.5664 158.484 44.1641H157.5C157.57 43.1094 158.473 42.3008 159.914 42.3008C161.344 42.3008 162.246 43.0742 162.246 44.2871V48.5H161.279V47.4512H161.256C160.893 48.1484 160.119 48.6055 159.299 48.6055ZM163.541 48.5V42.4062H164.502V43.4023H164.525C164.725 42.7285 165.287 42.3008 166.002 42.3008C166.178 42.3008 166.33 42.3301 166.412 42.3418V43.332C166.33 43.3027 166.113 43.2734 165.867 43.2734C165.076 43.2734 164.561 43.8418 164.561 44.7031V48.5H163.541ZM0.714844 63.5V55.0449H1.73438V63.5H0.714844ZM5.55469 58.1855C4.59961 58.1855 3.93164 58.918 3.86719 59.9316H7.17773C7.1543 58.9121 6.51562 58.1855 5.55469 58.1855ZM7.1543 61.7539H8.15625C7.98047 62.8203 6.94922 63.6055 5.61914 63.6055C3.87305 63.6055 2.8125 62.3926 2.8125 60.4766C2.8125 58.584 3.89062 57.3008 5.57227 57.3008C7.21875 57.3008 8.23242 58.4961 8.23242 60.3418V60.7285H3.86133V60.7871C3.86133 61.9531 4.54688 62.7207 5.64258 62.7207C6.41602 62.7207 6.98438 62.3281 7.1543 61.7539ZM14.7539 63.6055C13.8633 63.6055 13.166 63.1719 12.7734 62.4688H12.75V63.5H11.7773V55.0449H12.7969V58.4258H12.8203C13.2012 57.7285 13.9102 57.3008 14.7715 57.3008C16.3066 57.3008 17.3438 58.543 17.3438 60.4531C17.3438 62.3691 16.3125 63.6055 14.7539 63.6055ZM14.5547 58.1973C13.5234 58.1973 12.791 59.0996 12.791 60.4531C12.791 61.8125 13.5234 62.709 14.5547 62.709C15.6328 62.709 16.3008 61.8477 16.3008 60.4531C16.3008 59.0703 15.6328 58.1973 14.5547 58.1973ZM18.4336 63.5V57.4062H19.4531V63.5H18.4336ZM18.9434 56.3809C18.5977 56.3809 18.3105 56.0938 18.3105 55.748C18.3105 55.3965 18.5977 55.1152 18.9434 55.1152C19.2949 55.1152 19.582 55.3965 19.582 55.748C19.582 56.0938 19.2949 56.3809 18.9434 56.3809ZM22.8398 62.7383C23.8008 62.7383 24.5391 62.0645 24.5391 61.1855V60.6875L22.9102 60.7871C22.0898 60.8398 21.6211 61.2031 21.6211 61.7773C21.6211 62.3574 22.1074 62.7383 22.8398 62.7383ZM22.6113 63.6055C21.3984 63.6055 20.584 62.873 20.584 61.7773C20.584 60.7344 21.3867 60.0781 22.793 59.9961L24.5391 59.8965V59.3867C24.5391 58.6426 24.0469 58.1973 23.2031 58.1973C22.418 58.1973 21.9258 58.5664 21.7969 59.1641H20.8125C20.8828 58.1094 21.7852 57.3008 23.2266 57.3008C24.6562 57.3008 25.5586 58.0742 25.5586 59.2871V63.5H24.5918V62.4512H24.5684C24.2051 63.1484 23.4316 63.6055 22.6113 63.6055ZM26.9062 63.5V57.4062H27.9258V63.5H26.9062ZM27.416 56.3809C27.0703 56.3809 26.7832 56.0938 26.7832 55.748C26.7832 55.3965 27.0703 55.1152 27.416 55.1152C27.7676 55.1152 28.0547 55.3965 28.0547 55.748C28.0547 56.0938 27.7676 56.3809 27.416 56.3809ZM29.1973 59.0879C29.1973 58.0449 30.1289 57.3008 31.4707 57.3008C32.7305 57.3008 33.6562 58.0508 33.7031 59.082H32.7305C32.6602 58.4961 32.1855 58.1328 31.4355 58.1328C30.6914 58.1328 30.1992 58.502 30.1992 59.0352C30.1992 59.457 30.5215 59.7383 31.2129 59.9141L32.1562 60.1426C33.3867 60.4531 33.832 60.8984 33.832 61.7949C33.832 62.8555 32.8301 63.6055 31.4062 63.6055C30.0703 63.6055 29.1387 62.8789 29.0332 61.8008H30.0527C30.1641 62.4336 30.6445 62.7734 31.4707 62.7734C32.2969 62.7734 32.8066 62.4219 32.8066 61.8711C32.8066 61.4375 32.5547 61.2031 31.8691 61.0215L30.7969 60.7461C29.7246 60.4707 29.1973 59.9199 29.1973 59.0879ZM39.6621 63.6055C38.1094 63.6055 37.0547 62.3633 37.0547 60.4531C37.0547 58.543 38.1035 57.3008 39.6387 57.3008C40.5117 57.3008 41.2148 57.7285 41.5781 58.3965H41.6016V55.0449H42.6211V63.5H41.6484V62.4688H41.6309C41.2383 63.1719 40.541 63.6055 39.6621 63.6055ZM39.8555 58.1973C38.7773 58.1973 38.0977 59.0762 38.0977 60.4531C38.0977 61.8359 38.7773 62.709 39.8555 62.709C40.9043 62.709 41.6074 61.8184 41.6074 60.4531C41.6074 59.0938 40.9043 58.1973 39.8555 58.1973ZM46.4414 58.1855C45.4863 58.1855 44.8184 58.918 44.7539 59.9316H48.0645C48.041 58.9121 47.4023 58.1855 46.4414 58.1855ZM48.041 61.7539H49.043C48.8672 62.8203 47.8359 63.6055 46.5059 63.6055C44.7598 63.6055 43.6992 62.3926 43.6992 60.4766C43.6992 58.584 44.7773 57.3008 46.459 57.3008C48.1055 57.3008 49.1191 58.4961 49.1191 60.3418V60.7285H44.748V60.7871C44.748 61.9531 45.4336 62.7207 46.5293 62.7207C47.3027 62.7207 47.8711 62.3281 48.041 61.7539ZM50.0449 59.0879C50.0449 58.0449 50.9766 57.3008 52.3184 57.3008C53.5781 57.3008 54.5039 58.0508 54.5508 59.082H53.5781C53.5078 58.4961 53.0332 58.1328 52.2832 58.1328C51.5391 58.1328 51.0469 58.502 51.0469 59.0352C51.0469 59.457 51.3691 59.7383 52.0605 59.9141L53.0039 60.1426C54.2344 60.4531 54.6797 60.8984 54.6797 61.7949C54.6797 62.8555 53.6777 63.6055 52.2539 63.6055C50.918 63.6055 49.9863 62.8789 49.8809 61.8008H50.9004C51.0117 62.4336 51.4922 62.7734 52.3184 62.7734C53.1445 62.7734 53.6543 62.4219 53.6543 61.8711C53.6543 61.4375 53.4023 61.2031 52.7168 61.0215L51.6445 60.7461C50.5723 60.4707 50.0449 59.9199 50.0449 59.0879ZM58.2012 63.5V57.4062H59.1621V58.4023H59.1855C59.3848 57.7285 59.9473 57.3008 60.6621 57.3008C60.8379 57.3008 60.9902 57.3301 61.0723 57.3418V58.332C60.9902 58.3027 60.7734 58.2734 60.5273 58.2734C59.7363 58.2734 59.2207 58.8418 59.2207 59.7031V63.5H58.2012ZM64.0547 58.1855C63.0996 58.1855 62.4316 58.918 62.3672 59.9316H65.6777C65.6543 58.9121 65.0156 58.1855 64.0547 58.1855ZM65.6543 61.7539H66.6562C66.4805 62.8203 65.4492 63.6055 64.1191 63.6055C62.373 63.6055 61.3125 62.3926 61.3125 60.4766C61.3125 58.584 62.3906 57.3008 64.0723 57.3008C65.7188 57.3008 66.7324 58.4961 66.7324 60.3418V60.7285H62.3613V60.7871C62.3613 61.9531 63.0469 62.7207 64.1426 62.7207C64.916 62.7207 65.4844 62.3281 65.6543 61.7539ZM64.5352 56.5273H63.6445L64.875 54.7695H65.9766L64.5352 56.5273ZM67.6582 59.0879C67.6582 58.0449 68.5898 57.3008 69.9316 57.3008C71.1914 57.3008 72.1172 58.0508 72.1641 59.082H71.1914C71.1211 58.4961 70.6465 58.1328 69.8965 58.1328C69.1523 58.1328 68.6602 58.502 68.6602 59.0352C68.6602 59.457 68.9824 59.7383 69.6738 59.9141L70.6172 60.1426C71.8477 60.4531 72.293 60.8984 72.293 61.7949C72.293 62.8555 71.291 63.6055 69.8672 63.6055C68.5312 63.6055 67.5996 62.8789 67.4941 61.8008H68.5137C68.625 62.4336 69.1055 62.7734 69.9316 62.7734C70.7578 62.7734 71.2676 62.4219 71.2676 61.8711C71.2676 61.4375 71.0156 61.2031 70.3301 61.0215L69.2578 60.7461C68.1855 60.4707 67.6582 59.9199 67.6582 59.0879ZM75.7969 58.1855C74.8418 58.1855 74.1738 58.918 74.1094 59.9316H77.4199C77.3965 58.9121 76.7578 58.1855 75.7969 58.1855ZM77.3965 61.7539H78.3984C78.2227 62.8203 77.1914 63.6055 75.8613 63.6055C74.1152 63.6055 73.0547 62.3926 73.0547 60.4766C73.0547 58.584 74.1328 57.3008 75.8145 57.3008C77.4609 57.3008 78.4746 58.4961 78.4746 60.3418V60.7285H74.1035V60.7871C74.1035 61.9531 74.7891 62.7207 75.8848 62.7207C76.6582 62.7207 77.2266 62.3281 77.3965 61.7539ZM81.5156 62.7383C82.4766 62.7383 83.2148 62.0645 83.2148 61.1855V60.6875L81.5859 60.7871C80.7656 60.8398 80.2969 61.2031 80.2969 61.7773C80.2969 62.3574 80.7832 62.7383 81.5156 62.7383ZM81.2871 63.6055C80.0742 63.6055 79.2598 62.873 79.2598 61.7773C79.2598 60.7344 80.0625 60.0781 81.4688 59.9961L83.2148 59.8965V59.3867C83.2148 58.6426 82.7227 58.1973 81.8789 58.1973C81.0938 58.1973 80.6016 58.5664 80.4727 59.1641H79.4883C79.5586 58.1094 80.4609 57.3008 81.9023 57.3008C83.332 57.3008 84.2344 58.0742 84.2344 59.2871V63.5H83.2676V62.4512H83.2441C82.8809 63.1484 82.1074 63.6055 81.2871 63.6055ZM90.5332 57.4062V63.5H89.5664V62.5098H89.543C89.1797 63.2129 88.5469 63.6055 87.6094 63.6055C86.2793 63.6055 85.5 62.7441 85.5 61.3613V57.4062H86.5195V61.1797C86.5195 62.1699 86.9824 62.7031 87.9258 62.7031C88.916 62.7031 89.5137 62.0234 89.5137 60.9863V57.4062H90.5332ZM94.0137 61.1797H93.9902L92.5195 63.5H91.3887L93.4629 60.4531L91.4238 57.4062H92.5605L94.0254 59.6914H94.0488L95.4961 57.4062H96.6328L94.5762 60.4121L96.6035 63.5H95.4727L94.0137 61.1797ZM99.8496 59.0879C99.8496 58.0449 100.781 57.3008 102.123 57.3008C103.383 57.3008 104.309 58.0508 104.355 59.082H103.383C103.312 58.4961 102.838 58.1328 102.088 58.1328C101.344 58.1328 100.852 58.502 100.852 59.0352C100.852 59.457 101.174 59.7383 101.865 59.9141L102.809 60.1426C104.039 60.4531 104.484 60.8984 104.484 61.7949C104.484 62.8555 103.482 63.6055 102.059 63.6055C100.723 63.6055 99.791 62.8789 99.6855 61.8008H100.705C100.816 62.4336 101.297 62.7734 102.123 62.7734C102.949 62.7734 103.459 62.4219 103.459 61.8711C103.459 61.4375 103.207 61.2031 102.521 61.0215L101.449 60.7461C100.377 60.4707 99.8496 59.9199 99.8496 59.0879ZM108.07 63.6055C106.383 63.6055 105.246 62.3926 105.246 60.4531C105.246 58.5078 106.383 57.3008 108.07 57.3008C109.752 57.3008 110.889 58.5078 110.889 60.4531C110.889 62.3926 109.752 63.6055 108.07 63.6055ZM108.07 62.709C109.148 62.709 109.852 61.8887 109.852 60.4531C109.852 59.0176 109.148 58.1973 108.07 58.1973C106.992 58.1973 106.283 59.0176 106.283 60.4531C106.283 61.8887 106.992 62.709 108.07 62.709ZM116.982 59.4043H115.986C115.84 58.7422 115.324 58.1973 114.428 58.1973C113.373 58.1973 112.658 59.0703 112.658 60.4531C112.658 61.8711 113.385 62.709 114.439 62.709C115.271 62.709 115.816 62.2695 115.992 61.5371H116.994C116.836 62.75 115.816 63.6055 114.434 63.6055C112.746 63.6055 111.621 62.416 111.621 60.4531C111.621 58.5312 112.74 57.3008 114.422 57.3008C115.945 57.3008 116.854 58.3086 116.982 59.4043ZM117.984 63.5V57.4062H119.004V63.5H117.984ZM118.494 56.3809C118.148 56.3809 117.861 56.0938 117.861 55.748C117.861 55.3965 118.148 55.1152 118.494 55.1152C118.846 55.1152 119.133 55.3965 119.133 55.748C119.133 56.0938 118.846 56.3809 118.494 56.3809ZM122.391 62.7383C123.352 62.7383 124.09 62.0645 124.09 61.1855V60.6875L122.461 60.7871C121.641 60.8398 121.172 61.2031 121.172 61.7773C121.172 62.3574 121.658 62.7383 122.391 62.7383ZM122.162 63.6055C120.949 63.6055 120.135 62.873 120.135 61.7773C120.135 60.7344 120.938 60.0781 122.344 59.9961L124.09 59.8965V59.3867C124.09 58.6426 123.598 58.1973 122.754 58.1973C121.969 58.1973 121.477 58.5664 121.348 59.1641H120.363C120.434 58.1094 121.336 57.3008 122.777 57.3008C124.207 57.3008 125.109 58.0742 125.109 59.2871V63.5H124.143V62.4512H124.119C123.756 63.1484 122.982 63.6055 122.162 63.6055ZM131.408 57.4062V63.5H130.441V62.5098H130.418C130.055 63.2129 129.422 63.6055 128.484 63.6055C127.154 63.6055 126.375 62.7441 126.375 61.3613V57.4062H127.395V61.1797C127.395 62.1699 127.857 62.7031 128.801 62.7031C129.791 62.7031 130.389 62.0234 130.389 60.9863V57.4062H131.408ZM134.889 61.1797H134.865L133.395 63.5H132.264L134.338 60.4531L132.299 57.4062H133.436L134.9 59.6914H134.924L136.371 57.4062H137.508L135.451 60.4121L137.479 63.5H136.348L134.889 61.1797ZM139.23 63.5586C138.855 63.5586 138.562 63.2656 138.562 62.8906C138.562 62.5156 138.855 62.2227 139.23 62.2227C139.605 62.2227 139.898 62.5156 139.898 62.8906C139.898 63.2656 139.605 63.5586 139.23 63.5586Z" fill="#01083B"/>
</svg>
