<svg width="894" height="33" viewBox="0 0 894 33" fill="none" xmlns="http://www.w3.org/2000/svg">
<path d="M2.5 22H1.09375V10.7266H7.9375V11.9922H2.5V15.8672H7.49219V17.1172H2.5V22ZM12.3906 22.1406C10.1406 22.1406 8.625 20.5234 8.625 17.9375C8.625 15.3438 10.1406 13.7344 12.3906 13.7344C14.6328 13.7344 16.1484 15.3438 16.1484 17.9375C16.1484 20.5234 14.6328 22.1406 12.3906 22.1406ZM12.3906 20.9453C13.8281 20.9453 14.7656 19.8516 14.7656 17.9375C14.7656 16.0234 13.8281 14.9297 12.3906 14.9297C10.9531 14.9297 10.0078 16.0234 10.0078 17.9375C10.0078 19.8516 10.9531 20.9453 12.3906 20.9453ZM17.5234 22V13.875H18.8047V15.2031H18.8359C19.1016 14.3047 19.8516 13.7344 20.8047 13.7344C21.0391 13.7344 21.2422 13.7734 21.3516 13.7891V15.1094C21.2422 15.0703 20.9531 15.0312 20.625 15.0312C19.5703 15.0312 18.8828 15.7891 18.8828 16.9375V22H17.5234ZM29.1328 13.875V22H27.8438V20.6797H27.8125C27.3281 21.6172 26.4844 22.1406 25.2344 22.1406C23.4609 22.1406 22.4219 20.9922 22.4219 19.1484V13.875H23.7812V18.9062C23.7812 20.2266 24.3984 20.9375 25.6562 20.9375C26.9766 20.9375 27.7734 20.0312 27.7734 18.6484V13.875H29.1328ZM30.8984 22V13.875H32.1797V15.1719H32.2109C32.5938 14.3125 33.4219 13.7344 34.5156 13.7344C35.625 13.7344 36.4453 14.2969 36.7969 15.2812H36.8281C37.2812 14.3125 38.2344 13.7344 39.375 13.7344C40.9844 13.7344 42.0234 14.7812 42.0234 16.3906V22H40.6641V16.7031C40.6641 15.5938 40.0469 14.9375 38.9766 14.9375C37.8984 14.9375 37.1406 15.7344 37.1406 16.8359V22H35.7812V16.5547C35.7812 15.5781 35.125 14.9375 34.1172 14.9375C33.0391 14.9375 32.2578 15.7812 32.2578 16.9062V22H30.8984ZM46.8984 16.1172C46.8984 14.7266 48.1406 13.7344 49.9297 13.7344C51.6094 13.7344 52.8438 14.7344 52.9062 16.1094H51.6094C51.5156 15.3281 50.8828 14.8438 49.8828 14.8438C48.8906 14.8438 48.2344 15.3359 48.2344 16.0469C48.2344 16.6094 48.6641 16.9844 49.5859 17.2188L50.8438 17.5234C52.4844 17.9375 53.0781 18.5312 53.0781 19.7266C53.0781 21.1406 51.7422 22.1406 49.8438 22.1406C48.0625 22.1406 46.8203 21.1719 46.6797 19.7344H48.0391C48.1875 20.5781 48.8281 21.0312 49.9297 21.0312C51.0312 21.0312 51.7109 20.5625 51.7109 19.8281C51.7109 19.25 51.375 18.9375 50.4609 18.6953L49.0312 18.3281C47.6016 17.9609 46.8984 17.2266 46.8984 16.1172ZM61.1641 13.875V22H59.875V20.6797H59.8438C59.3594 21.6172 58.5156 22.1406 57.2656 22.1406C55.4922 22.1406 54.4531 20.9922 54.4531 19.1484V13.875H55.8125V18.9062C55.8125 20.2266 56.4297 20.9375 57.6875 20.9375C59.0078 20.9375 59.8047 20.0312 59.8047 18.6484V13.875H61.1641ZM62.9297 22V13.875H64.2109V15.2031H64.2422C64.5078 14.3047 65.2578 13.7344 66.2109 13.7344C66.4453 13.7344 66.6484 13.7734 66.7578 13.7891V15.1094C66.6484 15.0703 66.3594 15.0312 66.0312 15.0312C64.9766 15.0312 64.2891 15.7891 64.2891 16.9375V22H62.9297ZM71.2188 22V10.7266H72.5781V22H71.2188ZM77.0938 20.9844C78.375 20.9844 79.3594 20.0859 79.3594 18.9141V18.25L77.1875 18.3828C76.0938 18.4531 75.4688 18.9375 75.4688 19.7031C75.4688 20.4766 76.1172 20.9844 77.0938 20.9844ZM76.7891 22.1406C75.1719 22.1406 74.0859 21.1641 74.0859 19.7031C74.0859 18.3125 75.1562 17.4375 77.0312 17.3281L79.3594 17.1953V16.5156C79.3594 15.5234 78.7031 14.9297 77.5781 14.9297C76.5312 14.9297 75.875 15.4219 75.7031 16.2188H74.3906C74.4844 14.8125 75.6875 13.7344 77.6094 13.7344C79.5156 13.7344 80.7188 14.7656 80.7188 16.3828V22H79.4297V20.6016H79.3984C78.9141 21.5312 77.8828 22.1406 76.7891 22.1406ZM90.5781 22.1875C87.4688 22.1875 85.5 19.9297 85.5 16.3594C85.5 12.8203 87.4922 10.5391 90.5781 10.5391C93.0312 10.5391 94.8984 12.0312 95.2578 14.2812H93.8359C93.4766 12.8047 92.1875 11.8359 90.5781 11.8359C88.375 11.8359 86.9453 13.6172 86.9453 16.3594C86.9453 19.125 88.3594 20.8906 90.5859 20.8906C92.2422 20.8906 93.4297 20.0938 93.8359 18.7188H95.2578C94.7422 20.9453 93.0703 22.1875 90.5781 22.1875ZM97.3828 25.0391C97.2188 25.0391 96.9453 25.0234 96.7969 24.9922V23.8516C96.9453 23.8828 97.1562 23.8906 97.3281 23.8906C98.0859 23.8906 98.5078 23.5234 98.8203 22.5781L99.0078 22.0078L96.0078 13.875H97.4609L99.7109 20.6406H99.7344L101.984 13.875H103.414L100.219 22.5703C99.5234 24.4688 98.8516 25.0391 97.3828 25.0391ZM108.531 22.1406C107.344 22.1406 106.414 21.5625 105.891 20.625H105.859V22H104.562V10.7266H105.922V15.2344H105.953C106.461 14.3047 107.406 13.7344 108.555 13.7344C110.602 13.7344 111.984 15.3906 111.984 17.9375C111.984 20.4922 110.609 22.1406 108.531 22.1406ZM108.266 14.9297C106.891 14.9297 105.914 16.1328 105.914 17.9375C105.914 19.75 106.891 20.9453 108.266 20.9453C109.703 20.9453 110.594 19.7969 110.594 17.9375C110.594 16.0938 109.703 14.9297 108.266 14.9297ZM116.625 14.9141C115.352 14.9141 114.461 15.8906 114.375 17.2422H118.789C118.758 15.8828 117.906 14.9141 116.625 14.9141ZM118.758 19.6719H120.094C119.859 21.0938 118.484 22.1406 116.711 22.1406C114.383 22.1406 112.969 20.5234 112.969 17.9688C112.969 15.4453 114.406 13.7344 116.648 13.7344C118.844 13.7344 120.195 15.3281 120.195 17.7891V18.3047H114.367V18.3828C114.367 19.9375 115.281 20.9609 116.742 20.9609C117.773 20.9609 118.531 20.4375 118.758 19.6719ZM121.57 22V13.875H122.852V15.2031H122.883C123.148 14.3047 123.898 13.7344 124.852 13.7344C125.086 13.7344 125.289 13.7734 125.398 13.7891V15.1094C125.289 15.0703 125 15.0312 124.672 15.0312C123.617 15.0312 122.93 15.7891 122.93 16.9375V22H121.57ZM126.367 16.1172C126.367 14.7266 127.609 13.7344 129.398 13.7344C131.078 13.7344 132.312 14.7344 132.375 16.1094H131.078C130.984 15.3281 130.352 14.8438 129.352 14.8438C128.359 14.8438 127.703 15.3359 127.703 16.0469C127.703 16.6094 128.133 16.9844 129.055 17.2188L130.312 17.5234C131.953 17.9375 132.547 18.5312 132.547 19.7266C132.547 21.1406 131.211 22.1406 129.312 22.1406C127.531 22.1406 126.289 21.1719 126.148 19.7344H127.508C127.656 20.5781 128.297 21.0312 129.398 21.0312C130.5 21.0312 131.18 20.5625 131.18 19.8281C131.18 19.25 130.844 18.9375 129.93 18.6953L128.5 18.3281C127.07 17.9609 126.367 17.2266 126.367 16.1172ZM137.219 14.9141C135.945 14.9141 135.055 15.8906 134.969 17.2422H139.383C139.352 15.8828 138.5 14.9141 137.219 14.9141ZM139.352 19.6719H140.688C140.453 21.0938 139.078 22.1406 137.305 22.1406C134.977 22.1406 133.562 20.5234 133.562 17.9688C133.562 15.4453 135 13.7344 137.242 13.7344C139.438 13.7344 140.789 15.3281 140.789 17.7891V18.3047H134.961V18.3828C134.961 19.9375 135.875 20.9609 137.336 20.9609C138.367 20.9609 139.125 20.4375 139.352 19.6719ZM137.859 12.7031H136.672L138.312 10.3594H139.781L137.859 12.7031ZM148.914 16.5391H147.586C147.391 15.6562 146.703 14.9297 145.508 14.9297C144.102 14.9297 143.148 16.0938 143.148 17.9375C143.148 19.8281 144.117 20.9453 145.523 20.9453C146.633 20.9453 147.359 20.3594 147.594 19.3828H148.93C148.719 21 147.359 22.1406 145.516 22.1406C143.266 22.1406 141.766 20.5547 141.766 17.9375C141.766 15.375 143.258 13.7344 145.5 13.7344C147.531 13.7344 148.742 15.0781 148.914 16.5391ZM156.852 13.875V22H155.562V20.6797H155.531C155.047 21.6172 154.203 22.1406 152.953 22.1406C151.18 22.1406 150.141 20.9922 150.141 19.1484V13.875H151.5V18.9062C151.5 20.2266 152.117 20.9375 153.375 20.9375C154.695 20.9375 155.492 20.0312 155.492 18.6484V13.875H156.852ZM158.617 22V13.875H159.898V15.2031H159.93C160.195 14.3047 160.945 13.7344 161.898 13.7344C162.133 13.7344 162.336 13.7734 162.445 13.7891V15.1094C162.336 15.0703 162.047 15.0312 161.719 15.0312C160.664 15.0312 159.977 15.7891 159.977 16.9375V22H158.617ZM163.625 22V13.875H164.984V22H163.625ZM164.305 12.5078C163.844 12.5078 163.461 12.125 163.461 11.6641C163.461 11.1953 163.844 10.8203 164.305 10.8203C164.773 10.8203 165.156 11.1953 165.156 11.6641C165.156 12.125 164.773 12.5078 164.305 12.5078ZM167.258 11.9141H168.617V13.875H170.195V14.9922H168.617V19.8203C168.617 20.5625 168.93 20.8984 169.625 20.8984C169.781 20.8984 170.094 20.875 170.188 20.8594V22C170.023 22.0391 169.648 22.0625 169.328 22.0625C167.836 22.0625 167.258 21.4531 167.258 19.8906V14.9922H166.047V13.875H167.258V11.9141ZM174.672 14.9141C173.398 14.9141 172.508 15.8906 172.422 17.2422H176.836C176.805 15.8828 175.953 14.9141 174.672 14.9141ZM176.805 19.6719H178.141C177.906 21.0938 176.531 22.1406 174.758 22.1406C172.43 22.1406 171.016 20.5234 171.016 17.9688C171.016 15.4453 172.453 13.7344 174.695 13.7344C176.891 13.7344 178.242 15.3281 178.242 17.7891V18.3047H172.414V18.3828C172.414 19.9375 173.328 20.9609 174.789 20.9609C175.82 20.9609 176.578 20.4375 176.805 19.6719ZM175.312 12.7031H174.125L175.766 10.3594H177.234L175.312 12.7031ZM186.156 14.9141C184.883 14.9141 183.992 15.8906 183.906 17.2422H188.32C188.289 15.8828 187.438 14.9141 186.156 14.9141ZM188.289 19.6719H189.625C189.391 21.0938 188.016 22.1406 186.242 22.1406C183.914 22.1406 182.5 20.5234 182.5 17.9688C182.5 15.4453 183.938 13.7344 186.18 13.7344C188.375 13.7344 189.727 15.3281 189.727 17.7891V18.3047H183.898V18.3828C183.898 19.9375 184.812 20.9609 186.273 20.9609C187.305 20.9609 188.062 20.4375 188.289 19.6719ZM191.539 11.9141H192.898V13.875H194.477V14.9922H192.898V19.8203C192.898 20.5625 193.211 20.8984 193.906 20.8984C194.062 20.8984 194.375 20.875 194.469 20.8594V22C194.305 22.0391 193.93 22.0625 193.609 22.0625C192.117 22.0625 191.539 21.4531 191.539 19.8906V14.9922H190.328V13.875H191.539V11.9141ZM199.281 22V10.7266H200.641V22H199.281ZM205.156 20.9844C206.438 20.9844 207.422 20.0859 207.422 18.9141V18.25L205.25 18.3828C204.156 18.4531 203.531 18.9375 203.531 19.7031C203.531 20.4766 204.18 20.9844 205.156 20.9844ZM204.852 22.1406C203.234 22.1406 202.148 21.1641 202.148 19.7031C202.148 18.3125 203.219 17.4375 205.094 17.3281L207.422 17.1953V16.5156C207.422 15.5234 206.766 14.9297 205.641 14.9297C204.594 14.9297 203.938 15.4219 203.766 16.2188H202.453C202.547 14.8125 203.75 13.7344 205.672 13.7344C207.578 13.7344 208.781 14.7656 208.781 16.3828V22H207.492V20.6016H207.461C206.977 21.5312 205.945 22.1406 204.852 22.1406ZM218.648 22H217.258L213.102 10.7266H214.578L217.93 20.2891H217.977L221.328 10.7266H222.805L218.648 22ZM223.719 22V13.875H225.078V22H223.719ZM224.398 12.5078C223.938 12.5078 223.555 12.125 223.555 11.6641C223.555 11.1953 223.938 10.8203 224.398 10.8203C224.867 10.8203 225.25 11.1953 225.25 11.6641C225.25 12.125 224.867 12.5078 224.398 12.5078ZM230.172 14.9141C228.898 14.9141 228.008 15.8906 227.922 17.2422H232.336C232.305 15.8828 231.453 14.9141 230.172 14.9141ZM232.305 19.6719H233.641C233.406 21.0938 232.031 22.1406 230.258 22.1406C227.93 22.1406 226.516 20.5234 226.516 17.9688C226.516 15.4453 227.953 13.7344 230.195 13.7344C232.391 13.7344 233.742 15.3281 233.742 17.7891V18.3047H227.914V18.3828C227.914 19.9375 228.828 20.9609 230.289 20.9609C231.32 20.9609 232.078 20.4375 232.305 19.6719ZM238.609 10.7266H242.633C244.75 10.7266 246.242 12.2109 246.242 14.3438C246.242 16.4844 244.734 17.9766 242.617 17.9766H240.016V22H238.609V10.7266ZM240.016 11.9766V16.7266H242.266C243.875 16.7266 244.797 15.8438 244.797 14.3438C244.797 12.8516 243.883 11.9766 242.266 11.9766H240.016ZM247.648 22V13.875H248.93V15.2031H248.961C249.227 14.3047 249.977 13.7344 250.93 13.7344C251.164 13.7344 251.367 13.7734 251.477 13.7891V15.1094C251.367 15.0703 251.078 15.0312 250.75 15.0312C249.695 15.0312 249.008 15.7891 249.008 16.9375V22H247.648ZM252.656 22V13.875H254.016V22H252.656ZM253.336 12.5078C252.875 12.5078 252.492 12.125 252.492 11.6641C252.492 11.1953 252.875 10.8203 253.336 10.8203C253.805 10.8203 254.188 11.1953 254.188 11.6641C254.188 12.125 253.805 12.5078 253.336 12.5078ZM262.516 13.875L259.531 22H258.141L255.148 13.875H256.578L258.82 20.5547H258.852L261.102 13.875H262.516ZM266.609 14.9141C265.336 14.9141 264.445 15.8906 264.359 17.2422H268.773C268.742 15.8828 267.891 14.9141 266.609 14.9141ZM268.742 19.6719H270.078C269.844 21.0938 268.469 22.1406 266.695 22.1406C264.367 22.1406 262.953 20.5234 262.953 17.9688C262.953 15.4453 264.391 13.7344 266.633 13.7344C268.828 13.7344 270.18 15.3281 270.18 17.7891V18.3047H264.352V18.3828C264.352 19.9375 265.266 20.9609 266.727 20.9609C267.758 20.9609 268.516 20.4375 268.742 19.6719ZM267.25 12.7031H266.062L267.703 10.3594H269.172L267.25 12.7031ZM274.812 14.9141C273.539 14.9141 272.648 15.8906 272.562 17.2422H276.977C276.945 15.8828 276.094 14.9141 274.812 14.9141ZM276.945 19.6719H278.281C278.047 21.0938 276.672 22.1406 274.898 22.1406C272.57 22.1406 271.156 20.5234 271.156 17.9688C271.156 15.4453 272.594 13.7344 274.836 13.7344C277.031 13.7344 278.383 15.3281 278.383 17.7891V18.3047H272.555V18.3828C272.555 19.9375 273.469 20.9609 274.93 20.9609C275.961 20.9609 276.719 20.4375 276.945 19.6719ZM286.297 14.9141C285.023 14.9141 284.133 15.8906 284.047 17.2422H288.461C288.43 15.8828 287.578 14.9141 286.297 14.9141ZM288.43 19.6719H289.766C289.531 21.0938 288.156 22.1406 286.383 22.1406C284.055 22.1406 282.641 20.5234 282.641 17.9688C282.641 15.4453 284.078 13.7344 286.32 13.7344C288.516 13.7344 289.867 15.3281 289.867 17.7891V18.3047H284.039V18.3828C284.039 19.9375 284.953 20.9609 286.414 20.9609C287.445 20.9609 288.203 20.4375 288.43 19.6719ZM291.242 22V13.875H292.523V15.1719H292.555C293.008 14.2969 293.875 13.7344 295.133 13.7344C296.914 13.7344 297.945 14.8828 297.945 16.7266V22H296.586V16.9688C296.586 15.6562 295.969 14.9375 294.719 14.9375C293.438 14.9375 292.602 15.8438 292.602 17.2188V22H291.242ZM310.016 20.7344V22H303.172V10.7266H304.578V20.7344H310.016ZM311.422 22V13.875H312.781V22H311.422ZM312.102 12.5078C311.641 12.5078 311.258 12.125 311.258 11.6641C311.258 11.1953 311.641 10.8203 312.102 10.8203C312.57 10.8203 312.953 11.1953 312.953 11.6641C312.953 12.125 312.57 12.5078 312.102 12.5078ZM317.922 20.8672C319.336 20.8672 320.281 19.6953 320.281 17.9062C320.281 16.1172 319.336 14.9297 317.922 14.9297C316.523 14.9297 315.609 16.0859 315.609 17.9062C315.609 19.7266 316.523 20.8672 317.922 20.8672ZM317.969 25.0625C316.18 25.0625 314.766 24.0547 314.539 22.6719H315.938C316.203 23.4141 317.008 23.9062 318.023 23.9062C319.43 23.9062 320.281 23.0938 320.281 21.8828V20.6016H320.25C319.75 21.4844 318.789 22.0625 317.648 22.0625C315.578 22.0625 314.219 20.4297 314.219 17.9062C314.219 15.3594 315.578 13.7344 317.68 13.7344C318.828 13.7344 319.781 14.2969 320.32 15.2422H320.344V13.875H321.641V21.8359C321.641 23.7734 320.211 25.0625 317.969 25.0625ZM323.414 22V13.875H324.695V15.1719H324.727C325.18 14.2969 326.047 13.7344 327.305 13.7344C329.086 13.7344 330.117 14.8828 330.117 16.7266V22H328.758V16.9688C328.758 15.6562 328.141 14.9375 326.891 14.9375C325.609 14.9375 324.773 15.8438 324.773 17.2188V22H323.414ZM335.109 14.9141C333.836 14.9141 332.945 15.8906 332.859 17.2422H337.273C337.242 15.8828 336.391 14.9141 335.109 14.9141ZM337.242 19.6719H338.578C338.344 21.0938 336.969 22.1406 335.195 22.1406C332.867 22.1406 331.453 20.5234 331.453 17.9688C331.453 15.4453 332.891 13.7344 335.133 13.7344C337.328 13.7344 338.68 15.3281 338.68 17.7891V18.3047H332.852V18.3828C332.852 19.9375 333.766 20.9609 335.227 20.9609C336.258 20.9609 337.016 20.4375 337.242 19.6719Z" fill="black"/>
<path d="M388 0V33" stroke="#D9D9D7"/>
<path d="M417.844 27.3972H433.968C436.497 27.3972 437.803 26.0919 437.803 23.5914V9.32921C437.803 6.82656 436.497 5.52344 433.968 5.52344H417.844C415.315 5.52344 414 6.81695 414 9.32921V23.5914C414 26.1016 415.315 27.3972 417.844 27.3972ZM417.812 25.1013C416.828 25.1013 416.296 24.5969 416.296 23.5661V12.7389C416.296 11.7177 416.828 11.2059 417.812 11.2059H433.981C434.965 11.2059 435.507 11.7177 435.507 12.7389V23.5661C435.507 24.5969 434.965 25.1013 433.981 25.1013H417.812ZM423.652 15.2673H424.343C424.759 15.2673 424.895 15.1438 424.895 14.7273V14.0359C424.895 13.6194 424.759 13.4863 424.343 13.4863H423.652C423.235 13.4863 423.09 13.6194 423.09 14.0359V14.7273C423.09 15.1438 423.235 15.2673 423.652 15.2673ZM427.481 15.2673H428.172C428.589 15.2673 428.736 15.1438 428.736 14.7273V14.0359C428.736 13.6194 428.589 13.4863 428.172 13.4863H427.481C427.064 13.4863 426.92 13.6194 426.92 14.0359V14.7273C426.92 15.1438 427.064 15.2673 427.481 15.2673ZM431.313 15.2673H432.004C432.42 15.2673 432.565 15.1438 432.565 14.7273V14.0359C432.565 13.6194 432.42 13.4863 432.004 13.4863H431.313C430.896 13.4863 430.761 13.6194 430.761 14.0359V14.7273C430.761 15.1438 430.896 15.2673 431.313 15.2673ZM419.822 19.0382H420.502C420.93 19.0382 421.065 18.9147 421.065 18.4982V17.8068C421.065 17.3903 420.93 17.2668 420.502 17.2668H419.822C419.394 17.2668 419.259 17.3903 419.259 17.8068V18.4982C419.259 18.9147 419.394 19.0382 419.822 19.0382ZM423.652 19.0382H424.343C424.759 19.0382 424.895 18.9147 424.895 18.4982V17.8068C424.895 17.3903 424.759 17.2668 424.343 17.2668H423.652C423.235 17.2668 423.09 17.3903 423.09 17.8068V18.4982C423.09 18.9147 423.235 19.0382 423.652 19.0382ZM427.481 19.0382H428.172C428.589 19.0382 428.736 18.9147 428.736 18.4982V17.8068C428.736 17.3903 428.589 17.2668 428.172 17.2668H427.481C427.064 17.2668 426.92 17.3903 426.92 17.8068V18.4982C426.92 18.9147 427.064 19.0382 427.481 19.0382ZM431.313 19.0382H432.004C432.42 19.0382 432.565 18.9147 432.565 18.4982V17.8068C432.565 17.3903 432.42 17.2668 432.004 17.2668H431.313C430.896 17.2668 430.761 17.3903 430.761 17.8068V18.4982C430.761 18.9147 430.896 19.0382 431.313 19.0382ZM419.822 22.8187H420.502C420.93 22.8187 421.065 22.6877 421.065 22.2691V21.5798C421.065 21.1612 420.93 21.0398 420.502 21.0398H419.822C419.394 21.0398 419.259 21.1612 419.259 21.5798V22.2691C419.259 22.6877 419.394 22.8187 419.822 22.8187ZM423.652 22.8187H424.343C424.759 22.8187 424.895 22.6877 424.895 22.2691V21.5798C424.895 21.1612 424.759 21.0398 424.343 21.0398H423.652C423.235 21.0398 423.09 21.1612 423.09 21.5798V22.2691C423.09 22.6877 423.235 22.8187 423.652 22.8187ZM427.481 22.8187H428.172C428.589 22.8187 428.736 22.6877 428.736 22.2691V21.5798C428.736 21.1612 428.589 21.0398 428.172 21.0398H427.481C427.064 21.0398 426.92 21.1612 426.92 21.5798V22.2691C426.92 22.6877 427.064 22.8187 427.481 22.8187Z" fill="black"/>
<path d="M449.094 10.7266H452.883C456.227 10.7266 458.203 12.8125 458.203 16.3594C458.203 19.9141 456.234 22 452.883 22H449.094V10.7266ZM450.5 11.9922V20.7344H452.789C455.344 20.7344 456.766 19.1719 456.766 16.375C456.766 13.5547 455.352 11.9922 452.789 11.9922H450.5ZM462.422 20.9844C463.703 20.9844 464.688 20.0859 464.688 18.9141V18.25L462.516 18.3828C461.422 18.4531 460.797 18.9375 460.797 19.7031C460.797 20.4766 461.445 20.9844 462.422 20.9844ZM462.117 22.1406C460.5 22.1406 459.414 21.1641 459.414 19.7031C459.414 18.3125 460.484 17.4375 462.359 17.3281L464.688 17.1953V16.5156C464.688 15.5234 464.031 14.9297 462.906 14.9297C461.859 14.9297 461.203 15.4219 461.031 16.2188H459.719C459.812 14.8125 461.016 13.7344 462.938 13.7344C464.844 13.7344 466.047 14.7656 466.047 16.3828V22H464.758V20.6016H464.727C464.242 21.5312 463.211 22.1406 462.117 22.1406ZM468.211 11.9141H469.57V13.875H471.148V14.9922H469.57V19.8203C469.57 20.5625 469.883 20.8984 470.578 20.8984C470.734 20.8984 471.047 20.875 471.141 20.8594V22C470.977 22.0391 470.602 22.0625 470.281 22.0625C468.789 22.0625 468.211 21.4531 468.211 19.8906V14.9922H467V13.875H468.211V11.9141ZM475.625 14.9141C474.352 14.9141 473.461 15.8906 473.375 17.2422H477.789C477.758 15.8828 476.906 14.9141 475.625 14.9141ZM477.758 19.6719H479.094C478.859 21.0938 477.484 22.1406 475.711 22.1406C473.383 22.1406 471.969 20.5234 471.969 17.9688C471.969 15.4453 473.406 13.7344 475.648 13.7344C477.844 13.7344 479.195 15.3281 479.195 17.7891V18.3047H473.367V18.3828C473.367 19.9375 474.281 20.9609 475.742 20.9609C476.773 20.9609 477.531 20.4375 477.758 19.6719Z" fill="black"/>
<path d="M528 0V33" stroke="#D9D9D7"/>
<path d="M556.159 14.5545C554.305 15.4058 554.787 17.9344 556.81 17.944L565.286 17.9729C565.414 17.9729 565.43 17.9827 565.43 18.1191L565.449 26.5369C565.459 28.6163 568.018 29.0014 568.901 27.0786L577.533 8.42584C578.453 6.41515 576.901 4.97375 574.9 5.90258L556.159 14.5545ZM559.054 15.7299C559.001 15.7299 558.987 15.683 559.052 15.6554L574.888 8.41903C574.972 8.38388 575.016 8.40521 574.974 8.50739L567.7 24.3315C567.684 24.3826 567.637 24.3688 567.637 24.3177L567.689 16.7961C567.691 16.0737 567.303 15.683 566.571 15.6851L559.054 15.7299Z" fill="black"/>
<path d="M588.953 22V10.7266H590.312V22H588.953ZM595.516 22.1406C593.266 22.1406 591.75 20.5234 591.75 17.9375C591.75 15.3438 593.266 13.7344 595.516 13.7344C597.758 13.7344 599.273 15.3438 599.273 17.9375C599.273 20.5234 597.758 22.1406 595.516 22.1406ZM595.516 20.9453C596.953 20.9453 597.891 19.8516 597.891 17.9375C597.891 16.0234 596.953 14.9297 595.516 14.9297C594.078 14.9297 593.133 16.0234 593.133 17.9375C593.133 19.8516 594.078 20.9453 595.516 20.9453ZM607.398 16.5391H606.07C605.875 15.6562 605.188 14.9297 603.992 14.9297C602.586 14.9297 601.633 16.0938 601.633 17.9375C601.633 19.8281 602.602 20.9453 604.008 20.9453C605.117 20.9453 605.844 20.3594 606.078 19.3828H607.414C607.203 21 605.844 22.1406 604 22.1406C601.75 22.1406 600.25 20.5547 600.25 17.9375C600.25 15.375 601.742 13.7344 603.984 13.7344C606.016 13.7344 607.227 15.0781 607.398 16.5391ZM611.344 20.9844C612.625 20.9844 613.609 20.0859 613.609 18.9141V18.25L611.438 18.3828C610.344 18.4531 609.719 18.9375 609.719 19.7031C609.719 20.4766 610.367 20.9844 611.344 20.9844ZM611.039 22.1406C609.422 22.1406 608.336 21.1641 608.336 19.7031C608.336 18.3125 609.406 17.4375 611.281 17.3281L613.609 17.1953V16.5156C613.609 15.5234 612.953 14.9297 611.828 14.9297C610.781 14.9297 610.125 15.4219 609.953 16.2188H608.641C608.734 14.8125 609.938 13.7344 611.859 13.7344C613.766 13.7344 614.969 14.7656 614.969 16.3828V22H613.68V20.6016H613.648C613.164 21.5312 612.133 22.1406 611.039 22.1406ZM616.766 22V10.7266H618.125V22H616.766ZM620.031 22V13.875H621.391V22H620.031ZM620.711 12.5078C620.25 12.5078 619.867 12.125 619.867 11.6641C619.867 11.1953 620.25 10.8203 620.711 10.8203C621.18 10.8203 621.562 11.1953 621.562 11.6641C621.562 12.125 621.18 12.5078 620.711 12.5078ZM623.086 16.1172C623.086 14.7266 624.328 13.7344 626.117 13.7344C627.797 13.7344 629.031 14.7344 629.094 16.1094H627.797C627.703 15.3281 627.07 14.8438 626.07 14.8438C625.078 14.8438 624.422 15.3359 624.422 16.0469C624.422 16.6094 624.852 16.9844 625.773 17.2188L627.031 17.5234C628.672 17.9375 629.266 18.5312 629.266 19.7266C629.266 21.1406 627.93 22.1406 626.031 22.1406C624.25 22.1406 623.008 21.1719 622.867 19.7344H624.227C624.375 20.5781 625.016 21.0312 626.117 21.0312C627.219 21.0312 627.898 20.5625 627.898 19.8281C627.898 19.25 627.562 18.9375 626.648 18.6953L625.219 18.3281C623.789 17.9609 623.086 17.2266 623.086 16.1172ZM633.359 20.9844C634.641 20.9844 635.625 20.0859 635.625 18.9141V18.25L633.453 18.3828C632.359 18.4531 631.734 18.9375 631.734 19.7031C631.734 20.4766 632.383 20.9844 633.359 20.9844ZM633.055 22.1406C631.438 22.1406 630.352 21.1641 630.352 19.7031C630.352 18.3125 631.422 17.4375 633.297 17.3281L635.625 17.1953V16.5156C635.625 15.5234 634.969 14.9297 633.844 14.9297C632.797 14.9297 632.141 15.4219 631.969 16.2188H630.656C630.75 14.8125 631.953 13.7344 633.875 13.7344C635.781 13.7344 636.984 14.7656 636.984 16.3828V22H635.695V20.6016H635.664C635.18 21.5312 634.148 22.1406 633.055 22.1406ZM639.148 11.9141H640.508V13.875H642.086V14.9922H640.508V19.8203C640.508 20.5625 640.82 20.8984 641.516 20.8984C641.672 20.8984 641.984 20.875 642.078 20.8594V22C641.914 22.0391 641.539 22.0625 641.219 22.0625C639.727 22.0625 639.148 21.4531 639.148 19.8906V14.9922H637.938V13.875H639.148V11.9141ZM643.609 22V13.875H644.969V22H643.609ZM644.289 12.5078C643.828 12.5078 643.445 12.125 643.445 11.6641C643.445 11.1953 643.828 10.8203 644.289 10.8203C644.758 10.8203 645.141 11.1953 645.141 11.6641C645.141 12.125 644.758 12.5078 644.289 12.5078ZM650.172 22.1406C647.922 22.1406 646.406 20.5234 646.406 17.9375C646.406 15.3438 647.922 13.7344 650.172 13.7344C652.414 13.7344 653.93 15.3438 653.93 17.9375C653.93 20.5234 652.414 22.1406 650.172 22.1406ZM650.172 20.9453C651.609 20.9453 652.547 19.8516 652.547 17.9375C652.547 16.0234 651.609 14.9297 650.172 14.9297C648.734 14.9297 647.789 16.0234 647.789 17.9375C647.789 19.8516 648.734 20.9453 650.172 20.9453ZM655.305 22V13.875H656.586V15.1719H656.617C657.07 14.2969 657.938 13.7344 659.195 13.7344C660.977 13.7344 662.008 14.8828 662.008 16.7266V22H660.648V16.9688C660.648 15.6562 660.031 14.9375 658.781 14.9375C657.5 14.9375 656.664 15.8438 656.664 17.2188V22H655.305Z" fill="black"/>
<path d="M711 0V33" stroke="#D9D9D7"/>
<path d="M747.576 11.4019H750.243C751.573 11.4019 752.356 10.6076 752.356 9.23273V6.67125C752.356 5.2964 751.573 4.5 750.243 4.5H747.576C746.246 4.5 745.463 5.2964 745.463 6.67125V9.23273C745.463 10.6076 746.246 11.4019 747.576 11.4019ZM747.856 9.60234C747.463 9.60234 747.265 9.39234 747.265 8.97445V6.92742C747.265 6.52124 747.463 6.31124 747.856 6.31124H749.961C750.346 6.31124 750.554 6.52124 750.554 6.92742V8.97445C750.554 9.39234 750.346 9.60234 749.961 9.60234H747.856ZM756.051 11.4019H758.708C760.038 11.4019 760.83 10.6076 760.83 9.23273V6.67125C760.83 5.2964 760.038 4.5 758.708 4.5H756.051C754.721 4.5 753.929 5.2964 753.929 6.67125V9.23273C753.929 10.6076 754.721 11.4019 756.051 11.4019ZM756.33 9.60234C755.938 9.60234 755.73 9.39234 755.73 8.97445V6.92742C755.73 6.52124 755.938 6.31124 756.33 6.31124H758.427C758.811 6.31124 759.019 6.52124 759.019 6.92742V8.97445C759.019 9.39234 758.811 9.60234 758.427 9.60234H756.33ZM739.122 19.6265H741.78C743.11 19.6265 743.902 18.8419 743.902 17.4649V14.8959C743.902 13.519 743.11 12.7247 741.78 12.7247H739.122C737.792 12.7247 737 13.519 737 14.8959V17.4649C737 18.8419 737.792 19.6265 739.122 19.6265ZM739.402 17.8249C739.01 17.8249 738.811 17.6149 738.811 17.197V15.1425C738.811 14.7363 739.01 14.5263 739.402 14.5263H741.498C741.883 14.5263 742.1 14.7363 742.1 15.1425V17.197C742.1 17.6149 741.883 17.8249 741.498 17.8249H739.402ZM747.576 19.6265H750.243C751.573 19.6265 752.356 18.8419 752.356 17.4649V14.8959C752.356 13.519 751.573 12.7247 750.243 12.7247H747.576C746.246 12.7247 745.463 13.519 745.463 14.8959V17.4649C745.463 18.8419 746.246 19.6265 747.576 19.6265ZM747.856 17.8249C747.463 17.8249 747.265 17.6149 747.265 17.197V15.1425C747.265 14.7363 747.463 14.5263 747.856 14.5263H749.961C750.346 14.5263 750.554 14.7363 750.554 15.1425V17.197C750.554 17.6149 750.346 17.8249 749.961 17.8249H747.856ZM756.051 19.6265H758.708C760.038 19.6265 760.83 18.8419 760.83 17.4649V14.8959C760.83 13.519 760.038 12.7247 758.708 12.7247H756.051C754.721 12.7247 753.929 13.519 753.929 14.8959V17.4649C753.929 18.8419 754.721 19.6265 756.051 19.6265ZM756.33 17.8249C755.938 17.8249 755.73 17.6149 755.73 17.197V15.1425C755.73 14.7363 755.938 14.5263 756.33 14.5263H758.427C758.811 14.5263 759.019 14.7363 759.019 15.1425V17.197C759.019 17.6149 758.811 17.8249 758.427 17.8249H756.33ZM739.122 27.8512H741.78C743.11 27.8512 743.902 27.0569 743.902 25.68V23.1206C743.902 21.7436 743.11 20.9494 741.78 20.9494H739.122C737.792 20.9494 737 21.7436 737 23.1206V25.68C737 27.0569 737.792 27.8512 739.122 27.8512ZM739.402 26.04C739.01 26.04 738.811 25.83 738.811 25.4217V23.3768C738.811 22.961 739.01 22.751 739.402 22.751H741.498C741.883 22.751 742.1 22.961 742.1 23.3768V25.4217C742.1 25.83 741.883 26.04 741.498 26.04H739.402ZM747.576 27.8512H750.243C751.573 27.8512 752.356 27.0569 752.356 25.68V23.1206C752.356 21.7436 751.573 20.9494 750.243 20.9494H747.576C746.246 20.9494 745.463 21.7436 745.463 23.1206V25.68C745.463 27.0569 746.246 27.8512 747.576 27.8512ZM747.856 26.04C747.463 26.04 747.265 25.83 747.265 25.4217V23.3768C747.265 22.961 747.463 22.751 747.856 22.751H749.961C750.346 22.751 750.554 22.961 750.554 23.3768V25.4217C750.554 25.83 750.346 26.04 749.961 26.04H747.856ZM756.051 27.8512H758.708C760.038 27.8512 760.83 27.0569 760.83 25.68V23.1206C760.83 21.7436 760.038 20.9494 758.708 20.9494H756.051C754.721 20.9494 753.929 21.7436 753.929 23.1206V25.68C753.929 27.0569 754.721 27.8512 756.051 27.8512ZM756.33 26.04C755.938 26.04 755.73 25.83 755.73 25.4217V23.3768C755.73 22.961 755.938 22.751 756.33 22.751H758.427C758.811 22.751 759.019 22.961 759.019 23.3768V25.4217C759.019 25.83 758.811 26.04 758.427 26.04H756.33Z" fill="black"/>
<path d="M741.78 10.4019H739.122C738.657 10.4019 738.409 10.2671 738.275 10.1317C738.14 9.9942 738 9.73016 738 9.23273V6.67125C738 6.17377 738.14 5.90887 738.276 5.77074C738.409 5.63485 738.658 5.5 739.122 5.5H741.78C742.244 5.5 742.493 5.63485 742.626 5.77074C742.762 5.90887 742.902 6.17377 742.902 6.67125V9.23273C742.902 9.73016 742.762 9.9942 742.627 10.1317C742.493 10.2671 742.245 10.4019 741.78 10.4019Z" stroke="black" stroke-width="2"/>
<path d="M776.352 22H774.945V11.9922H771.391V10.7266H779.906V11.9922H776.352V22ZM779.977 25.0391C779.812 25.0391 779.539 25.0234 779.391 24.9922V23.8516C779.539 23.8828 779.75 23.8906 779.922 23.8906C780.68 23.8906 781.102 23.5234 781.414 22.5781L781.602 22.0078L778.602 13.875H780.055L782.305 20.6406H782.328L784.578 13.875H786.008L782.812 22.5703C782.117 24.4688 781.445 25.0391 779.977 25.0391ZM791.031 13.7344C793.102 13.7344 794.508 15.3906 794.508 17.9375C794.508 20.4844 793.109 22.1406 791.062 22.1406C789.898 22.1406 788.961 21.5703 788.477 20.6797H788.445V24.7109H787.086V13.875H788.375V15.25H788.406C788.906 14.3359 789.852 13.7344 791.031 13.7344ZM790.766 20.9453C792.211 20.9453 793.117 19.7812 793.117 17.9375C793.117 16.1016 792.211 14.9297 790.766 14.9297C789.375 14.9297 788.438 16.1328 788.438 17.9375C788.438 19.75 789.375 20.9453 790.766 20.9453ZM799.141 14.9141C797.867 14.9141 796.977 15.8906 796.891 17.2422H801.305C801.273 15.8828 800.422 14.9141 799.141 14.9141ZM801.273 19.6719H802.609C802.375 21.0938 801 22.1406 799.227 22.1406C796.898 22.1406 795.484 20.5234 795.484 17.9688C795.484 15.4453 796.922 13.7344 799.164 13.7344C801.359 13.7344 802.711 15.3281 802.711 17.7891V18.3047H796.883V18.3828C796.883 19.9375 797.797 20.9609 799.258 20.9609C800.289 20.9609 801.047 20.4375 801.273 19.6719ZM810.445 22.1406C808.375 22.1406 806.969 20.4844 806.969 17.9375C806.969 15.3906 808.367 13.7344 810.414 13.7344C811.578 13.7344 812.516 14.3047 813 15.1953H813.031V10.7266H814.391V22H813.094V20.625H813.07C812.547 21.5625 811.617 22.1406 810.445 22.1406ZM810.703 14.9297C809.266 14.9297 808.359 16.1016 808.359 17.9375C808.359 19.7812 809.266 20.9453 810.703 20.9453C812.102 20.9453 813.039 19.7578 813.039 17.9375C813.039 16.125 812.102 14.9297 810.703 14.9297ZM817.477 14.7031H816.344L817.102 10.7266H818.547L817.477 14.7031ZM822.359 14.9141C821.086 14.9141 820.195 15.8906 820.109 17.2422H824.523C824.492 15.8828 823.641 14.9141 822.359 14.9141ZM824.492 19.6719H825.828C825.594 21.0938 824.219 22.1406 822.445 22.1406C820.117 22.1406 818.703 20.5234 818.703 17.9688C818.703 15.4453 820.141 13.7344 822.383 13.7344C824.578 13.7344 825.93 15.3281 825.93 17.7891V18.3047H820.102V18.3828C820.102 19.9375 821.016 20.9609 822.477 20.9609C823.508 20.9609 824.266 20.4375 824.492 19.6719ZM823 12.7031H821.812L823.453 10.3594H824.922L823 12.7031ZM833.969 13.875L830.984 22H829.594L826.602 13.875H828.031L830.273 20.5547H830.305L832.555 13.875H833.969ZM838.062 14.9141C836.789 14.9141 835.898 15.8906 835.812 17.2422H840.227C840.195 15.8828 839.344 14.9141 838.062 14.9141ZM840.195 19.6719H841.531C841.297 21.0938 839.922 22.1406 838.148 22.1406C835.82 22.1406 834.406 20.5234 834.406 17.9688C834.406 15.4453 835.844 13.7344 838.086 13.7344C840.281 13.7344 841.633 15.3281 841.633 17.7891V18.3047H835.805V18.3828C835.805 19.9375 836.719 20.9609 838.18 20.9609C839.211 20.9609 839.969 20.4375 840.195 19.6719ZM838.703 12.7031H837.516L839.156 10.3594H840.625L838.703 12.7031ZM843.008 22V13.875H844.289V15.1719H844.32C844.773 14.2969 845.641 13.7344 846.898 13.7344C848.68 13.7344 849.711 14.8828 849.711 16.7266V22H848.352V16.9688C848.352 15.6562 847.734 14.9375 846.484 14.9375C845.203 14.9375 844.367 15.8438 844.367 17.2188V22H843.008ZM854.703 14.9141C853.43 14.9141 852.539 15.8906 852.453 17.2422H856.867C856.836 15.8828 855.984 14.9141 854.703 14.9141ZM856.836 19.6719H858.172C857.938 21.0938 856.562 22.1406 854.789 22.1406C852.461 22.1406 851.047 20.5234 851.047 17.9688C851.047 15.4453 852.484 13.7344 854.727 13.7344C856.922 13.7344 858.273 15.3281 858.273 17.7891V18.3047H852.445V18.3828C852.445 19.9375 853.359 20.9609 854.82 20.9609C855.852 20.9609 856.609 20.4375 856.836 19.6719ZM859.648 22V13.875H860.93V15.1719H860.961C861.344 14.3125 862.172 13.7344 863.266 13.7344C864.375 13.7344 865.195 14.2969 865.547 15.2812H865.578C866.031 14.3125 866.984 13.7344 868.125 13.7344C869.734 13.7344 870.773 14.7812 870.773 16.3906V22H869.414V16.7031C869.414 15.5938 868.797 14.9375 867.727 14.9375C866.648 14.9375 865.891 15.7344 865.891 16.8359V22H864.531V16.5547C864.531 15.5781 863.875 14.9375 862.867 14.9375C861.789 14.9375 861.008 15.7812 861.008 16.9062V22H859.648ZM875.766 14.9141C874.492 14.9141 873.602 15.8906 873.516 17.2422H877.93C877.898 15.8828 877.047 14.9141 875.766 14.9141ZM877.898 19.6719H879.234C879 21.0938 877.625 22.1406 875.852 22.1406C873.523 22.1406 872.109 20.5234 872.109 17.9688C872.109 15.4453 873.547 13.7344 875.789 13.7344C877.984 13.7344 879.336 15.3281 879.336 17.7891V18.3047H873.508V18.3828C873.508 19.9375 874.422 20.9609 875.883 20.9609C876.914 20.9609 877.672 20.4375 877.898 19.6719ZM880.711 22V13.875H881.992V15.1719H882.023C882.477 14.2969 883.344 13.7344 884.602 13.7344C886.383 13.7344 887.414 14.8828 887.414 16.7266V22H886.055V16.9688C886.055 15.6562 885.438 14.9375 884.188 14.9375C882.906 14.9375 882.07 15.8438 882.07 17.2188V22H880.711ZM889.586 11.9141H890.945V13.875H892.523V14.9922H890.945V19.8203C890.945 20.5625 891.258 20.8984 891.953 20.8984C892.109 20.8984 892.422 20.875 892.516 20.8594V22C892.352 22.0391 891.977 22.0625 891.656 22.0625C890.164 22.0625 889.586 21.4531 889.586 19.8906V14.9922H888.375V13.875H889.586V11.9141Z" fill="black"/>
</svg>
