<svg width="15" height="18" viewBox="0 0 15 18" fill="none" xmlns="http://www.w3.org/2000/svg">
<path d="M1.29655 17.5765C2.08428 17.5765 2.49021 17.2577 2.74451 16.4264L4.04951 12.7833H10.7421L12.0492 16.4264C12.3014 17.2577 12.7073 17.5765 13.4876 17.5765C14.309 17.5765 14.8383 17.0834 14.8383 16.3181C14.8383 16.0366 14.7926 15.7922 14.6777 15.4765L9.48957 1.46623C9.13567 0.483511 8.47169 0 7.4053 0C6.38766 0 5.71829 0.476011 5.37189 1.45662L0.156327 15.5367C0.047812 15.8377 0 16.0927 0 16.3425C0 17.1056 0.495229 17.5765 1.29655 17.5765ZM4.72076 10.6055L7.37225 2.99084H7.43928L10.0887 10.6055H4.72076Z" fill="black"/>
</svg>
