<svg width="237" height="29" viewBox="0 0 237 29" fill="none" xmlns="http://www.w3.org/2000/svg">
<path d="M15.0911 28.0278H10.4253L0.617545 0.547213H5.24526L12.7296 23.2287H12.8438L20.3472 0.547213H24.8988L15.0911 28.0278ZM31.6785 25.1141C34.5541 25.1141 36.8013 23.1335 36.8013 20.5245V18.9438L31.8689 19.2485C29.4122 19.4199 28.022 20.5054 28.022 22.2194C28.022 23.9714 29.4693 25.1141 31.6785 25.1141ZM30.5358 28.3706C26.6127 28.3706 23.8704 25.933 23.8704 22.3336C23.8704 18.8295 26.5556 16.6776 31.3166 16.4109L36.8013 16.0872V14.5446C36.8013 12.3165 35.2968 10.9834 32.783 10.9834C30.4025 10.9834 28.9171 12.126 28.5552 13.9162H24.6702C24.8988 10.2978 27.9839 7.63161 32.9354 7.63161C37.7916 7.63161 40.8958 10.2026 40.8958 14.2209V28.0278H36.9537V24.7332H36.8584C35.6968 26.9614 33.1639 28.3706 30.5358 28.3706ZM45.0474 28.0278V0.547213H49.1609V28.0278H45.0474ZM53.522 28.0278V7.99345H57.6355V28.0278H53.522ZM55.5788 5.06066C54.2647 5.06066 53.1983 4.01324 53.1983 2.71824C53.1983 1.4042 54.2647 0.356772 55.5788 0.356772C56.9119 0.356772 57.9783 1.4042 57.9783 2.71824C57.9783 4.01324 56.9119 5.06066 55.5788 5.06066ZM69.3667 28.3706C64.301 28.3706 60.9492 24.3333 60.9492 18.0106C60.9492 11.688 64.301 7.6697 69.3286 7.6697C72.2043 7.6697 74.4896 9.11705 75.6132 11.3262H75.6893V0.547213H79.8219V28.0278H75.8227V24.6189H75.7465C74.5657 26.9042 72.2804 28.3706 69.3667 28.3706ZM70.4522 11.1357C67.1957 11.1357 65.158 13.8019 65.158 18.0106C65.158 22.2384 67.1957 24.8856 70.4522 24.8856C73.6135 24.8856 75.7274 22.2003 75.7274 18.0106C75.7274 13.859 73.6135 11.1357 70.4522 11.1357ZM92.4291 10.9453C89.5534 10.9453 87.5348 13.1354 87.3253 16.1634H97.3425C97.2472 13.0973 95.3048 10.9453 92.4291 10.9453ZM97.3234 22.1432H101.227C100.656 25.7997 97.1901 28.4087 92.6005 28.4087C86.7159 28.4087 83.1546 24.4285 83.1546 18.1059C83.1546 11.8213 86.773 7.63161 92.4291 7.63161C97.99 7.63161 101.456 11.5547 101.456 17.6298V19.039H87.3062V19.2866C87.3062 22.7717 89.4011 25.076 92.6957 25.076C95.0381 25.076 96.7711 23.8953 97.3234 22.1432Z" fill="#237BFF"/>
<path d="M116.234 28.0278H111.968V4.22272H103.551V0.547213H124.633V4.22272H116.234V28.0278ZM131.317 28.4087C125.585 28.4087 121.814 24.4666 121.814 18.0106C121.814 11.5737 125.604 7.63161 131.317 7.63161C137.03 7.63161 140.82 11.5737 140.82 18.0106C140.82 24.4666 137.049 28.4087 131.317 28.4087ZM131.317 25.0189C134.555 25.0189 136.63 22.467 136.63 18.0106C136.63 13.5734 134.536 11.0215 131.317 11.0215C128.099 11.0215 126.004 13.5734 126.004 18.0106C126.004 22.467 128.099 25.0189 131.317 25.0189ZM144 28.0278V7.99345H147.924V11.3452H148.019C149.104 9.05992 151.237 7.65066 154.322 7.65066C158.741 7.65066 161.273 10.4692 161.273 15.0588V28.0278H157.141V15.8587C157.141 12.8497 155.732 11.1929 152.875 11.1929C149.98 11.1929 148.114 13.2496 148.114 16.3538V28.0278H144ZM165.749 0.547213H176.052C181.384 0.547213 185.098 4.22272 185.098 9.57411C185.098 14.9445 181.308 18.6391 175.918 18.6391H170.015V28.0278H165.749V0.547213ZM170.015 4.14655V15.0588H174.909C178.623 15.0588 180.737 13.0592 180.737 9.59315C180.737 6.12713 178.623 4.14655 174.928 4.14655H170.015ZM196.067 28.4087C190.335 28.4087 186.564 24.4666 186.564 18.0106C186.564 11.5737 190.354 7.63161 196.067 7.63161C201.78 7.63161 205.57 11.5737 205.57 18.0106C205.57 24.4666 201.799 28.4087 196.067 28.4087ZM196.067 25.0189C199.305 25.0189 201.38 22.467 201.38 18.0106C201.38 13.5734 199.285 11.0215 196.067 11.0215C192.849 11.0215 190.754 13.5734 190.754 18.0106C190.754 22.467 192.849 25.0189 196.067 25.0189ZM208.389 13.6686C208.389 10.0883 211.55 7.63161 216.235 7.63161C220.691 7.63161 223.814 10.1264 223.948 13.6876H220.082C219.891 11.8784 218.425 10.7548 216.12 10.7548C213.892 10.7548 212.407 11.8404 212.407 13.421C212.407 14.6589 213.397 15.4968 215.473 16.011L218.844 16.7918C222.881 17.7631 224.405 19.2866 224.405 22.2384C224.405 25.8949 220.996 28.4087 216.082 28.4087C211.34 28.4087 208.198 25.952 207.874 22.2765H211.95C212.274 24.2 213.759 25.2664 216.273 25.2664C218.749 25.2664 220.272 24.2381 220.272 22.6193C220.272 21.3434 219.51 20.6387 217.415 20.1055L213.835 19.2295C210.217 18.3534 208.389 16.4681 208.389 13.6686ZM228.804 3.25147H232.936V7.99345H236.745V11.25H232.936V22.2956C232.936 24.0286 233.698 24.8094 235.374 24.8094C235.793 24.8094 236.46 24.7713 236.726 24.7142V27.9707C236.269 28.085 235.355 28.1611 234.441 28.1611C230.384 28.1611 228.804 26.6186 228.804 22.7526V11.25H225.89V7.99345H228.804V3.25147Z" fill="black"/>
</svg>
